<?xml version="1.0" encoding="UTF-8"?>
<svg id="Ebene_1" data-name="Ebene 1" xmlns="http://www.w3.org/2000/svg" viewBox="0 0 271.8209 166.0577">
  <defs>
    <style>
      .cls-1 {
        fill: #201b15;
      }
    </style>
  </defs>
  <path class="cls-1" d="M212.1151,124.111c-.4584-.1554-.9659.0366-1.1329-.0535-.1588-.0858-.7583-1.3889-1.7545-1.8658-.6509-.3117-5.6332-1.538-6.8421-1.5422-.1708-.0006-.2847.1303-.2847.3274,0,.6433.17,6.8763.2402,9.3653.0094.3343.1103.9618.4162,1.3361,1.7369,2.1254,11.0793,3.5262,13.8973,3.1685,1.648-.2092,1.4548-2.2872,1.1688-3.5752-.2774-1.2495-4.5423-6.7652-5.7081-7.1606ZM207.086,128.4539c-.0658.0514-.3288.3409-.5242.1656.0574-.1506.4774-.6844.6148-.5675.0823.0701-.0154.3433-.0906.4019ZM205.8926,128.426c-.1854.1519-.7068.7331-.9702.4778.1616-.4458,2.1048-2.7552,2.4919-2.409.2318.2074-1.3097,1.7573-1.5216,1.9312ZM210.5811,132.2272c-.0339-.2525-1.3998-9.1858-1.3998-9.1858.7756-.0626.9399,1.6458,1.022,2.4672,0,0,.5914,5.4045.6571,6.193s-.2454.7781-.2792.5257ZM211.9131,128.2601c-.1323-.3252-.6598-3.706-.2391-3.6905.4153.0153.4759,3.242.2391,3.6905ZM213.9239,132.2739c-.3464-.4218.6227-1.7203,1.0436-1.7626.1124.8227-.5366,1.2547-1.0436,1.7626ZM215.2472,131.8179c-.0389.0377-.1532.207-.2918.1075-.0492-.0984.2374-.4496.3345-.3836.0581.0394.0018.2328-.0427.2761Z"/>
  <path class="cls-1" d="M89.0108,112.7198c-.3033-1.1182.5532-2.5345-1.5733-2.3027-1.583.1725-.5322.935-.5495,1.5225-.0108.3658-.3935.5974-.4462.8575-.4715,2.326-1.4446,4.2717-.8506,6.6048l-6.0979,31.3509,1.7826-37.4158.0355-.8039c-.0027.7628,1.2759,4.7485,2.4473,4.012,1.076-.6764-.4318-4.9058-1.0526-5.7161-.0552-.072-.8861-.8502-1.5021-1.039-.3219-.0987-.3094-.4161-.5381-.6191-.2288-.2028-.673-.0767-.857.0761-.6142.5104-.2393,2.2288-.3213,3.0245-.0927.8998-.5326,2.4161-.4842,3.211.0386.6344.4618.9679.4992,1.6017.3467,5.8789-.1193,12.2697-.3384,18.1598-.2405,6.4653-.1024,14.7935-1.464,21.03-.1955.8955-.16.5009-1.1794.5707-.8614.0589-1.8906.4241-2.7421.3486-.2749-.0243-2.0908-.8912-2.1508-.9934-.1208-.2056.576-4.0562.6286-4.7264.3781-4.8111.5532-9.6457.9699-14.454.8462-9.7637,2.7779-20.6229,2.0928-30.3734-.0579-.8233-.3873-5.1293-2.2403-3.5122-.5397.471-1.3664,3.5849-1.5068,4.116-2.8168,10.6594-2.7121,27.6515-3.0027,38.9308-.0679,2.636-.4706,5.2824-.2007,7.9165.0449.4384.0881,1.2527.0881,1.2527,0,0-.4483-.0301-.7535.0956-1.1164.4599-2.3828,2.1691-2.752,2.0563-.4401-.1345-.2068-3.723-.2389-4.4246-.7011-15.3093-.8101-34.1087-3.4019-48.9746-.1423-.8161-1.0732-5.1162-2.4414-5.0837-.3128.0075-.5651.0934-1.0027.7951-.8194,1.3141-.6375,9.6537-.5584,11.6639.4466,11.3527,1.9739,24.1269,3.2225,35.4977.313,2.8504.6932,6.1373,1.3162,8.9385-.1725.0327-.3231.104-.4819.1752-.5506.2468-.8734.4822-1.3703.3616-.5553-.1348-1.1569-.4738-1.7922-.6918-.7895-.2708-1.6309-.3548-2.4998.3723-1.0025.8388-.3538,1.0505.2907.5602.3778-.2875,1.0117-.4615,1.4044-.4475.8371.0298,1.5954.949,2.5708.9346.7774-.0114,1.3973-.7009,2.205-.6124,1.3484.1477,1.5387,1.9767,2.9379,1.9163,1.4014-.0606,1.4987-2.1926,3.6874-2.1031,1.9824.0811,3.6502,1.7397,4.8699,1.891.9485.1176,2.0002-.4443,2.9841-.4334,1.0136.0111,4.739,1.4895,5.0208,1.121.7836-1.0246-2.4561-1.623-2.5149-1.8772,1.8724-9.4072,3.9535-19.8572,5.8339-29.2614.6038-3.0196.8996-5.7365,1.6425-8.5639.2422-.9218.7932-1.7263,1.2114-2.5611.8602,4.9843,3.1614,4.0408,2.3702-.6816-.2099-1.2528-.9212-2.2449-1.2056-3.2932ZM83.3466,115.568s-.3821-.5872-.6449-1.7042-.3155-1.8285-.3155-1.8285c.6194.9879.9125,2.3702.9604,3.5328ZM79.9759,113.3201c.5435.0877.2055,1.1503.3274,1.6781.1214.5259.4195.7804.3122.891-.4936.5085-1.2311-2.6114-.6396-2.5691ZM73.7902,106.569c.3905.3433.6431,3.0004.2785,2.9811-.3646-.0194-.4273-2.0029-.5254-2.0133-.0981-.0103-.4227.9006-.5605.9593-.7658.2217-.2494-2.856.8073-1.9271ZM58.7134,102.4178c1.124-.3083,1.5745,3.4628,1.3306,3.5113-.2439.0485-1.0369-2.4328-1.0369-2.4328-.266-.6325-.0512,1.6708-.6487,1.6258-.5617-.0423-.4722-2.4774.355-2.7043ZM62.5657,153.2856c-.8985-6.337-1.6905-13.5575-2.2857-19.2592-.5188-4.9696-1.8037-14.6811-2.065-18.3606-.0834-1.1739.3501-.7514.3864-.5788.1499.7137,4.3353,38.397,4.3353,38.397.0626.44-.295.3374-.3709-.1984ZM69.5499,144.3517c-.0236.3783-.2184.2485-.1951-.5734.1743-6.1394.5832-12.7429,1.0325-19.1035.0656-.9289.2603-3.4517.3626-4.2955.0315-.2602.3941-.339.3838.0103l-1.5838,23.962ZM86.2534,118.0621c-.4539-.3398.2769-2.3208.7566-1.8523l-.7566,1.8523ZM88.4931,114.7656c.9156,1.1194.9442,3.0714.9605,4.4983-1.0456-1.1789-.9774-3.0305-.9605-4.4983Z"/>
  <path class="cls-1" d="M221.3934,132.04c-1.6285-1.5209-.1644-3.9991-1.8109-3.7581-.7244.0992-.6747.6209-.6747.6209-3.4216-4.0611-7.1923-8.1177-11.0866-11.7315-2.0146-1.8695-5.4869-5.4944-8.2007-5.6154-16.6837-.7443-33.5868-.5952-50.3012-.6341-6.5683-.0152-14.6243-.7954-21.0577-.1777-.6128.0587-1.5465.111-1.8799.6911-.4588.7984-.822,5.1288-.9244,6.3057-.0896,1.0303-.1998,7.8213-.4848,8.111-.2868.2915-3.9333-.6976-5.3348,1.4946-1.6524,2.5846-2.0494,12.521.8412,14.1624.6611.3753,2.526.5429,2.526.5429,0,0,.0144.8006.0336,1.0612.1343,1.82.2389,3.9987.5071,5.773.3314,2.1924.5088,3.8137,3.1168,4.1138l12.9339.6458v3.6149c0,4.4897,3.9211,7.1851,8.0928,7.0808,2.6283-.0657,4.7145-2.1026,4.8241-2.3272.7118.8323,2.8363,2.745,3.6311,3.1237,5.786,2.7571,12.2341-.9755,12.7026-7.3133l31.6586-.9665c-.1237,8.0371,12.0423,10.7828,14.3033,2.5707l1.9157,2.5315c4.6572,4.4785,13.0946,1.6355,13.4621-4.5242l.2098-2.8265c0-.4707,3.8837,1.2141,4.029-1.5261.2144-4.0431-.8656-12.5848-3.1877-15.9434-2.9069-4.2048-7.4064-2.8228-9.8444-5.1ZM122.5242,138.7473c-1.7419,5.261-3.0183.2819-3.1737-3.3402-.0586-1.3671.1041-8.2708,1.8687-8.5641.8493-.141,1.3794,1.8543,1.5252,2.4399.6737,2.7063.6613,6.8019-.2203,9.4644ZM128.2664,112.9983h2.9731v4.0165l-3.5399-.0208c.0158-.8197.0082-3.9957.5667-3.9957ZM127.607,117.8026c.115-.23.4817-.1375,1.0092-.1385.6088-.0011,1.287.0481,1.2823.2863-.0035.1757-.7947.0799-1.0329.0717-.2322-.0081-.8159-.052-.9144.0547-.0986.1068-.0822,1.1719-.0822,1.1719,0,0-.0301,1.8835-.0383,2.1628s-.3196.204-.3388-.0032.0116-1.1247.0329-1.8151c.0164-.534-.0501-1.5262.0821-1.7906ZM124.7309,148.8257c-.3426-.1266-.5726-5.9001-.7239-6.7485l1.4481-.0005c-.0936.3056.0586,1.2865.4008,1.2865h3.2945v5.4625h-4.4195ZM126.9013,150.2697c-.4941-.7547,3.1275-.1308,3.5346-.3175-.3037.5095-3.3615.5819-3.5346.3175ZM136.2294,117.7457c-.0204,7.0516-.6629,14.1525-.9781,21.1934-.146,3.2628.0257,6.6429-.3541,9.847-.7149.1839-5.1205.0627-5.1205.0627l.1795-5.4834,3.5815-.195c.4334-.1497.4647-.6763.5526-1.0543.9144-3.9326,1.1001-14.6059,1.1729-19.0707.0166-1.0161.09-4.8659-.416-5.5404-.4771-.636-2.9679-.4888-2.9679-.4888,0,0,.0032-.2074.0032-.2425,0-.6302-.0189-3.7378-.0189-3.7378,0,0,3.1885-.1326,3.6887.2836.9407.783.6806,3.2951.6773,4.426ZM133.0622,135.7026c.0086-.3265.0149-.7642.449-.6461,0,0-.1029,3.7697-.1533,4.7692-.0381.7548-.5237,1.7653-.7967,2.1519-.1971.2793-.4284.2093-.2792-.0327.2012-.3265.5832-1.2814.6489-1.9384.1879-1.8788.0903-2.732.1314-4.3039ZM132.5584,134.4213c-.0329.7237-.063,1.2265-.1698,1.2347s-.1322-.2243-.137-.3676c-.03-.8918-.0519-1.694-.0354-1.9075.0164-.2135.371-.2327.371.0301s.003.3125-.0287,1.0103ZM138.9716,120.4152c-.1305-.0007-.1788-.3274-.1788-.4282,0-1.8232.1215-4.1967,0-5.9445-.0184-.2639-.171-.6954-.3732-1.1446-.0799-.1775-.2015-.5052-.107-.5424.1943-.0762.6522.5718.7521.9851.4158,1.7195.1383,4.7092.1095,6.6365-.0055.3668-.0721.4386-.2026.438ZM139.9237,142.0035c-.0151.6656-.1437,6.3245-.5684,6.3365-.7003.0198.2296-8.9023.2429-9.1539.0133-.2516.3043-.192.3262-.0114.0866.7144.0139,2.1865-.0007,2.8287ZM197.2088,118.1409c-18.2202-.7356-36.4847-.6671-54.7196-1.1261-.0424-1.0448-.1769-2.3784,0-3.2936.1068-.5526.6089-1.0556,1.2024-1.0472,16.0105-.23,32.0545-.3281,48.0606.1577,1.0555.032,7.7026.2334,8.0304.8083.2102,6.6871.3648,13.3615.7139,20.0458l-57.8475-.2827-.1607-15.1039c3.994-.1009,9.4041.1132,13.3871.1964,11.4912.2399,21.2736.4035,32.7663.4818,1.5085.0102,7.5702.3715,8.5598-.0434.578-.2424.6238-.5997.0074-.793ZM165.5722,162.9051c-7.7289,7.3236-18.5541-4.4452-11.1317-11.6106,7.6439-7.3791,18.6978,4.4411,11.1317,11.6106ZM200.6654,152.4406c0,.9882-3.1916,1.1669-3.9313,1.211-6.3751.3807-17.5645.4084-23.768-.5108-5.0675-.7509-3.9192-2.2659-7.4447-4.4465-4.4219-2.7349-8.1603-1.8449-12.0181,1.2618-.3888.3132-1.4678,1.6739-1.6441,1.7303-.6169.1974-6.1136-.0084-7.0388-.1304-2.6207-.3456-2.2161-4.1376-2.1715-6.1049l58.0165.6435v6.3462ZM144.7371,144.245c-.0222-.2636.1833-.3563.4058-.3977.9361-.1736,3.1048-.0264,4.1842-.01,2.8444.0432,6.9975-.019,9.8449.1426.4387.0249.3778.3449.0298.3483l-14.4647-.0832ZM200.6664,143.0428l-58.1772-.3221v-8.1938l58.0347.0351c.15,2.8795.261,5.5821.1425,8.4808ZM212.9382,150.4109l-10.8264.182v-4.4985l12.6976-.0785-1.8713,4.395ZM223.2264,163.2668c-9.6999,1.074-10.8759-13.247-2.0257-14.2356,10.124-1.131,10.9602,13.2463,2.0257,14.2356ZM226.7805,145.4519c-.0969,0-1.3778-.7063-1.7606-.8105-3.9207-1.0677-7.0227.5909-9.3122,3.7185-.2668.3645-1.1461,2.0682-1.1461,2.0682l-.9254.0164s1.2127-3.0477,1.4061-3.3924c1.1599-2.0666,3.4683-3.046,5.792-3.046,0,0,2.7552-.0477,3.6963,0s.7851-.5916.2255-.5837-15.0871-.6593-22.6451-.3794l-.0097-8.3004c.2854-.297,5.6314.8201,6.4449.9835,5.9163,1.1881,11.5073,3.2835,17.0212,5.4763,2.1701.8631,4.0386,1.6079,4.347,4.2497h-3.1338ZM232.7131,145.4551c-.8353-.0023-1.6841-.0023-1.6841-.0023,0,0-.2833-1.1791-.6516-2.0752-.6975-1.6971-2.4434-2.1915-3.9972-2.8637-5.7184-2.4742-11.9498-4.6634-18.2066-5.8699-1.8543-.3576-4.1177-.8378-6.0616-.9637l-.4805-20.6818c5.266,4.6078,10.3957,9.3761,14.8654,14.7791,1.0983,1.3275,3.7132,3.8554,2.7751,5.7518-.0429.0868-.4166.1232-.5229.3561-.1901.4167-.4323,1.6891.1825,1.9064.854.3017.5845-.6317.7791-.9421.1495-.2385.7285-.2946.8954-.5507.2769-.4249-.0564-1.0934.3851-1.0545,3.0208,1.444,6.9666,1.4472,9.2445,4.1725-7.9102-2.2396-1.4606,4.5888,2.0186,4.4907l.4588,3.5474ZM230.0495,139.4806c-.0389.0378-.1531.2071-.2918.1076-.0492-.0984.2374-.4496.3345-.3837.0581.0395.0018.2329-.0427.2761ZM229.5985,139.0849c-.0658.0514-.3288.3409-.5242.1656.0574-.1506.4774-.6845.6148-.5675.0823.07-.0154.3433-.0906.4019Z"/>
  <path class="cls-1" d="M267.9699,60.792c-3.9317.1012-4.376,1.8926-7.3082,3.1339-1.1889.5033-2.4773.6279-3.6973,1.1236-1.3571.5515-3.3432,2.287-4.7015,2.1301-1.7138-.1979-2.6333-1.3791-4.8491-1.0739-1.5526.2139-5.3012,2.9169-5.7892,2.8765-.3012-.025-2.7103-1.921-3.7528-2.2035-1.6001-.4335-3.0575.0803-4.597-.5455-1.2308-.5003-2.5882-2.651-3.4287-2.8399-1.4608-.3284-2.8412,1.9066-5.0232,1.007-1.2841-.5294-.8172-6.3023-4.8566-7.3552-1.7263-.45-3.7015.2427-5.1193-.184-.9821-.2957-2.1234-2.6203-3.8052-2.9425-3.8917-.7455-2.8875,5.0061-4.1829,7.1475-.4254.7034-.9949-1.4362-1.1177-1.8497-.9126-3.0736-.7242-11.2056-6.2061-6.9152-2.0019,1.5669-1.3798,2.3752-2.0279,4.3992-.5449,1.7018-2.1913,3.2804-2.2602,5.213-1.6562-2.4165-.8505-8.6964-5.3871-7.0744-2.9744,1.0635-3.0113,6.7052-4.5059,6.9191-1.5754.2253-1.4085-3.9394-3.8051-3.5055-.7657.1386-1.6464,1.37-2.6237.7812-.7887-.4752-.7939-3.1992-2.1548-3.4712-.4651-.093-3.9206.5302-4.4074.7428-.9587.4187-1.8193,1.8045-2.272,2.7092-.67,1.339-2.3139,7.2262-2.9702,7.7936-1.2748,1.1019-1.6014-1.8372-3.0782-2.2173-3.0518-.7855-6.1293,6.1415-8.1707,7.8426-2.1192,1.7658-2.9805-2.3142-3.9471-3.759-2.2485-3.3606-8.9591-3.4906-12.173-5.6639-1.0294-.6961-1.9518-2.3383-3.1087-3.158-1.6285-1.1539-3.7511-1.1689-5.1763-2.5369-1.849-1.7749-3.3774-7.2916-6.8242-5.9808-.9289.3533-2.5575,2.8645-2.7571,2.8636-.2778-.0014-2.6136-3.1019-4.3503-3.3595-2.024-.3002-3.606,2.1858-5.8664,1.6865-1.1559-.2554-3.397-3.5719-4.7568-4.5617-1.4382-1.047-2.6132-1.1571-4.0485-1.8972-1.485-.7658-2.8589-2.591-4.6021-2.5921-3.0365-.0022-5.7559,5.7414-7.477,7.7511-.9318,1.088-2.3008,1.9976-3.3749,3.0526-1.2276,1.2056-1.7602,2.8709-3.6841,3.2254-.6489.1195-1.2796-.0201-1.8447.0837-1.7584.3234-2.5537,3.1973-2.9044,3.1985-.0589.0002-.5405-.628-.8754-.7281-.6431-.1923-1.526-.05-2.3207-.2506-2.0266-.5113-4.9411-3.8869-7.0065-5.0451-2.4384-1.3674-5.3076-1.2752-7.2282-3.3776-1.5706-1.7192-2.8997-6.2882-6.1001-4.4801-2.3037,1.3015-2.2678,7.2614-2.9072,7.7797-.4464.3618-2.2619-2.1772-3.0116-2.3683-3.58-.9128-4.3182,5.8343-5.6912,7.7238-.5607.7716-1.6303.7697-2.291,1.5656-.3739.4505-1.2507,2.7893-1.3875,2.8713-1.6673.9993-4.0333-7.6999-4.4132-8.505-1.4005-2.9687-3.9997-2.3157-6.1862-.5659-.8355.6686-3.6252,3.9787-4.1827,4.1866-.5998.2236-1.633-1.2131-3.0851-.0916-1.8645,1.4399-4.5292,11.9818-5.5853,14.706-1.4036,3.6207-1.4867.8958-3.9223,2.0233-1.4727.6818-2.4336,3.0492-4.3584,3.1967-2.0576.1577-3.6694-2.5889-5.5332-2.9825C2.2893,76.317-.0041,76.088,0,77.2415c.0015.4201.1536.7306.2734.8812.4137.5202.2866.3681,1.153.9103,2.3318,1.4596,6.7843,3.3964,9.3816,1.9704.966-.5303,2.5055-2.6999,2.9572-2.8299,1.1409-.3285,2.0633.8311,3.3947-.6204,2.2238-2.4244,2.8605-12.9076,5.3509-15.3752,1.0098-1.0006,1.1232-.2069,2.0013-.1116.9325.1014,1.6217-.4883,2.3168-1.0348.7821-.6149,4.1929-4.3767,4.5024-4.496,2.9795-1.1484,3.4395,3.4167,4.2607,5.372.4074.9702.939,2.2985,1.494,3.1656.9115,1.4241,1.9467,1.5191,1.9584,3.3554.0218,3.4281-2.1687,4.1173-3.4069,6.5501-.9101,1.7885-.4127,2.204-2.1454,3.7998-.4253.3917-3.0507,1.6353-1.3234,2.4566,1.5173.7214,3.64-2.9525,4.4564-3.8231.1186-.1265,1.8545-1.6162,1.9321-1.5208.1258.155-.5681,3.3331-.6372,3.94-.2232,1.9626-.2796,3.9574-.5076,5.919-.0696.5988-1.5834,7.2915-.5409,7.3278.8832.0309,2.5645-8.0585,2.7603-9.1256.6011-3.2764,1.0688-6.9122,1.3345-10.2335.2265-2.831-.5229-8.345,1.8503-10.3605.7348-.6241,1.5243-.3807,2.2392-1.2961.9952-1.2744,2.142-6.6402,3.3101-7.1372,1.0657-.4534,1.6993.9521,2.4201,1.4322.2667.1777,1.2412.3249,1.2843.5144.0931.4104-1.7353,6.87-1.9187,8.1963-.4528,3.2743-.4724,6.524-1.0628,9.8625-.7534,4.2599-4.7963,16.3381-3.6993,19.7635.4038,1.2608,1.2227-1.5641,1.3199-1.899,1.3711-4.7231,2.9897-11.2463,4.013-16.0708.8212-3.8715.6534-6.9378,1.0181-10.7104.303-3.1339,1.6844-6.7318,2.5564-9.8153.2809-.9932,1.2964-7.15,2.6395-6.963.3679.0514,2.2445,3.1223,2.7547,3.6821,2.3351,2.5617,5.1344,3.1942,7.9419,4.9132,2.509,1.5363,4.1455,3.7144,7.1869,4.2222.6581.1099,1.4347-.0859,2.0595.0298.4415.0817.8528.5754,1.4762.6258,2.0723.167,2.3532-2.0983,3.8023-2.917,1.1178-.6314,2.3749-.4067,3.5643-1.0959.3857-.2235,4.6806-4.9795,5.0651-4.4939.0757.0957-.3059,1.9443-.3253,2.3239-.0861,1.6884.1834,3.6199-.0364,5.2654-.3146,2.355-3.8053,8.2051-3.1376,10.1305.2089.6022,1.0205.5419,1.4205.1565.4201-.405.9707-3.4403,1.275-4.3025,1.3397-3.796,2.2573-4.0706,4.9816-.9594,3.279,3.7447,3.1963,9.5728,5.1841,13.7755.2688.5683,1.0769,1.9484,1.254.6896.1928-1.3705-.9581-8.3135-1.4487-9.8133-2.1694-6.6316-8.4787-7.1727-7.383-16.0468.3072-2.4875,3.3412-9.1372,6.3359-9.0909.9161.0142,3.8196,1.7746,4.7243,2.343,1.8334,1.1519,6.5849,5.4969,8.04,5.7786,2.3648.4578,3.5398-1.4666,4.733-1.3721,2.0534.1627,3.4566,4.8809,6.8361,2.6368,1.4035-.9319,1.2007-3.1972,3.1398-1.8306,5.8215,4.1031,1.54,11.5928,4.556,17.1347.6656,1.2231,2.5468,4.2179,3.3669,5.3097.37.4927,2.6956,2.8366,2.0417.8528-.0998-.3027-1.7864-3.1646-2.0977-3.6887-.8885-1.4958-2.3934-2.9025-2.7602-4.631-.2053-.9673-.2162-7.2408.2803-7.6753.1544-.1351,1.1024-.254,1.3682-.2526,2.4979.0131,4.3961,3.1293,6.6625,4.2785,2.5427,1.2894,9.1348,2.3047,10.4837,4.7822,1.8397,3.3788.6745,7.1778,2.3506,10.3423.9972,1.8826,3.3541,3.5645,4.7718,5.1904,1.2949,1.485,5.5229,8.0356,6.7825,8.4827,1.0813.3836.1554-1.0721-.0495-1.3968-.9108-1.443-3.0513-4.1713-4.1781-5.6235-1.9047-2.4548-5.5755-5.7117-6.3537-8.5896-.195-.7213-.7305-3.8637-.1379-4.2776.1118-.0781,1.086,1.0507,2.5752.0861,1.8289-1.1846,4.3012-5.4187,6.0187-7.1574,2.5888-2.6207,1.7421,1.2728,4.0959,1.6144-1.6246,4.2521-4.9019,7.8073-5.4031,12.4743-.0576.5367-.1113,1.2006.0937,1.3582.205.1575.588-.4442.8569-.9103.8894-1.5416,1.1564-3.6554,1.8544-5.1669.3261-.706,2.35-4.0667,2.7627-1.8972.228,1.1986,0,3.9119,0,5.3018,0,.2823.847.4367,1.0887-.1968.5095-2.9888.0024-6.4656.557-9.4042.3843-2.0363,2.3484-7.0882,3.2165-9.1554.6518-1.5521.8447-2.7733,2.6023-3.343,3.8936-1.2621,2.2958,2.1821,4.6587,2.9108,1.722.5311,3.4363-.7539,3.6178-.6455.1753.1048.847,2.5103,2.2761,3.1071,3.652,1.5253,3.5675-4.0317,5.3611-5.6901,2.356-2.1783,3.0779,2.8989,3.7543,4.4502,1.4039,3.2196,2.9556,6.4017,4.3282,9.6388.0485.807-3.2862,4.9732-1.3219,5.1986,1.3127.1508,1.3912-2.2115,2.0004-2.894.1641.9653.9796,1.5808,1.3671,2.4098.2736.5853.9614,3.8304,1.9257,3.5335,1.2569-.3869-1.1631-5.1002-1.3253-5.7404-.173-.6833-.0807-1.5612-.3138-2.4175-.5005-1.8388-2.3538-4.7192-3.125-6.6763-.2239-.5682-.6382-1.3488-.622-1.9492.0386-1.428,1.7988-3.3528,2.3331-4.7489.7907-2.0663.1079-4.3375,2.6593-5.2125,1.57-.5385,1.5602.0782,1.9028,1.4617.4179,1.6874.4014,3.4939.8708,5.2347.312,1.1572,1.5127,3.202,1.5719,4.0653.06.8754-.5279,5.0436-.674,6.2421-.3028,2.4844-1.7491,7.9295-1.2284,10.1058.3644,1.5233,1.0362.0743,1.2042-.6511.9082-3.922,1.0899-9.1014,1.8883-13.2142.6429-3.3115,2.2296-6.9298,2.9861-10.2717,1.1939.0151,1.7394,1.2226,2.5774,1.8273,2.7411,1.9783,5.7126.4124,7.9127,2.0507,2.0133,1.4991,1.3154,4.4665,2.9189,5.7576.281.2262,1.3516.5792,1.3642.7209.0295.3325-4.3794,3.987-4.9907,4.3258-.7074.392-2.3403.4924-2.4046,1.146-.2019,2.0501,3.8768-.5327,4.1189-.5692.2733-.0411,1.7295.3727,1.8103.5033.7071,1.1413-1.1148,5.2794-.7691,7.1148.1132.6012.4305,1.0853.8051.3452.2122-.4193,1.6562-4.3302,1.7155-4.7115.3047-1.9559-.3834-4.2667.4387-6.1485.3574-.8183,2.9299-3.2862,3.7715-2.9747.3889.144.9991,1.3469,1.3758,1.6901,2.0532,1.872,4.9367,1.2036,7.3196,1.6796,1.3979.2793,2.4906,1.9004,3.922,1.8633,1.6003-.0415,3.5461-2.5302,5.335-2.5682,1.009-.0215,2.6362,1.1624,4.0137,1.2555,3.0073.2033,4.933-2.0244,7.4535-2.9492,1.0967-.4023,2.1454-.4383,3.2695-.9086,1.2894-.5394,2.3245-1.6948,3.5975-2.1873,1.8775-.7264,4.5966-.1709,5.8441-.9067,2.1355-1.2596-2.7206-1.5545-3.3117-1.5392Z"/>
  <path class="cls-1" d="M136.2511,14.7581c2.1592,1.0261,6.9011.8509,7.2233-.6155.285-1.2972-1.6305-1.4565-2.5463-1.8108-4.7984-1.8565-4.4999-7.3132-.4434-9.5224,1.032-.562,3.3806-.6696,2.0123-2.0071-.8124-.7942-2.9039-.8793-3.9734-.7569-7.5134.8604-9.177,11.4314-2.2725,14.7127Z"/>
  <path class="cls-1" d="M221.7552,85.8419c.5256-.3093.9024-5.8435-.5618-4.3377-.7862.8086-.4379,4.9261.5618,4.3377Z"/>
  <path class="cls-1" d="M55.5182,57.7383c-.9882.11-1.7483,6.6407-.2085,4.4525.4003-.5688,1.0477-4.5459.2085-4.4525Z"/>
  <path class="cls-1" d="M101.1731,84.0975c-.5697.2233-.2536,2.4231.5922,2.2185.8313-.2011.3083-2.5715-.5922-2.2185Z"/>
  <path class="cls-1" d="M204.3089,82.9721c-1.141-.4438-.956,2.2811-.8624,2.397.3227.3996,1.7428-2.0544.8624-2.397Z"/>
  <path class="cls-1" d="M166.9638,97.5793c.2164-.2257-.9921-1.7932-1.3662-1.7618-1.0219.0858,1.2059,1.929,1.3662,1.7618Z"/>
  <path class="cls-1" d="M137.3926,80.3895c.2242-.2699-.2303-1.7467-.9709-1.2131-.7607.5482.8747,1.3289.9709,1.2131Z"/>
  <path class="cls-1" d="M196.5539,120.1226c-1.1959-.014-4.0737-.0466-5.0047-.0466-1.6817,0-10.1468-.046-10.8911-.0082-.2362.012-.4709.2306-.5211.4353-.1294.528.0207,6.5142.1349,7.1792.0707.4118.2138.9043.657,1.0465.0318.0102.0669.0141.1003.0141h16.0204c.397-.019.386-.3749.3963-.5677.0383-.7162-.2923-6.711-.3202-7.5413-.0132-.3909-.2702-.5078-.5717-.5113ZM188.2918,124.3239c-.046-.2423,4.4705-1.6987,4.6587-1.5244.0958.0887-.0172.4179-.16.5612-.4038.405-4.3905,1.5328-4.4987.9631ZM193.9147,125.3673c-.033.0489-.9954.2168-1.1566.2271-1.9791.1262,1.8431-1.2403,1.1566-.2271Z"/>
  <path class="cls-1" d="M199.4564,136.3195c.011-.4162-1.1663-.7941-1.1945-.1257-.0204.4841,0,1.9525,0,2.5706,0,.4459,1.1401.5375,1.1945.0027.0657-.6461-.0291-1.3408,0-2.4476Z"/>
  <path class="cls-1" d="M160.1361,153.6832c-4.5573.2493-4.2774,7.1383.2705,7.1882,4.6846.0515,4.4476-7.4462-.2705-7.1882ZM160.4802,160.1474c-.7803-.0237-2.7428-.6385-2.6956-2.8729.0476-2.2466,1.6552-2.802,2.4709-2.8138s.733.3902.0709.5557c-.6656.1664-1.9163.508-1.9271,2.2582-.0118,1.9152,1.3241,2.1753,2.1281,2.2344s.733.6621-.0473.6385Z"/>
  <path class="cls-1" d="M221.675,153.2019c-3.0869.5764-2.8818,5.3862.3233,5.8671,4.4483.6677,4.3282-6.7359-.3233-5.8671ZM221.3165,154.292c.3886.024.0389,2.6129.2391,3.0478-.7803-.3316-.8737-3.087-.2391-3.0478Z"/>
  <path class="cls-1" d="M121.0684,131.3351c-1.0037.2926-1.0498,5.1166.2829,4.9702,1.1272-.1237,1.208-5.4049-.2829-4.9702Z"/>
  <path class="cls-1" d="M128.2593,144.5329c-.4865-.0139-3.0881.1543-3.0881.1543-.4587.0467-.3286,2.1511.121,2.1304,1.2285-.0415,2.2684-.0807,2.9199-.0974.4611-.0118.4611-2.1755.0473-2.1873ZM127.8746,146.3901c-.2094.0026-.5437.0085-.9386.0149-.1445.0031-.1566-.2585-.0092-.2657,0,0,.8066-.084.963-.0819.133.0018.133.3309-.0152.3327Z"/>
  <path class="cls-1" d="M204.5046,136.3313c.0109-.4161-1.1663-.7939-1.1945-.1256-.0204.484,0,1.9525,0,2.5706,0,.4459,1.1401.5374,1.1945.0026.0657-.6461-.0291-1.3408,0-2.4476Z"/>
</svg>