<?xml version="1.0" encoding="UTF-8"?>
<svg id="Ebene_1" data-name="Ebene 1" xmlns="http://www.w3.org/2000/svg" viewBox="0 0 79.4158 87.0498">
  <defs>
    <style>
      .cls-1 {
        fill: #fff;
      }
    </style>
  </defs>
  <path class="cls-1" d="M34.4187,78.5721c-1.3666,1.1605-5.7587,6.0695-7.3176,2.8196-1.6347-3.4081,7.8457-8.7546,8.2689-12.4608.5724-5.0134-2.459.5894-4.5826,1.0712-4.186.9496-3.3012-2.457-1.545-4.8442,1.2622-1.7157,5.9036-5.0922,6.4831-6.2273.3973-.7782,1.4085-11.8665,1.0423-12.3693-.3332-.4575-8.7843,5.0092-10.2446,4.8148-1.0111,2.215-3.2381,10.5444-5.3022,11.4457-5.1129,2.2325-.5418-7.9002-.9249-8.2534-.236-.2176-4.2797,1.7535-4.6882,2.133-1.7351,1.612-3.4306,11.8139-5.9699,12.4011-.7276.1683-1.2991-.0569-1.6974-.6111-1.5401-2.1427,1.7252-8.0378,1.055-8.7473-.4937-.5227-8.0791,4.1086-8.9062,1.5899-.8545-2.6019,4.6678-4.2664,6.0823-5.5954-1.7427-.78-6.3719-1.635-6.1401-4.2091.4092-4.5425,11.2906,1.0919,13.7989.5841.4377-.0886,3.9439-1.4971,3.1714-2.2528-.7361-.72-6.1772-.2401-5.6643-3.9764.607-4.4216,10.7701,1.1329,12.9691,1.1009,1.9776-.0288,8.7221-3.8148,10.9508-4.9334-.3983-.3983-8.6456-6.1119-9.1834-6.2246-1.6989-.3559-8.7165,1.8728-11.2148,1.8139-1.869-.0441-3.2351-2.1817-1.6084-3.5373,1.7904-1.492,6.7616-1.4355,7.0431-1.6675.8102-.668-3.1902-2.8739-3.6517-3.2029l-12.5936,1.3673c-1.1668.1002-2.4643-.3828-2.5572-1.6822-.2376-3.3232,8.9364-3.2386,8.9097-4.2473-.0224-.8452-8.3123-5.0269-5.4233-7.3453,1.673-1.3426,6.5954,3.1695,6.8401,2.8731.7073-.8567-3.0015-6.9624.9056-7.7914,3.7176-.7888,4.0257,10.3519,5.7114,12.2417.2122.2379,4.0503,2.7995,4.2105,2.6106.2469-.291-2.2938-5.9179-.0057-7.3116,3.9359-2.3975,5.2195,9.4158,5.6254,11.347l9.9652,6.854c.1553-3.483.3117-8.1743-.1413-11.4994-.2264-1.6617-10.6271-8.884-6.5009-11.4022,1.5113-.9223,3.1123.8952,4.183,1.9059.4833.4562,2.7138,3.3029,3.3525,2.5724.1459-.1668.4079-4.199.366-4.4166-.0917-.4759-5.0911-6.2673-5.93-7.668-.934-1.5594-2.358-3.6153-.0702-4.6397,2.1058-.9429,4.9178,3.9043,6.5735,4.9577.2515-10.0775,5.0647-11.1351,4.2459,0,1.915-1.2692,4.9323-5.5765,7.5325-4.0056.4501.2719.8748,1.2584.827,1.8109-.2707,3.1304-8.6659,8.3316-8.8461,9.1132-.3305,1.4336-.4426,3.8053-.4548,5.7917,1.3348-1.3112,7.9726-7.4334,8.0352-2.5985.0373,2.8771-6.8839,7.3976-8.4174,9.9883l-.5593,10.4986c2.5124-.9572,8.7863-3.2333,10.6138-5.1515,1.3087-1.3737,3.0622-13.2821,6.9856-10.3499,2.4344,1.8193-.9496,7.2254-.6569,7.4944.2243.2061,4.3413-1.7688,4.6968-2.1244,1.5372-1.5376,2.8633-11.0764,5.9176-11.5362,5.2782-.7945.7864,7.684,1.1544,8.0115.3879.3453,6.5059-3.8122,7.0872-.2155.5446,3.3692-4.8145,4.3822-6.9158,5.6984,1.9166.6235,11.4366,3.3583,6.8906,5.5827-3.5167,1.7207-11.0123-3.19-13.1963-2.8699-.6258.0917-5.0991,2.1033-4.692,2.6305.4473.5793,8.5516,1.2105,7.936,4.4145-.839,4.3671-12.1308-1.5714-14.302-1.5388-.746.0112-10.6268,3.7004-10.6171,4.2099.0112.5931,10.6247,6.8685,11.2089,6.9714,2.302.4054,9.4367-2.1329,11.429-1.1143.565.2888,1.1214,1.4604,1.1834,2.0737.3007,2.9721-6.3748,2.5215-6.3592,3.5837.0042.2859,2.7693,2.2462,3.277,2.3953,2.3134.6794,9.3652-1.8403,12.4032-1.2349,1.5177.3024,1.1419,1.9266,1.0468,2.4104-.4645,2.3621-5.3081,2.6589-7.3212,2.7889,1.3291,2.2429,4.887,2.3233,4.7536,5.407-.2168,5.012-7.7218-2.0274-8.0446-1.645-.3194.3783,2.1746,5.6202.2629,8.0315-1.793,2.2616-2.9488-.9222-3.5794-2.6014-.8743-2.3281-1.4199-8.0025-2.3024-9.4663-.3059-.5074-4.4393-3.3431-4.7397-3.023-.2962.3157,2.6257,6.8971.0003,8.2585-1.3408.6953-2.6383-.9942-3.0716-2.1319-.671-1.7615-1.4925-9.4215-2.0798-10.1377-.5093-.6211-6.6817-4.8507-7.8593-5.6474-.5-.3383-1.2989-.8313-1.9397-1.3162-.2078,3.6369-.7389,8.7978-.4913,12.524.0968,1.456,9.4357,8.9095,6.0384,11.4241-1.8552,1.3731-6.4573-4.7233-7.073-4.0294-.1636.1844-.1046,4.3454.0071,4.931.5128,2.6874,9.7704,8.9562,6.3026,11.5032-2.772,2.0359-5.0866-3.6258-7.249-4.6676.0912,1.6855-.0065,7.8771-1.4072,8.7177-1.0268.6163-3.3049-.106-3.3049-.9505v-7.2966Z"/>
</svg>