<?xml version="1.0" encoding="UTF-8"?>
<svg id="Ebene_1" data-name="Ebene 1" xmlns="http://www.w3.org/2000/svg" viewBox="0 0 222.9287 87.1829">
  <defs>
    <style>
      .cls-1 {
        fill: #66503a;
      }
    </style>
  </defs>
  <g>
    <g>
      <path class="cls-1" d="M96.2275,35.1438c-.1399,1.5875-1.4007,3.3148-2.1482,4.6698-1.2608,2.1944-2.6615,4.2027-4.2027,6.2573-2.5685,3.5021-5.3705,6.9117-7.9858,10.4611-1.2608,1.7274-2.5216,3.5484-3.6426,5.4167-.3266.4671-.7001,1.1204-1.0741,1.7274-.8405,1.6348-1.7742,3.9692-.4203,4.6236,1.6348.6533,3.8293-.3272,5.0438-1.4013.6538-.607,1.214-1.2603,1.7742-2.0083.6538-.8405,1.8684.4208,1.1677,1.2151-.3272.5134-1.9146,2.3344-2.0083,2.428-2.0077,2.0545-5.8838,5.1369-8.7795,2.8951-1.5875-1.2603-1.9609-3.2685-1.4007-5.1832.5139-1.8684,3.3622-6.5845,6.6313-10.8346.607-.7943-.2804-1.3076-1.0741-1.3539-.607-.0474-1.2608.0463-1.7747.0936-3.1286.2798-5.3705,1.5875-7.6586,3.4547-1.7742,1.8221-3.6426,3.6431-5.4167,5.4641-1.3545,1.355-2.7558,2.7552-4.2033,4.0166-.0468,0-3.2685,3.1286-6.0706,4.39-1.4013.6533-2.5685.6995-4.2964.6533-.8405,0-3.4558-.7943-3.4558-2.5216-.0468-.1873,0-.607.0936-.7469.3266-.6544.9805-1.3076,2.0077-1.2614,1.8678.0463,2.1482,2.2881,4.39,1.5875,2.4748-.8405,6.8643-4.8097,7.3782-5.2294.2335-.2335.4671-.4671.7006-.6544.1399-.1399.2335-.2335.4203-.3272,2.0545-2.0072,4.0628-4.0154,6.0243-6.1174.2798-.4197.4665-.8405.2798-.9342-.2798-.2335-1.5412.141-1.8678.2809-.0936,0-.1867.0463-.2804.0463-1.0273.3735-1.9146.8405-2.8483,1.3539-.6538.2809-1.0741.7943-1.9146.8417-.981,0-1.4944-.5145-1.7279-1.4013-.0468-.1873,0-.3272.0931-.4208.5607-1.5875,6.1179-2.9414,6.7249-3.0813.5602-.1873,1.1672-.2809,1.6811-.3746,1.214-.4671,2.4748-.5134,3.6894-1.2603,1.214-.7006,2.2413-1.7285,3.2685-2.7089,2.4754-2.7078,4.9034-5.3705,7.5187-7.9384,2.8488-2.8026,6.0711-6.5845,9.9004-8.0794,1.9146-.7006,5.7439-1.1204,5.4636,1.962ZM89.9234,37.3845c-.5607-.0463-1.2146.0474-1.7279.3272-.8405.4671-1.588,1.0741-2.3349,1.7285-.7006.6533-1.4013,1.4002-2.0551,2.1008-.3735.3735-.7001.7006-1.0273,1.0278-.3266.4197-.7469.8405-1.0741,1.214-1.8678,2.1008-3.8293,4.1091-5.6971,6.211-.7937.8868-1.1209,1.7747.607,1.9609.8874.0936,1.8678.0474,2.7084-.0463.6538-.0474,1.1677-.0936,1.6811-.2335,1.0278-.5134,1.9146-1.3076,2.7558-2.1944.8405-1.1215,1.7742-2.3355,2.7084-3.5495.8405-1.1215,1.7747-2.2418,2.6615-3.4096.3272-.4671.6076-.9805.8874-1.4475.5607-.8868,1.8678-3.2223-.0931-3.6894Z"/>
      <path class="cls-1" d="M113.7859,66.2452c-.3735.4671-.8874,1.0267-1.5412,1.6811-1.3539,1.5412-2.9887,3.1286-4.8566,3.8755l-.1867.0936c-.8874.3272-1.6811.3735-2.3349.0936h-.0468s-.0468,0-.0468-.0474c-1.4007-.5596-1.5875-2.1944-1.1204-3.5484.1867-.748.5602-1.4013,1.0273-2.1482.4203-.6544,1.5412-2.5216,1.5875-2.8951.0468-.2335,0-.9342-.6538-1.0278-2.0077-.4208-3.7825,1.821-4.7161,3.0824-.8411.9805-1.7279,3.9692-1.8216,4.3426-.3735,1.4949-1.3545,2.6153-2.6615,2.4754-1.3076-.1873-1.4944-1.2614-1.3076-2.2418.1867-1.0278.8405-2.0545,1.4007-2.8951.607-1.1215,1.3545-2.3355,1.5412-2.7089.1399-.2798.4203-.6533.5134-1.0267.2335-1.1215-.9805-1.4487-2.0545-.8879-.9805.4208-1.7279,1.4013-2.4286,2.1482-1.1672,1.4013-3.9224,5.1832-4.1091,5.5578-.607.8868-1.3545,1.821-2.5216,2.0072-.8411.141-1.5412-.2798-1.588-1.5412,0-.8405,2.195-3.1286,3.0824-4.3889.5602-.7943,2.428-3.2697.5602-3.783-1.0741-.3272-2.3349.9342-3.2223,1.9146-.7006.8879-1.4475,1.6811-2.0545,2.428-.7943.748-1.9146-.4197-1.2146-1.2603.607-.7943,2.4754-3.035,3.409-3.9692,1.0741-.9816,2.3817-2.0083,3.5495-2.2881,1.0273-.3272,1.9615,0,2.5685,1.3065.0931.0936.0931.1873.1399.3272.3272.4208.4671.8405,1.0741.7943.8874,0,1.821-.9805,2.7552-1.821,1.3545-1.1215,2.8488-1.8684,4.2964-1.6811,1.0273.0925,1.588,2.2881,2.2413,2.2881.7006,0,1.2614-.607,1.3545-.6544,1.2608-.9342,2.5685-1.6337,4.1097-1.4938,1.4007.0936,2.0545,1.6337,1.7747,2.8951-.0936.5607-.2335,1.0278-.6538,1.5875-.7006,1.0278-1.4481,1.962-2.1019,2.9887-.5134.8405-1.4007,2.6627-.0463,2.9887.3266.0474.7001,0,1.0741-.1399.2798-.1399.5134-.2798.7469-.4671.5139-.3735.981-.7469,1.4013-1.1204.7001-.6544,1.2608-1.355,1.8678-2.1019.7006-.8405,1.9146.4208,1.214,1.2614Z"/>
      <path class="cls-1" d="M134.24,66.2452c-.2798.3261-11.8145,11.3006-15.4102,16.9982-.4671.8868-1.0278,1.6348-1.2614,2.1019-.7469,1.4002-1.6343,2.0545-3.2217,1.7736-.7006-.1399-1.1209-1.1204-.7006-1.7274.5602-.7006,1.4475-1.9609,2.4748-3.5495,2.9425-4.0154,4.5768-6.9579,6.4446-10.5074v-.0463c0-.3272-.1867-.3272-.4203-.2798-.4203.2335-.9342.5134-1.3545.6995-1.3539.7943-3.3622.9342-4.3426-.3261-1.5412-1.6348-.2335-4.1565.7937-5.7439.5139-.8405,1.2608-1.5886,1.7279-2.4291.2335-.3735.7469-1.214.4203-1.6337-.7006-.8405-2.5216,1.0267-3.9692,2.6153-.7943.9331-1.4481,1.821-2.1019,2.4743-.7001.7943-1.8678-.3261-1.1672-1.2603.2335-.2809,1.4007-1.8684,2.802-3.5495,1.5412-1.8684,3.6426-3.9229,5.5104-3.6894,1.4007.1873,1.821,1.1215,1.8678,2.0083.0936,1.3076-.6538,2.8488-1.1672,3.6894-.1405.2798-.3272.5607-.5607.8405-.4203.7943-.7937,1.6348-.9805,2.4754-.3272,1.3076.1399,2.2881,1.5412,1.9609,1.8678-.5134,4.0628-2.7552,4.8097-3.4096,1.2608-1.6337,2.3817-3.3622,3.5489-5.0895.4671-.7006.8874-2.1019,1.7747-2.428.5607-.3746,1.2608.0925,1.5412.5596.1399.1873.2335.4208.2335.607.3735,1.0741-.7475,2.2418-1.7279,3.176-.607.607-4.3895,5.6977-5.5572,7.5187-.5139.7006-1.2608,1.9609-2.1014,3.6894,0,.0463,0,.0925.0468.0925.1399.1873.3735.0474.5602-.0463.0468-.0463.1399-.0936.2335-.1873,3.2691-3.3622,8.0788-8.0783,8.4991-8.5916.7006-.9342,1.9146.3261,1.214,1.214Z"/>
    </g>
    <g>
      <path class="cls-1" d="M52.8067,77.997c.3926.0299.7954.0592,1.188.0688.1281.0197.2555.0293.383.0491.334.0784.5895.334.7757.6188.4716.7164.3142,1.3844-.088,2.0523-.0982.1472-.2555.2747-.3537.4417-.0784.1472.0293.334.1275.5399.1574.1963.3244.4423.4423.6679.1371.2849.1568.7362.1275,1.0504-.1275.7565-.6877,1.2868-1.4143,1.3945-.3334.0395-.6578,0-.9917,0-.2945,0-.5985.0102-.8936-.0197-.3334-.0096-.6674.0102-1.0013.0395-.2358.0096-1.6399.0096-1.8757.0197-.088.0096-.1766,0-.2651-.0197-.5596-.1077-.3926-.7559-.3334-1.1587.0982-.717-.0299-1.6106-.0592-2.3174-.0197-.4417-.0395-.8834.0096-1.3257.0395-.383-.0096-.8343-.088-1.2078-.0592-.3926.2849-.805.6871-.8445.8152-.0982,2.7986-.0784,3.6234-.0491ZM51.226,80.2558c0,.1472-.0102.2849,0,.4321.0096.1371.0587.167.1963.1371.0389-.0096.0688-.0192.1077-.0293.2358-.0491.4716-.0886.717-.0784.334-.0102.6679-.0102,1.0013-.0293.246.0192.5303-.0592.717-.2358.2257-.2849.2257-.7463-.1077-.9624-.167-.1077-.3932-.1376-.6093-.167-.5692-.0587-1.139-.0389-1.6986.0293-.0491.0102-.0886.0197-.1376.0299-.2059.0389-.1664.255-.1664.4022,0,.1574-.0299.3142-.0197.4716ZM54.221,82.6121c-.0102-.0491-.0299-.0982-.0592-.1371-.1766-.2555-.5596-.2849-.8445-.3142-.6087-.0395-1.2275-.1771-1.7872.0192-.0982.0395-.1963.0886-.2454.1867-.0293.0491-.0491.1179-.0491.1867,0,.2161.0197.4321.0491.6482.0102.0293.0197.0688.0395.088.0389.0299.088.0395.1275.0395.6679.0395,1.3353.0395,1.9936-.0197.2059-.0293.422-.0587.5692-.1867.1472-.1275.2454-.3334.2065-.5105Z"/>
      <path class="cls-1" d="M60.7316,83.1622c-.167-.0096-.334-.0197-.5004-.0395-.1574-.0192-.3046-.0784-.4423.0491-.1275.1083-.2059.3735-.2651.5207-.1371.3537-.2454.7559-.4615,1.0701-.3041.4423-2.3863.5009-2.7986.1867-.1472-.1077-.1766-.167-.1077-.3436.1179-.3046.2454-.6188.3926-.9133.3436-.6482.7661-1.355,1.1785-1.9637.2747-.3932,1.1294-1.9637,1.3454-2.3958.0982-.2065.1862-.4225.3041-.6284.1963-.3633.5303-.6482.9037-.8349.2454-.1275,1.6495-.0784,1.8853.0395.0587.0389.1077.0982.1568.1568.0982.1275.1574.2945.2161.4519.2651.805.4124,1.6692.6973,2.4743.1376.383.2747.7565.422,1.1198.3244.7853.8936,1.5119,1.1785,2.327.1472.4028-.9917.4908-1.188.4812-.1472,0-.2651-.0592-.3537-.1867-.3041-.4124-.5303-.8541-.6871-1.3353,0-.0102-.0102-.0395-.0197-.0491-.1376-.3142-.1568-.3046-.4908-.2753-.4028.0395-.8349.0886-1.2569.0886h-.1083ZM60.889,81.964c.1275.0197.255.0197.383.0102.1963-.0197.6476-.0784.7853-.2454.1766-.2161-.255-1.1-.471-1.5023-.0395-.0886-.167-.0886-.2262-.0102-.2352.3436-.638,1.139-.805,1.4633-.0395.088,0,.1963.0886.2257.0784.0293.1568.0491.2454.0587Z"/>
      <path class="cls-1" d="M66.0152,85.0181c-.0886-.0688-.1376-.167-.167-.2651-.1077-.4124-.0982-.9331.1083-1.3257.0982-.1963.3041-.3046.5201-.2651.8445.1275,3.2403.4812,3.594.1179.1963-.2065.2358-.5303.0197-.7559-.6973-.6973-3.2702-1.0606-3.9376-1.856-.3244-.3926-.2849-1.3353-.1083-1.7967.1771-.4321.55-.6781.9917-.8253,1.522-.5004,3.5647-.4417,5.0963.0102.0102,0,.0293,0,.0491.0096.2454.0784.383.3142.383.5794.0102.8936-1.0701,1.0312-1.7578.9528-.6578-.0688-1.0504-.4519-1.7082-.246-.1179.0395-.2065.1083-.2555.2262-.1179.4615.1083.6087.3244.6973.9522.4022,1.7082.5399,2.6706.8738.0491.0197.0982.0389.1472.0784.4908.2161.7954,1.0013.9331,1.4436.1179.4417.1963,1.0701-.1771,1.4137-.471.4423-1.0797.6877-1.7082.7757-.4225.0491-4.7426.383-5.0179.1574Z"/>
      <path class="cls-1" d="M75.2956,78.1053c.4028.0096,1.5609.088,2.111-.0197.2849-.0688,2.9459-.2059,3.2403-.2161.2262-.0293.3436.0784.3735.2945.0096.0982.0293.2065.0096.3046-.0293.1963-.0688.3926-.1179.5692-.1077.3633-.2849.4812-.6578.4519-.2257-.0197-.4615-.0587-.6871-.0688-.5111-.0587-1.0216-.1275-1.5322-.1766-.1077,0-.2161-.0096-.3238-.0096-.2651,0-.4519.1371-.5207.3926-.0491.1568-.088.334-.1077.5009-.0293.255.1766.5596.5201.5297.1963-.0192.4028-.0491.5895-.0587.3926-.0491.7954-.0784,1.188-.1077.0293-.0102.0688-.0102.1077-.0102.2262.0197.2945.0982.3142.3244.0102.1766.0491.3633.0102.5399-.0299.1867-.1281.3142-.383.3633-.0982.0197-.2257.0096-.3436.0096-.4615-.0491-.9235-.088-1.3849-.1275-.1077-.0096-.2161-.0197-.3238,0-.2747.0096-.4028.1472-.4615.4321-.0592.3142-.0197.6087.1179.9032.1371.334.5004.3441.8248.3735.4615.0491.9133-.0197,1.3844-.0592.3735-.0096.7367-.1568,1.1096-.2352.1574-.0299.4028-.079.5596-.0299.1376.0592.167.2161.1963.3441.0688.2352.0491.6967-.0982.9128-.2454.383-.8343.4615-1.2569.5207-.9032.1766-3.3774.3142-4.2812.2161-.5692-.0688-.8738-.4028-1.0701-1.0019-.1376-.6087-.1083-4.3889-.0886-5.0173.0293-.7858.2945-.8445.9821-.8445Z"/>
      <path class="cls-1" d="M85.9012,77.9479c.55.0197,1.1.0491,1.6399.0982.5794.0395,1.051.246,1.5023.6188.2065.1568.334.3729.4321.6087.0592.1472.0886.2945.0982.4519.0197.334.0102.6679-.0784.9917-.0197.1179-.0784.2161-.1376.3142-.3142.4812-.7559.8248-1.2078,1.1587-.1077.0784-.2257.1472-.2358.3041,0,.0491,0,.1083.0102.1574.0688.2747.2849.5991.5399.7362.1771.0886.383.0982.5698.1083.3041.0197.6087.0293.9133.0491.2257.0096.3926.167.471.383.0395.1179.0784.2454.0982.3633.0293.1862-.1376.4513-.3238.5201-.1376.0491-.2753.0886-.4225.1083-.255.0389-.5105.0784-.7757.0688-.471-.0102-.9133-.1281-1.306-.383-.2257-.1472-.422-.3142-.5889-.5207-.2262-.2945-.4321-.6087-.5991-.9427-.0886-.1766-.2257-.3436-.383-.4513-.1472-.0987-.4417-.246-.6183-.1574-.079.0491-.1281.1376-.1478.2257-.0389.1969-.0587.3046-.0293.5009.0491.4225.1376.8738.0491,1.2862-.0293.1472-.1077.2753-.255.334-.3932.167-2.2683.3142-2.5628-.1077-.1083-.1574-.1083-.3633-.1179-.55-.0197-.2161-.0197-.3735.0293-.5794.1472-.55.2257-1.0211.334-1.5711.088-.4716.1867-.9522.2257-1.4334.0395-.4914.0197-.9624-.0389-1.4436-.0395-.2747-.0395-.55.0096-.8349.0293-.1862.1376-.3142.3238-.3531.1376-.0293,1.4633-.0688,1.601-.0688.2257,0,.4513,0,.6775.0096h.3041ZM85.6067,80.0786c.0096.1179.0197.3735.0197.3735,0,.1376,0,.2747.0096.4124.0102.1179.0293.2454.0592.3633.0293.1179.0982.1963.2257.1963.1766.0197.3436.0293.5105-.0197.3926-.1179.7858-.2352,1.0899-.5201.0491-.0395.1083-.0688.1574-.1083.1568-.1472.3142-.3436.3531-.5692.0592-.2849-.167-.6386-.3825-.8248-.4716-.3932-1.1982-.3244-1.7381-.1281-.0688.0197-.1179.0688-.1472.1376-.0886.2257-.167.4417-.1574.6871Z"/>
      <path class="cls-1" d="M99.1389,83.0347v.1275c0,.2651-.0491.5889-.0491,1.051-.0592.471-.1867.5889-.6583.6871-.2454.0491-.6775-.0293-.7757-.3046-.0293-.088-.0389-.1862-.0587-.2843-.0688-.3046-.1281-.2358-.3244-.1281-.3041.1771-.5201.4321-.8343.5794-.5303.2454-2.6023.2454-3.1619.1472-.7068-.1275-1.3257-.7655-1.6495-1.4041-.2555-.5004-.4124-1.0701-.4716-1.6298-.0587-.5303-.088-1.139.0592-1.6495.1862-.6386.5692-1.051,1.139-1.434.3729-.255.7954-.4615,1.2174-.6284.4519-.1963,2.3767-.2651,2.877-.2454.3244.0102.6482.0293.9624.1275.2849.0886.5596.246.7858.4423.1963.1862.4022.3436.4806.6087.1376.4417-.2257,1.5316-.8343,1.0504-.2651-.2059-.4615-.4908-.7266-.6973-.5399-.4022-1.3748-.4124-1.9637-.1371-.5794.2747-.9624.8248-1.0899,1.4436-.1179.5692-.1281,1.2467.1862,1.7477.334.5201.9528.7559,1.5513.7463.4914,0,1.4831-.2945,1.4436-.9331-.0197-.255-.1867-.1867-.3238-.1472-.3244.0784-.8349.3046-1.0707-.0395-.0683-.088-.1173-.1862-.1472-.2843-.0587-.1963-.0683-.4124-.0192-.6188.0293-.1376.1371-.2257.2843-.2555.1179-.0192,1.5124.1574,2.2486.0395.1281-.0197.2651-.0491.3932-.0197.4417.1083.4615.717.5004,1.0707.0197.2454.0299.7164.0299.972Z"/>
      <path class="cls-1" d="M104.8834,83.1622c-.167-.0096-.334-.0197-.5004-.0395-.1574-.0192-.3046-.0784-.4423.0491-.1275.1083-.2059.3735-.2651.5207-.1371.3537-.2454.7559-.4615,1.0701-.3041.4423-2.3863.5009-2.7986.1867-.1472-.1077-.1766-.167-.1077-.3436.1179-.3046.2454-.6188.3926-.9133.3436-.6482.7661-1.355,1.1785-1.9637.2747-.3932,1.1294-1.9637,1.3454-2.3958.0982-.2065.1862-.4225.3041-.6284.1963-.3633.5303-.6482.9037-.8349.2454-.1275,1.6495-.0784,1.8853.0395.0587.0389.1077.0982.1568.1568.0982.1275.1574.2945.2161.4519.2651.805.4124,1.6692.6973,2.4743.1376.383.2747.7565.422,1.1198.3244.7853.8936,1.5119,1.1785,2.327.1472.4028-.9917.4908-1.188.4812-.1472,0-.2651-.0592-.3537-.1867-.3041-.4124-.5303-.8541-.6871-1.3353,0-.0102-.0102-.0395-.0197-.0491-.1376-.3142-.1568-.3046-.4908-.2753-.4028.0395-.8349.0886-1.2569.0886h-.1083ZM105.0408,81.964c.1275.0197.255.0197.383.0102.1963-.0197.6476-.0784.7853-.2454.1766-.2161-.255-1.1-.471-1.5023-.0395-.0886-.167-.0886-.2262-.0102-.2352.3436-.638,1.139-.805,1.4633-.0395.088,0,.1963.0886.2257.0784.0293.1568.0491.2454.0587Z"/>
    </g>
  </g>
  <path class="cls-1" d="M30.1348,53.7057c-.209-.7705.3811-1.7463-1.084-1.5866-1.0907.1189-.3667.6442-.3786,1.0491-.0074.252-.2711.4116-.3075.5908-.3248,1.6027-.9953,2.9433-.586,4.5508l-4.2016,21.6014,1.2283-25.7802.0244-.5539c-.0018.5256.8791,3.2718,1.6863,2.7643.7414-.4661-.2975-3.3802-.7253-3.9385-.038-.0496-.6105-.5858-1.035-.7159-.2218-.068-.2132-.2867-.3708-.4265-.1576-.1398-.4637-.0528-.5905.0525-.4232.3517-.1649,1.5357-.2214,2.084-.0639.62-.3669,1.6648-.3336,2.2124.0266.4371.3182.6669.3439,1.1036.2389,4.0507-.0822,8.4541-.2331,12.5125-.1657,4.4547-.0706,10.193-1.0088,14.4901-.1347.617-.1103.3451-.8126.3932-.5935.0406-1.3026.2922-1.8894.2402-.1894-.0168-1.4406-.6141-1.4819-.6844-.0832-.1416.3969-2.7948.4331-3.2566.2605-3.315.3812-6.6461.6683-9.9591.5831-6.7274,1.914-14.2096,1.442-20.9279-.0399-.5672-.2668-3.5342-1.5436-2.42-.3718.3245-.9415,2.4701-1.0382,2.836-1.9408,7.3445-1.8687,19.0524-2.0689,26.8241-.0468,1.8163-.3242,3.6397-.1383,5.4547.0309.3021.0607.8631.0607.8631,0,0-.3089-.0207-.5192.0658-.7692.3169-1.6418,1.4946-1.8962,1.4168-.3032-.0927-.1425-2.5652-.1646-3.0486-.4831-10.5484-.5582-23.5016-2.344-33.7445-.098-.5623-.7394-3.5252-1.6822-3.5028-.2155.0052-.3894.0644-.6909.5478-.5646.9055-.4392,6.6516-.3848,8.0366.3077,7.8223,1.36,16.6239,2.2204,24.4586.2157,1.964.4777,4.2287.9069,6.1588-.1189.0225-.2226.0716-.332.1207-.3794.1701-.6018.3323-.9442.2491-.3826-.0929-.7972-.3265-1.2349-.4767-.544-.1866-1.1237-.2444-1.7224.2565-.6908.578-.2437.7238.2003.386.2603-.1981.6971-.318.9677-.3083.5768.0205,1.0992.6539,1.7713.644.5357-.0078.9627-.4829,1.5193-.4219.9291.1018,1.0602,1.362,2.0243,1.3203.9656-.0417,1.0326-1.5108,2.5407-1.4491,1.3659.0559,2.5151,1.1987,3.3555,1.303.6535.081,1.3782-.3061,2.0561-.2986.6984.0077,3.2652,1.0263,3.4594.7724.5399-.706-1.6923-1.1183-1.7328-1.2934,1.2901-6.4817,2.7241-13.682,4.0197-20.1617.416-2.0806.6198-3.9526,1.1317-5.9007.1669-.6351.5466-1.1894.8347-1.7647.5927,3.4343,2.1783,2.7842,1.6331-.4696-.1446-.8632-.6347-1.5468-.8307-2.2691ZM26.232,55.6681s-.2632-.4046-.4443-1.1743-.2174-1.2599-.2174-1.2599c.4268.6807.6288,1.6331.6617,2.4342ZM23.9096,54.1193c.3745.0604.1416.7926.2256,1.1562.0837.3623.289.5377.2151.6139-.3401.3504-.8483-1.7993-.4407-1.7701ZM19.6475,49.4676c.2691.2365.4431,2.0674.1919,2.054-.2512-.0134-.2944-1.38-.362-1.3872-.0676-.0071-.2912.6206-.3862.661-.5276.1528-.1719-1.9678.5563-1.3278ZM9.2592,46.6074c.7745-.2124,1.0849,2.3859.9168,2.4194-.168.0334-.7144-1.6763-.7144-1.6763-.1833-.4358-.0353,1.1512-.447,1.1202-.387-.0291-.3254-1.707.2446-1.8633ZM11.9136,81.6563c-.6191-4.3663-1.1648-9.3414-1.5749-13.27-.3574-3.4242-1.2428-10.1156-1.4228-12.6508-.0574-.8089.2412-.5178.2662-.3988.1033.4918,2.9871,26.4563,2.9871,26.4563.0431.3032-.2033.2325-.2556-.1367ZM16.7258,75.5007c-.0163.2606-.1505.1712-.1344-.3951.1201-4.2301.4019-8.7801.7114-13.1627.0452-.6401.1793-2.3783.2498-2.9597.0217-.1793.2715-.2336.2644.0071l-1.0913,16.5103ZM28.2349,57.3866c-.3127-.2341.1908-1.5991.5213-1.2763l-.5213,1.2763ZM29.778,55.1153c.6309.7713.6506,2.1163.6618,3.0994-.7205-.8123-.6734-2.0881-.6618-3.0994Z"/>
  <g>
    <path class="cls-1" d="M210.1917,13.5837c-3.084.0794-3.4325,1.4846-5.7324,2.4582-.9325.3948-1.9431.4925-2.9001.8813-1.0645.4325-2.6223,1.7939-3.6878,1.6708-1.3443-.1553-2.0655-1.0818-3.8035-.8424-1.2179.1677-4.1582,2.288-4.5409,2.2562-.2362-.0196-2.1259-1.5068-2.9436-1.7284-1.2551-.34-2.3983.063-3.6058-.4279-.9654-.3924-2.0302-2.0794-2.6894-2.2275-1.1458-.2576-2.2286,1.4955-3.9401.7899-1.0072-.4153-.641-4.9434-3.8094-5.7693-1.3541-.353-2.9034.1904-4.0155-.1443-.7704-.2319-1.6656-2.0553-2.9848-2.308-3.0526-.5848-2.2649,3.9267-3.281,5.6064-.3337.5517-.7804-1.1265-.8767-1.4509-.7159-2.4109-.5681-8.7895-4.8679-5.4242-1.5703,1.229-1.0823,1.8631-1.5906,3.4507-.4274,1.3349-1.7188,2.5731-1.7729,4.089-1.2991-1.8954-.6671-6.8213-4.2256-5.5491-2.3331.8342-2.362,5.2595-3.5344,5.4272-1.2357.1767-1.1048-3.09-2.9847-2.7497-.6006.1087-1.2914,1.0746-2.058.6128-.6186-.3727-.6227-2.5094-1.6902-2.7228-.3648-.0729-3.0753.4159-3.4571.5826-.752.3284-1.427,1.4154-1.7821,2.125-.5256,1.0503-1.815,5.6682-2.3298,6.1132-.9999.8643-1.2561-1.4411-2.4145-1.7392-2.3938-.6162-4.8077,4.8173-6.409,6.1516-1.6623,1.3851-2.3378-1.8152-3.0961-2.9485-1.7637-2.636-7.0274-2.738-9.5483-4.4427-.8074-.546-1.5309-1.8341-2.4384-2.4771-1.2774-.9051-2.9423-.9169-4.0602-1.9899-1.4503-1.3922-2.6492-5.7194-5.3528-4.6913-.7286.2771-2.006,2.2469-2.1627,2.2462-.2179-.0011-2.0501-2.4331-3.4123-2.6351-1.5876-.2355-2.8285,1.7145-4.6015,1.3229-.9067-.2004-2.6645-2.8017-3.7311-3.5781-1.1281-.8212-2.0498-.9076-3.1756-1.4881C79.5203,1.4326,78.4426.0009,77.0753,0c-2.3818-.0017-4.5148,4.5035-5.8649,6.0799-.7309.8534-1.8047,1.5669-2.6472,2.3944-.9629.9457-1.3807,2.2519-2.8897,2.53-.509.0938-1.0037-.0158-1.4469.0657-1.3792.2537-2.0031,2.508-2.2782,2.5088-.0462.0002-.4239-.4926-.6867-.5711-.5044-.1508-1.197-.0392-1.8204-.1965-1.5897-.4011-3.8757-3.0488-5.4958-3.9573-1.9126-1.0726-4.1632-1.0002-5.6697-2.6493-1.232-1.3485-2.2745-4.9324-4.7849-3.5141-1.807,1.0209-1.7789,5.6957-2.2804,6.1023-.3501.2838-1.7742-1.7077-2.3623-1.8577-2.8081-.716-3.3871,4.5763-4.4641,6.0585-.4398.6052-1.2788.6038-1.797,1.228-.2933.3534-.981,2.1879-1.0883,2.2522-1.3078.7838-3.1637-6.0397-3.4616-6.6712-1.0985-2.3286-3.1373-1.8164-4.8524-.4439-.6553.5244-2.8435,3.1208-3.2808,3.2839-.4705.1754-1.2809-.9516-2.4199-.0718-1.4625,1.1295-3.5526,9.3984-4.381,11.5352-1.101,2.8401-1.1662.7026-3.0766,1.5871-1.1552.5348-1.9089,2.3917-3.4187,2.5074-1.614.1237-2.8782-2.0307-4.3402-2.3394C1.7957,25.7613-.0032,25.5817,0,26.4864c.0012.3295.1205.5731.2144.6912.3245.408.2248.2887.9044.714,1.829,1.1449,5.3215,2.6641,7.3588,1.5455.7577-.416,1.9653-2.1177,2.3196-2.2197.8949-.2577,1.6184.6519,2.6627-.4867,1.7443-1.9017,2.2438-10.1245,4.1971-12.0601.7921-.7849.8811-.1623,1.5698-.0875.7314.0795,1.2721-.383,1.8173-.8117.6134-.4823,3.2889-3.433,3.5316-3.5266,2.3371-.9008,2.6979,2.68,3.3421,4.2137.3196.761.7366,1.8029,1.1719,2.4831.7149,1.1171,1.527,1.1916,1.5361,2.6319.0171,2.689-1.7011,3.2296-2.6723,5.1378-.7139,1.4029-.3237,1.7288-1.6828,2.9805-.3336.3072-2.393,1.2827-1.0381,1.9269,1.1901.5659,2.8551-2.3159,3.4955-2.9988.093-.0992,1.4547-1.2677,1.5155-1.1929.0987.1216-.4456,2.6145-.4998,3.0905-.1751,1.5395-.2193,3.1041-.3981,4.6428-.0546.4697-1.242,5.7193-.4242,5.7478.6928.0242,2.0116-6.3209,2.1652-7.158.4715-2.57.8384-5.4218,1.0468-8.027.1776-2.2206-.4102-6.5457,1.4513-8.1266.5764-.4895,1.1956-.2986,1.7564-1.0166.7806-.9996,1.6802-5.2085,2.5964-5.5983.8359-.3556,1.3329.7468,1.8983,1.1234.2092.1394.9736.2548,1.0074.4035.0731.3219-1.3611,5.3887-1.505,6.4291-.3552,2.5683-.3705,5.1173-.8337,7.736-.591,3.3414-3.7621,12.8153-2.9017,15.5022.3167.989.9591-1.2269,1.0353-1.4895,1.0755-3.7047,2.345-8.8214,3.1477-12.6057.6441-3.0368.5125-5.4419.7986-8.4011.2376-2.4582,1.3212-5.2804,2.0052-7.699.2203-.7791,1.0169-5.6084,2.0704-5.4616.2886.0403,1.7606,2.4491,2.1607,2.8882,1.8316,2.0094,4.0273,2.5055,6.2295,3.8538,1.968,1.205,3.2517,2.9135,5.6373,3.3118.5162.0862,1.1254-.0674,1.6154.0234.3463.0641.6689.4514,1.1579.4908,1.6254.131,1.8458-1.6459,2.9825-2.2881.8768-.4953,1.8628-.319,2.7958-.8596.3026-.1753,3.6714-3.9059,3.973-3.5249.0594.075-.24,1.5251-.2551,1.8228-.0676,1.3244.1439,2.8394-.0285,4.1301-.2468,1.8472-2.9848,6.4359-2.4611,7.9462.1638.4724.8005.4251,1.1142.1227.3295-.3177.7614-2.6985,1.0001-3.3748,1.0508-2.9775,1.7706-3.1929,3.9075-.7525,2.572,2.9373,2.5071,7.5088,4.0663,10.8053.2108.4457.8447,1.5283.9836.5409.1512-1.075-.7515-6.521-1.1364-7.6974-1.7016-5.2017-6.6506-5.6262-5.7911-12.5869.2409-1.9512,2.6208-7.1671,4.9698-7.1308.7185.0111,2.9961,1.3919,3.7057,1.8378,1.4381.9035,5.1651,4.3117,6.3064,4.5326,1.8549.3591,2.7766-1.1504,3.7125-1.0762,1.6106.1276,2.7113,3.8285,5.3621,2.0683,1.1009-.731.9418-2.5079,2.4628-1.4359,4.5663,3.2184,1.2079,9.0933,3.5737,13.4402.5221.9594,1.9977,3.3084,2.6409,4.1649.2903.3865,2.1144,2.225,1.6015.6689-.0783-.2374-1.4012-2.4823-1.6454-2.8934-.6969-1.1733-1.8774-2.2767-2.1651-3.6325-.161-.7588-.1696-5.6796.2199-6.0204.1211-.106.8647-.1992,1.0732-.1981,1.9593.0102,3.4483,2.4546,5.226,3.356,1.9945,1.0114,7.1652,1.8077,8.2233,3.7511,1.4431,2.6503.5291,5.6302,1.8438,8.1124.7822,1.4767,2.6309,2.7959,3.743,4.0713,1.0157,1.1648,4.332,6.303,5.3201,6.6537.8482.3009.1219-.8409-.0388-1.0956-.7144-1.1319-2.3934-3.2719-3.2773-4.411-1.494-1.9255-4.3734-4.4801-4.9837-6.7375-.153-.5658-.573-3.0306-.1081-3.3553.0877-.0612.8518.8242,2.0199.0676,1.4346-.9292,3.3738-4.2504,4.721-5.6141,2.0306-2.0556,1.3665.9983,3.2127,1.2663-1.2743,3.3353-3.845,6.124-4.2381,9.7846-.0452.421-.0873.9418.0735,1.0654.1608.1235.4612-.3484.6721-.714.6976-1.2092.9071-2.8672,1.4546-4.0528.2558-.5538,1.8433-3.1899,2.167-1.4881.1788.9401,0,3.0684,0,4.1586,0,.2214.6644.3425.854-.1544.3996-2.3444.0019-5.0715.4369-7.3765.3014-1.5972,1.8421-5.5599,2.523-7.1813.5113-1.2174.6626-2.1753,2.0412-2.6222,3.0541-.99,1.8008,1.7116,3.6542,2.2832,1.3507.4166,2.6954-.5914,2.8378-.5063.1375.0822.6644,1.9691,1.7853,2.4372,2.8646,1.1964,2.7983-3.1624,4.2052-4.4632,1.848-1.7086,2.4142,2.2739,2.9448,3.4907,1.1012,2.5254,2.3183,5.0214,3.395,7.5606.0381.633-2.5776,3.9009-1.0369,4.0777,1.0297.1183,1.0912-1.7347,1.5691-2.27.1287.7572.7684,1.24,1.0723,1.8902.2146.4591.7541,3.0045,1.5105,2.7716.9859-.3035-.9123-4.0005-1.0395-4.5027-.1357-.5359-.0633-1.2246-.2461-1.8962-.3926-1.4423-1.8463-3.7017-2.4512-5.2368-.1756-.4457-.5006-1.058-.4879-1.5289.0303-1.1201,1.411-2.6299,1.83-3.7249.6202-1.6207.0847-3.4023,2.0859-4.0886,1.2314-.4224,1.2238.0613,1.4926,1.1466.3278,1.3236.3149,2.7406.683,4.1061.2448.9077,1.1866,2.5116,1.233,3.1887.0471.6867-.4141,3.9561-.5287,4.8962-.2375,1.9487-1.372,6.2198-.9636,7.9268.2859,1.1949.8128.0583.9445-.5107.7124-3.0763.8549-7.139,1.4812-10.3651.5043-2.5975,1.7488-5.4356,2.3423-8.0569.9365.0119,1.3643.959,2.0217,1.4333,2.1501,1.5518,4.4809.3235,6.2066,1.6085,1.5792,1.1759,1.0318,3.5034,2.2896,4.5161.2204.1775,1.0602.4543,1.07.5654.0231.2608-3.4352,3.1273-3.9146,3.3931-.5548.3075-1.8357.3862-1.8861.8989-.1583,1.6081,3.0409-.4178,3.2308-.4465.2143-.0323,1.3566.2923,1.42.3948.5546.8952-.8744,4.1411-.6033,5.5807.0888.4716.3377.8513.6315.2708.1665-.3289,1.2991-3.3966,1.3456-3.6956.239-1.5342-.3007-3.3468.3441-4.8228.2804-.6418,2.2982-2.5777,2.9583-2.3333.3051.1129.7837,1.0565,1.0791,1.3257,1.6105,1.4683,3.8723.9441,5.7414,1.3174,1.0965.2191,1.9536,1.4906,3.0764,1.4616,1.2552-.0325,2.7815-1.9847,4.1847-2.0144.7914-.0168,2.0678.9118,3.1483.9848,2.3589.1595,3.8694-1.5879,5.8464-2.3133.8602-.3155,1.6828-.3438,2.5646-.7127,1.0114-.4231,1.8233-1.3294,2.8218-1.7157,1.4727-.5698,3.6055-.1341,4.584-.7112,1.6751-.988-2.134-1.2193-2.5977-1.2074Z"/>
    <path class="cls-1" d="M173.9416,33.2325c.4123-.2426.7078-4.5835-.4407-3.4025-.6166.6343-.3435,3.864.4407,3.4025Z"/>
    <path class="cls-1" d="M43.5477,11.1884c-.7751.0863-1.3714,5.2089-.1635,3.4925.314-.4462.8218-3.5658.1635-3.4925Z"/>
    <path class="cls-1" d="M79.3587,31.8642c-.4468.1751-.1989,1.9006.4645,1.7402.652-.1578.2419-2.017-.4645-1.7402Z"/>
    <path class="cls-1" d="M160.2569,30.9815c-.895-.3481-.7499,1.7893-.6765,1.8802.2531.3135,1.3671-1.6115.6765-1.8802Z"/>
    <path class="cls-1" d="M130.964,42.4392c.1697-.177-.7782-1.4066-1.0716-1.382-.8016.0673.9459,1.5131,1.0716,1.382Z"/>
    <path class="cls-1" d="M107.7687,28.9557c.1759-.2117-.1807-1.3701-.7616-.9516-.5967.43.6861,1.0424.7616.9516Z"/>
  </g>
  <g>
    <path class="cls-1" d="M208.1532,58.4762c-.3032-.1028-.6389.0242-.7494-.0354-.105-.0567-.5016-.9187-1.1606-1.2342-.4306-.2062-3.7263-1.0173-4.5259-1.0201-.113-.0004-.1883.0862-.1883.2165,0,.4255.1124,4.5485.1589,6.195.0062.2211.0729.6362.2753.8838,1.1489,1.4059,7.3287,2.3325,9.1927,2.0959,1.0901-.1384.9623-1.5129.7731-2.3649-.1835-.8265-3.0046-4.4751-3.7758-4.7366ZM204.8265,61.349c-.0435.034-.2175.2255-.3467.1095.0379-.0996.3158-.4527.4067-.3754.0544.0464-.0102.2271-.0599.2659ZM204.0372,61.3305c-.1226.1005-.4675.485-.6418.3161.1069-.2949,1.3923-1.8225,1.6483-1.5935.1533.1372-.8663,1.1624-1.0065,1.2774ZM207.1385,63.8449c-.0224-.167-.926-6.0762-.926-6.0762.5131-.0414.6217,1.0887.676,1.632,0,0,.3912,3.575.4346,4.0965s-.1623.5147-.1847.3477ZM208.0196,61.2208c-.0875-.2151-.4364-2.4514-.1582-2.4412.2747.0101.3148,2.1445.1582,2.4412ZM209.3497,63.8758c-.2291-.279.4119-1.1379.6903-1.1659.0744.5442-.3549.83-.6903,1.1659ZM210.225,63.5742c-.0257.025-.1013.1369-.193.0711-.0325-.0651.1571-.2974.2213-.2538.0384.0261.0012.154-.0282.1826Z"/>
    <path class="cls-1" d="M214.2906,63.7211c-1.0772-1.0061-.1087-2.6453-1.1979-2.4859-.4792.0656-.4463.4107-.4463.4107-2.2633-2.6863-4.7576-5.3697-7.3336-7.7601-1.3326-1.2366-3.6295-3.6344-5.4246-3.7145-11.0359-.4923-22.2169-.3937-33.2731-.4194-4.3448-.0101-9.6736-.5262-13.9292-.1176-.4053.0389-1.023.0734-1.2435.4571-.3035.5281-.5437,3.3926-.6114,4.1711-.0593.6815-.1322,5.1736-.3207,5.3652-.1897.1928-2.6018-.4614-3.5289.9886-1.093,1.7097-1.3556,8.2824.5565,9.3681.4373.2483,1.6709.3591,1.6709.3591,0,0,.0095.5296.0222.702.0888,1.2039.158,2.645.3354,3.8187.2192,1.4502.3365,2.5227,2.0617,2.7212l8.5555.4272v2.3912c0,2.9698,2.5938,4.7528,5.3532,4.6838,1.7386-.0434,3.1186-1.3908,3.191-1.5394.4709.5506,1.8761,1.8157,2.4019,2.0663,3.8273,1.8238,8.0926-.6453,8.4025-4.8376l20.9415-.6393c-.0819,5.3164,7.9657,7.1326,9.4613,1.7004l1.2672,1.6745c3.0807,2.9625,8.6618,1.0818,8.9049-2.9927l.1388-1.8696c0-.3113,2.569.8031,2.6651-1.0095.1419-2.6744-.5726-8.3246-2.1086-10.5462-1.9229-2.7814-4.8992-1.8672-6.5119-3.3735ZM148.8908,68.1578c-1.1523,3.48-1.9965.1865-2.0993-2.2095-.0388-.9043.0689-5.471,1.2361-5.665.5618-.0933.9125,1.2266,1.0089,1.6139.4456,1.7902.4374,4.4993-.1457,6.2605ZM152.6892,51.1254h1.9667v2.6568l-2.3415-.0138c.0104-.5422.0054-2.6431.3749-2.6431ZM152.253,54.3034c.0761-.1521.3187-.0909.6676-.0916.4027-.0008.8513.0318.8482.1894-.0023.1162-.5257.0528-.6832.0474-.1536-.0053-.5397-.0344-.6049.0362-.0652.0707-.0543.7752-.0543.7752,0,0-.0199,1.2459-.0253,1.4307s-.2114.1349-.2241-.0021.0077-.744.0217-1.2007c.0109-.3532-.0331-1.0095.0543-1.1844ZM150.3505,74.8245c-.2266-.0837-.3787-3.9028-.4789-4.464l.9579-.0003c-.0619.2021.0388.851.2651.851h2.1793v3.6133h-2.9234ZM151.7862,75.7796c-.3268-.4992,2.0688-.0865,2.3381-.21-.2009.337-2.2236.3849-2.3381.21ZM157.9565,54.2657c-.0135,4.6645-.4385,9.3616-.647,14.019-.0966,2.1583.017,4.3941-.2342,6.5136-.4729.1216-3.3871.0415-3.3871.0415l.1187-3.6271,2.3691-.129c.2867-.099.3074-.4474.3655-.6974.6048-2.6014.7277-9.6615.7758-12.6148.011-.6721.0595-3.2187-.2752-3.6649-.3156-.4207-1.9632-.3234-1.9632-.3234,0,0,.0021-.1372.0021-.1604,0-.4169-.0125-2.4725-.0125-2.4725,0,0,2.1091-.0877,2.44.1876.6223.518.4502,2.1796.448,2.9277ZM155.8614,66.1438c.0057-.2159.0099-.5055.297-.4274,0,0-.068,2.4936-.1014,3.1547-.0252.4993-.3464,1.1677-.527,1.4235-.1304.1848-.2834.1385-.1847-.0216.1331-.2159.3857-.8476.4292-1.2822.1243-1.2428.0597-1.8072.0869-2.8469ZM155.5282,65.2963c-.0218.4787-.0417.8113-.1123.8167s-.0875-.1484-.0906-.2432c-.0198-.5899-.0343-1.1205-.0234-1.2618.0109-.1412.2454-.1539.2454.0199s.002.2067-.019.6683ZM159.7704,56.0316c-.0863-.0005-.1183-.2165-.1183-.2832,0-1.206.0804-2.776,0-3.9321-.0121-.1745-.1131-.46-.2469-.7571-.0529-.1174-.1333-.3342-.0708-.3588.1285-.0504.4314.3782.4975.6516.275,1.1374.0915,3.115.0724,4.3899-.0036.2426-.0477.2901-.134.2898ZM160.4002,70.3117c-.01.4403-.0951,4.1835-.376,4.1915-.4632.0131.1519-5.8887.1607-6.0551.0088-.1664.2013-.127.2158-.0075.0573.4726.0092,1.4463-.0004,1.8711ZM198.293,54.5272c-12.0522-.4866-24.1338-.4413-36.1958-.7449-.0281-.6911-.117-1.5733,0-2.1786.0706-.3655.4028-.6983.7953-.6927,10.5906-.1521,21.2033-.217,31.791.1043.6982.0212,5.0951.1544,5.3119.5346.139,4.4233.2413,8.8383.4723,13.2599l-38.2649-.187-.1063-9.9909c2.642-.0667,6.2206.0749,8.8553.1299,7.6012.1587,14.072.2669,21.6742.3187.9978.0068,5.0075.2457,5.6621-.0287.3823-.1603.4126-.3967.0049-.5246ZM177.3661,84.1377c-5.1125,4.8444-12.2731-2.9404-7.3634-7.6801,5.0562-4.8811,12.3682,2.9377,7.3634,7.6801ZM200.5795,77.2157c0,.6537-2.1112.7719-2.6005.801-4.217.2518-11.6185.2701-15.722-.3379-3.352-.4967-2.5925-1.4989-4.9245-2.9413-2.925-1.8091-5.3979-1.2204-7.9497.8346-.2572.2072-.9709,1.1072-1.0875,1.1445-.408.1306-4.044-.0056-4.656-.0863-1.7335-.2286-1.4659-2.737-1.4364-4.0383l38.3767.4257v4.1979ZM163.5841,71.7944c-.0147-.1744.1212-.2357.2684-.2631.6192-.1149,2.0537-.0174,2.7678-.0066,1.8815.0286,4.6287-.0126,6.5122.0943.2902.0165.2499.2281.0197.2304l-9.5681-.055ZM200.5801,70.9992l-38.483-.2131v-5.42l38.3887.0232c.0992,1.9047.1726,3.6924.0943,5.6099ZM208.6977,75.8731l-7.1614.1204v-2.9757l8.3992-.0519-1.2378,2.9072ZM215.5031,84.3769c-6.4163.7105-7.1942-8.7626-1.34-9.4165,6.6968-.7481,7.2499,8.7621,1.34,9.4165ZM217.8541,72.5928c-.0641,0-.9114-.4672-1.1646-.5361-2.5935-.7062-4.6453.3909-6.1598,2.4597-.1765.2411-.7581,1.3681-.7581,1.3681l-.6121.0108s.8022-2.016.9301-2.244c.7672-1.367,2.2942-2.0149,3.8313-2.0149,0,0,1.8225-.0316,2.445,0s.5193-.3913.1491-.3861-9.9798-.4361-14.9793-.251l-.0064-5.4905c.1888-.1965,3.725.5425,4.2632.6505,3.9135.7859,7.6119,2.1719,11.2591,3.6225,1.4355.5709,2.6715,1.0636,2.8755,2.8111h-2.0729ZM221.7784,72.5949c-.5526-.0015-1.114-.0015-1.114-.0015,0,0-.1874-.78-.431-1.3727-.4614-1.1226-1.6163-1.4496-2.6441-1.8943-3.7826-1.6366-7.9045-3.0847-12.0432-3.8828-1.2266-.2365-2.7238-.5542-4.0096-.6375l-.3179-13.6806c3.4833,3.048,6.8765,6.2021,9.8331,9.776.7265.8781,2.4562,2.5503,1.8356,3.8047-.0284.0574-.2756.0815-.3459.2356-.1257.2756-.286,1.1173.1207,1.261.5649.1996.3866-.4178.5153-.6232.0989-.1578.4819-.1949.5923-.3642.1832-.281-.0373-.7232.2547-.6975,1.9982.9552,4.6083.9573,6.115,2.76-5.2324-1.4814-.9662,3.0354,1.3353,2.9705l.3035,2.3466ZM220.0164,68.6429c-.0257.025-.1013.137-.193.0712-.0325-.0651.1571-.2974.2213-.2538.0384.0262.0012.1541-.0282.1826ZM219.7181,68.3811c-.0435.034-.2175.2255-.3467.1095.0379-.0996.3158-.4528.4067-.3754.0544.0463-.0102.2271-.0599.2659Z"/>
    <path class="cls-1" d="M197.8598,55.838c-.7911-.0092-2.6946-.0308-3.3105-.0308-1.1124,0-6.7119-.0304-7.2042-.0054-.1562.008-.3115.1525-.3447.288-.0856.3493.0137,4.309.0892,4.7489.0468.2724.1414.5982.4346.6923.021.0068.0442.0093.0663.0093h10.5971c.2626-.0126.2554-.248.2622-.3755.0253-.4738-.1933-4.4392-.2118-4.9884-.0087-.2586-.1788-.3359-.3782-.3382ZM192.3946,58.6171c-.0304-.1603,2.9572-1.1236,3.0816-1.0083.0634.0587-.0114.2765-.1058.3712-.2671.2679-2.9042,1.0139-2.9758.6371ZM196.1141,59.3072c-.0219.0323-.6584.1434-.765.1503-1.3091.0835,1.2192-.8204.765-.1503Z"/>
    <path class="cls-1" d="M199.7798,66.5519c.0073-.2753-.7715-.5252-.7901-.0831-.0135.3202,0,1.2915,0,1.7004,0,.2949.7541.3555.7901.0018.0435-.4274-.0193-.8869,0-1.619Z"/>
    <path class="cls-1" d="M173.7703,78.0376c-3.0146.1649-2.8294,4.7218.1789,4.7548,3.0988.034,2.942-4.9255-.1789-4.7548ZM173.9978,82.3135c-.5161-.0157-1.8143-.4223-1.783-1.9004.0315-1.4861,1.0949-1.8535,1.6345-1.8613s.4849.2581.0469.3676c-.4403.11-1.2676.3361-1.2747,1.4937-.0078,1.2669.8759,1.4389,1.4077,1.478s.4849.438-.0313.4223Z"/>
    <path class="cls-1" d="M214.4769,77.7193c-2.0419.3813-1.9062,3.5629.2138,3.881,2.9425.4417,2.863-4.4557-.2138-3.881ZM214.2397,78.4403c.2571.0159.0257,1.7284.1582,2.0161-.5161-.2193-.5779-2.042-.1582-2.0161Z"/>
    <path class="cls-1" d="M147.9278,63.2548c-.6639.1935-.6944,3.3845.1872,3.2877.7456-.0819.799-3.5752-.1872-3.2877Z"/>
    <path class="cls-1" d="M152.6844,71.9849c-.3218-.0092-2.0427.1021-2.0427.1021-.3034.0309-.2174,1.4229.08,1.4092.8126-.0274,1.5005-.0534,1.9314-.0644.305-.0078.305-1.439.0313-1.4468ZM152.43,73.2134c-.1385.0017-.3597.0056-.6209.0098-.0956.002-.1036-.171-.0061-.1757,0,0,.5335-.0555.637-.0542.088.0012.088.2189-.0101.2201Z"/>
    <path class="cls-1" d="M203.119,66.5597c.0072-.2753-.7715-.5252-.7901-.0831-.0135.3201,0,1.2915,0,1.7004,0,.2949.7541.3555.7901.0017.0435-.4274-.0193-.8869,0-1.619Z"/>
  </g>
</svg>