<?xml version="1.0" encoding="UTF-8"?>
<svg id="Ebene_1" data-name="Ebene 1" xmlns="http://www.w3.org/2000/svg" viewBox="0 0 107.74 106.6274">
  <defs>
    <style>
      .cls-1 {
        fill: #201b15;
      }
    </style>
  </defs>
  <path class="cls-1" d="M68.8988,56.9505c1.3412-2.0588,1.9059-3.1059,4.4142-6.7898,4.2031-5.4971,10.9941-8.5693,17.9463-8.2461,4.5273.1621,9.3779,2.749,10.752,7.8418,1.374,4.8506-1.374,8.5693-4.9307,11.3984-6.4678,5.0928-13.9863,6.4678-17.0576,6.6289-.8086.0811-1.6172,0-1.9404-.4844-.4043-.6475,0-1.6172.6465-2.749,1.2129-1.4551,2.5059-2.9912,3.7188-4.6084,2.0215-2.2627,3.9609-4.4463,6.0635-6.6289,1.2119-1.1318,3.4756-2.5869,3.3145-4.4463.1611-.5654-.1621-1.0508-.4854-1.374-.4043-.7275-1.0508-.8887-1.8594-.8887-3.3955-.6475-5.9014,3.9609-7.8418,6.3857-4.3652,5.6592-8.4883,11.4795-12.6914,17.2197-2.4258,3.3945-4.9316,6.8711-7.3564,10.2666-1.375,1.6172-2.5869,3.4756-3.9619,5.335-.4043.6475-.8086,1.2939-1.374,1.8594-2.4248,3.3145-5.1738,6.6289-8.6504,8.4883-1.2119.2432-2.5059.7275-3.7178,1.375-2.1836,1.293-5.8213,5.2549-2.3447,7.2754,1.6162.8896,3.3955.4854,5.1738-.6465.5654-.3232,1.293-.6465,1.8594-.9707.4043-.1611.8887-.3232,1.293-.4033,2.5869-.7285,5.0127-.1621,7.3564.6465h-.0801c.4043.2422.8076.4043,1.2119.5654,8.4082,3.7188,18.6748,3.4766,26.9209-.6465,7.4365-3.7998,11.6406-10.5098,10.3477-18.998-.5664-3.6377-2.0215-6.4668-4.123-8.6494-1.0508-1.6982-2.0215-3.5576-.5664-5.3359.4043-.5654,1.0508-1.1318,1.5361-1.5361,2.5869-.9697,4.9316-2.2627,7.0332-3.9609l.0811-.0811c5.8203-4.042,10.832-12.6113,6.5479-19.3203-4.8506-7.8418-16.0869-8.5693-24.0908-5.9824-5.2188,1.6797-8.9375,5.5835-12.2671,9.9229-.2139.2791-.4258.5603-.6372.8425-.6719.9333-1.7065,2.3877-2.7803,3.8237-1.1885,1.5894-2.4219,3.1511-3.2563,3.9429-2.1025,1.8594-5.6733,4.7688-8.5034,3.637-2.3438-1.1318-.7275-5.1738.7275-8.0029.6475-1.0508,1.2939-2.1826,1.8594-2.9912,1.9404-3.2334,4.123-6.3867,6.3057-9.3779,4.5273-6.1436,9.3779-12.0449,13.8242-18.1074,2.668-3.5576,5.0928-7.0332,7.2754-10.833,1.2939-2.3447,3.4766-5.3359,3.7188-8.084.4854-5.3359-6.1436-4.6084-9.458-3.3955-6.6289,2.5869-12.207,9.1348-17.1387,13.9854-4.5273,4.4463-8.7305,9.0547-13.0156,13.7432-1.7783,1.6973-3.5566,3.4756-5.6582,4.6885-2.1025,1.2939-4.2852,1.374-6.3867,2.1826-.8896.1621-1.9404.3232-2.9102.6465-1.0508.2432-10.6709,2.5879-11.6416,5.3359-.1611.1621-.2422.4043-.1611.7275.4043,1.5361,1.293,2.4258,2.9912,2.4258,1.4551-.0811,2.1826-.9707,3.3145-1.4561,1.6162-.8887,3.1523-1.6973,4.9307-2.3438.1621,0,.3232-.0811.4854-.0811.5654-.2422,2.749-.8896,3.2334-.4854.3232.1621,0,.8896-.4844,1.6172-3.3955,3.6377-6.8721,7.1143-10.4287,10.5898-.3232.1621-.4854.3232-.7275.5664-.4043.3232-.8086.7275-1.2129,1.1318-.8896.7275-8.4883,7.5986-12.7725,9.0537-3.8809,1.2129-4.3662-2.668-7.5996-2.748-1.7783-.0811-2.9102,1.0508-3.4756,2.1826-.1621.2422-.2432.9697-.1621,1.293,0,2.9912,4.5273,4.3652,5.9824,4.3652,2.9912.0811,5.0117,0,7.4375-1.1318,4.8506-2.1826,10.4277-7.5986,10.5088-7.5986,2.5059-2.1826,4.9316-4.6074,7.2764-6.9521,3.0713-3.1533,6.3047-6.3057,9.377-9.459,3.9609-3.2334,7.8418-5.4971,13.2578-5.9814.8896-.0811,2.0215-.2432,3.0723-.1621,1.374.0811,2.9102.9697,1.8594,2.3447-5.6592,7.3564-10.5898,15.5215-11.4795,18.7549-.9697,3.3145-.3688,6.8498,2.4249,8.9737,5.0515,3.8403,13.4816-3.1001,15.1982-5.0127s2.6108-3.0538,3.9519-5.1126ZM90.4517,84.0328c1.2119,7.5996-4.123,14.1475-10.9141,16.7344-1.1318.4043-2.1826.7275-3.3955.9697-4.8506.7275-10.3477,0-14.4707-1.8594-.0801,0-.1611,0-.1611-.0801-.1621-.0811-.3232-.2432-.5664-.3242-2.5059-1.6973-2.5059-3.7178-1.4551-6.709.4854-1.6172,1.2939-3.1533,2.1826-4.6895.8086-1.293,1.5361-2.3438,2.0215-2.9102.7275-.9697,1.4551-1.9404,2.3447-2.9102.6465-.8086,1.1309-1.374,1.4551-1.8594,4.042-4.042,8.4072-7.2754,14.5508-5.8203,1.0508.3232,2.0215.7275,2.9912,1.293,2.749,1.9404,4.8506,4.7695,5.417,8.165ZM53.3062,29.9693c3.2334-3.6377,6.6289-7.1143,9.8623-10.752.5664-.6465,1.2939-1.374,1.8594-2.1016l1.7783-1.7783c1.1318-1.2129,2.3447-2.5059,3.5576-3.6377,1.293-1.1318,2.5869-2.1836,4.042-2.9912.8887-.4854,2.0205-.6475,2.9912-.5664,3.3945.8086,1.1318,4.8506.1611,6.3867-.4844.8086-.9697,1.6973-1.5361,2.5059-1.5352,2.0215-3.1523,3.9609-4.6074,5.9014-1.6172,2.1016-3.2334,4.2041-4.6885,6.1445-1.4561,1.5352-2.9912,2.9102-4.7705,3.7988-.8887.2432-1.7783.3232-2.9102.4043-1.4551.1621-3.1523.2432-4.6885.0811-2.9912-.3232-2.4248-1.8594-1.0508-3.3955Z"/>
</svg>