<?xml version="1.0" encoding="UTF-8"?>
<svg id="Ebene_1" data-name="Ebene 1" xmlns="http://www.w3.org/2000/svg" viewBox="0 0 246.834 117.8096">
  <defs>
    <style>
      .cls-1 {
        fill: #a57c50;
      }
    </style>
  </defs>
  <path class="cls-1" d="M232.9458,50.5203c-3.6107-1.6097-7.6755-2.0065-11.1983-3.46-1.0733-.4428-3.8762-2.3891-4.1866-3.4357-.2837-.956.046-2.586-.0906-3.7205-.3283-2.7278-2.348-3.6945-3.3376-.7667-6.8078-8.1942-14.2423-16.1284-21.981-23.4596-3.8987-3.6935-8.6721-8.215-12.9136-11.4191-.9806-.7408-2.0975-1.8978-3.3478-1.9291-5.1099-.1282-11.2705-.0727-16.3003-.1169C119.8626.6564,80.0879-.1241,40.2848.0161c-7.1077.0251-14.2232.3842-21.3322.4938-2.1597.3888-2.179,2.1243-2.5168,3.9329-.6104,3.2676-1.0382,10.0275-1.0382,10.0275l-.666,9.0651-.6851,8.8606h-6.303c-.7082,0-2.8458.5138-3.9304,1.6397C-.001,37.9954-.4418,50.5459.3011,55.6693c.3592,2.4772,2.1673,9.6619,4.8729,10.3715.8399.2204,1.7286.4419,2.62.5076.4313.0318,2.331.2313,2.331.2313,0,0,.3388,4.3595.3898,5.1656.0942,1.4901.1682,3.3712.3062,4.8658.2441,2.6431.3311,8.1335,1.6334,10.3863,2.1686,3.7517,8.8306,3.3274,12.4906,3.4701l10.7672.296,9.4097.3585s-.1425,4.806,0,6.8894,1.0939,4.4054,1.5348,5.5012c3.6168,8.9889,14.7901,12.1419,23.5411,9.3139.7864-.2542,3.5948-1.7748,3.8047-1.7758.3549-.0017,2.9292,2.4336,3.5633,2.8891,10.8087,7.7634,25.8694,2.6707,29.2713-10.2077.1954-.7397.3342-3.2897.9148-3.4827.7369-.245,2.5199.0231,3.4775-.0404,19.9742-1.327,40.0644-1.0707,60.1128-2.0382.574-.0276,2.6018-.0371,2.9533-.0279.1658.0044.3562,2.4777.4774,3.0212,2.7833,12.4801,19.6698,18.0283,28.0655,7.3951,1.1885-1.5052,1.6921-2.9976,2.4166-4.6193.2873-.6429.8223.5431,1.3507,1.4506,4.7161,8.1001,14.9626,10.6955,23.1142,6.0107,6.1538-3.5366,9.7757-10.8726,8.3043-17.9338h6.0099c.259,0,1.0788.0441,1.9256-.7128.8948-.7999.8439-1.7879.8742-2.3754-1.3848-12.7496.1494-33.8009-13.8882-40.0588ZM8.4341,61.2304c-1.5253,3.6281-3.1052,3.789-4.5818-.0242-2.1145-5.4607-2.5139-20.7285.9783-25.5668.2245-.3112.8923-1.0698,1.2137-1.1531,1.3095-.3393,2.2862,1.8159,2.6592,2.813,2.2075,5.9012,2.1776,18.1109-.2694,23.9311ZM238.0242,61.422c.1657.1317-.6356.8273-.8781.5823-.4655-.4702.5455-.8467.8781-.5823ZM175.2884,4.5441l-.8835,19.3488-2.4003-5.3645c-.3754-.7797-1.6347-2.4624-2.5824-1.8312-.2491.1659-.2828.9215-.5861.9108-.8236-.0288-2.9725-.4133-3.7836-.5469-10.6904-1.7606-23.8491-1.5075-34.1851,1.8439-.9187.2979-5.8017,2.3998-6.1217,2.3301-.5381-.1173-1.2994-2.8315-1.4953-3.4975-.6172-2.0979-.7081-4.7895-1.3224-6.5929-.5106-1.4992-1.5519-.5878-1.7378.6005-.2489,1.5907.2997,3.0584.2177,4.6047-.6451.6759-1.8004,5.4266-2.1823,5.513-.5324.1206-1.8066-.3001-2.5838-.3275-2.1967-.0774-4.5341.3505-6.4777.3258-.6344-.0081-1.0108-.5251-1.7283-.6217-1.0534-.1417-3.56.1068-4.6348.2509-1.48.1985-6.3686,3.0663-6.9155,2.6505-.1168-.0888-.1272-.5521-.3287-.6841-1.0891-.7137-6.6871.6344-8.3659.6754-2.6452.0646-5.5431-.294-8.1807-.2167-1.7506.0513-7.2089,3.5292-8.3312,2.8595-.1216-.0726-1.2673-1.6813-1.8063-2.1521-2.0111-1.7571-4.1715-2.713-6.143-4.1178-.7061-.5032-1.41-1.6562-2.1438-1.9605-.8021-.3328-1.5875-.0687-2.2687-.3699-.5803-.2565-1.2819-1.6373-1.9663-1.8445-1.7995-.5448-3.1001,1.1224-4.0541,1.0174-.6356-.0701-1.6798-2.2851-2.9228-2.278-1.2377.0069-2.8613,2.3389-4.545,1.7897-.3191-4.7514-.0647-9.6268-1.47-14.2157l131.9295,1.9004ZM178.8951,64.7973c.0876.6752-.333.5597-.3806.1387-.0475-.4208-2.9245-23.7476-4.3974-35.7635.4043-.0718.4023.2063.4628.4928.3229,1.5294.4599,3.0721.6383,4.4123,0,0,3.5892,30.0445,3.6769,30.7197ZM170.9019,30.7713c.1616,1.372.2601,2.3859.4451,4.1248.7948,7.4713,2.6271,22.6444,2.1784,22.7106-.4487.0663-3.2195-27.8492-3.2195-27.8492.5369.1127.5441.5732.596,1.0137ZM170.2564,24.2871c-.1052.3715-.4426.6507-.6904.198-.34-.6213.095-3.2343.4693-3.4954,1.4446-1.0076,3.3258,3.8283,2.6104,4.0758-.4285.1457-1.6342-2.9392-1.904-2.9291-.2699.0101-.3054,1.5153-.4854,2.1507ZM165.6099,77.542s-.6196-1.3189-1.8419-2.528c-1.2223-1.2091-2.1381-1.7578-3.4272-2.2339-1.5401-.5689-3.2607-.7701-3.5247-.8085-.8022-.1167,2.6321-5.5334,2.9412-6.2934.5779-1.4207.665-2.9717,1.1533-4.4168.4362-1.2909,1.3041-2.5276,1.6865-3.8838,1.0446-3.7045-.9156-4.2084-1.3-7.3274-.3403-2.7617-.0343-5.1146-.8116-7.9833-.4886-1.8032-1.4996-3.106-2.0494-4.6934-.8201-2.3678-.714-4.3247-2.0531-6.7418-1.3064-2.3579-5.925-6.5353-8.4936-7.3373-2.4676-.7705-7.2899.0922-9.6399,1.2338-1.8816.914-1.762,2.3397-2.4459,2.9025-.4343.3573-1.7926.641-2.4513.995-1.6691.8971-4.1252,3.2755-5.0321,4.9356-.6245,1.1434-1.9468,6.4169-1.9645,7.7152-.0179,1.3092.5536,3.0534.2634,4.5104l-2.6526-5.1206c1.5924-.3657-.1101-2.688.0168-2.791.0894-.0724.9976-.0006,1.3579-.2271,1.2062-.7581-1.7575-5.3466-1.9222-7.0613,0,0,.8128-.0731.8603-.4995.0615-.5528-.2941-1.2812-.5564-2.0794.521.539,1.2375,1.3446,1.7848,1.8147.7863.6753,1.6689,1.2461,1.6945-.004.0126-.6146-1.2383-1.5173-2.1015-2.7062-.9622-1.3253-1.5276-2.9415-1.0813-3.5695.2663-.3748,7.0962-2.6037,8.1087-2.884,5.2078-1.4417,11.2412-2.4997,16.6149-2.734,1.5807-.0689,12.2875-.0606,12.7589.6113.1127.1606-.2817,1.4081-.3006,1.8803-.2729,6.819,1.7114,14.4558,2.3585,21.4148.9829,10.57,1.6185,21.3596,2.0518,31.9553.0538,1.3149-.0328,2.6423-.0015,3.9552ZM156.5411,64.7629c-.3518-2.8786,2.6553-5.1567,1.3018-8.3277-.2526-.592-.8263-1.0764-.9639-1.6713-.5876-2.5416,1.4272-4.3162,1.4267-6.6837-.0004-1.72-.931-2.7419-1.4221-4.1701-1.4538-4.2285-.4956-8.3813-3.0483-12.4894-.2523-.4061-2.4051-3.2857-2.8808-2.8332-.164.156,2.3001,3.1795,2.5827,3.7176,1.9443,3.7023,1.3875,8.1403,2.7639,12.1876.2796.8222.955,1.6031,1.085,2.4306.4805,3.0599-2.1143,5.5565-1.1683,8.2086.3768,1.0565,1.2304,1.5116,1.1996,2.9018-.0409,1.846-1.5699,4.0626-1.7668,5.6095-.265,2.0817,1.1216,2.4896-.1554,5.6928-.1124.2819-.144.4355-.2897.8448-.5018-1.0356-1.3504-2.0137-1.6806-2.9769-1.0855-3.1669.9748-5.9925.97-8.8627-.0031-1.8191-1.0488-3.3675-.8985-5.5677.1147-1.6799,1.1919-3.5445,1.1934-4.986.0016-1.655-1.2597-2.8874-1.4656-4.4223-.2562-1.9099.2289-4.1531-.0934-6.063-.2371-1.4047-1.4185-2.7331-1.836-4.0274-.4009-1.2428-.3662-2.5962-.7994-3.8912-1.0201-3.0492-4.1988-5.8271-7.4691-4.0832-.5361.2859-1.7927,1.8036-2.4313,1.2308-.456-.4091,1.2273-1.4211,1.4887-1.5869,2.6211-1.6631,5.1103-1.5612,7.6964.1707.7653.5124,4.5152,3.9566,5.0145,4.6599,1.664,2.3446,1.6968,4.4271,2.4227,6.9586.5713,1.9922,1.6509,3.5775,2.2337,5.6817.8618,3.1115.4524,5.9786,1.1566,8.8109.4287,1.7241,1.5106,2.5536,1.3903,4.4692-.1165,1.8543-1.418,3.5915-1.973,5.3665-.4058,1.2976-.4594,2.7666-.9495,4.0343-.6431,1.6635-2.3743,4.0162-3.0403,5.6674.0139-.777.1506-1.1491.2268-1.4432.2119-.8183.7756-1.9184.7334-2.7503-.0298-.5866-.4773-1.1773-.5543-1.8072ZM141.6864,80.0044c.185-.407.6327-1.3858.9286-1.8627.2577-.4151.6955-1.3285.8311-1.539.1018-.1579,1.8504-.8122,2.6263-1.2464,1.4478-.8104,2.976-2.1766,4.275-3.2716.2117-.1785.6738-.6875.6738-.6875,0,0,1.4287.4689,1.8315,1.0268-.3885.2128-.6469.3539-1.0008.5935-1.2822.8684-3.8025,2.8515-4.8642,3.9307-2.0724,2.1066-3.2526,5.018-5.4148,7.0447.1811-1.2441-.3706-2.9239.1134-3.9885ZM131.0773,63.56c-1.4948-2.5665-2.5442-10.7616-2.0939-13.7033.1312-.8568.296-.9554.6154-1.2958l.259-.3423c3.8018-3.6353,8.6021-4.3795,13.4782-3.3671,3.4162.7094,6.3929,1.6818,7.5373,5.3619.7984,2.5677.3009,10.0358-.8354,12.4881-1.7496,3.7757-7.3304,7.1954-11.5192,6.6078-2.0867-.2927-6.351-3.8771-7.4415-5.7494ZM132.485,74.0227c-.6686.2399-2.9051-1.1926-2.9263-1.6098-.074-1.4581,2.9119,1.0089,2.9263,1.6098ZM125.3391,50.2424c.2099.4096.5734,1.0344.4018,1.208-.2641.2671-.6934-.0033-.9656-.3579-1.8219-2.3725-4.0304-8.568-3.7211-8.7288s4.2849,7.8787,4.2849,7.8787ZM123.1065,33.2755c.4864-.1285,2.0691,3.253,1.0234,3.2194-.6588-.0211-1.5098-3.091-1.0234-3.2194ZM127.2055,56.4354c-.1183.1286-2.1848-1.2903-1.7537-1.7588.1183-.1286,2.1848,1.2903,1.7537,1.7588ZM129.5534,68.4525c-.087.177-1.2276-.1753-2.0265-.51-1.7768-.7445-3.8651-2.1313-4.2712-3.0104-.5114-1.107-.0961-1.5093,1.0101-1.01,1.0098.4558,2.5657,1.9682,3.8554,3.2066.5456.5239,1.4977,1.1907,1.4323,1.3239ZM149.491,31.0743c.6404.9117.6994,1.9655,1.1183,2.986.2728.6649,1.7621,2.7836,1.2241,3.3184-.456.4535-8.0887-1.9696-9.0084-2.5699-1.1984-.7823-2.3468-4.1775-3.4515-4.1837-1.0018-.0057-2.2641,3.6432-3.6883,4.5314-.8729.5443-5.5099,2.2336-6.6057,2.4864-.4872.1125-.424.0296-.4158-.4148.186-10.1632,15.8431-13.2501,20.8274-6.1537ZM137.762,25.9437c.5184-.8,2.1676-1.2444,3.0831-1.4587.248-.058.6328.2477.1366.5023-1.3763.677-1.4619,1.427-3.2197.9564ZM143.0403,26.3875c2.4578-1.9294,6.1805.5861,6.4456,3.37-1.7652-1.7618-3.9213-3.0689-6.4456-3.37ZM145.7852,38.0748c-.2853-.0966-.2121-.0549-.4164-.1231-.2603-.0869-.2033-.3779.0955-.2826.2029.0647.2263.0721.4211.1339.3252.1031.185.3682-.1002.2718ZM144.0836,37.5911c-.2907-.0786-.3193-.0763-.7581-.1854s-.325-.4139-.0156-.3629c.3094.0511.5309.1361.857.2361s.2075.3909-.0833.3122ZM140.0644,36.4303c.3125.0265,1.5541.2313,1.887.3052.333.0741.2405.407-.0555.3516-.296-.0556-1.3413-.222-1.7873-.2963s-.3567-.387-.0442-.3605ZM139.8128,42.3663l-3.5847.6622c-1.1771.4315-2.4351.6294-3.602,1.0887-.7463.2937-2.9487,1.8931-3.0702,1.7644-.5195-.5506,1.9134-1.8321,2.2608-1.9874,2.4029-1.0746,5.3649-1.7342,7.996-1.5278ZM135.5612,69.0478c.1315-.0089,1.597.8489,2.2984,1.0191,2.4349.591,4.7176.0555,7.1397-1.2638,2.3825-1.2977,2.9615-1.8535,4.682-3.833.2035,1.0915.6409,5.6201.6409,5.6201-3.4951,4.0561-6.4355,5.8603-11.9099,4.3973-.5317-.1421-4.0286-1.3898-4.1611-1.5684-.1371-.185.9184-4.3445,1.31-4.3713ZM152.3126,71.0547c-1.4518-.8117-1.9665-4.6923-1.9717-6.2643-.0009-.2709.2807-2.2909.9052-1.6108.066.0719-.0453,1.4438.0247,1.8812.0999.6242.4045,1.3989.6326,2.0056.2839.7553,2.7814,4.409,2.5673,4.6125-.0993.0944-1.8375-.4449-2.1581-.6242ZM162.934,25.4425c-.3354-.0254-.3977-1.6003-.3977-1.6003-.111-1.3691-.3025-1.683-.1088-2.3752.2118-.7565,1.0985-.9743,1.6455-.4263.5834.5845,1.5528,3.5415,1.2438,3.7329s-1.4532-2.1062-1.611-2.0509c-.1578.0554-.2169,1.915-.2169,1.915,0,0,.0038.8472-.555.8048ZM164.7331,19.2063l3.7708.6232c-.2534,2.3747-.1153,4.7644-.2529,7.1457-.0264.457-.0329.6804-.0329,1.0135,0,.2219-.2076.1721-.2706-.125-.542-3.1057-1.7235-5.9124-3.2144-8.6574ZM119.8776,22.7229c.1057.1158-.1305.852-.6906,1.3139-.4486.37-.8503.5419-.8919.5038-.3384-.3097,1.2732-2.1564,1.5825-1.8178ZM102.5841,55.1145c-.1572-.2917.4806-.5933.7401-.0141.1209.2698.5511.8982.7493,1.2118.1856.2936,1.3501,1.6738,1.1472,1.8798-.4719.479-2.4143-2.6776-2.6366-3.0774ZM104.9262,63.4701c-.3976.4226-1.9285-1.3475-1.4619-2.0508.4997.0926,1.7555,1.7388,1.4619,2.0508ZM93.9445,70.9181s-2.7119-.4011-3.2227-.4235c-2.9575-.129-5.6771.1836-8.445,1.255-.7161.2772-3.2005,1.6106-3.2005,1.6106,0,0-1.6189-.9142-.3007-.5673.8852.2329.9482-.7046.4071-1.0006-.6355-.3476-1.0268-.6799-1.443-1.3598,0,0,1.0473.0448,1.3043-.5041.3053-.6521-1.4985-2.6779-1.4985-2.6779,0,0,.777.4186,1.0268.1526.305-.3248.0624-.777-.0962-1.1151-.4213-.8982-1.1779-1.9005-1.556-2.8063-.2438-.584.0205-2.7844-1.3216-1.9285-.1081.0689-1.24,1.9698-1.3206,2.1969-.5081,1.4302.5804,1.0861.5804,1.0861,0,0-.0555.5618-.2683.9713-.266.512-.7446.6845-.8903,1.2811-.1218.4987.4929,1.0257.4454,1.0709-.8676.8258-.9732-2.8324-1.9014-2.6346-.6626.1412-1.0769,2.7292-2.1998,2.9301.1038-.8126-.694-2.0685-.6126-2.7442.0376-.3122.9155-.0885.9288-1.2065.0072-.6082-.3654-1.1882-.6406-1.6691-.2482-.4338-.4172-.7871-.1567-1.0079.1882-.1594.9139-.2351,1.3686-.2513.5274-.0189.5165-.7216.2777-.8514-.5079-.2759-1.3096-.4752-1.6743-.8325-.4217-.413-.4399-1.5472-1.1025-1.4032-.1932.042-.4654.8861-1.0574,1.7778-.4391.6615-1.3537,1.1992-1.147,1.7159.185.4625,1.0915.0925,1.0915.0925,0,0-.0268.2938-.2544.9135-.0625.1702-.2148.4569-.3941.4817s-.2993-.3134-.4018-.5163c-.3644-.7211-.3841-1.7968-.8668-2.1738-.1758-.1374-.4819-.2499-.7608-.0555-.4348.3029-.3656,1.1025-1.0579.5559-.6439-.5084-.8266-3.4836-1.6385-3.516-.5756-.0229-.7673.7782-1.5633,1.6465-.9158.999-2.2812,1.4473-1.8315,2.1368.4163.6383,1.9425-.5273,1.9425-.5273,0,0-.3885,1.0175-1.0453,1.8685-.6238.8083-1.4338,1.4245-1.1266,1.9034.5052.7876,1.9776-.1089,1.9776-.1089,0,0-2.2258,3.4288-2.4515,4.3582-.1394.5741.7033.6924.7033.6924,0,0-1.0358,1.1644-1.7227,2.1161-.2753.3814-.5604.7131-.2862,1.1239.2699.4045,1.1025.1455,1.1025.1455,0,0-1.3802,1.0319-1.3924,1.6357-.0217,1.076,1.9752.2513,1.9752.2513,0,0-.796.9762-1.7483,1.7668-.6821.5664-1.4866.8865-1.6003,1.3598-.1242.5171.6845.888.6845.888,0,0-4.0956.2764-4.8494-.1796-.3983-.2409-3.7813-5.1901-3.7813-5.1901,0,0,.911.1625.8325-.3515-.0655-.4297-1.5494-2.886-1.5494-2.886,0,0,.6845.555,1.1555.3061.4251-.2247.269-.8796.269-.8796,0,0,.6876.349,1.073.1295.2301-.131.4371-.5481.2259-1.054-.2291-.5489-1.2255-2.4159-2.0435-4.2093-.9765-2.1408-1.6095-4.1209-1.6095-4.1209,0,0,1.5299,2.0219,1.7465,2.2358.307.3033.7649.4421,1.0332.1553s-.2941-1.1168-.2941-1.1168c-.4222-.7757-.5665-1.0954-.5437-1.182.0502-.1906.9095.7475,1.3975.4396,1.1655-.7354-.355-1.8032-1.9148-3.8388s-1.673-2.6966-1.8769-3.3406c-.0473-.1493-.08-.4788.1412-.4331.7321.4667,2.296,1.3476,2.4921.4342.0876-.4083-.6639-.6751-1.526-1.9867-.4285-.6519-1.0354-3.4176-.8155-4.0189.033-.0902,1.7604,1.218,1.7593.4367-.0013-1.0659-1.987-2.6559-1.761-3.9534,8.4523-.0664,16.9155.0787,25.3705.0114,1.1166-.0089,2.2025-.3618,3.5202-.3181,4.8899.1625,8.5165,2.5032,13.0997,3.9011,2.8243.8613,7.1771,1.5716,9.9577,2.4267-.851,1.3875.0713,1.9411.8418,1.776.777-.1665,1.6835-.7631,1.85-.555.333.4163-4.4586,4.0701-5.4206,4.6991-.628.4106-.4586,1.3376.2498,1.6465.6642.2897,2.4975-.9158,2.4975-.9158,0,0-.629.9364,0,1.628.5637.6199,2.3865-.4625,2.3865-.4625-.1901.5802-1.0119,1.7827-1.7945,2.7935-.6243.8064-1.406,1.3135-1.9795,2.0905-.3832.5192-.2069,1.6988.6845,1.7298.4828.0168,1.7483-.111,1.7483-.111,0,0-3.9641,3.0477-4.7708,4.2991-.7173,1.1126.5805,1.8615.5805,1.8615ZM75.9069,67.8689c.1784-.2227,1.3888,1.2733,1.1699,1.4632-.651.5651-1.6072-.9171-1.1699-1.4632ZM75.3188,75.1962c-.1415-.2774.1201-1.3384.2992-1.5664s.5841-.2423.7233-.1882c.483.1873.5362.6294.3541,1.0287-.1575.3453-.4128.739-.7966.8278-.1615.0374-.4386.1755-.58-.1019ZM77.0756,65.8154c-.3454.3327-2.3098-1.1142-1.7549-1.7577.1196-.1386,2.2036,1.3255,1.7549,1.7577ZM71.5009,72.2717s.5805.5431.2998.8712-1.1901.4582-1.4648.2952c-.8908-.6048.2812-1.3123,1.165-1.1664ZM72.0918,68.7498c.3207.3281-1.1487,1.7848-1.4631,1.4631-.3207-.3282,1.1487-1.7848,1.4631-1.4631ZM73.1166,74.0078c.3764.0036.7351.3418.9856.767.2534.4302.5935,1.1499.3348,1.3014s-.9802-.6672-1.3548-.5978-1.0725.9928-1.2102.8176c-.1586-.2017-.0031-.821.2821-1.3645.2597-.4949.6269-.9269.9624-.9238ZM72.6768,70.7992c.0056.2947-.2762.3783-.2878,0s-.0092-.5236,0-.8769.2752-.4168.2878,0-.0057.5822,0,.8769ZM64.4732,63.028c-.1555-.1852-.1056-.305-.0011-.4347s.28-.1578.5808-.0004.4428,1.0606.347,1.1102-.7713-.4899-.9268-.6751ZM65.3491,66.1102c.1457.2246.1919.4928.2289.9461s.1028.7913.0653,1.1033-.3887.1304-.5239-.0406c-.3034-.3834-.4042-1.3912-.2718-1.8951.0799-.3042.3559-.3382.5016-.1136ZM65.934,80.4743c.3725.323.5213,1.0814.2943,1.4653s-1.2133.0845-1.5868-.3376.9201-1.4507,1.2926-1.1277ZM65.0588,75.1969c-.3063-.1717.2209-1.3073.5585-1.5206.3237-.2045.6013-.2283,1.0083.0648s1.1045,2.6603.7743,2.9227c-.2476.1968-.5088-1.8396-1.3385-2.1919-.2766-.1174-.6962.8967-1.0025.7251ZM69.1589,64.3509c-.2855.2217-1.1718-1.2798-.8743-1.4656s1.1598,1.2439.8743,1.4656ZM68.5778,59.9535c.1317-.1657.8273.6356.5824.8781-.4702.4654-.8468-.5455-.5824-.8781ZM68.5725,69.3347c-1.2817-.6465-2.1749-2.4961-.2918-2.9303,0,0-.1241.5317-.0409,1.3642s.3327,1.5662.3327,1.5662ZM67.4052,79.5956c.3766.1527,2.2939,2.4227,2.0482,2.637-.7726.6739-2.2953-1.8808-2.0482-2.637ZM62.5023,75.531c-.8019.0031-2.5832,1.6777-1.4964-.1335.474-.7899,1.4648-1.4095,1.9975-1.0805s.6065,2.1343.2921,2.64-.5808-1.4269-.7932-1.426ZM62.4146,82.8194c-.0491.0349-.6188.1008-.5786-.1419,0,0,.6438-1.7943.8731-1.6149s-.1871,1.6803-.2945,1.7568ZM57.1356,81.4959c.1195-.1298,1.9707-1.7061,2.0556-1.6071.3751.4375-1.4115,2.3454-1.9047,2.3386-.1953-.0027-.5304-.3198-.1509-.7316ZM56.2636,78.1283c-.4139-.4058,1.1958-1.432,1.4631-1.17.4139.4058-1.1959,1.432-1.4631,1.17ZM58.609,72.265c-.4704-.4656.6848-1.6436,1.1699-1.1699.3139.3064-.8522,1.4843-1.1699,1.1699ZM59.4884,68.747c-.2188-.2424,1.0059-2.3242,1.3179-2.3385,1.3815-.0635-.7963,2.9168-1.3179,2.3385ZM61.5365,62.0057c.4014.6548-1.3644,2.1631-1.4605,2.052-.2238-.2589,1.0212-1.9564,1.4605-2.052ZM62.1879,70.2522c-.266-.1024-.1472-.4727.0781-.8384.3507-.5694,1.0906-1.0562,1.4586.0394.0666.1984.1823.6441.1588.7597s-.2941.1364-.8213.1364-.6082.0052-.8741-.0971ZM63.0051,64.3484c-.0657-.081.1656-.3215.3876-.5528s.4141-.3707.4892-.3241.0288.4628-.0914.6108c-.1999.246-.7197.3471-.7853.266ZM103.6085,26.2563c1.1517.1065,3.5056-2.5669,5.3462-2.8789,1.3214-.224,2.7696.1158,4.0205-.0834.5591-.0891,1.1487-.2914,1.6384-.3259.6315-.0443.9898.1925,1.6157.326.3623.0772,1.2158-.0561,1.3044.0164.0782.064-.7155,1.4544-1.0638,1.7186-1.7144,1.3008-5.6788,2.0434-7.5899,3.4793-1.908-1.8021-4.9081-.8603-7.3223-1.0978-1.6526-.1626-3.1163-1.1566-4.8386-.8806.8786-.7849,2.418-1.6782,3.5117-2.2023,1.9258-.9228,3.169-1.0627,5.2829-1.3105-.4352.5526-4.0501,3.0407-1.9051,3.239ZM99.6519,46.4664c-.4397-.4195,2.3417-3.714,2.6381-2.1916.1492.7661-1.9823,2.8174-2.6381,2.1916ZM99.0771,56.308c-.3882.0946-.8982.0076-.887-.3122.0079-.227,2.7818-2.6343,3.2181-2.1974.6348.6355-1.704,2.3567-2.3311,2.5097ZM101.6777,35.1446c-.0647.3245-.0787,1.0022-.7997,3.0228-.9907,2.7763-2.1465,3.4925-1.721,3.918.6389.6389,2.072-1.0175,2.072-1.0175,0,0-.6556,1.6784-1.48,3.0063s-2.3718,2.3931-2.4975,2.7195c-.4703,1.2211,1.0119,1.372,1.8128,1.1426-.1731.4476-.8184,1.059-.8184,1.059,0,0-2.2152-.6415-3.1867-.8695-1.8811-.4415-3.5552-.8947-5.4403-1.4472-2.4576-.7202-5.1376-1.6627-7.533-2.6876l32.5029-16.1573c1.5364-.7997.4218.1947,1.0563.4695,1.0995.4762,3.1589-3.1214,2.1907-.1489-.6211,1.9069-1.5106,3.5888-2.7896,5.1257-.6553.7874-3.2643,2.595-2.4578,3.7692.5828.8485,2.9538-.442,3.1511-.5813.3145-.222-.2971.5787.2963,1.0591.5085.4117,1.5815-.2451,1.5815-.2451,0,0-1.053,1.7576-2.5438,3.4411-1.261,1.4239-2.7031,2.8379-3.0248,3.1404-1.9425,1.8269.4625,1.8269.4625,1.8269,0,0-1.4866,1.7768-.5653,2.4106.9284.6388,2.3601-.7532,2.3601-.7532,0,0-.6001.9152.2422,1.2666.5785.2413,2.6606-2.0956,2.6606-2.0956,0,0-.9574,1.7067-2.4837,3.9822-.5447.8121-1.2626,1.7764-.9604,2.4267.336.7229,1.8865.0416,1.8865.0416l-6.4242,6.8497-2.5174-3.4975s1.235.2411,1.1541-.5899c-.0887-.9107-1.4316-3.1749-1.4316-3.1749,0,0,.887.0872,1.0125-.4972.171-.7964-1.0403-2.3334-1.0403-2.3334,0,0,.8741.3053,1.0684-.4163.1745-.6481-1.5679-2.109-1.5679-2.109,0,0,1.0406-.0139.3469-1.2765-.7856-1.4299-1.5296-3.0977-1.8838-4.6174-.2597-1.1143.8061-.1279,1.4167.3346.4777.3619,1.0646-.2829.5735-.74-.1786-.1662-1.0129-.7909-1.5263-1.4708-.4575-.6059-.7206-1.2212-.8553-1.5396-.474-1.1203-.2315-1.456-.4674-2.899-.0305-.1867-.2081-.7493-.8464-.7354s-.9204.5635-.9851.888ZM102.5809,37.6743s.1781.012.1817.1217-.1829.3128-.1829.3128c-1.5661,1.9346-1.6089-.6622.0012-.4345ZM101.7013,30.9315c.538.4633-.41.6278-.5778.7266-1.971,1.16-4.224,1.8262-6.269,2.8312-3.763,1.8492-7.3244,4.2034-11.3278,5.5264.4883-.8077,1.6124-1.3238,2.4407-1.8075,2.8682-1.6747,6.5039-3.8197,9.4735-5.1848.8444-.3882,5.8889-2.412,6.2605-2.0919ZM79.1291,35.9113c1.9287-1.5787,4.2039-3.0891,6.3588-4.3389.6057-.3513,5.154-2.9076,5.3652-2.6942.3521.3557-.456.7845-.6636.9462-1.1542.8988-3.1891,2.016-4.52,2.809-2.0034,1.194-4.3562,2.6159-6.5404,3.278ZM93.7933,25.8059c-2.9281,1.7474-6.5012,3.2245-9.5554,4.8201-2.512-.1403-5.1008-1.0397-7.602-1.159-1.5604-.0744-3.4552.8174-4.2474-1.0323-.2015-.4704.1659-.3957.3674-.4986.8597-.4386,5.4413-2.2606,6.3276-2.3755,3.4402-.446,6.3695.1828,9.7681,0,1.9088-.1026,3.906-.4808,5.815-.491-.3066.343-.554.5457-.8734.7364ZM78.5402,33.2754c-.096.1047-2.2243-1.2938-1.7537-2.052.3825.1751,2.0772,1.6988,1.7537,2.052ZM75.0205,36.6512c1.0352.865,2.3188,1.504,3.229,2.485-4.3971-1.55-7.2422-5.475-10.847-8.2034,3.1198.5836,5.27,3.7565,7.618,5.7184ZM71.2135,38.5499c-1.7332-.5326-3.5038-1.7259-4.9527-2.8134-.3759-.2822-3.4465-2.5662-2.9613-3.0459.2354-.2328,1.1555.5793,1.4298.7663,2.2549,1.5364,4.355,3.3915,6.4842,5.0931ZM68.8683,27.4095c-.6339.4998-4.6316.0246-5.9455.6533-.9422.4508-.5434,1.9809-1.2335,1.6924l-7.9726-6.3938-8.3003-5.0347c1.0311.4903,3.3059-1.4249,3.6669-1.4023.3994.0251,1.4168,1.8582,2.6597,1.9846,1.3645.1388,2.8367-1.2726,3.6469-1.0546.988.2658,1.3204,1.9075,2.8554,2.1795.4605.0816,1.0194-.2069,1.2609-.0984.2094.0941,1.7236,2.0317,2.509,2.4563,2.1444,1.1591,2.2809.9516,4.3664,2.6695.24.1977,2.9993,1.9439,2.4864,2.3481ZM54.4137,32.9253c-.2472-.1584-1.8143-1.0231-1.375-1.4073.5157-.4512,5.62,2.8577,6.3671,3.4511.2042.1623,1.0217.5833.6649.9448-.2247.2277-5.1285-2.65-5.657-2.9886ZM59.7782,41.1943c.0668.5437-.6011.2373-.8927.1601-2.5064-.6626-6.5982-2.9262-8.7544-4.4397-.5072-.356-1.5071-.8888-1.4886-1.5869,3.7934,1.8005,7.1681,4.416,11.1357,5.8665ZM58.3143,28.8753c-1.2844-.4324-2.7097.5371-3.6843.5763-1.451.0584-2.7725-.1987-4.1506-.5106-2.436-.5513-1.7258,1.6601-2.8478,1.6914-.1468.0041-2.8028-.7281-2.8028-.8749v-9.9676c4.7749,2.5552,9.6591,5.2148,13.4855,9.0854ZM44.8275,46.4665c-.1673.1858-.4344-.0012-.4344-.0012-.3712-.2499-.4766-.5065-.4662-.8807.0025-.0892-.0119-.2523.1316-.2592s.768.7065.768.7065c0,0,.1683.249.0011.4347ZM44.6949,55.5434c.6422,1.2418,1.7483,3.4479,1.5971,3.5306s-2.6557-4.271-2.34-4.3974.7429.8668.7429.8668ZM44.4666,48.4589c.1196.0971-.0062.5848-.0278.9505-.0411.6956-.06,1.4608-.1934,1.4544-.1647-.0078-.6953-1.6668-.2271-2.1944.1104-.1245.3286-.3076.4483-.2105ZM44.2804,39.7822c.132.1281.0809.3654.1272.8649s.1837,1.0114.1254,1.1301-.2788-.1459-.4091-.2995c-.1974-.2325-.368-.5628-.4528-.8754-.1037-.3823-.079-.7381.1824-.8557.0957-.0431.295-.0924.427.0357ZM46.5109,67.972c-.148.3515-.8844-.4181-1.1619-.7699-.9939-1.2601-2.1371-4.8044-1.6901-4.9033s3,5.3217,2.852,5.6732ZM44.5315,70.215s.6612,1.8271,1.2163,2.7521c.555.925,1.6081,3.0016,1.4238,3.1103s-2.1268-2.5748-2.6862-3.9073c-.2107-.5017-1.1241-2.2048.0462-1.9551ZM98.9812,67.4215c.2873-.4282.7336-.9838.9612-.724.6902.788-3.5369,5.2718-3.8071,4.9824-.2639-.2826,2.5586-3.8303,2.846-4.2584ZM99.0656,63.4702c-.3813-.3905,1.0742-3.828,2.0532-3.3858,1.6173.7306-1.4157,4.0384-2.0532,3.3858ZM101.8493,69.3401c.7479.018.8761,2.0017.4366,2.3394-.5664.4352-1.4317-2.3634-.4366-2.3394ZM102.4268,49.4086c-.3877-1.3034-.0305-2.2741.801-.8012.1986.3519,1.5362,3.5727,1.4051,3.7225-.5649.6454-2.1101-2.5983-2.2062-2.9212ZM105.2194,46.4665c-.3267.3504-1.4927-1.0905-1.7553-1.3215-.1684-.6302.5423-.5405.8206-.3708.0825.0503,1.0715,1.5456.9347,1.6923ZM118.1174,40.0184c.2492.1588-.7728,1.7579-1.2242,2.4377-.5352.806-1.6435,2.3288-2.2863,2.9905-.2789.2871-.9104.685-1.1762.4336-.2226-.2106.6783-1.3397.8845-1.6048,1.0947-1.4076,3.5531-4.4159,3.8023-4.2571ZM114.5228,57.7977c-.777.8695-3.1748,3.0764-3.4374,2.7407s5.7097-6.2947,5.8594-6.155-1.6449,2.5447-2.4219,3.4143ZM117.2404,59.3698c.1657.1317-.6355.8272-.878.5823-.4654-.4702.5455-.8467.878-.5823ZM117.1066,50.2917c1.1759-1.4096,1.3888.0529.3324,1.0621-1.0276.9817-1.0219-.2354-.3324-1.0621ZM115.6325,34.7409c-.3348-.0874-.5069-.4825-.3034-.8839.295-.5822,2.4187-2.5142,2.7882-2.3406s-1.4586,3.4925-2.4848,3.2244ZM39.8262,31.7257l-.0038-21.398-.4625-8.2696s1.5818-.0093,1.9924.7841,1.0167,7.3253,1.1325,9.4707c.539,9.987.102,19.8837-.3101,29.8884.0915,1.1073-2.1206,2.1564-2.0483,2.947.1026,1.1206,1.5733.8292,1.5733.8292,0,0-.7413,1.0158-1.2164,1.48-.6346.6201-1.369,1.036-1.369,1.036l.379-7.8322.1662-5.1291.1667-3.8065ZM37.9394,57.8961c-.1868.0075-.5345-.423-.2985-.8787.3101-.5985,2.0205-2.1516,2.4946-2.9272.2319.8297-1.6889,3.7854-2.1961,3.8059ZM39.5492,59.9521c-.018.2841-.2873.2918-.2878,0-.0006-.2917.0006-.5963,0-.8769s.2851-.2467.2878,0c.0028.2468.018.5928,0,.8769ZM39.8417,52.036c-.1632.3056-.2873.0006-.2873.0006.1017-.6513.6675-1.7762.8768-1.4618s-.4263,1.1556-.5895,1.4612ZM30.1826,49.2637l-.5983,3.6538c.1999-1.1787-.2743-3.212,0-4.2508.1984-.7513.9002-.4562.5983.597ZM30.9623,62.3066l.4177-10.0853c.1789-.6856.8428-.2993.8428-.0367,0,3.0628.2559,6.6975,0,9.6744-.0394.4583-.2479,1.7886-.3568,2.2816-.178.8057-1.4359,2.6755-2.2817,1.9666-.1386-.1162,1.2855-1.4142,1.378-3.8007ZM32.5976,68.9767c.8207-.3888.9391-2.1577,1.0563-3.0479.5496-4.1729.3633-8.4154.6082-12.5842.6784-11.5465,2.5315-25.2871,1.4759-36.6302-.111-1.1921-.7581-3.0809-2.1961-3.0809h-4.8372l.2996-11.6077,8.4315-.1341c.222,1.9425.2751,4.8236.3583,6.0238.7499,10.8156-.4225,23.0493-.8796,34.0095-.3266,7.8313-.863,15.6636-1.1866,23.4392-.0722,1.7351.3613,7.2645-.1379,8.3638-.3704.8156-3.2387,2.2222-1.294,3.5959.5177.3657,1.4985-.1295,1.4985-.1295,0,0-.4627,4.1601-1.08,4.1601h-10.4073c.1155-1.596.0705-11.0079.6242-11.6885.5607-.6893,6.1124.0468,7.6662-.6893ZM18.9859,2.3613c2.7925-.2491,5.6459-.3291,8.4274-.354l-.1743,10.8933c0,.0833.0041.1941.0041.7491l-7.4799-.0162c-.7868.036-1.0455.3269-1.1581.8941-.266,1.3394-.7236,7.1046-.8765,8.9708-.1067,1.3029-.1787,2.9374-.3053,4.2458-.0716.7402-.0813,4.3726-.3608,4.6898-.1408.1598-.8469.1337-.9211-.2132l2.3355-29.3433c.0217-.2727.2364-.4919.5089-.5162ZM24.3059,15.6883c.0436.2897-2.5286.6929-3.1778.9233-1.7205.6105-.962,6.4196-1.658,6.3977-.8631-.0271-.2447-4.6365-.074-5.3456.2173-1.5231,1.6832-1.9657,2.9531-2.0882,1.0347-.0998,1.9148-.1665,1.9568.1127ZM13.2241,80.5646l-1.027-13.6923,3.0234.1157c-.1404.5951.0131,2.6399.7316,2.6399.9934,0,6.9286-.2539,7.1826,0,.4148.4147-.3561,10.2452-.2917,11.728-2.025.201-4.0782.0576-6.0763.0298-.9585-.0133-3.166.0493-3.5426-.8212ZM24.1277,84.2533c-.8982.1132-2.6496.1701-3.4654.1704-.2954,0-2.4159-.056-2.5101-.1389-.1839-.1618-.0669-.7122.3086-.7122.7955,0,1.4669.0185,1.702.0185l5.6104.1086c-.0403.4172-1.2948.5094-1.6454.5535ZM35.4685,84.1658c-.9704.3282-1.2724-.8885-.4184-1.3034.6196-.2705,4.2252-3.5349,4.5017-3.2643.3434.3361-3.2992,4.3025-4.0833,4.5677ZM39.2586,74.028c.1588.1473-1.3934,2.3389-2.0507,1.755-.3902-.3466,1.8148-1.9737,2.0507-1.755ZM38.0861,84.8697c-.1476-.1284,1.1161-2.0203,1.7589-1.4604.1476.1285-1.1162,2.0203-1.7589,1.4604ZM38.107,69.2144c-.9873.3337-1.2048-.8486-.4719-1.3571.4119-.3155,2.8556-1.9901,3.0881-1.7461.449.4713-1.9942,2.8928-2.6162,3.1031ZM38.9682,64.6454c-.0047-.2188.2914-.2437.2877,0s.0129.3299,0,.5837c-.0129.2538-.2924.218-.2877,0s.0047-.3647,0-.5837ZM41.0149,63.177c-.3366.0766-.4889-1.4489-.8716-.5834-.0415.0939-.7643,1.8355-1.4697,1.1695-.2053-.1939,1.0974-1.8331,1.3127-2.0559.3047-.3153.7791-.671,1.0294-.5794s.278.369.2503,1.0906.0185.8973-.2511.9586ZM41.8945,57.8999c-.2399.2947-.2989-.7627-.7471-.8585-.2544-.0544-.89.396-1.0072.2729-.4604-.4834,1.3336-2.3728,1.7547-2.0499.4548.3487.2395,2.3409-.0004,2.6356ZM41.7132,49.0685c-.715.577-1.6398.913-1.5698.1844.0131-.1369,2.1694-1.4718,2.34-1.3165.1073.0976-.3213.7699-.7702,1.1322ZM41.6041,44.9995c-.1186-.1054,1.3607-1.5821,1.4631-1.4631.3031.3523-1.1206,1.7672-1.4631,1.4631ZM43.3616,42.3622c-.2467.2714-.9423-.1261-.1439-.5836.2554-.037.3905.3121.1439.5836ZM43.8041,78.7173l3.6607,5.8619c-1.2978-.9689-2.5176-2.4418-3.3444-3.8352-.2793-.4706-1.204-1.6561-.3163-2.0267ZM43.952,84.2862c.2954-.3468,5.2004,4.6906,5.5674,5.2743-1.3447.159-6.3571-4.347-5.5674-5.2743ZM66.6806,90.1607c-1.8925.1551-4.7865-.1378-6.753-.3052-1.2706-.1083-5.0925-.3492-6.0021-.7407-1.3866-.5967-3.1505-3.1143-4.4038-4.0993-.423-.3192-.1455-.458.5025-.2089.8777.3374,2.4946.7637,1.4907-.6101-.2824-.3864-3.7055-3.5576-3.3251-3.8756.2208-.1846,2.8962.3255,3.5616.3746.8699.0642,4.3436-.0826,4.5095.074.2633.2485-1.0777.9343-.7632,1.5633.3404.6809,1.2395.592,1.2395.592,0,0-.8084.5463-.3302,1.0687s1.5582-.0699,1.6118-.0014c.0897.1147-.4423.9611.2758,1.346s1.4396-.4337,1.4396-.4337c0,0-.2359.4856.3053.777,1.0941.5891,11.114.5273,11.114.5273-.3103,2.3262-2.3476,3.7777-4.473,3.952ZM71.8025,78.7154c.3917-.1983,1.8994.625,1.4613,1.1725-.2073.259-.6895-.369-.8749-.2964s-.6232,1.3346-.8807,1.1754-.0973-1.8532.2943-2.0515ZM103.3208,107.4518c-5.1842,8.8553-17.4044,11.1012-25.3685,4.5426-11.9043-9.8035-5.8612-28.988,9.6181-30.2601,13.3026-1.0931,22.4783,14.2256,15.7504,25.7175ZM107.8591,72.5569c-.5163.5072-2.7105-2.589-2.9821-3.025-1.0904-1.7497-.6249-2.8996.1445-1.5554.1283.2242.5491.833.7354,1.1516.2625.4491,2.2423,3.2911,2.1022,3.4287ZM110.6075,71.9544c-.4615.1033-3.2226-4.2646-3.2226-4.2646,0,0,.962.5735,1.3689-.0203.8528-1.2445-2.7107-4.9898-3.2358-6.6954-.0464-.1506-.0806-.4785.1411-.433.445.4019,1.4489,1.5357,2.0033,1.3026.7756-.3261.4163-1.406.4163-1.406l.6105.592s-.2726,1.3422.9125,1.4994c1.7654.2341,4.1071-2.1275,4.1071-2.1275,0,0-.3944,1.1545.2155,1.6299.7095.5531,1.7455.1276,1.7455.1276,0,0-1.0386,1.9616-2.2015,3.4919-.6978.9182-1.1378,1.443-2.1368,2.553-.5766.6407-.8233,1.1655-.4163,1.7668.338.4994,1.7668.185,1.7668.185,0,0-.9958.9618-2.0745,1.7985ZM115.2428,66.0178c.9774-1.4167,2.3393-3.2315,2.8745-2.8384.2716.1996.7112,5.7546.6005,6.1948s-.6439.5808-.8908-.2577-.3637-3.5268-.5897-3.591-.8325.8999-1.8356,2.1004-1.1362-.1914-.1588-1.6081ZM119.879,78.5694c0,.072.0806,1.528-.583,1.3172-.2938-.1084-.3149-3.158-.5991-3.3089s-1.7127.9795-1.7431.2343c-.0092-.2252,2.0465-3.8471,2.9252-2.7867v4.544ZM119.415,47.0181c-.2766.019-.2636-.3053-.222-.9574.0389-.6094.2337-.7221.4856-.7215s.5277.333.423.7595c-.0867.3531-.41.9004-.6867.9194ZM120.3147,20.6668c-1.009.3823-.1341-1.7455.4424-1.1687.177.1772-.061,1.0242-.4424,1.1687ZM121.6393,57.9026c-.0635.0643.1591,1.7615-.4411,1.7524-.4352-.0066-.4259-.9842-.4506-1.3005-.3629-4.643,1.7858-1.4679,3.82-.4478.2244,1.5549-2.7736-.1605-2.9283-.004ZM122.2256,70.2156c.2268-.1222,4.6873,3.2287,4.6873,3.2287.3427.2034.123.7006-.142.5786-.9646-.3733-1.7363-.9058-2.5013-1.4439-1.0594-.7452-2.4326-2.1541-2.0439-2.3635ZM127.793,81.3531c-.5956.5926-3.0197-2.6482-3.169-3.4313-.0694-.3638.0788-.9673.3854-.9595.3612.009,3.0241,4.1515,2.7837,4.3908ZM139.5222,90.1507l-10.2619-.2972c1.3125-3.3802,4.1125-4.7804,4.9073-8.4298.076-.3493.0401-1.1934.079-1.242.0778-.0972,1.7935,1.0911,2.0531,1.3157,2.7564,2.385,3.6331,5.0231,3.2225,8.6532ZM139.5184,83.4054s-1.4966-1.7237-2.2914-2.4178-2.5869-1.594-2.9536-2.1543c-.6402-.9782-.3458-3.105-.0205-4.2155l5.1399,1.7346c.2347,2.3768.6061,4.6869.1256,7.053ZM140.4862,79.8495l-.3747-3.3717c.541.0079,2.1097.1046,2.3538.121,0,0-1.1832,3.2016-1.9791,3.2507ZM166.4936,90.7371l-15.7444-.0927c-3.2191-.111-6.402-.2204-9.4696-.4962-.1822-.1672.528-2.8095.6696-3.2873,1.1538-3.8933,6.6576-10.5048,10.0797-12.7872.4898-.3267,2.6581-1.4031,3.0368-1.0881.1783.1484.4978.8772.5769,1.0318.2914.5689.6428.4134.7354.333.2235-.194-.2518-1.5261.5656-1.482,3.9675.2137,7.2452,2.702,8.5153,6.4413.6018,1.7721.272,2.8647.448,4.5358.2415,2.2937.7766,4.5661.5868,6.8918ZM169.0113,89.731c-.1757.0139-.2312-1.3737-.2497-1.7622,0,0-1.1459-12.9289-2.4051-26.4369-1.2279-13.1729-2.7546-26.3916-2.7933-26.7893-.0784-.8057.3374-.7762.4068-.0546.0428.4449,1.6396,15.2601,2.7381,26.6959.6829,7.1102,1.2486,13.0825,1.2486,13.0825.3332,5.4548,1.512,15.2285,1.0547,15.2646ZM173.5254,88.096c-.2267.0532-.2632-.6642-.2918-1.0207-.5315-6.6175-.9755-11.2796-1.4657-17.2996-.6198-7.3742-1.2473-13.8659-1.7585-20.8151l-2.3419-18.9085c.4339-.0743.3642.5481.438.8743.2594,1.1455.3522,3.0783.5265,4.2429.9539,6.3746,1.406,10.2861,2.072,16.9462.74,8.3621,1.4563,15.7619,2.072,23.0883.3398,4.0427.8526,8.8213.7493,12.8923ZM177.3367,86.63c-.3466.1273-.7863-2.5811-.7863-2.5811-.8828-5.8726-1.9618-11.7152-2.9613-17.5658-.097-.5679.1721-.9413.3201-.4418,0,0,3.7741,20.4614,3.4274,20.5886ZM181.2964,90.1637c-.5401-2.3147-1.0657-6.3828-1.3653-8.7393-.4705-3.7012-1.4832-10.3999-1.628-12.8762-.0483-.8253.4618-.5568.5047-.3848.1716.6884,3.2207,22.5711,3.2207,22.5711-.381.4501-.6616-.269-.732-.5708ZM201.3417,84.543c-6.0336.4492-12.0795.4334-18.0366.6184l-1.2735-9.9625,23.1948-.2652c-.3053.481-.9854,1.6102-1.5581,2.9937-.8925,2.1557-1.6903,4.378-2.3266,6.6156ZM236.2628,97.9157c-.8909,12.038-15.3449,18.3226-24.7643,10.6974-10.9407-8.8568-5.239-26.2234,8.5818-27.1713,9.2494-.6343,16.8647,7.2557,16.1825,16.4739ZM230.5486,74.0254c-.131,0-1.7811-.9877-2.3383-1.1798-8.2961-2.8587-15.7222-.2265-20.7965,6.7751-.577.7961-2.6787,4.8079-3.0032,4.912-.2413.0775-1.2143.1007-1.2716.0451-.4518-.4389,2.304-6.8633,2.8801-7.8176,4.0651-6.7335,12.5095-5.4392,19.2645-5.9477,2.0813-.1566,1.2225-1.0155-.2988-1.1911-3.8761-.4474-11.2266.0728-14.8064,1.6237-1.2791.5542-2.5655,1.2927-3.5275,1.9587-5.5357.0842-14.0642.0539-20.0898.2224-1.0032.028-3.9958.0275-4.8563-.0033-.1387-.8325-.2359-1.9148-.444-2.8444l15.5729-.6585c.6042-.0462,4.125-.1278,3.3713-1.1688-.71-.9807-16.7172.2757-19.0749.1631-1.0533-5.5983-1.8702-11.4484-2.3259-17.1703,4.6731.0637,9.2339.9107,13.7842,1.9019,7.0966,1.5458,16.8019,4.3311,23.9615,6.5512,1.9218.5959,6.3124,2.0003,8.2141,2.775,4.4956,1.8315,11.5997,3.9961,12.3808,11.0533h-6.5962ZM243.1336,74.0307c-.6028.0879-3.3844-.0139-3.3844-.0139,0,0-1.0803-3.2604-1.5355-4.3106-1.4245-3.2863-5.4576-5.7906-8.7321-7.1781-3.313-1.4038-5.6148-2.331-8.5471-3.33-3.8017-1.2952-25.3176-8.1586-37.9996-9.6849-1.4525-.1748-3.1265-.296-4.7144-.4077l-.88-10.1145c-.327-8.8865-1.1798-17.756-.6003-26.6896l.6017-7.1697,15.5399,14.2136c6.2595,5.9854,11.8752,12.577,17.4337,19.2119,1.0949,1.307,3.8197,3.8139,4.1952,5.4793.123.5457.1599,4.4566.0017,4.7207-.0749.125-.661.21-.9558.6501-.5749.8582-.8841,3.7098.3412,4.056,1.7274.4882,1.3309-1.3929,1.6974-2.0137.3251-.5507,1.7514-.4544,2.1396-1.9645.1308-.509-.0877-1.1745.206-1.5496,5.8259,2.8729,13.9702,3.1857,18.9148,7.7632.2301.213,1.1779,1.0524.8743,1.3216-.597.5296-6.5448-2.6698-7.7782-.2905-.9205,1.7756,3.2589,5.8551,4.5795,6.8634.8913.6805,2.3605,1.4856,3.4125,1.8645.7488.2697,3.9729.8573,4.1229,1.0075.272.2722,1.6536,7.48,1.0671,7.5655ZM235.8295,61.4179c-1.448-.9441.6368-1.7993,1.0207-1.4631.2775.243-.3921,1.6032-1.0207,1.4631Z"/>
  <path class="cls-1" d="M85.5313,15.1985c2.7605-4.0923-.8865-8.9232-5.6037-7.9488-1.6164.334-3.5114,2.5746-3.7072,4.2112-.6362,5.3176,6.5449,7.8383,9.3109,3.7376ZM79.9255,8.6675c.332.3478-1.5845.7771-1.554,3.5243.0277,2.4975,1.9586,2.8116,1.7483,3.1912-.2102.3797-2.4996-.5271-2.5253-3.1912-.0277-2.886,1.9991-3.8723,2.331-3.5243Z"/>
  <path class="cls-1" d="M82.6457,52.6271c-1.1742-.108-5.105-1.0609-15.9091-2.6889-8.8224-1.3294-12.3154-1.0798-14.4292-.829-.4006.0475-2.2428.3505-2.1962.7302.0769.6261,2.6854.1821,4.8191.1338,8.5257-.1929,22.7567,2.9839,26.0035,3.1782,3.2468.1943,2.8861-.4163,1.7119-.5242Z"/>
  <path class="cls-1" d="M87.6295,57.9027l-12.017-.5863c-.3654.3138-.1467.6007.3418.6278,3.9961.222,6.9654.3608,11.2346.5337.3757.0152.9724-.1237.4405-.5752Z"/>
  <path class="cls-1" d="M181.5902,53.2433c-.1434.0041-.9128.1157-.8018,1.2535.0488.4999.3053,3.071.4718,4.8286.1455,1.5362,2.3542,1.2395,2.2432.1018l-.3008-4.604c-.0738-.9738-.4762-1.6121-1.6124-1.5798Z"/>
  <path class="cls-1" d="M219.7702,90.5117c-2.5567.4365-4.5369,2.9352-4.8328,5.4312-.6089,5.1375,5.5669,9.0365,9.8763,6.0616,5.5053-3.8004,2.0232-12.6993-5.0435-11.4928ZM219.1182,98.9415c-.5307-.8444-.9445-1.6506-1.0422-2.7663-.0867-.9897-.0736-3.5581,1.1858-3.0941.3501.1187-.2143,1.3878-.2513,2.7383-.038,1.3875.6385,3.9665.1078,3.1221Z"/>
  <path class="cls-1" d="M198.8139,28.337c-.6735-.1143-1.3616.4237-1.8358.1222-.272-.173-1.0602-1.9649-1.5983-2.5237-1.4805-1.5372-4.0177-1.9821-6.0168-2.485-1.6496-.415-10.8014-2.4658-11.6906-1.8627-.8249.5596-.0434,4.6235-.0167,5.6718.1064,4.1745-.091,8.7098.592,12.8764.3718,2.2681,1.156,4.3269,3.0493,5.7455,5.0601,3.7915,21.5864,6.1564,27.8645,5.584,1.2726-.116,2.2419-.5249,2.4619-1.9356,1.1336-7.269-3.5846-11.8111-7.9098-16.9768-1.0967-1.3098-3.15-3.9191-4.8996-4.2161ZM185.5589,35.4966c.1339-.9825,1.8799-2.9788,1.7478-3.0979-.1535-.1386-2.9455,1.6182-3.6834,1.7387-1.0243.1673-1.6366.1792-1.2576-.9656.1288-.3889,6.2574-3.5387,6.8109-3.3943,2.2718.5926-3.2927,5.7419-2.4577,6.4286l1.1743.0038c.3275.2635-2.7349,2.2262-2.3342-.7132ZM187.015,42.6554c-.2266-.2235-.0678-.6883.3639-.9574.7593-.4735,2.238-.933,3.1528-1.0907-.2081.7074-3.1382,2.4213-3.5166,2.0481ZM196.4084,41.9373c-.042,1.4741-.3659,2.3293-.3094,4.5293-.3778.0809-.4739-.5461-.5121-.8007-.5245-3.4923-.1234-6.7818-.3664-10.1899-.1942-2.7237-.972-5.6507-1.7034-8.2678-.0488-.1743-.621-1.0304.0927-.9633.4254.04,1.1569,1.4357,1.3319,1.8876,1.1975,3.0915,1.5644,10.3784,1.4667,13.8048ZM199.0334,37.3798c.0031.8557-.4655.6614-.5395-.4671s-.6386-6.8284-.3386-7.1538c.162-.1756.8781.2579.8781.4384,0,0-.0031,6.3269,0,7.1825ZM200.7937,42.0691c-.72-.7196,2.0308-2.3357,2.3426-2.0494.3527.3236-1.8287,2.5631-2.3426,2.0494Z"/>
  <path class="cls-1" d="M5.747,44.1778c-1.6231.4946-1.5263,5.7192-1.3778,7.1302.39,3.7048,2.986,4.5096,3.6826.4521.2372-1.3815.2514-6.3473-.5968-7.348-.3567-.4208-1.2077-.3867-1.708-.2343Z"/>
  <path class="cls-1" d="M21.9005,74.3186c-.0454-1.6446-.0833-1.7205-2.2848-1.6928-1.0933.0138-4.3589-.0228-4.9766.4625-.518.407-.518,3.33-.0243,3.74.6631.5506,2.8564.3811,3.8076.33.7255-.0389,2.2896.014,2.812-.074.9739-.1641.6875-1.9885.666-2.7658ZM20.3547,75.4917c-.8278.0412-1.5054.0936-2.449.0936-.0693-.6661.7697-.5579,1.059-.598.3731-.0515,1.6852-.199,1.8233-.081.3806.3249.0476.5615-.4333.5854Z"/>
  <path class="cls-1" d="M58.3691,87.3097c1.64.4977,5.4143.7663,7.1789.712.355-.0109,2.3544-.1306,2.4403-.2194.2976-.3073-.4282-.6313-.8927-.6313-1.6281,0-4.1097-.0207-6.0089-.2337-1.1684-.131-3.5876-.59-3.6517-.3032s.5594.5617.9342.6756Z"/>
  <path class="cls-1" d="M145.2849,60.9455c.7288-.0749.396.3278.1203.7254-2.5648,3.6995-7.4625,4.2772-10.4168.7315-1.3134-1.5762-.5208-1.1658.7376-1.1233,1.2149.041,1.8784.051,3.2614-.036.2786-.0175.7412.2101.8694.2104.1191.0003.5655-.2279.7935-.2191,1.0503.0404,1.7014.1815,2.657.0449.6794-.0972,1.3587-.2702,1.9776-.3338ZM144.3916,61.6327c-1.8599.4037-3.884.6459-5.7908.4706-.6607-.0607-1.5809-.1708-2.1941-.2493-.3886-.0497.191.5329.2995.6706,1.1569,1.4676,4.4725,1.2898,6.3843.1211.7724-.4616,1.3011-1.0131,1.3011-1.0131Z"/>
  <path class="cls-1" d="M142.3153,59.0222c.362.5458-.6452.6706-.9649.7017-1.2628.1227-3.2327.0844-3.3882-1.6004-.1964-2.1262.4105-4.642.1106-6.7857-.1967-1.406-.7384-1.6539-1.4501-1.8297-1.8172-.4491-4.0836-.1176-6.0057.0441-.3823-.0916-.3562-.5014.0955-.6361,1.2023-.3585,5.4734-.4652,6.5675.0287.5254.2372,1.0841.7021,1.3191,1.2509.4959,1.1581.1993,4.3614.1719,5.7898-.0116.604-.1889,1.8122.0834,2.4028.362.7853,3.1723.1986,3.461.6339Z"/>
  <path class="cls-1" d="M148.968,49.3507c-.1393.1087-.9013-.3339-3.524-.1895-2.6227.1444-3.9133.8113-4.0981.6866-.1125-.076-.1684-.2643-.1094-.3676.2789-.4885,1.8719-.9151,4.0739-1.0027s3.6887.2016,3.7583.5837c.0028.0151.0373.1817-.1007.2894Z"/>
  <path class="cls-1" d="M142.5167,52.0933c.0126-.0885.1491-.1987.3011-.1899.2212.0128.4474.111,2.2284.0321,1.7811-.0789,2.923-.5822,2.9002-.1314-.0198.3908-2.2052.7529-2.5742.7792-.404.0288-2.9596.2404-2.8555-.49Z"/>
  <path class="cls-1" d="M136.935,52.1025c.1064.058.0495.3021-.1147.4159-.8284.5741-5.2585.4047-5.2745-.4761-.008-.4369,1.0725.0744,2.5666.162,1.4941.0876,2.7163-.1599,2.8227-.1019Z"/>
  <path class="cls-1" d="M146.6027,61.5848c.0072-.0528.0435-.327.0604-1.0282s-.0784-1.0197-.0847-1.0476.0257-.025.0413-.0256c.4428-.0177.6094.5354.5665,1.085-.0364.4666-.2237.9308-.521,1.041-.03.0111-.0686.0196-.0626-.0246Z"/>
  <path class="cls-1" d="M133.2548,59.6171c.1761.1191-.1001,1.7985-.1845,1.8336s-.2521-.0417-.316-.1819c-.2205-.4832-.1424-2.0867.5005-1.6517Z"/>
  <path class="cls-1" d="M136.6504,31.074c.1435.1436-.3223.5875-.9782.9791s-3.9142,1.93-3.97,1.8471,4.9481-2.8262,4.9481-2.8262Z"/>
  <path class="cls-1" d="M145.7486,33.1547c-.0196.2578-.4411.1213-.7359.0334-.7124-.2125-1.4853-.5176-2.3358-1.2638-.7366-.7633-.7987-.9833-.7422-1.0128.2297-.1194.2961.227.9392.872s1.9349,1.2039,2.8746,1.3712Z"/>
  <path class="cls-1" d="M87.2675,92.2544c-2.897.4946-5.1409,3.326-5.4761,6.1542-.69,5.8214,6.308,10.2394,11.191,6.8685,6.2382-4.3063,2.2926-14.3898-5.7149-13.0226ZM86.5287,101.8063c-.6013-.9568-1.0702-1.8703-1.181-3.1346-.0982-1.1215-.0834-4.0318,1.3436-3.506.3967.1345-.2429,1.5725-.2848,3.1028-.0431,1.5722.7235,4.4946.1221,3.5377Z"/>
</svg>