<?xml version="1.0" encoding="UTF-8"?>
<svg id="Ebene_1" data-name="Ebene 1" xmlns="http://www.w3.org/2000/svg" viewBox="0 0 334.6949 183.7707">
  <defs>
    <style>
      .cls-1 {
        fill: #66503a;
      }
    </style>
  </defs>
  <g>
    <path class="cls-1" d="M288.3767,66.7309c.2661.1016.5391.2051.8091.293.0845.04.1709.0732.2554.1133.2153.123.3394.3525.4097.5889.1787.5938-.0684,1.0244-.4854,1.4043-.0981.0811-.2334.1377-.3359.2324-.085.0859-.0488.2383-.0234.4014.0684.168.1333.373.1685.5537.0361.2256-.0435.543-.1289.7549-.2446.4971-.7422.749-1.2681.6738-.2397-.042-.4561-.1357-.6875-.2051-.2041-.0605-.417-.1172-.6152-.1982-.229-.0752-.4648-.1309-.7021-.1797-.1655-.042-1.1387-.332-1.3037-.374-.0635-.0117-.1226-.0361-.1797-.0684-.3657-.1904-.1162-.6055.0078-.8721.2163-.4766.3125-1.1221.438-1.6182.0781-.3105.1558-.6201.2808-.917.1064-.2568.166-.5801.1885-.8555.0405-.2842.3638-.499.6509-.4424.5854.0996,1.9561.5234,2.5215.7148ZM288.4031,70.2211c.0029-.0361-.0005-.0742-.0127-.1074-.0698-.2129-.3291-.3125-.52-.3926-.4141-.1523-.8145-.376-1.2427-.3555-.0762.0068-.1548.0205-.209.0791-.0303.0273-.0581.0713-.0723.1191-.0449.1494-.0757.3027-.1001.459.0005.0225-.0005.0518.0088.0693.0215.0283.0532.0459.0806.0537.4546.165.9175.3027,1.3853.3984.1494.0215.3052.0459.4336-.0117.1284-.0586.2393-.1807.2485-.3115ZM286.8142,67.9692c-.0303.1016-.0654.1953-.0894.2988-.0215.0977.0063.1279.1079.1367.0293.001.0518,0,.0811.002.1733.0146.3447.0361.5127.0928.2334.0625.4648.1318.7002.1875.1665.0635.3799.0684.5459-.0156.2153-.1504.3105-.4707.124-.6895-.0938-.1094-.2441-.1758-.3877-.2412-.3823-.1582-.7812-.2627-1.1831-.3311-.0361-.0029-.0654-.0039-.1016-.0078-.1509-.0156-.1685.1426-.1987.2441-.0327.1094-.0854.2119-.1113.3232Z"/>
    <path class="cls-1" d="M293.138,72.0541c-.1138-.041-.2275-.082-.3389-.1309-.105-.0459-.1948-.1172-.3164-.0566-.1108.0479-.2202.2158-.2915.3057-.1685.2168-.3262.4736-.541.6465-.3022.2432-1.7573-.1465-1.978-.4492-.0796-.1055-.0879-.1523-.0039-.2607.1445-.1865.2979-.3779.4609-.5518.3721-.3779.811-.7803,1.2227-1.1172.2715-.2158,1.1885-1.1279,1.4272-1.3828.1108-.1221.2168-.2539.3413-.3721.2109-.2119.501-.3398.7983-.3916.1968-.0381,1.1597.2861,1.2983.416.0327.04.0547.0908.0767.1416.0415.1094.0479.2363.0562.3574.0176.6133-.0591,1.2422-.0278,1.8594.0161.2939.0342.5811.061.8633.062.6113.3066,1.2324.3359,1.8564.0186.3096-.7891.1348-.9233.0879-.1021-.0303-.1714-.0957-.2061-.2021-.126-.3486-.1909-.7021-.2007-1.0684.002-.0059.0015-.0283-.0034-.0381-.0303-.2461-.0459-.2432-.2832-.292-.2871-.0557-.5967-.1104-.8896-.1982-.0405-.0117-.0337-.0098-.0747-.0225ZM293.4944,71.2563c.0845.04.1729.0664.2632.0859.1401.0273.4658.0801.5952-.0078.1675-.1123.0503-.8145-.0161-1.1387-.0088-.0693-.0972-.0957-.1543-.0527-.2344.1895-.6777.6572-.8604.8477-.0454.0527-.0405.1357.0142.1748.0488.0361.0991.0664.1582.0908Z"/>
    <path class="cls-1" d="M298.0842,75.2739c-.0703-.04-.1162-.1045-.1484-.1719-.1221-.2832-.1714-.6572-.0664-.9609.0488-.1514.1846-.251.3438-.2471.6191,0,2.3735-.0078,2.5874-.3066.1182-.1689.1113-.4053-.0684-.543-.5752-.4238-2.4575-.4043-3.0225-.9014-.2749-.2461-.3491-.9258-.2729-1.2754.0796-.3291.3203-.5459.6211-.6992,1.0356-.5244,2.5054-.7041,3.6519-.5469.0068-.001.021-.0039.0361.001.1841.0303.3086.1836.3374.374.104.6387-.6548.8545-1.1558.873-.4785.0225-.8018-.209-1.2505.0098-.0801.041-.1362.1006-.1582.1904-.0342.3428.1436.4238.3076.4639.7261.1846,1.2827.2012,2.0088.335.0371.0088.0742.0176.1138.041.3755.1006.6787.6309.8252.9326.1328.3037.2573.7451.0273,1.0322-.2896.3672-.6992.6094-1.1396.7412-.2969.0811-3.356.79-3.5776.6582Z"/>
    <path class="cls-1" d="M304.3557,69.2592c.2896-.0371,1.1279-.1064,1.5103-.2441.1968-.0801,2.0879-.4678,2.2979-.5068.1587-.0459.2549.0186.2993.1699.0176.0693.0435.1445.04.2178.0005.1436-.0063.2881-.0225.4199-.0376.2725-.1514.376-.4219.3955-.1641.0107-.3369.0078-.5.0254-.3721.0137-.7456.0195-1.1167.04-.0771.0117-.1558.0166-.2329.0283-.1899.0293-.3086.1475-.3301.3379-.0181.1182-.0273.249-.0229.3711.0063.1855.1875.3809.4302.3232.1387-.0361.2832-.0791.416-.1064.2759-.0781.561-.1436.8394-.207.02-.0098.0479-.0146.0762-.0186.1641-.0107.2217.0381.2603.1982.0264.125.0747.2549.0659.3857-.001.1367-.0571.2383-.2349.3018-.0684.0244-.1606.0312-.2451.0439-.3359.0156-.6709.0371-1.0059.0596-.0781.0049-.1567.0098-.2319.0352-.1958.0371-.2725.1494-.2837.3594-.0078.2314.0522.4385.1826.6348.1348.2236.396.1914.6313.1777.3359-.0156.6523-.1133.9858-.1934.2661-.0469.5103-.1924.769-.2891.1094-.0381.2798-.1006.3979-.082.1045.0273.1431.1367.1777.2246.0752.1611.1113.4941.0293.665-.1343.3008-.5479.4209-.8438.5098-.6279.2246-2.3857.5918-3.0435.6201-.4155.0127-.6699-.1934-.876-.6006-.1646-.4219-.5547-3.1328-.6089-3.585-.0645-.5664.1191-.6377.6113-.7119Z"/>
    <path class="cls-1" d="M312.2883,67.9428c.396-.0459.793-.085,1.1851-.1084.4194-.0342.7793.0615,1.1436.2803.165.0898.2798.2305.376.3887.0581.0996.0952.2012.1191.3135.0508.2363.0801.4766.0518.7188-.001.0859-.0327.1631-.0645.2402-.1724.3789-.4517.6729-.7388.9609-.0688.0684-.146.1299-.1357.2441.0054.0352.0117.0771.0239.1113.0791.1895.269.3984.4668.4688.1362.0439.2852.0283.4199.0156.2202-.0195.4395-.0449.6597-.0645.1626-.0176.2993.0771.3794.2227.0405.0811.083.168.1099.25.041.1309-.0493.3389-.1758.4082-.0933.0498-.1875.0928-.2905.123-.1787.0557-.3574.1123-.5483.1338-.3389.0439-.668.0078-.9771-.1318-.1782-.0811-.3369-.1797-.479-.3096-.1938-.1865-.3755-.3887-.5312-.6094-.083-.1172-.1992-.2217-.3237-.2822-.1162-.0547-.3433-.1279-.4604-.0449-.0508.043-.0762.1123-.0806.1777-.0068.1445-.0093.2246.0332.3613.0811.2979.1934.6113.1753.916-.0054.1094-.0479.209-.147.2676-.2632.1621-1.5903.4717-1.8477.2012-.0942-.1006-.1167-.248-.144-.3809-.0376-.1533-.0547-.2656-.042-.418.0459-.4102.0508-.7568.0684-1.1621.0122-.3477.0298-.7031.0059-1.0518-.0254-.3564-.0908-.6914-.1851-1.0293-.0581-.1934-.0879-.3896-.084-.5996.001-.1367.0645-.2402.1938-.2881.0952-.0361,1.0405-.209,1.1392-.2236.1616-.0244.3232-.0488.4863-.0664.0771-.0117.1475-.0225.2183-.0332ZM312.3088,69.5014c.02.083.0547.2646.0547.2646.0151.0986.0298.1973.0518.2949.02.083.0479.1729.082.2539.0337.0811.0913.1299.1831.1162.1284-.0059.2495-.0166.3633-.0703.2686-.127.5371-.2539.7246-.4912.0308-.0332.0698-.0605.1006-.0947.0967-.1221.188-.2803.1914-.4463.0112-.21-.189-.4385-.3643-.5488-.3804-.2305-.8936-.1016-1.2588.0977-.0474.0215-.0771.0615-.0908.1143-.0386.1719-.0713.335-.0376.5098Z"/>
    <path class="cls-1" d="M322.449,67.6137c.0127.0264.0278.0576.04.084.0835.1729.1528.3994.2979.7012.1094.3252.0635.4424-.2134.6543-.145.1094-.4517.1934-.6021.0449-.0469-.0479-.084-.1094-.1279-.167-.1401-.1768-.1572-.1143-.2515.0186-.1431.2109-.2041.4453-.3628.6396-.269.3271-1.6211.9775-2.0176,1.0889-.5015.1387-1.1055-.084-1.5171-.3984-.3242-.2471-.6055-.5693-.8193-.916-.2051-.3281-.4155-.7158-.4795-1.0957-.0786-.4746.042-.8643.2935-1.293.1636-.2832.374-.5508.5972-.792.2334-.2705,1.4678-.9189,1.8008-1.0635.2148-.0957.4321-.1846.6685-.2188.2134-.0312.4419-.0156.6514.042.1865.0596.3706.0977.5049.2461.2285.2451.3335,1.0703-.2148.9473-.2378-.0508-.4556-.1748-.6929-.2266-.479-.0928-1.0269.1621-1.3252.5273-.292.3604-.3691.8398-.2583,1.2842.1021.4082.3081.8535.6704,1.082.3813.2344.8589.1943,1.2471,0,.3203-.1543.875-.6582.6489-1.0625-.0928-.1602-.1802-.0625-.2573.0059-.187.1533-.4492.4609-.7109.3105-.0728-.0361-.1357-.085-.1855-.1396-.1001-.1094-.1743-.248-.207-.3975-.0239-.0996.0186-.1904.1055-.2559.0708-.0498,1.0366-.3721,1.48-.6807.0771-.0527.1577-.1152.2505-.1357.3223-.0684.5259.3223.6626.541.0898.1543.2441.459.3242.625Z"/>
    <path class="cls-1" d="M326.5437,65.7416c-.1118.0459-.2241.0928-.3394.1318-.1084.0361-.2231.0439-.2729.1709-.0493.1104-.0171.3086-.0093.4229.021.2734.0771.5703.0347.8438-.0601.3838-1.4004,1.0752-1.7681,1-.1299-.0244-.1675-.0537-.1782-.1904-.0186-.2354-.0342-.4805-.0303-.7197.021-.5303.0742-1.124.1523-1.6514.0562-.3428.1206-1.6357.126-1.9863-.0005-.165-.0107-.334.0015-.5049.0142-.2988.1426-.5898.3276-.8291.1201-.1602,1.0518-.5684,1.2427-.5654.0508.0068.1016.0303.1519.0527.104.0527.1953.1436.2827.2275.4258.4414.7935.96,1.2319,1.3955.21.207.4165.4072.627.5986.458.4102,1.0576.7061,1.4995,1.1484.2227.2168-.4932.6318-.6245.6875-.0962.0459-.1914.0449-.2891-.0107-.3281-.1738-.6143-.3916-.8677-.6562-.0034-.0068-.019-.0225-.0283-.0254-.1885-.1621-.1982-.1494-.4067-.0254-.2505.1514-.5171.3193-.7925.4521-.0386.0186-.0322.0146-.0708.0332ZM326.2703,64.9106c.0894-.0273.1729-.0674.2529-.1133.1221-.0752.3984-.2549.4355-.4072.0479-.1963-.5117-.6377-.7788-.832-.0537-.0459-.1367-.0059-.1509.0645-.0459.2979-.0591.9434-.0659,1.207.002.0703.0615.1289.1284.1201.0605-.0059.1182-.0176.1787-.0391Z"/>
  </g>
  <g>
    <path class="cls-1" d="M75.1224,4.8498c-.1316.9205-1.0828,1.9008-1.6365,2.6796-.9387,1.2597-1.95,2.4173-3.0356,3.6147-1.8108,2.0402-3.7019,4.0646-5.3845,6.2014-.8103,1.0392-1.5984,2.1403-2.2737,3.2697-.1992.2839-.4224.679-.644,1.0472-.4937.9853-.9907,2.3839-.1013,2.7061,1.0654.3113,2.4341-.3285,3.1951-.9835.4065-.3699.7576-.7636,1.1067-1.2101.4114-.5032,1.2224.2123.7773.6864-.2063.3032-1.1936,1.3958-1.2493,1.4531-1.2588,1.2375-3.5679,3.1547-5.4783,2-1.0579-.6529-1.4041-1.7943-1.1392-2.9381.2346-1.1119,1.8577-4.0115,3.948-6.5999.3872-.4832-.2319-.752-.7725-.748-.415-.0032-.8564.0787-1.2041.1295-2.1162.3064-3.5762,1.2067-4.9917,2.4474-1.075,1.1795-2.1833,2.3793-3.2012,3.584-.7788.8987-1.5688,1.8348-2.3809,2.7023-.0366.0033-1.8032,2.1202-3.4065,3.1667-.8047.5354-1.5225.7009-2.5984.8932-.5215.1024-2.2368.0038-2.4597-.9756-.0503-.0995-.0781-.3452-.0361-.4379.1204-.4172.4529-.8818,1.1082-.9932,1.1877-.2213,1.6208,1.0225,2.9514.3497,1.4463-.785,3.8857-3.522,4.196-3.81.1296-.1581.2644-.3149.3975-.4453.0776-.0944.1313-.1571.2454-.229,1.1648-1.3539,2.3406-2.6884,3.5117-4.058.1599-.2653.2581-.5228.1252-.5626-.2051-.1143-1.0273.2035-1.2356.3127-.0647.0079-.1223.0427-.1848.0507-.6614.3026-1.2209.652-1.8003,1.0356-.4146.2231-.6484.5596-1.2024.6698-.6501.0977-1.0364-.144-1.2732-.63-.0481-.1026-.031-.1879.0239-.2518.2188-.9886,3.8677-2.3008,4.2769-2.4174.3662-.1556.7695-.259,1.1165-.3537.7952-.366,1.6526-.485,2.4412-.9994.793-.4874,1.4453-1.1457,2.1123-1.7735,1.5886-1.7123,3.2063-3.3708,5.0151-4.9496,1.9651-1.72,4.2771-3.9901,7.1284-4.8488,1.4192-.4116,4.281-.5783,4.0129,1.2155ZM70.4854,6.0821c-.4089-.0273-.8845.0291-1.2583.1954-.6094.2764-1.147.6389-1.6807,1.0303-.4966.3904-.9941.8384-1.449,1.2607-.2603.2254-.4883.4235-.7161.622-.2244.2526-.5159.5093-.7388.7355-1.2771,1.2767-2.5891,2.5199-3.7986,3.8301-.5137.5551-.6973,1.0839.4941,1.1127.613.0143,1.2834-.0517,1.8579-.1359.4492-.0504.7988-.0933,1.1489-.1909.6938-.3298,1.2886-.8134,1.8572-1.3478.5664-.6709,1.1992-1.3936,1.8457-2.1121.5828-.6632,1.239-1.3226,1.8687-2.0056.2319-.2734.4321-.5724.6348-.8444.3987-.5162,1.3621-1.8738-.0659-2.1502Z"/>
    <path class="cls-1" d="M85.8748,23.8138c-.2712.2415-.6399.5274-1.0991.8602-.9661.7969-2.0886,1.6121-3.2988,1.9443-.0405.0148-.082.0295-.1223.0443-.5735.142-1.073.1302-1.4719-.0632.0005-.0002.0005.0001-.0293-.0022-.0005,0-.0283-.002-.0273-.0294-.8555-.3892-.918-1.3453-.5642-2.1135.1479-.4263.4141-.7897.748-1.2022.2969-.3607,1.1099-1.3894,1.1599-1.6028.0408-.1328.0452-.543-.3809-.6311-1.304-.3474-2.553.8876-3.1938,1.5889-.5796.5408-1.2271,2.2542-1.2957,2.4695-.2788.859-.9199,1.4834-1.7393,1.3757-.8171-.1345-.9231-.7607-.7886-1.3301.1348-.5954.5688-1.1822.9453-1.6602.4121-.6403.9253-1.3286,1.0559-1.5408.0959-.1591.2903-.3694.3599-.5842.1831-.646-.6104-.8718-1.3271-.5679-.6521.2238-1.158.7828-1.6221,1.2089-.7876.7956-2.5664,2.9885-2.6772,3.2098-.3867.517-.856,1.0616-1.5876,1.1789-.5278.088-.9731-.1483-1.0171-.8824-.0149-.4921,1.3669-1.8471,1.9424-2.5815.3545-.465,1.585-1.9058.3584-2.2055-.7073-.1897-1.531.5541-2.0981,1.1359-.4482.525-.9194.9985-1.2998,1.4446-.4971.449-1.2422-.2053-.8074-.7104.3726-.4769,1.5596-1.8156,2.1711-2.3685.6982-.5841,1.5635-1.1901,2.3425-1.3524.6829-.1902,1.3118.0067,1.7012.7736.0613.0555.0588.1102.0901.192.2141.2483.3005.4939.7017.4743.5835.011,1.2139-.5439,1.8511-1.0134.9207-.624,1.9441-1.0158,2.906-.8544.6863.0917.9807,1.3924,1.4119,1.4199.4651.0301.8582-.2961.9233-.3187.874-.483,1.7842-.8198,2.8047-.6439.9331.1415,1.272,1.0811,1.0137,1.793-.0945.3192-.2126.5801-.5203.8784-.5173.551-1.052,1.0483-1.5261,1.608-.376.4597-1.0278,1.4691-.1814,1.7327.2065.0452.4463.0396.6919-.0198.1868-.0648.342-.1321.502-.2261.3484-.1853.6687-.3719.9617-.5607.488-.3327.8918-.6994,1.3342-1.088.5103-.4363,1.2104.3877.6987.8203Z"/>
    <path class="cls-1" d="M98.9505,26.0367c-.3025.0688-8.7629,4.93-11.2456,8.0076-.3499.4719-.7415.8574-.915,1.1085-.55.7487-1.1135,1.0571-2.0188.7814-.3972-.1301-.5784-.7265-.291-1.0489.3796-.3666.9875-1.0329,1.7224-1.8707,2.0669-2.0887,3.3359-3.6264,4.8291-5.4815.0012-.009.0032-.018.0044-.0269.033-.188-.0876-.2066-.2371-.2035-.2861.0925-.6309.2023-.9111.27-.9165.326-2.1724.2319-2.6931-.5766-.8486-1.0698.1602-2.4237.9482-3.2505.3975-.4409.9395-.8041,1.3142-1.245.1826-.1937.5903-.6289.4111-.9027-.3909-.5531-1.7405.356-2.792,1.1569-.5818.4747-1.0671.9375-1.53,1.2673-.5007.407-1.178-.3232-.6687-.8152.1687-.1457,1.0242-.9822,2.0637-1.8405,1.1404-.9565,2.7058-1.9523,3.9282-1.6279.915.2499,1.1045.8348,1.053,1.3493-.0598.7618-.6931,1.5705-1.0984,2.0031-.1165.1473-.2625.29-.4368.4283-.3418.4158-.6533.8651-.8435,1.332-.3179.7244-.1064,1.33.8076,1.2784,1.2224-.1152,2.8396-1.1589,3.3892-1.446.9756-.7921,1.8872-1.6439,2.8452-2.4811.3843-.3394.8223-1.0861,1.4453-1.151.415-.1369.8198.2276.946.5334.0701.126.1008.2726.0786.3789.1118.665-.7632,1.1699-1.5081,1.5721-.478.2544-3.4697,2.6924-4.3726,3.6178-.3936.3441-.9907.9859-1.6772,1.8912-.0034.0272-.0088.053.02.0583.0676.1218.2278.0658.3508.0323.0322-.0218.0972-.0391.1628-.0828,2.3359-1.5983,5.9556-3.6528,6.2979-3.8766.5652-.4352,1.1804.4553.6211.8606Z"/>
  </g>
  <path class="cls-1" d="M283.7842,120.8177c-.3773-1.391.6881-3.1529-1.9571-2.8645-1.9692.2146-.662,1.163-.6835,1.894-.0134.455-.4895.7431-.5551,1.0666-.5865,2.8935-1.797,5.3138-1.0581,8.2161l-7.5855,38.9992,2.2175-46.5437.0441-1.0001c-.0033.9489,1.5871,5.907,3.0444,4.9907,1.3385-.8415-.5371-6.1026-1.3095-7.1106-.0687-.0896-1.1023-1.0576-1.8686-1.2925-.4004-.1228-.3849-.5176-.6694-.7701-.2846-.2523-.8372-.0954-1.0661.0947-.764.635-.2977,2.7725-.3997,3.7624-.1153,1.1194-.6625,3.0056-.6024,3.9943.048.7892.5744,1.204.6209,1.9925.4313,7.3131-.1483,15.2631-.4209,22.59-.2992,8.0425-.1274,18.4025-1.8212,26.1604-.2432,1.114-.1991.6231-1.4671.7099-1.0715.0732-2.3518.5275-3.4111.4337-.342-.0302-2.6009-1.1086-2.6755-1.2357-.1502-.2557.7165-5.0457.782-5.8794.4704-5.9848.6881-11.9988,1.2065-17.9801,1.0526-12.1457,3.4556-25.654,2.6033-37.7833-.072-1.0241-.4818-6.3806-2.7869-4.3691-.6713.5859-1.6998,4.4595-1.8744,5.1202-3.504,13.2598-3.3737,34.3973-3.7352,48.4283-.0845,3.2791-.5854,6.571-.2497,9.8479.0559.5453.1097,1.5583.1097,1.5583,0,0-.5576-.0375-.9373.1189-1.3887.5721-2.9641,2.6983-3.4234,2.5579-.5474-.1674-.2573-4.6313-.2972-5.504-.8722-19.0441-1.0078-42.4298-4.2319-60.9223-.177-1.0152-1.335-6.3644-3.037-6.3239-.3891.0093-.703.1162-1.2473.989-1.0194,1.6347-.793,12.0088-.6946,14.5094.5555,14.1223,2.4554,30.0129,4.0087,44.1577.3894,3.5458.8624,7.6346,1.6372,11.1192-.2146.0407-.4019.1293-.5994.218-.6849.307-1.0864.5999-1.7046.4498-.6908-.1676-1.4392-.5894-2.2294-.8606-.9821-.3368-2.0288-.4413-3.1096.4631-1.2471,1.0435-.4401,1.3068.3616.6969.47-.3576,1.2585-.574,1.747-.5566,1.0413.037,1.9846,1.1806,3.1979,1.1626.9671-.0141,1.7381-.8719,2.7429-.7617,1.6774.1838,1.914,2.459,3.6547,2.3838,1.7433-.0753,1.8643-2.7275,4.5869-2.6161,2.466.1009,4.5408,2.1641,6.058,2.3524,1.1799.1463,2.4882-.5527,3.712-.5391,1.2608.0139,5.8951,1.8528,6.2456,1.3944.9747-1.2746-3.0553-2.0189-3.1284-2.3351,2.3292-11.7021,4.918-24.7016,7.2572-36.4.7511-3.7563,1.119-7.136,2.0432-10.6531.3013-1.1466.9867-2.1474,1.507-3.1859,1.07,6.2003,3.9326,5.0266,2.9484-.8478-.2611-1.5584-1.1459-2.7926-1.4997-4.0967ZM276.7381,124.3607s-.4753-.7305-.8022-2.12c-.3269-1.3895-.3925-2.2746-.3925-2.2746.7705,1.2289,1.1352,2.9485,1.1947,4.3946ZM272.5452,121.5645c.6761.1091.2557,1.4309.4073,2.0875.1511.6542.5218.9708.3883,1.1083-.614.6326-1.5314-3.2484-.7956-3.1958ZM264.8504,113.1663c.4858.427.8,3.7324.3465,3.7084-.4536-.0242-.5315-2.4915-.6535-2.5045-.122-.0129-.5258,1.1204-.6972,1.1933-.9526.2758-.3103-3.5527,1.0043-2.3972ZM246.0955,108.0024c1.3983-.3835,1.9586,4.3076,1.6552,4.3679-.3034.0604-1.2898-3.0263-1.2898-3.0263-.3309-.7868-.0637,2.0784-.807,2.0225-.6988-.0526-.5875-3.0818.4416-3.364ZM250.8876,171.2798c-1.1177-7.8829-2.103-16.865-2.8433-23.9576-.6453-6.182-2.2438-18.2627-2.5688-22.8398-.1037-1.4603.4355-.9348.4806-.72.1865.8878,5.3929,47.7643,5.3929,47.7643.0778.5473-.3669.4197-.4614-.2468ZM259.5757,160.1664c-.0294.4706-.2717.3091-.2427-.7133.2168-7.6371.7255-15.8516,1.2844-23.764.0816-1.1556.3238-4.2937.451-5.3434.0392-.3237.4902-.4217.4774.0129l-1.9702,29.8078ZM280.3541,127.4632c-.5646-.4226.3445-2.887.9412-2.3042l-.9412,2.3042ZM283.1401,123.3626c1.139,1.3925,1.1745,3.8207,1.1948,5.5957-1.3007-1.4665-1.2158-3.7699-1.1948-5.5957Z"/>
  <path class="cls-1" d="M329.9531,51.9287c-4.8411.1247-5.3882,2.3304-8.9986,3.8588-1.4639.6197-3.0503.7732-4.5525,1.3835-1.671.679-4.1165,2.8161-5.789,2.6228-2.1103-.2437-3.2423-1.6981-5.9707-1.3223-1.9118.2633-6.5274,3.5916-7.1282,3.5418-.3708-.0308-3.3372-2.3654-4.6208-2.7132-1.9703-.5338-3.7647.0989-5.6603-.6717-1.5155-.616-3.1869-3.2642-4.2217-3.4967-1.7987-.4044-3.4984,2.3476-6.1851,1.2399-1.5811-.6519-1.0062-7.7601-5.9799-9.0565-2.1256-.5541-4.5576.2989-6.3034-.2265-1.2093-.3641-2.6146-3.2264-4.6854-3.6231-4.7918-.918-3.5554,6.1641-5.1504,8.8008-.5238.8661-1.225-1.7684-1.3762-2.2775-1.1237-3.7845-.8917-13.7975-7.6416-8.5148-2.465,1.9293-1.6989,2.9246-2.4969,5.4168-.671,2.0955-2.6981,4.0392-2.783,6.4189-2.0393-2.9754-1.0473-10.7079-6.6332-8.7108-3.6624,1.3095-3.7079,8.2562-5.5482,8.5195-1.9398.2775-1.7343-4.8506-4.6853-4.3164-.9428.1707-2.0272,1.6869-3.2306.9619-.9711-.5851-.9775-3.9392-2.6532-4.2741-.5727-.1144-4.8275.6528-5.4268.9146-1.1804.5156-2.2401,2.2218-2.7975,3.3358-.825,1.6488-2.8491,8.8977-3.6573,9.5963-1.5697,1.3567-1.9718-2.2621-3.7902-2.7301-3.7578-.9672-7.547,7.5621-10.0606,9.6566-2.6094,2.1743-3.6698-2.8495-4.8601-4.6285-2.7686-4.138-11.0314-4.298-14.9887-6.974-1.2675-.8571-2.4032-2.8792-3.8277-3.8885-2.0052-1.4208-4.6187-1.4393-6.3736-3.1237-2.2767-2.1855-4.1587-8.9782-8.4026-7.3643-1.1437.435-3.149,3.5271-3.3949,3.526-.3421-.0017-3.2182-3.8194-5.3566-4.1366-2.4922-.3697-4.4401,2.6914-7.2233,2.0766-1.4232-.3145-4.1827-4.3981-5.857-5.6169-1.7709-1.2892-3.2177-1.4247-4.9849-2.336-1.8285-.9429-3.5202-3.1903-5.6666-3.1917-3.7389-.0027-7.0873,7.0695-9.2065,9.544-1.1473,1.3397-2.833,2.4597-4.1555,3.7587-1.5115,1.4845-2.1673,3.5349-4.5362,3.9715-.7989.1472-1.5756-.0248-2.2713.1031-2.1651.3982-3.1444,3.9369-3.5762,3.9383-.0725.0003-.6655-.7733-1.0779-.8966-.7918-.2367-1.879-.0616-2.8575-.3085-2.4954-.6296-6.084-4.7859-8.6272-6.2121-3.0024-1.6837-6.5353-1.5701-8.9001-4.1588-1.9339-2.1169-3.5704-7.7427-7.5111-5.5164-2.8366,1.6026-2.7924,8.941-3.5797,9.5792-.5497.4455-2.785-2.6808-3.7082-2.9161-4.4081-1.1239-5.317,7.1838-7.0076,9.5104-.6903.95-2.0075.9478-2.8209,1.9277-.4604.5548-1.54,3.4345-1.7084,3.5355-2.0529,1.2304-4.9663-9.4809-5.434-10.4723-1.7244-3.6554-4.9249-2.8513-7.6171-.6968-1.0287.8233-4.4637,4.899-5.1502,5.155-.7385.2754-2.0107-1.4937-3.7987-.1128-2.2957,1.773-5.5768,14.7533-6.8772,18.1076-1.7283,4.4582-1.8306,1.1029-4.8296,2.4913-1.8134.8395-2.9965,3.7545-5.3666,3.9361-2.5336.1942-4.5181-3.1877-6.8131-3.6723C2.8189,71.0446-.005,70.7627,0,72.1829c.0018.5173.1892.8996.3366,1.085.5094.6405.3529.4532,1.4196,1.1209,2.8711,1.7972,8.3535,4.182,11.5517,2.4261,1.1894-.653,3.085-3.3244,3.6412-3.4844,1.4048-.4045,2.5405,1.0233,4.1799-.7639,2.7382-2.9852,3.5222-15.8932,6.5886-18.9315,1.2434-1.2321,1.3831-.2548,2.4642-.1374,1.1481.1248,1.9969-.6012,2.8527-1.2742.963-.7571,5.1628-5.3891,5.5438-5.536,3.6687-1.414,4.2351,4.2069,5.2463,6.6146.5017,1.1946,1.1563,2.8302,1.8396,3.8979,1.1223,1.7535,2.397,1.8705,2.4114,4.1315.0268,4.2211-2.6703,5.0697-4.1949,8.0652-1.1206,2.2023-.5082,2.7138-2.6417,4.6787-.5237.4823-3.7564,2.0135-1.6295,3.0248,1.8682.8883,4.4819-3.6354,5.4872-4.7074.146-.1557,2.2835-1.99,2.379-1.8726.155.1908-.6995,4.1041-.7845,4.8514-.2748,2.4166-.3442,4.8728-.625,7.2881-.0857.7373-1.9497,8.978-.666,9.0228,1.0875.0381,3.1577-9.9224,3.3988-11.2364.7402-4.0343,1.3161-8.511,1.6432-12.6006.2788-3.4858-.6439-10.2753,2.2782-12.757.9048-.7684,1.8769-.4687,2.7571-1.5959,1.2253-1.5691,2.6375-8.1762,4.0758-8.788,1.3122-.5583,2.0923,1.1723,2.9799,1.7635.3284.2188,1.5284.4,1.5813.6334.1147.5054-2.1366,8.4591-2.3625,10.0922-.5576,4.0316-.5817,8.033-1.3087,12.1437-.9277,5.2453-5.9057,20.1172-4.555,24.3349.4972,1.5525,1.5055-1.9259,1.6252-2.3382,1.6882-5.8155,3.6812-13.8476,4.9412-19.7881,1.0112-4.767.8046-8.5426,1.2536-13.1878.373-3.8588,2.0741-8.2889,3.1477-12.0857.3459-1.223,1.5963-8.8038,3.25-8.5735.453.0632,2.7637,3.8446,3.3919,4.5338,2.8752,3.1542,6.322,3.933,9.779,6.0496,3.0894,1.8916,5.1044,4.5735,8.8493,5.1988.8103.1353,1.7666-.1058,2.5358.0367.5437.1006,1.05.7085,1.8176.7705,2.5516.2057,2.8975-2.5837,4.6819-3.5917,1.3763-.7775,2.9242-.5008,4.3888-1.3493.4749-.2752,5.7632-6.1313,6.2366-5.5333.0932.1178-.3767,2.3941-.4005,2.8614-.1061,2.079.2258,4.4573-.0448,6.4834-.3874,2.8997-4.6855,10.1029-3.8634,12.4738.2572.7415,1.2565.6673,1.749.1927.5173-.4987,1.1952-4.236,1.5699-5.2977,1.6496-4.674,2.7795-5.0122,6.1339-1.1813,4.0375,4.6109,3.9356,11.7871,6.3832,16.9618.331.6997,1.326,2.3991,1.544.8491.2374-1.6875-1.1797-10.2364-1.7838-12.0831-2.6712-8.1655-10.4399-8.8318-9.0907-19.7586.3782-3.0629,4.114-11.2507,7.8014-11.1937,1.128.0175,4.7032,2.185,5.817,2.8849,2.2575,1.4183,8.108,6.7684,9.8997,7.1152,2.9118.5637,4.3586-1.8059,5.8278-1.6895,2.5283.2004,4.2561,6.0099,8.4173,3.2467,1.7281-1.1474,1.4785-3.9368,3.866-2.254,7.1681,5.0522,1.8962,14.2743,5.6098,21.0981.8196,1.506,3.1359,5.1935,4.1457,6.5379.4556.6067,3.319,3.4927,2.5139,1.0501-.1228-.3727-2.1996-3.8966-2.5829-4.5419-1.094-1.8418-2.947-3.5738-3.3987-5.7022-.2528-1.1911-.2663-8.9156.3451-9.4507.1901-.1664,1.3574-.3127,1.6847-.311,3.0757.0161,5.413,3.8531,8.2036,5.2682,3.1309,1.5876,11.2477,2.8377,12.9087,5.8883,2.2653,4.1604.8305,8.8381,2.8943,12.7346,1.2279,2.3181,4.1299,4.389,5.8756,6.391,1.5944,1.8285,6.8003,9.8943,8.3514,10.4448,1.3315.4724.1914-1.3201-.061-1.7198-1.1215-1.7768-3.7571-5.1361-5.1445-6.9242-2.3453-3.0226-6.8652-7.0328-7.8233-10.5764-.2402-.8882-.8995-4.7574-.1698-5.2671.1377-.0961,1.3372,1.2938,3.1708.1061,2.2519-1.4586,5.2961-6.6721,7.4109-8.8129,3.1876-3.2268,2.145,1.5672,5.0433,1.9878-2.0003,5.2356-6.0357,9.6132-6.6529,15.3597-.071.6608-.137,1.4783.1154,1.6724.2524.1939.724-.5469,1.0551-1.1209,1.0951-1.8982,1.4239-4.5009,2.2834-6.362.4015-.8693,2.8936-5.0074,3.4018-2.336.2807,1.4758,0,4.8167,0,6.5281,0,.3475,1.043.5377,1.3406-.2423.6273-3.6802.003-7.9611.6859-11.5795.4732-2.5073,2.8916-8.7277,3.9605-11.273.8025-1.9111,1.0401-3.4148,3.2042-4.1163,4.7943-1.554,2.8268,2.6868,5.7362,3.584,2.1203.654,4.2312-.9283,4.4546-.7949.2159.129,1.0429,3.091,2.8026,3.8258,4.4968,1.8781,4.3926-4.9643,6.6012-7.0062,2.901-2.6822,3.7898,3.5695,4.6227,5.4796,1.7287,3.9643,3.6392,7.8825,5.3293,11.8684.0598.9937-4.0463,6.1235-1.6276,6.4011,1.6164.1857,1.713-2.723,2.4632-3.5633.2021,1.1886,1.2062,1.9465,1.6833,2.9672.3369.7207,1.1838,4.7164,2.3712,4.3508,1.5477-.4764-1.4322-6.2799-1.6318-7.0682-.2131-.8413-.0994-1.9223-.3864-2.9767-.6162-2.2641-2.8982-5.8108-3.8478-8.2205-.2757-.6996-.7858-1.6608-.7658-2.4001.0475-1.7583,2.2149-4.1283,2.8728-5.8473.9736-2.5442.1329-5.3408,3.2744-6.4182,1.9331-.6631,1.9211.0963,2.343,1.7999.5145,2.0777.4942,4.3021,1.0722,6.4456.3842,1.4249,1.8626,3.9426,1.9355,5.0056.0739,1.0779-.65,6.2102-.8299,7.6859-.3729,3.0591-2.1537,9.7636-1.5126,12.4433.4487,1.8757,1.2759.0915,1.4827-.8017,1.1183-4.8291,1.342-11.2066,2.3251-16.2708.7916-4.0775,2.7453-8.5327,3.6768-12.6476,1.4701.0186,2.1417,1.5053,3.1735,2.25,3.3752,2.4359,7.034.5077,9.743,2.525,2.479,1.8459,1.6196,5.4996,3.5941,7.0893.3459.2786,1.6643.7131,1.6797.8876.0363.4094-5.3924,4.9092-6.145,5.3264-.871.4827-2.8816.6062-2.9608,1.411-.2486,2.5243,4.7735-.6559,5.0717-.7008.3365-.0506,2.1296.4589,2.2291.6197.8707,1.4053-1.3727,6.5006-.947,8.7605.1394.7403.5301,1.3363.9913.4251.2613-.5163,2.0393-5.3319,2.1124-5.8013.3752-2.4083-.472-5.2536.5402-7.5706.4401-1.0075,3.6077-4.0463,4.6439-3.6628.4789.1773,1.2302,1.6584,1.694,2.0811,2.5281,2.3049,6.0786,1.482,9.0127,2.0681,1.7212.3439,3.0666,2.3399,4.8292,2.2943,1.9704-.0511,4.3664-3.1155,6.569-3.1622,1.2424-.0264,3.246,1.4313,4.9421,1.5459,3.7029.2503,6.074-2.4927,9.1775-3.6313,1.3503-.4953,2.6416-.5396,4.0258-1.1188,1.5876-.6642,2.8622-2.0868,4.4297-2.6932,2.3118-.8945,5.6598-.2104,7.1959-1.1164,2.6295-1.551-3.3499-1.914-4.0778-1.8953Z"/>
  <g>
    <path class="cls-1" d="M168.8682,131.6086c-.57-.1933-1.2011.0455-1.4088-.0666-.1974-.1067-.9429-1.7272-2.1818-2.3202-.8095-.3876-7.0051-1.9125-8.5084-1.9178-.2124-.0007-.3541.1621-.3541.4071,0,.7999.2114,8.5508.2986,11.6461.0117.4157.1371,1.196.5175,1.6614,2.1599,2.6429,13.7775,4.3849,17.2817,3.9401,2.0493-.2601,1.8091-2.8442,1.4534-4.4458-.345-1.5538-5.6484-8.4128-7.0982-8.9044ZM162.6143,137.0092c-.0819.0639-.4089.4239-.6518.2059.0713-.1872.5937-.8511.7645-.7057.1023.0872-.0191.4269-.1127.4998ZM161.1303,136.9744c-.2305.1889-.8789.9117-1.2065.5942.201-.5543,2.6174-3.4262,3.0987-2.9956.2882.2579-1.6286,2.1853-1.8922,2.4015ZM166.9606,141.7013c-.0421-.314-1.7408-11.4228-1.7408-11.4228.9645-.0779,1.1688,2.0466,1.2709,3.068,0,0,.7354,6.7207.8171,7.7012.0817.9805-.3052.9676-.3473.6537ZM168.6169,136.7681c-.1645-.4044-.8204-4.6085-.2973-4.5893.5164.0191.5918,4.0315.2973,4.5893ZM171.1174,141.7594c-.4308-.5245.7743-2.1392,1.2977-2.1919.1398,1.023-.6672,1.5603-1.2977,2.1919ZM172.763,141.1924c-.0484.0469-.1905.2575-.3629.1337-.0612-.1224.2953-.5591.416-.477.0723.049.0022.2895-.0531.3434Z"/>
    <path class="cls-1" d="M180.406,141.4686c-2.0251-1.8913-.2044-4.973-2.252-4.6733-.9008.1234-.8391.7721-.8391.7721-4.2549-5.0501-8.9439-10.0946-13.7866-14.5885-2.5052-2.3247-6.8232-6.8325-10.1978-6.9829-20.7468-.9255-41.7663-.7401-62.5512-.7885-8.1679-.0189-18.1858-.9891-26.186-.221-.762.0731-1.9231.1381-2.3377.8594-.5705.9928-1.0222,6.3779-1.1495,7.8414-.1114,1.2812-.2485,9.7261-.6029,10.0863-.3567.3624-4.8912-.8675-6.634,1.8586-2.0548,3.2141-2.5485,15.5702,1.0461,17.6114.8221.4667,3.1412.6751,3.1412.6751,0,0,.0179.9956.0418,1.3196.167,2.2633.2971,4.9725.6306,7.1789.4121,2.7263.6327,4.7424,3.8759,5.1156l16.0838.803v4.4953c0,5.583,4.8761,8.9349,10.0637,8.8052,3.2684-.0817,5.8627-2.6147,5.9989-2.8939.8852,1.035,3.527,3.4135,4.5154,3.8844,7.1951,3.4286,15.2135-1.2131,15.7962-9.0943l39.3685-1.2019c-.1539,9.9944,14.975,13.4087,17.7866,3.1967l2.3822,3.148c5.7914,5.5692,16.2836,2.0338,16.7405-5.626l.2609-3.5148c0-.5853,4.8295,1.5098,5.0102-1.8977.2667-5.0277-1.0765-15.6497-3.964-19.8262-3.6149-5.2288-9.2101-3.5103-12.2419-6.342ZM57.459,149.8093c-2.1661,6.5422-3.7533.3506-3.9465-4.1536-.0729-1.7.1295-10.2851,2.3238-10.6498,1.0561-.1754,1.7154,2.3059,1.8966,3.0341.8378,3.3654.8224,8.4584-.274,11.7693ZM64.5996,117.7897h3.6972v4.9947l-4.4019-.0259c.0196-1.0194.0102-4.9688.7048-4.9688ZM63.7797,123.764c.143-.286.5991-.171,1.255-.1722.7571-.0014,1.6005.0598,1.5946.3561-.0043.2185-.9882.0993-1.2845.0892-.2887-.01-1.0146-.0647-1.1371.068-.1226.1328-.1022,1.4573-.1022,1.4573,0,0-.0374,2.3422-.0477,2.6896s-.3975.2536-.4213-.004.0144-1.3986.0409-2.2572c.0204-.664-.0623-1.8978.1021-2.2267ZM60.203,162.3421c-.426-.1574-.712-7.3369-.9002-8.392l1.8007-.0006c-.1164.38.0729,1.5998.4984,1.5998h4.0969v6.7927h-5.4958ZM62.9021,164.1378c-.6144-.9385,3.8892-.1626,4.3954-.3948-.3776.6336-4.1802.7236-4.3954.3948ZM74.5018,123.6932c-.0254,8.7689-.8244,17.5991-1.2163,26.3547-.1816,4.0574.0319,8.2606-.4403,12.2451-.889.2286-6.3675.078-6.3675.078l.2232-6.8187,4.4537-.2425c.5389-.1861.5779-.841.6872-1.311,1.137-4.8904,1.368-18.1629,1.4585-23.715.0206-1.2635.1119-6.0509-.5173-6.8897-.5932-.7909-3.6907-.6079-3.6907-.6079,0,0,.0039-.2579.0039-.3015,0-.7837-.0235-4.648-.0235-4.648,0,0,3.9649-.1649,4.587.3527,1.1698.9737.8463,4.0975.8422,5.5039ZM70.5633,146.0231c.0106-.406.0185-.9503.5584-.8035,0,0-.1279,4.6877-.1907,5.9307-.0474.9387-.6512,2.1952-.9907,2.676-.2451.3473-.5328.2603-.3473-.0407.2501-.406.7252-1.5935.8069-2.4105.2336-2.3363.1122-3.3974.1634-5.352ZM69.9369,144.4298c-.0409.9-.0783,1.5252-.2111,1.5354s-.1644-.2789-.1704-.4571c-.0373-1.109-.0645-2.1066-.0441-2.3721.0204-.2655.4613-.2894.4613.0374s.0037.3886-.0357,1.2563ZM77.9119,127.0128c-.1623-.0008-.2223-.4071-.2223-.5324,0-2.2672.1511-5.2188,0-7.3922-.0228-.3281-.2126-.8648-.4641-1.4234-.0994-.2207-.2506-.6282-.133-.6744.2416-.0948.811.711.9353,1.225.5171,2.1382.172,5.856.1362,8.2527-.0068.4561-.0896.5454-.2519.5447ZM79.0958,153.8585c-.0187.8278-.1787,7.8647-.7068,7.8797-.8709.0246.2855-11.0703.302-11.3831.0166-.3128.3784-.2388.4056-.0141.1077.8884.0172,2.719-.0008,3.5176ZM150.3317,124.1846c-22.6574-.9148-45.3699-.8296-68.0457-1.4003-.0528-1.2993-.22-2.9576,0-4.0957.1328-.6872.7572-1.3127,1.4952-1.3023,19.9096-.286,39.8608-.4079,59.7649.1961,1.3125.0398,9.5785.2902,9.9861,1.0051.2613,8.3156.4537,16.6155.8878,24.9277l-71.9353-.3516-.1998-18.7822c4.9667-.1255,11.6944.1407,16.6473.2442,14.2897.2983,26.4544.5018,40.746.5991,1.8758.0127,9.4138.4619,10.6443-.054.7188-.3014.7757-.7458.0092-.9862ZM110.9905,179.8504c-9.6111,9.1072-23.0727-5.5278-13.8427-14.4381,9.5054-9.1761,23.2513,5.5227,13.8427,14.4381ZM154.6302,166.8374c0,1.2289-3.9689,1.451-4.8887,1.5059-7.9277.4734-21.842.5078-29.5563-.6352-6.3015-.9337-4.8737-2.8177-9.2577-5.5294-5.4988-3.4009-10.1476-2.2942-14.9449,1.569-.4835.3894-1.8252,2.0815-2.0445,2.1516-.7671.2454-7.6025-.0105-8.753-.1622-3.2589-.4297-2.7558-5.1453-2.7003-7.5917l72.1454.8002v7.8917ZM85.0815,156.6459c-.0276-.3278.2279-.4431.5046-.4946,1.164-.2159,3.8609-.0328,5.2032-.0124,3.537.0537,8.7017-.0236,12.2424.1773.5455.0309.4698.4289.037.4331l-17.9873-.1034ZM154.6313,155.1509l-72.3453-.4006v-10.1893l72.168.0437c.1865,3.5808.3245,6.9415.1773,10.5462ZM169.8917,164.3135l-13.463.2264v-5.5941l15.7899-.0976-2.327,5.4653ZM182.6854,180.3001c-12.0621,1.3356-13.5246-16.473-2.519-17.7024,12.5895-1.4064,13.6294,16.4722,2.519,17.7024ZM187.1051,158.1467c-.1205,0-1.7134-.8783-2.1894-1.0079-4.8756-1.3277-8.7329.7348-11.58,4.624-.3318.4533-1.4252,2.5719-1.4252,2.5719l-1.1508.0203s1.508-3.7899,1.7485-4.2186c1.4424-2.5699,4.313-3.7878,7.2025-3.7878,0,0,3.4262-.0593,4.5964,0s.9763-.7356.2804-.7259-18.7613-.8198-28.16-.4718l-.0121-10.3218c.355-.3694,7.0028,1.0198,8.0145,1.223,7.3572,1.4775,14.3098,4.0831,21.1664,6.81,2.6986,1.0733,5.0221,1.9994,5.4057,5.2846h-3.897ZM194.4825,158.1506c-1.0388-.0028-2.0942-.0028-2.0942-.0028,0,0-.3523-1.4663-.8103-2.5806-.8674-2.1104-3.0385-2.7252-4.9707-3.5611-7.111-3.0767-14.86-5.7991-22.6404-7.2995-2.3058-.4447-5.1205-1.0418-7.5377-1.1984l-.5976-25.7185c6.5484,5.73,12.9274,11.6595,18.4856,18.3782,1.3658,1.6509,4.6175,4.7943,3.4509,7.1525-.0534.108-.5181.1532-.6502.4428-.2364.5182-.5376,2.1005.2269,2.3707,1.062.3752.7269-.7855.9688-1.1715.1859-.2966.9059-.3664,1.1135-.6848.3444-.5283-.0702-1.3596.4789-1.3113,3.7565,1.7957,8.6632,1.7996,11.4958,5.1887-9.8365-2.785-1.8163,5.7063,2.5102,5.5843l.5705,4.4114ZM191.1702,150.7212c-.0484.0471-.1904.2576-.3629.1338-.0612-.1224.2953-.5591.416-.4772.0723.0492.0022.2897-.0531.3434ZM190.6094,150.2292c-.0819.0639-.4089.4239-.6518.2059.0713-.1872.5937-.8512.7645-.7057.1023.087-.0191.4269-.1127.4998Z"/>
    <path class="cls-1" d="M149.5174,126.649c-1.4872-.0174-5.0657-.0579-6.2235-.0579-2.0913,0-12.6179-.0572-13.5434-.0102-.2937.015-.5856.2867-.648.5413-.1609.6566.0258,8.1007.1678,8.9276.0879.5121.2659,1.1245.8169,1.3014.0395.0127.0832.0175.1247.0175h19.9218c.4936-.0236.48-.4662.4928-.706.0476-.8906-.3635-8.3454-.3982-9.3779-.0164-.4861-.3361-.6315-.7109-.6359ZM139.2432,131.8734c-.0572-.3013,5.5593-2.1123,5.7932-1.8956.1191.1104-.0214.5197-.199.6979-.5022.5036-5.4597,1.906-5.5942,1.1977ZM146.2354,133.1708c-.0411.0608-1.2378.2696-1.4382.2825-2.4611.157,2.292-1.5423,1.4382-.2825Z"/>
    <path class="cls-1" d="M153.1267,146.7902c.0136-.5176-1.4503-.9874-1.4853-.1563-.0254.602,0,2.428,0,3.1966,0,.5545,1.4177.6684,1.4853.0034.0817-.8035-.0362-1.6674,0-3.0437Z"/>
    <path class="cls-1" d="M104.2306,168.3826c-5.6672.31-5.3191,8.8767.3364,8.9387,5.8255.064,5.5308-9.2596-.3364-8.9387ZM104.6585,176.4211c-.9703-.0295-3.4108-.794-3.352-3.5726.0591-2.7937,2.0583-3.4844,3.0727-3.4991s.9115.4852.0882.691c-.8277.2069-2.383.6318-2.3964,2.8081-.0147,2.3817,1.6466,2.7051,2.6463,2.7786s.9115.8234-.0588.794Z"/>
    <path class="cls-1" d="M180.7563,167.7842c-3.8386.7168-3.5836,6.6979.402,7.2959,5.5316.8303,5.3823-8.3763-.402-7.2959ZM180.3104,169.1397c.4833.0298.0484,3.2493.2973,3.79-.9703-.4123-1.0864-3.8388-.2973-3.79Z"/>
    <path class="cls-1" d="M55.6487,140.592c-1.2482.3639-1.3055,6.3626.3518,6.1806,1.4017-.1539,1.5021-6.7211-.3518-6.1806Z"/>
    <path class="cls-1" d="M64.5908,157.004c-.605-.0172-3.8402.1919-3.8402.1919-.5704.0581-.4087,2.675.1504,2.6492,1.5276-.0516,2.8208-.1003,3.631-.1211.5733-.0147.5733-2.7053.0588-2.72ZM64.1124,159.3134c-.2604.0032-.6761.0106-1.1672.0185-.1797.0038-.1948-.3215-.0114-.3304,0,0,1.003-.1044,1.1975-.1019.1654.0023.1654.4115-.0189.4137Z"/>
    <path class="cls-1" d="M159.4043,146.8049c.0136-.5175-1.4503-.9873-1.4853-.1561-.0254.6018,0,2.428,0,3.1966,0,.5545,1.4177.6682,1.4853.0032.0817-.8035-.0362-1.6674,0-3.0437Z"/>
  </g>
</svg>