<?xml version="1.0" encoding="UTF-8"?>
<svg id="Ebene_1" data-name="Ebene 1" xmlns="http://www.w3.org/2000/svg" viewBox="0 0 181.9245 154.6446">
  <defs>
    <style>
      .cls-1 {
        fill: #201b15;
      }
    </style>
  </defs>
  <path class="cls-1" d="M26.9234,151.8872c-.4939-.7766.4951-5.2587.7706-6.442,3.2403-13.9185,13.1335-26.1483,27.4668-29.3592,2.3867-.5347,4.8256-.534,7.1131-1.0758,2.4432-.5786,9.3712-5.0559,11.2903-6.8246.4672-.4306,1.2437-1.3761,1.5422-1.9319.4895-.9118,1.0935-3.8483.8044-4.8023-.2146-.708-2.6994-2.853-3.0518-3.8948-.1357,1.7265-.2199,3.5666-1.0657,5.1359-.327.6068-1.3623,1.302-1.814.6732-.461-.6418-.1426-3.8745-.2238-4.939-.1437-1.8845-.8305-3.7042-.9924-5.5848-.3573-.0175-.3772.8973-.4217,1.1873-.3124,2.038-.7222,5.0219-3.0603,5.8734-2.8094,1.0232-.6929-1.9734-.5447-2.7761.7287-3.948-3.4625-5.9282-3.6708-8.882-.2055-2.9146,1.9968-4.617,2.4332-6.7502.3801-1.8583-.2754-3.8136.3733-5.8304.3654-1.1362,2.1306-2.9211,2.166-3.2996.038-.4051-.2532-1.1148-.2626-1.7212-.0657-4.2233.0756-8.4526.0003-12.677-.0614-3.441-.8094-7.172-.1723-10.5968.4466-2.4008,1.2262-5.4252,1.7885-7.8893,1.6967-7.4353,7.617-13.0581,14.3581-16.1641.5119-.2359,2.735-.8986,2.8419-1.0049.1244-.1238.1614-.7307.3272-1.0321,3.4437-6.2594,8.1523-6.4641,14.6531-7.2353,1.0402-.1234,2.3695-.9368,3.5884-1.0803,3.9582-.466,10.1121,1.8296,13.0073,4.5583,1.0922,1.0294,2.0071,2.4188,3.2168,3.4832,4.5426,3.9972,6.2323,4.8744,8.7316,10.8721,1.4723,3.5331,1.4538,7.0177,2.6761,10.4757.7742,2.1902,2.2194,4.3381,3.1045,6.5733,2.9395,7.4233,2.0689,12.7025,2.8911,20.1867.5159,4.696,3.5811,6.1238,3.2073,11.704-.2748,4.1023-3.1199,7.7198-4.3002,11.5813-.7423,2.4284-.8561,5.0814-1.7226,7.4589-1.0316,2.8303-3.3781,5.428-4.7021,8.2016-.3711.7774-2.1903,5.1505-1.6954,5.6276.1083.1045,2.4163.2422,2.9882.3625,4.4856.9428,9.8156,2.8292,12.3484,6.4451,2.5327,3.6159,3.0256,5.1014,3.0256,5.1014-.0541-2.6024.0773-5.2218.0128-7.8258-.2421-9.7773-1.3017-19.5189-1.9934-29.2733-1.277-18.0085-1.9279-37.0055-4.4994-54.8081-.9738-6.7417-5.4182-25.5258-1.5654-30.9079,2.4498-3.4222,5.2733,1.4099,6.4402,3.4516,2.1839,3.821,3.5011,8.0707,4.8997,12.2226l2.661,8.8742c-.446-3.6529-.1917-7.3668-.2352-11.0518-.0414-3.5044-.4212-6.7965.0212-10.3803,1.0429-8.4479,4.4253-7.0194,7.6312-.7462,10.8205,21.1736,11.3579,53.6251,14.2045,77.3622,2.5654,21.3928,6.038,43.1529,7.9085,64.5508.1969,2.2521.7442,6.7337.379,7.1354s-3.6112.1882-5.4523.1712c-7.2786-.0673-14.5722.1509-21.8384.2703-4.6617.0766-9.2301-.8607-13.8963-1.0134-8.6054-.2814-17.4409.686-26.0763.5171-7.1655-.1402-14.4159-1.2873-21.5763-1.249-5.7416.0307-11.5958.4757-17.3829.2564-2.653-.1005-5.9568-.2937-8.4814-.2963-.9873-.001-2.1304.0136-3.1614.0475-11.5935.3815-24.1445,1.9032-35.3615-.3944-.3874-.0794-1.4015-.2279-1.6515-.6209ZM155.861,2.7648c-.5506-.4897-.6831,1.4413-.7108,1.6408-.8731,6.2908-.6314,14.2092-.2751,20.5646,1.2326,21.9797,6.0306,43.5332,7.2045,65.5029.9993,18.7015,1.4452,37.4128,3.4649,56.0907.2135,1.9741.6664,3.9307.7793,5.9207l.0444.4192,13.071.2381c-.1842-4.0665-.7179-8.2004-1.275-12.2497-4.8061-34.9347-7.78-71.0251-12.5275-105.9839-.4758-3.5039-1.1004-6.1761-1.6116-9.6585-.7668-5.2237-4.3098-14.8197-6.6282-19.6755-.1784-.3736-1.4165-2.7029-1.5361-2.8093ZM161.5742,152.894c-.0363-3.4345-.4758-6.8737-.7435-10.3016-.4417-5.6566-1.1873-11.2272-1.7375-16.8736-3.4602-35.5079-1.4022-72.0159-11.7894-106.5773-1.5755-5.2423-3.3341-11.1338-6.821-15.3858-.162,2.3398-.1587,4.7118-.0004,7.0701.7942,11.8325,3.6745,24.0794,4.9602,35.9842,3.4018,31.4995,5.4679,63.6967,6.6903,95.2986.1104,2.8532.3529,6.8938.4931,9.9018.0184.395.0846,1.067.1459,1.0697.6999.0304,7.4798-.14,8.8023-.1861ZM126.3332,111.6986c.6624-4.9314,5.0877-8.8057,6.4661-13.2629.6391-2.0666.8057-4.3978,1.4123-6.5285.8744-3.0716,2.6153-5.6932,3.5425-8.6168,2.2606-7.1279-2.2383-9.0733-2.7302-15.6394-.4935-6.5882-.4464-11.3804-2.7953-17.801-1.0213-2.7917-2.6522-5.2742-3.4762-8.1867-1.4464-5.1124-1.1995-8.051-4.1107-13.0115-2.2366-3.811-3.7353-4.0461-6.7458-6.6542-1.1349-.9832-1.9536-2.2786-2.9686-3.2351-2.123-2.0007-7.4007-4.3082-10.304-4.2845-3.6179.0295-8.4839,3.2253-10.7946,5.9011,2.9006.6972,3.6249-1.5902,5.6981-2.6124,6.4892-3.1998,12.7293,1.9057,15.0179,7.8303,1.0999,2.8473.9733,5.629,1.7909,8.3832.6524,2.1979,2.3661,4.1032,3.1734,6.2562,2.1139,5.6375-.5077,11.3646,1.4272,16.6876,1.3859,3.8126,3.1095,4.731,2.0524,9.3675-.8689,3.8113-2.4915,6.8032-2.0821,11.0101.2185,2.2455,1.3938,4.5776,1.6389,6.7987.7006,6.3477-4.4944,14.1406-1.5545,20.1653.8587,1.7597,2.5218,3.4799,3.3587,5.3277,0,0,1.6682-4.581,1.9862-6.4585s-.7908-2.9628-.9655-4.4887c-.5836-5.0988,4.786-10.9044,2.9977-15.9022-.492-1.3751-1.6966-2.6641-2.1497-4.0541-1.2964-3.9769,1.6446-8.0863,2.4824-11.8973,1.195-5.4362-2.2512-8.4225-3.4378-13.451-2.0261-8.5868-.4297-15.0615-5.6737-23.1115-.6468-.993-3.8131-4.6531-3.9279-5.2548-.1734-.9084,1.0414.0758,1.2497.2404,10.4956,8.2905,7.0007,20.8309,11.0421,31.3912,1.7597,4.5981,3.4549,5.7587,2.0334,11.2232-.657,2.5256-2.4359,5.4521-2.6546,8.0135-.3184,3.728,3.2134,5.5247,3.1964,9.402-.0176,4.0261-4.1931,9.5004-3.6364,13.1195.1152.7491.6399,1.6338.8176,2.4076.8665,3.7725-.9968,5.9318-1.5581,9.3775-.0516.317-.3126,1.487.1818,1.5482ZM95.8136,16.1654c-3.0183.9245-6.0836.7616-8.1887,3.4693,1.0591-.1027,2.0157-.3449,3.1094-.253.4893.0411,1.1485.4863,1.3609.3899.6898-.3132,2.8146-3.0145,3.7184-3.6062ZM98.5433,20.6297s2.5393-.2663,3.8463,0,4.7797,2.052,5.3199,2.3727c.7194.4272,5.0076,4.5883,5.2241,4.3272.357-.4306-2.1224-4.5691-2.6238-5.1904-2.8082-3.4797-8.3715-4.7914-11.7664-1.5095ZM91.5933,20.8809s-1.3963-.2596-1.8555-.2592-2.6081.75-2.6081.75c0,0,.9432.093,1.6099.0003s2.8537-.4911,2.8537-.4911ZM117.4003,42.963c.7567-2.9069-1.5939-4.7589-2.5984-7.2011-1.2425-3.0208-.5172-4.3624-3.0951-7.079-7.4431-7.8437-16.9056-7.9824-26.8113-5.1992-5.3124,1.4926-10.534,5.0912-12.8684,10.2093-1.29,2.8282-2.1829,6.6986-2.1478,9.7634,4.0142-1.7635,8.5961-2.8577,12.5998-4.5225,5.1261-2.1315,4.5593-5.0411,7.38-8.7497.7217-.9489,1.6942-1.7176,2.9149-1.1794,1.0665.4702,3.4003,5.4363,4.426,6.7404,2.3771,3.022,6.2903,3.3273,9.7237,4.4207,1.1398.363,2.2302,1.0316,3.3369,1.3779,2.3234.7271,4.7941.813,7.1397,1.419ZM93.2081,41.4742c.6396.1832,3.0952.2684,3.9915.358.3652.0365,1.7382.0928,1.5903-.3553s-5.4603-1.182-5.9529-.7459c-.1426.1262.1693.6854.371.7432ZM103.4806,42.9094c.1677-.2703-1.9114-1.2877-2.2064-.6895s2.0387.9598,2.2064.6895ZM106.7304,43.7106c-.0525-.0485-1.1603-.5757-1.2375-.4982-.6326.6351,1.6931.9189,1.2375.4982ZM94.041,53.4627c.1095-.4382-3.1825-.7895-4.3006-.8336-3.887-.1533-13.7521,2.8197-16.7593,5.3438-.8883.7456-2.5971,2.9693-.4839,1.7493,5.9323-3.4247,11.3609-6.0154,18.4891-6.0986.88-.0103,2.9452.2772,3.0548-.161ZM89.8062,56.6857c-5.2218.2392-11.3977,2.8558-15.3369,6.2496-1.0695.9214-3.7272,3.5811-4.1027,4.8306-.3257,1.0835-.1852,5.0035-.1101,6.3377.2172,3.8553.9071,8.7732,1.5216,12.6229,1.5255,9.5567,4.2432,12.8602,12.0457,18.2284,5.5015,3.785,8.5337,4.3985,15.0301,1.9687,14.608-5.4639,16.9103-13.9366,17.3184-28.589.1633-5.8634-.1219-11.4411-4.5911-15.7778-3.706-3.5962-16.6651-6.1051-21.775-5.871ZM151.5547,152.8549s-.1507-2.7178-.166-3.5499c-.4794-25.9925-4.505-77.7848-4.6146-78.9533s-1.0801-.7077-1.0225.1826,2.6799,38.5499,2.6799,38.5499c.3765,13.2788.4836,26.4837,1.4763,39.7163.0511.681.2227,3.8719.2227,3.8719l1.4241.1826ZM158.8421,69.7643c-.1088-.8003-1.101-.4919-1.0765.1857.1996,5.5286,1.0064,13.0254,1.3237,18.5505.933,16.2437,1.7301,32.1775,3.229,48.3858.4841,5.2352,1.1043,10.5581,1.6399,15.9869.4565.0365,1.2787.0855,1.3353.0187.19-.2243-.6631-5.0286-.7416-5.8318-1.8127-18.5557-2.9773-37.1898-3.7255-55.83,0,0-1.8755-20.6654-1.9843-21.4657ZM67.7729,73.2395c-.222-.1984-.7137.2853-.8794.4831-.8336.9955-.9416,3.2389-1.5997,4.4774,1.3313-.8041,1.2237-2.7679,1.7893-4.0396.113-.2542.7749-.8447.6897-.9208ZM66.5322,91.476c.1417,1.0502.1745,2.6087,0,3.7222-.0764.4873-.3776,1.0807-.003,1.1149.6806-2.1112.7834-4.631-.1203-6.6989-.6889-1.5764-1.8489-1.9551-1.6211-4.0986.2088-1.9639,2.35-3.1141,2.4864-5.0821-.9813,1.4172-3.2903,3.7739-3.2113,5.5621.0807,1.8282,2.2037,3.512,2.4693,5.4805ZM70.9964,100.0359c.2817-1.8568.7032-3.6554.4776-5.5607l-1.7133-4.8591c-.3981,1.9021.987,3.6352,1.2175,5.3548.1902,1.4188-.1776,2.6023-.2389,3.9389-.0125.2724-.1659,1.1724.2572,1.1261ZM123.1099,112.9384c.3626-.3012-3.9543-5.4976-5.0872-7.9381-1.0863-2.34-1.7604-5.511-2.1075-8.0666-.028-.2059.074-2.5371-.4949-2.1072-.1411.1066-1.2285,3.0649-1.2274,3.3166.0071,1.6308.5147,4.7038.7999,6.4129.6989,4.1875,1.1317,6.8519,5.6753,7.9728.357.0881,2.3465.4886,2.4417.4095ZM83.7065,107.2139c-.3752-.1843-1.4613,4.5783-1.6197,5.276-.1614.711-.8159,3.5116-.5537,3.9272.3473.5505,7.5219,3.2564,8.6271,3.542,1.9353.5002,5.2966,1.0703,7.2681,1.1667,5.7318.2802,11.6838-4.7882,15.3719-8.6928.6607-.6994,1.3498-1.284,1.8685-2.3595-1.0045-3.3373-1.6305-6.793-1.7353-10.2833,0,0-1.2868,1.6669-2.98,2.9522-6.6704,5.0636-14.721,9.3393-21.9768,6.5586-.6579-.2521-3.9008-1.9056-4.2702-2.0871ZM120.3801,114.1842c-1.1689.5101-4.3331-2.2982-4.5841-2.2365-.1879.0462-2.1088,2.3857-2.6083,2.8579-3.0892,2.9204-6.7639,6.1387-10.8531,7.5098-.6505.2181-2.7161.5715-2.8586.6663-.1547.1029-.3341,1.3532-1.0601,3.1076-.6684,1.6152-1.7576,2.6011-1.8532,3.1098-.3139,1.6708-.4435,4.6617-.5112,6.4369-.052,1.3623.0569,2.7421.0128,4.1036l1.6436-2.6234c3.5543-5.0393,6.5353-10.467,11.0064-14.3766,2.1216-1.8552,6.605-5.6598,8.8612-7.0203.9067-.5467,2.0698-.8027,2.8046-1.5351ZM127.0816,115.4209c-.0847.0881.056,1.8911-1.13,1.9999-1.2834.1178-1.4174-1.9745-2.2061-1.9944-.3529-.0089-2.916.84-3.4298,1.048-2.814,1.1389-4.7108,3.1893-6.8905,5.0328-3.5115,2.97-4.8002,4.1083-7.6397,7.9814-2.9476,4.0205-7.1279,9.3671-8.5485,14.033-.3084,1.013-1.8787,7.1788-1.4243,7.6352.0919.0923,2.1249-.0347,2.6044.0011,2.3873.1784,4.8133.5983,7.2007.7401,12.1316.7206,23.9509-.3336,35.9897-.0082.9446.0255,5.6018.3627,6.04.3809-.4108-2.8148-.239-5.8551-.4691-8.6814-.1413-1.7352-.2987-4.373-.4621-6.0999-.3943-4.1684-.1102-7.0522-2.2228-10.8189-1.5282-2.7248-3.1222-6.2673-7.0109-8.3743-3.627-1.9652-9.9411-3.3537-10.4008-2.8753ZM91.4849,122.0627c-.0953-.0924-1.7752-.5805-2.3664-.773-2.968-.9667-7.6451-2.9508-7.944-2.6422-.1094.113-.4657,2.7163-.4943,3.1061-.0792,1.0803-.0024,5.6908.6196,6.3215.3245.329,2.4835,1.1261,3.175,1.5398,3.6802,2.2019,4.6897,4.2842,7.2965,7.3289.1523.1779.1244.2272.5443.6654-.2483-2.4449.4075-5.2667.2825-7.6806-.0791-1.5283-.6055-3.1916-.7512-4.7081-.0527-.548-.2509-3.05-.362-3.1578ZM93.8309,130.063c1.9486-1.5403,3.7607-3.9227,4.118-6.4465.0355-.251.1744-.4513-.1384-.6353-.2044-.1202-4.5277-.7459-4.7059-.5895-.68.5967.7288,6.4692.7263,7.6712ZM92.0927,151.405c.2313-3.0562.3563-6.2171-.3177-9.2384-.7595-3.4046-5.4087-8.9456-8.45-10.6574-.2914-.164-2.019-1.0943-2.1507-.9487-.073.0807.0447,1.4604-.0049,1.8565-.8688,6.9341-4.1259,7.6125-7.2953,12.5563-1.133,1.7673-1.862,3.3829-3.3194,4.9601-.3163.3423-.7508.8346-.7954,1.2196,2.9417.2634,5.4436.4019,8.3908.4845.5874.0165,1.5575.0154,2.1439.0246,3.9481.0625,7.8583-.2665,11.7986-.2573Z"/>
  <path class="cls-1" d="M18.1433,78.6964c-.7204.6117-3.0356,3.1995-3.8574,1.4863-.8617-1.7965,4.1358-4.6149,4.3588-6.5685.3017-2.6427-1.2962.3107-2.4156.5647-2.2066.5006-1.7402-1.2951-.8144-2.5536.6653-.9044,3.112-2.6843,3.4174-3.2826.2094-.4102.7424-6.2553.5494-6.5203-.1756-.2412-4.6305,2.6405-5.4003,2.5381-.533,1.1676-1.7069,5.5583-2.795,6.0334-2.6952,1.1768-.2856-4.1645-.4876-4.3507-.1244-.1147-2.256.9243-2.4713,1.1244-.9146.8497-1.8084,6.2275-3.147,6.5371-.3835.0887-.6848-.03-.8948-.3221-.8118-1.1295.9094-4.237.5561-4.611-.2603-.2755-4.2588,2.1658-4.6948.8381-.4504-1.3716,2.4606-2.249,3.2062-2.9495-.9186-.4111-3.3589-.8618-3.2366-2.2187.2157-2.3945,5.9517.5756,7.2739.3079.2307-.0467,2.079-.7892,1.6717-1.1876-.388-.3795-3.2562-.1266-2.9858-2.0961.32-2.3308,5.6773.5972,6.8365.5803,1.0425-.0152,4.5977-2.0109,5.7725-2.6005-.21-.21-4.5574-3.2218-4.8409-3.2812-.8955-.1876-4.5948.9872-5.9117.9562-.9852-.0232-1.7053-1.1501-.8478-1.8646.9438-.7865,3.5643-.7567,3.7127-.879.4271-.3521-1.6817-1.5149-1.9249-1.6884l-6.6385.7208c-.615.0528-1.299-.2018-1.348-.8867-.1252-1.7518,4.7107-1.7072,4.6966-2.2389-.0118-.4455-4.3817-2.6498-2.8588-3.872.8819-.7077,3.4767,1.6708,3.6057,1.5145.3728-.4516-1.5822-3.6701.4773-4.1071,1.9597-.4158,2.1221,5.4569,3.0107,6.453.1119.1254,2.135,1.4757,2.2195,1.3762.1301-.1534-1.2091-3.1195-.003-3.8542,2.0747-1.2638,2.7514,4.9634,2.9653,5.9814l5.253,3.613c.0818-1.836.1643-4.309-.0745-6.0618-.1193-.8759-5.6019-4.6831-3.4269-6.0105.7967-.4862,1.6406.4719,2.205,1.0047.2548.2405,1.4305,1.7411,1.7672,1.356.0769-.0879.215-2.2135.1929-2.3282-.0483-.2509-2.6837-3.3037-3.1259-4.042-.4923-.822-1.243-1.9057-.037-2.4457,1.1101-.497,2.5923,2.0581,3.4651,2.6134.1325-5.3122,2.6698-5.8697,2.2382,0,1.0095-.669,2.6-2.9396,3.9706-2.1115.2373.1434.4611.6634.4359.9546-.1427,1.6501-4.5681,4.3919-4.6631,4.8039-.1742.7557-.2333,2.0059-.2398,3.053.7036-.6912,4.2026-3.9184,4.2356-1.3698.0197,1.5166-3.6287,3.8995-4.4371,5.2652l-.2948,5.5342c1.3244-.5046,4.6316-1.7044,5.5949-2.7156.6898-.7241,1.6142-7.0015,3.6824-5.4558,1.2832.959-.5006,3.8088-.3463,3.9505.1182.1086,2.2884-.9324,2.4758-1.1198.8103-.8105,1.5093-5.8388,3.1194-6.0811,2.7823-.4188.4145,4.0505.6085,4.2232.2045.182,3.4295-2.0096,3.7359-.1136.2871,1.776-2.5379,2.31-3.6456,3.0038,1.0103.3286,6.0286,1.7703,3.6323,2.9428-1.8538.9071-5.805-1.6816-6.9563-1.5128-.3299.0483-2.6879,1.1087-2.4733,1.3866.2358.3053,4.5079.6381,4.1834,2.327-.4423,2.302-6.3946-.8283-7.5391-.8112-.3932.0059-5.6017,1.9506-5.5967,2.2192.0059.3126,5.6006,3.6206,5.9086,3.6749,1.2135.2137,4.9744-1.1243,6.0246-.5874.2978.1523.5911.7698.6238,1.0931.1585,1.5667-3.3604,1.3292-3.3522,1.8891.0022.1507,1.4598,1.184,1.7274,1.2626,1.2195.3581,4.9368-.9701,6.5382-.651.8001.1594.6019,1.0156.5518,1.2706-.2448,1.2451-2.7981,1.4016-3.8593,1.4701.7006,1.1823,2.5761,1.2247,2.5058,2.8502-.1143,2.642-4.0704-1.0687-4.2406-.8672-.1684.1994,1.1463,2.9626.1386,4.2337-.9452,1.1922-1.5544-.4862-1.8868-1.3713-.4609-1.2272-.7485-4.2184-1.2137-4.99-.1612-.2674-2.3401-1.7623-2.4984-1.5935-.1561.1664,1.3841,3.6357.0002,4.3534-.7068.3665-1.3907-.5241-1.6192-1.1238-.3537-.9285-.7868-4.9664-1.0963-5.3439-.2685-.3274-3.5221-2.557-4.1429-2.9769-.2636-.1783-.6847-.4382-1.0225-.6938-.1095,1.9171-.3895,4.6376-.259,6.6018.051.7675,4.9739,4.6965,3.183,6.022-.978.7238-3.4039-2.4898-3.7284-2.124-.0863.0972-.0551,2.2906.0038,2.5993.2703,1.4166,5.1503,4.7211,3.3223,6.0637-1.4612,1.0732-2.6813-1.9113-3.8212-2.4605.0481.8885-.0034,4.1523-.7418,4.5954-.5413.3249-1.7421-.0559-1.7421-.501v-3.8463Z"/>
  <path class="cls-1" d="M104.4446,90.6671c1.5763-.1561.8566.6829.2603,1.5112-5.5479,7.7065-16.1418,8.9101-22.5322,1.5239-2.8409-3.2835-1.1264-2.4285,1.5954-2.34,2.6278.0854,4.0631.1063,7.0547-.075.6025-.0365,1.6032.4376,1.8806.4382.2577.0006,1.2233-.4747,1.7163-.4565,2.2718.0841,3.6802.3782,5.7472.0935,1.4696-.2024,2.939-.5628,4.2777-.6954ZM102.5123,92.0987c-4.023.8409-8.4012,1.3455-12.5258.9804-1.4291-.1265-3.4197-.3558-4.746-.5192-.8405-.1036.4131,1.1102.6479,1.397,2.5023,3.0572,9.6742,2.6867,13.8097.2523,1.6706-.9616,2.8143-2.1105,2.8143-2.1105Z"/>
  <path class="cls-1" d="M98.0211,86.6605c.7829,1.137-1.3956,1.397-2.0872,1.4617-2.7315.2556-6.9924.1758-7.329-3.3338-.4247-4.4292.888-9.67.2392-14.1355-.4255-2.9288-1.5972-3.4452-3.1365-3.8116-3.9306-.9356-8.833-.245-12.9906.0918-.8269-.1907-.7704-1.0446.2065-1.3251,2.6007-.7468,11.8392-.969,14.2058.0598,1.1365.4941,2.3449,1.4625,2.8534,2.6059,1.0727,2.4125.4312,9.0855.3719,12.061-.0251,1.2581-.4085,3.7751.1803,5.0053.783,1.6358,6.8619.4137,7.4863,1.3204Z"/>
  <path class="cls-1" d="M112.4113,66.5134c-.3014.2265-1.9496-.6956-7.6225-.3948-5.6729.3008-8.4646,1.6901-8.8644,1.4302-.2434-.1582-.3642-.5506-.2367-.7657.6032-1.0176,4.0489-1.9062,8.812-2.0887,4.7654-.1826,7.9789.4199,8.1295,1.216.006.0315.0807.3786-.2178.603Z"/>
  <path class="cls-1" d="M98.4568,72.2267c.0273-.1843.3226-.4139.6512-.3956.4785.0266.9677.2313,4.8202.0669s6.3226-1.2128,6.2733-.2738c-.0427.8141-4.77,1.5684-5.5682,1.6232-.8738.06-6.4017.5007-6.1765-1.0208Z"/>
  <path class="cls-1" d="M86.3831,72.2457c.2301.1209.1072.6294-.2481.8665-1.7919,1.1959-11.3744.843-11.4091-.9917-.0172-.9102,2.3199.1549,5.5516.3375,3.2317.1826,5.8755-.3331,6.1056-.2122Z"/>
  <path class="cls-1" d="M107.295,91.9989c.0156-.11.0942-.6812.1307-2.1419.0365-1.4607-.1696-2.1242-.1832-2.1823s.0556-.0521.0893-.0534c.9578-.037,1.3181,1.1152,1.2254,2.2602-.0787.972-.4838,1.9389-1.1269,2.1686-.0649.0232-.1484.0408-.1354-.0512Z"/>
  <path class="cls-1" d="M78.4227,87.8997c.3809.2482-.2164,3.7466-.399,3.8196s-.5452-.0869-.6835-.3788c-.477-1.0066-.3081-4.3468,1.0825-3.4408Z"/>
  <path class="cls-1" d="M87.6236,29.068c.3021.3025-.6787,1.2372-2.06,2.062s-8.2433,4.0646-8.3609,3.89,10.4209-5.9519,10.4209-5.9519Z"/>
  <path class="cls-1" d="M104.7452,34.2809c-.0691.5181-.9043.1945-1.4894-.0166-1.4139-.5102-2.9392-1.2145-4.5707-2.8179-1.3998-1.625-1.5001-2.0762-1.3825-2.1291.4773-.2148.5717.4921,1.7963,1.8674s3.7683,2.6511,5.6462,3.0962Z"/>
</svg>