<?xml version="1.0" encoding="UTF-8"?>
<svg id="Ebene_1" data-name="Ebene 1" xmlns="http://www.w3.org/2000/svg" viewBox="0 0 155.2619 153.0188">
  <defs>
    <style>
      .cls-1 {
        fill: #a57c50;
      }
    </style>
  </defs>
  <g>
    <path class="cls-1" d="M32.7284,140.6412c.6797.0518,1.377.1025,2.0566.1191.2217.0342.4424.0508.6631.085.5781.1367,1.0205.5781,1.3428,1.0713.8164,1.2412.5439,2.3965-.1523,3.5527-.1699.2549-.4424.4756-.6123.7646-.1357.2549.0508.5781.2207.9346.2725.3408.5615.7656.7656,1.1562.2373.4932.2715,1.2744.2207,1.8184-.2207,1.3096-1.1904,2.2275-2.4482,2.4141-.5771.0684-1.1387,0-1.7168,0-.5098,0-1.0361.0176-1.5469-.0342-.5771-.0166-1.1553.0176-1.7334.0684-.4082.0166-2.8389.0166-3.2471.0342-.1523.0166-.3057,0-.459-.0342-.9688-.1875-.6797-1.3086-.5771-2.0059.1699-1.2412-.0518-2.7881-.1025-4.0117-.0342-.7646-.0684-1.5293.0166-2.2949.0684-.6631-.0166-1.4443-.1523-2.0908-.1025-.6797.4932-1.3936,1.1895-1.4619,1.4111-.1699,4.8447-.1357,6.2725-.085ZM29.9921,144.5514c0,.2549-.0176.4932,0,.748.0166.2373.1016.2891.3398.2373.0674-.0166.1191-.0332.1865-.0508.4082-.085.8164-.1523,1.2412-.1357.5781-.0166,1.1562-.0166,1.7334-.0508.4258.0342.918-.1025,1.2412-.4082.3906-.4932.3906-1.292-.1865-1.666-.2891-.1865-.6807-.2383-1.0547-.2891-.9854-.1016-1.9717-.0674-2.9404.0508-.085.0176-.1533.0342-.2383.0518-.3564.0674-.2881.4414-.2881.6963,0,.2725-.0518.5439-.0342.8164ZM35.1767,148.6305c-.0176-.085-.0518-.1699-.1025-.2373-.3057-.4424-.9688-.4932-1.4619-.5439-1.0537-.0684-2.125-.3066-3.0938.0332-.1699.0684-.3398.1533-.4248.3232-.0508.085-.085.2041-.085.3232,0,.374.0342.748.085,1.1221.0176.0508.0342.1191.0684.1523.0674.0518.1523.0684.2207.0684,1.1562.0684,2.3115.0684,3.4512-.0342.3564-.0508.7305-.1016.9854-.3232.2549-.2207.4248-.5771.3574-.8838Z"/>
    <path class="cls-1" d="M46.4472,149.5827c-.2891-.0166-.5781-.0342-.8662-.0684-.2725-.0332-.5273-.1357-.7656.085-.2207.1875-.3564.6465-.459.9014-.2373.6123-.4248,1.3086-.7988,1.8525-.5264.7656-4.1309.8672-4.8447.3232-.2549-.1865-.3057-.2891-.1865-.5947.2041-.5273.4248-1.0713.6797-1.5811.5947-1.1221,1.3262-2.3457,2.04-3.3994.4756-.6797,1.9551-3.4004,2.3291-4.1475.1699-.3574.3223-.7314.5264-1.0879.3398-.6289.918-1.1221,1.5645-1.4453.4248-.2207,2.8555-.1357,3.2637.0684.1016.0674.1865.1699.2715.2715.1699.2217.2725.5098.374.7822.459,1.3936.7139,2.8896,1.207,4.2832.2383.6631.4756,1.3096.7305,1.9385.5615,1.3594,1.5469,2.6172,2.04,4.0283.2549.6973-1.7168.8496-2.0566.833-.2549,0-.459-.1025-.6123-.3232-.5264-.7139-.918-1.4785-1.1895-2.3115,0-.0176-.0176-.0684-.0342-.085-.2383-.5439-.2715-.5273-.8496-.4766-.6973.0684-1.4453.1533-2.1758.1533h-.1875ZM46.7196,147.5094c.2207.0332.4414.0332.6631.0166.3398-.0342,1.1211-.1357,1.3594-.4248.3057-.374-.4414-1.9043-.8154-2.6006-.0684-.1533-.2891-.1533-.3916-.0176-.4072.5947-1.1045,1.9717-1.3936,2.5332-.0684.1523,0,.3398.1533.3906.1357.0508.2715.085.4248.1025Z"/>
    <path class="cls-1" d="M55.5937,152.7955c-.1533-.1191-.2383-.2891-.2891-.459-.1865-.7139-.1699-1.6152.1875-2.2949.1699-.3398.5264-.5273.9004-.459,1.4619.2207,5.6094.833,6.2217.2041.3398-.3574.4082-.918.0342-1.3086-1.207-1.207-5.6611-1.8359-6.8164-3.2129-.5615-.6797-.4932-2.3115-.1875-3.1104.3066-.748.9521-1.1729,1.7168-1.4287,2.6348-.8662,6.1709-.7646,8.8223.0176.0176,0,.0508,0,.085.0166.4248.1357.6631.5439.6631,1.0029.0176,1.5469-1.8525,1.7852-3.043,1.6494-1.1387-.1191-1.8184-.7822-2.957-.4258-.2041.0684-.3574.1875-.4424.3916-.2041.7988.1875,1.0537.5615,1.207,1.6484.6963,2.957.9346,4.623,1.5127.085.0342.1699.0674.2549.1357.8496.374,1.377,1.7334,1.6152,2.499.2041.7646.3398,1.8525-.3066,2.4473-.8154.7656-1.8691,1.1904-2.957,1.3428-.7314.085-8.21.6631-8.6865.2725Z"/>
    <path class="cls-1" d="M71.6591,140.8287c.6973.0166,2.7021.1533,3.6543-.0342.4932-.1191,5.0996-.3574,5.6094-.374.3916-.0508.5947.1357.6465.5098.0166.1699.0508.3574.0166.5273-.0508.3398-.1191.6797-.2041.9854-.1865.6289-.4932.833-1.1387.7822-.3906-.0342-.7988-.1016-1.1895-.1191-.8848-.1016-1.7686-.2207-2.6523-.3057-.1865,0-.374-.0166-.5605-.0166-.459,0-.7822.2373-.9014.6797-.085.2715-.1523.5781-.1865.8672-.0508.4414.3057.9688.9004.917.3398-.0332.6973-.085,1.0205-.1016.6797-.085,1.377-.1357,2.0566-.1865.0508-.0176.1191-.0176.1865-.0176.3916.0342.5098.1699.5439.5615.0176.3057.085.6289.0176.9346-.0518.3232-.2217.5439-.6631.6289-.1699.0342-.3906.0166-.5947.0166-.7988-.085-1.5986-.1523-2.3975-.2207-.1865-.0166-.374-.0342-.5605,0-.4756.0166-.6973.2549-.7988.748-.1025.5439-.0342,1.0537.2041,1.5635.2373.5781.8662.5957,1.4277.6465.7988.085,1.5811-.0342,2.3965-.1025.6465-.0166,1.2754-.2715,1.9209-.4072.2725-.0518.6973-.1367.9688-.0518.2383.1025.2891.374.3398.5957.1191.4072.085,1.2061-.1699,1.5801-.4248.6631-1.4443.7988-2.1758.9014-1.5635.3057-5.8467.5439-7.4111.374-.9854-.1191-1.5127-.6973-1.8525-1.7344-.2383-1.0537-.1875-7.5977-.1533-8.6855.0508-1.3604.5098-1.4619,1.7002-1.4619Z"/>
    <path class="cls-1" d="M90.0185,140.5563c.9521.0342,1.9043.085,2.8389.1699,1.0029.0684,1.8193.4258,2.6006,1.0713.3574.2725.5781.6455.748,1.0537.1025.2549.1533.5098.1699.7822.0342.5781.0176,1.1553-.1357,1.7168-.0342.2041-.1357.374-.2383.5439-.5439.833-1.3086,1.4277-2.0908,2.0059-.1865.1357-.3906.2549-.4082.5264,0,.085,0,.1875.0176.2725.1191.4756.4932,1.0371.9346,1.2744.3066.1533.6631.1699.9863.1875.5264.0342,1.0537.0508,1.5811.085.3906.0166.6797.2891.8154.6631.0684.2041.1357.4248.1699.6289.0508.3232-.2383.7812-.5605.9004-.2383.085-.4766.1533-.7314.1875-.4414.0674-.8838.1357-1.3428.1191-.8154-.0176-1.5811-.2217-2.2607-.6631-.3906-.2549-.7305-.5439-1.0195-.9014-.3916-.5098-.748-1.0537-1.0371-1.6318-.1533-.3057-.3906-.5947-.6631-.7812-.2549-.1699-.7646-.4258-1.0703-.2725-.1367.085-.2217.2383-.2559.3906-.0674.3408-.1016.5273-.0508.8672.085.7314.2383,1.5127.085,2.2266-.0508.2549-.1865.4766-.4414.5781-.6807.2891-3.9268.5439-4.4365-.1865-.1875-.2725-.1875-.6289-.2041-.9521-.0342-.374-.0342-.6455.0508-1.0029.2549-.9521.3906-1.7676.5781-2.7197.1523-.8164.3232-1.6484.3906-2.4814.0684-.8506.0342-1.666-.0674-2.499-.0684-.4756-.0684-.9521.0166-1.4453.0508-.3223.2383-.5439.5605-.6113.2383-.0508,2.5332-.1191,2.7715-.1191.3906,0,.7812,0,1.1729.0166h.5264ZM89.5087,144.2457c.0166.2031.0342.6455.0342.6455,0,.2383,0,.4756.0166.7139.0176.2041.0508.4248.1025.6289.0508.2041.1699.3398.3906.3398.3057.0342.5947.0508.8838-.0342.6797-.2041,1.3604-.4072,1.8867-.9004.085-.0684.1875-.1191.2725-.1875.2715-.2549.5439-.5947.6113-.9854.1025-.4932-.2891-1.1055-.6621-1.4277-.8164-.6807-2.0742-.5615-3.0088-.2217-.1191.0342-.2041.1191-.2549.2383-.1533.3906-.2891.7646-.2725,1.1904Z"/>
    <path class="cls-1" d="M112.9345,149.362v.2207c0,.459-.085,1.0195-.085,1.8193-.1025.8154-.3232,1.0195-1.1396,1.1895-.4248.085-1.1729-.0508-1.3428-.5273-.0508-.1523-.0674-.3223-.1016-.4922-.1191-.5273-.2217-.4082-.5615-.2217-.5264.3066-.9004.748-1.4443,1.0029-.918.4248-4.5049.4248-5.4736.2549-1.2236-.2207-2.2949-1.3252-2.8555-2.4307-.4424-.8662-.7139-1.8525-.8164-2.8213-.1016-.918-.1523-1.9717.1025-2.8555.3223-1.1055.9854-1.8193,1.9717-2.4824.6455-.4414,1.377-.7988,2.1074-1.0879.7822-.3398,4.1143-.459,4.9805-.4248.5615.0176,1.1221.0508,1.666.2207.4932.1533.9688.4258,1.3604.7656.3398.3223.6963.5947.832,1.0537.2383.7646-.3906,2.6514-1.4443,1.8184-.459-.3564-.7988-.8496-1.2578-1.2061-.9346-.6973-2.3799-.7148-3.3994-.2383-1.0029.4756-1.666,1.4277-1.8867,2.499-.2041.9854-.2217,2.1582.3223,3.0254.5781.9004,1.6494,1.3086,2.6855,1.292.8506,0,2.5674-.5098,2.499-1.6152-.0342-.4414-.3232-.3232-.5605-.2549-.5615.1357-1.4453.5273-1.8535-.0684-.1182-.1523-.2031-.3223-.2549-.4922-.1016-.3408-.1182-.7139-.0332-1.0713.0508-.2383.2373-.3906.4922-.4424.2041-.0332,2.6182.2725,3.8926.0684.2217-.0342.459-.085.6807-.0342.7646.1875.7988,1.2412.8662,1.8535.0342.4248.0518,1.2402.0518,1.6826Z"/>
    <path class="cls-1" d="M122.8788,149.5827c-.2891-.0166-.5781-.0342-.8662-.0684-.2725-.0332-.5273-.1357-.7656.085-.2207.1875-.3564.6465-.459.9014-.2373.6123-.4248,1.3086-.7988,1.8525-.5264.7656-4.1309.8672-4.8447.3232-.2549-.1865-.3057-.2891-.1865-.5947.2041-.5273.4248-1.0713.6797-1.5811.5947-1.1221,1.3262-2.3457,2.04-3.3994.4756-.6797,1.9551-3.4004,2.3291-4.1475.1699-.3574.3223-.7314.5264-1.0879.3398-.6289.918-1.1221,1.5645-1.4453.4248-.2207,2.8555-.1357,3.2637.0684.1016.0674.1865.1699.2715.2715.1699.2217.2725.5098.374.7822.459,1.3936.7139,2.8896,1.207,4.2832.2383.6631.4756,1.3096.7305,1.9385.5615,1.3594,1.5469,2.6172,2.04,4.0283.2549.6973-1.7168.8496-2.0566.833-.2549,0-.459-.1025-.6123-.3232-.5264-.7139-.918-1.4785-1.1895-2.3115,0-.0176-.0176-.0684-.0342-.085-.2383-.5439-.2715-.5273-.8496-.4766-.6973.0684-1.4453.1533-2.1758.1533h-.1875ZM123.1513,147.5094c.2207.0332.4414.0332.6631.0166.3398-.0342,1.1211-.1357,1.3594-.4248.3057-.374-.4414-1.9043-.8154-2.6006-.0684-.1533-.2891-.1533-.3916-.0176-.4072.5947-1.1045,1.9717-1.3936,2.5332-.0684.1523,0,.3398.1533.3906.1357.0508.2715.085.4248.1025Z"/>
  </g>
  <g>
    <path class="cls-1" d="M84.6432,3.3815c-.1992,1.3728-1.6128,2.8339-2.4397,3.9952-1.3967,1.8785-2.907,3.6046-4.5259,5.3894-2.6987,3.0417-5.5229,6.0601-8.0283,9.2459-1.2095,1.5491-2.3843,3.1917-3.3901,4.875-.2969.4236-.6294,1.0123-.96,1.5614-.7341,1.4691-1.4788,3.5537-.1509,4.0347,1.5918.4639,3.6294-.4899,4.7637-1.4663.606-.5519,1.1274-1.1382,1.6501-1.8042.6145-.7506,1.8191.3168,1.1584,1.0234-.3079.4519-1.78,2.0809-1.8623,2.1665-1.8767,1.8451-5.3167,4.7033-8.1685,2.9818-1.5757-.9735-2.0942-2.675-1.6978-4.3805.3511-1.6587,2.7705-5.9809,5.886-9.8401.5786-.7207-.3442-1.1215-1.1514-1.1153-.6169-.0052-1.2761.1176-1.7949.193-3.1565.4567-5.3313,1.7992-7.4431,3.649-1.6025,1.7587-3.2568,3.5473-4.7725,5.3437-1.1614,1.3399-2.3386,2.7358-3.5503,4.029-.0515.0053-2.6892,3.161-5.0789,4.7214-1.2002.7984-2.2681,1.0446-3.874,1.3318-.7742.1533-3.3352.0053-3.667-1.4544-.0781-.1487-.1128-.5147-.054-.6529.1816-.6223.6758-1.3144,1.6519-1.4809,1.7749-.3304,2.416,1.5238,4.4004.5215,2.1575-1.1701,5.7957-5.2519,6.2563-5.6807.1953-.2349.3892-.4697.593-.6639.1184-.1409.1985-.2343.3652-.3414,1.741-2.0186,3.489-4.0083,5.2366-6.0504.2378-.3953.3843-.7794.1863-.8388-.3008-.1705-1.5312.3036-1.842.4662-.0955.0116-.1809.0638-.2756.0755-.9858.4516-1.8188.9724-2.6846,1.5441-.6155.3328-.9666.8342-1.7922.9985-.9702.1456-1.5454-.2142-1.8984-.9392-.0718-.1528-.0469-.2803.0354-.3753.325-1.4737,5.7659-3.4312,6.377-3.6044.5466-.2321,1.155-.3861,1.6648-.5273,1.186-.5462,2.4644-.723,3.6394-1.4901,1.1799-.7266,2.1526-1.7085,3.1494-2.6443,2.3694-2.5531,4.7786-5.0257,7.4775-7.3796,2.9294-2.5652,6.3787-5.9487,10.6282-7.2294,2.1174-.6136,6.385-.8627,5.9827,1.8123ZM77.7302,5.2187c-.6082-.0412-1.3201.0432-1.8762.2915-.9094.4128-1.7092.9524-2.5054,1.5361-.7451.5823-1.4814,1.2503-2.1611,1.8796-.3894.3363-.7297.6312-1.0674.9275-.3347.3769-.7673.7585-1.1008,1.0967-1.9058,1.9033-3.8613,3.7571-5.6638,5.7104-.7656.8273-1.0391,1.6162.7368,1.6591.9114.0214,1.9143-.0771,2.7698-.2026.6677-.0751,1.1926-.1398,1.7126-.2847,1.0349-.4913,1.9216-1.2132,2.7693-2.0096.8384-.9997,1.7891-2.0781,2.7524-3.1489.866-.9886,1.8445-1.9723,2.7856-2.9902.3506-.4071.6465-.8534.9468-1.259.5947-.7699,2.0303-2.7935-.0986-3.2059Z"/>
    <path class="cls-1" d="M100.6752,31.6561c-.4062.3606-.9526.7868-1.6387,1.2825-1.438,1.1882-3.1147,2.4032-4.9189,2.8989-.0605.022-.1211.044-.1821.066-.854.2115-1.5986.1942-2.1943-.0942-.0017,0,.0007,0-.0442-.0032-.0007.0001-.0432-.0034-.0405-.0438-1.2773-.5802-1.3647-2.0058-.8411-3.1511.2231-.6359.6191-1.1782,1.1147-1.7925.4419-.5385,1.6582-2.0709,1.7297-2.3897.0618-.1983.0657-.8096-.5674-.941-1.9434-.5181-3.8086,1.3235-4.7622,2.3691-.8625.8057-1.8333,3.3612-1.9316,3.682-.4128,1.2811-1.3748,2.2121-2.5935,2.051-1.2207-.2004-1.375-1.1346-1.1758-1.9831.2004-.8879.8459-1.7632,1.4097-2.4753.6133-.9548,1.3779-1.9807,1.5742-2.2973.1465-.238.4326-.5508.5366-.871.2734-.9633-.9092-1.2999-1.979-.8466-.9724.3337-1.7263,1.1674-2.418,1.8023-1.1721,1.1866-3.8289,4.4562-3.9917,4.7858-.574.7705-1.2747,1.5829-2.3674,1.7577-.7856.1312-1.4482-.2206-1.5161-1.3156-.022-.7329,2.0386-2.7536,2.8958-3.8489.5273-.6933,2.3594-2.841.5342-3.2883-1.0547-.2833-2.2847.8257-3.1279,1.6936-.666.7828-1.3735,1.4889-1.938,2.1539-.7427.6695-1.8511-.306-1.2036-1.0593.5566-.7112,2.3276-2.7071,3.2368-3.5314,1.041-.8707,2.3311-1.7744,3.4927-2.0163,1.0203-.2839,1.9534.0097,2.5364,1.1535.0911.0826.0896.164.134.2862.3169.3699.4492.7368,1.0464.7072.8713.0168,1.8123-.8114,2.7598-1.5109,1.3726-.9297,2.8984-1.5147,4.3333-1.2739,1.0225.1367,1.4619,2.0758,2.1047,2.1171.6875.0449,1.2822-.4412,1.3765-.4752,1.3049-.7199,2.6599-1.222,4.1819-.96,1.3882.2107,1.897,1.6124,1.5115,2.6733-.1406.4756-.3174.8653-.7759,1.3096-.7705.8214-1.5688,1.5632-2.2756,2.3975-.5623.6846-1.533,2.1908-.27,2.5833.3076.0676.6646.0586,1.0315-.0295.2773-.097.5122-.1971.7485-.3371.5208-.276.9993-.5547,1.4338-.836.7271-.4961,1.3306-1.0429,1.9893-1.6222.7612-.6504,1.8027.5781,1.0417,1.2231Z"/>
    <path class="cls-1" d="M120.1706,34.9701c-.4492.103-13.0669,7.3507-16.7668,11.939-.5222.7037-1.1072,1.2785-1.3643,1.6526-.8203,1.1165-1.6587,1.5753-3.01,1.1652-.5928-.1943-.8628-1.083-.4336-1.564.561-.5463,1.4736-1.5399,2.5679-2.789,3.0813-3.1139,4.9734-5.407,7.2002-8.1727.0022-.0134.0046-.0268.0066-.0402.0454-.2801-.1304-.3085-.3538-.3034-.427.1372-.9417.3021-1.3584.4024-1.3684.4857-3.239.3453-4.0156-.8596-1.2605-1.5952.2361-3.6142,1.4138-4.8464.592-.6571,1.4026-1.1993,1.9592-1.8564.2698-.2887.8806-.9377.6133-1.3458-.5801-.8251-2.5947.5303-4.1628,1.725-.8687.7078-1.5903,1.3978-2.2808,1.8894-.7444.6069-1.7585-.4821-.9971-1.2154.2498-.2174,1.5256-1.4649,3.0764-2.744,1.7012-1.4263,4.0308-2.9112,5.8569-2.4271,1.363.3726,1.6477,1.2447,1.5698,2.0118-.0908,1.1361-1.0317,2.341-1.6372,2.9864-.1726.2196-.3914.4327-.6514.6386-.5093.6206-.9756,1.2898-1.2578,1.9861-.4773,1.0796-.156,1.9833,1.2046,1.906,1.8215-.1713,4.2327-1.7283,5.0527-2.1561,1.4546-1.1808,2.8145-2.4512,4.2424-3.6993.572-.5065,1.2239-1.6185,2.1545-1.716.6169-.2044,1.2214.3394,1.4106.7954.1028.1881.1511.4063.1169.5648.1646.9908-1.1411,1.7446-2.2483,2.3441-.7156.3795-5.1746,4.0146-6.5193,5.394-.5884.5132-1.4761,1.4694-2.5005,2.8196-.0078.0401-.0132.0798.0298.0871.1003.1817.3386.0983.5229.0481.0491-.0328.1418-.0581.2424-.1234,3.4814-2.3835,8.8799-5.4459,9.3896-5.7799.8447-.6495,1.7603.6794.9268,1.2831Z"/>
  </g>
  <g>
    <path class="cls-1" d="M121.694,100.8543c-.2618-.0888-.5517.0209-.6471-.0306-.0907-.049-.4331-.7933-1.0022-1.0657-.3718-.178-3.2177-.8785-3.9082-.8809-.0976-.0003-.1626.0744-.1626.187,0,.3674.0971,3.9277.1372,5.3494.0054.191.063.5494.2377.7632.9921,1.214,6.3284,2.0141,7.938,1.8098.9413-.1195.831-1.3064.6676-2.0421-.1585-.7137-2.5945-3.8643-3.2604-4.0901ZM118.8214,103.335c-.0376.0293-.1878.1947-.2994.0946.0328-.086.2727-.3909.3512-.3241.047.04-.0088.1961-.0518.2296ZM118.1398,103.319c-.1059.0868-.4037.4188-.5542.2729.0923-.2546,1.2023-1.5738,1.4233-1.376.1324.1185-.7481,1.0038-.8691,1.1031ZM120.8178,105.4902c-.0193-.1442-.7996-5.2469-.7996-5.2469.443-.0358.5368.9401.5838,1.4092,0,0,.3378,3.087.3753,3.5374s-.1402.4445-.1595.3003ZM121.5786,103.2242c-.0756-.1858-.3769-2.1168-.1366-2.108.2372.0088.2718,1.8518.1366,2.108ZM122.7271,105.5169c-.1979-.2409.3557-.9826.5961-1.0068.0642.4699-.3065.7167-.5961,1.0068ZM123.483,105.2564c-.0222.0215-.0875.1183-.1667.0614-.0281-.0562.1356-.2568.1911-.2191.0332.0225.001.133-.0244.1577Z"/>
    <path class="cls-1" d="M51.3778,94.3478c-.1733-.6387.316-1.4477-.8986-1.3153-.9042.0985-.304.534-.3138.8697-.0061.2089-.2247.3412-.2549.4898-.2693,1.3286-.8251,2.44-.4858,3.7726l-3.4831,17.9074,1.0182-21.3716.0203-.4592c-.0015.4357.7288,2.7123,1.3979,2.2916.6146-.3864-.2466-2.8021-.6013-3.265-.0315-.0411-.5061-.4856-.858-.5935-.1839-.0564-.1767-.2377-.3074-.3536-.1307-.1159-.3844-.0438-.4895.0435-.3508.2916-.1367,1.273-.1835,1.7276-.053.514-.3042,1.3801-.2766,1.8341.022.3624.2638.5529.2851.9149.1981,3.358-.0681,7.0084-.1933,10.3727-.1374,3.6929-.0585,8.4499-.8363,12.0122-.1117.5115-.0914.2861-.6737.326-.492.0336-1.0799.2422-1.5663.1991-.157-.0139-1.1943-.5091-1.2285-.5674-.069-.1174.329-2.3168.3591-2.6997.216-2.7481.316-5.5095.554-8.256.4833-5.577,1.5867-11.7796,1.1954-17.349-.0331-.4702-.2212-2.9298-1.2797-2.0061-.3083.269-.7805,2.0477-.8607,2.3511-1.6089,6.0885-1.5491,15.7943-1.7151,22.237-.0388,1.5057-.2688,3.0172-.1146,4.5219.0257.2504.0504.7155.0504.7155,0,0-.2561-.0172-.4304.0546-.6377.2627-1.361,1.239-1.5719,1.1745-.2514-.0768-.1181-2.1265-.1365-2.5273-.4005-8.7445-.4627-19.4826-1.9432-27.9739-.0813-.4661-.613-2.9223-1.3945-2.9038-.1787.0043-.3228.0534-.5727.4541-.4681.7506-.3641,5.5141-.319,6.6623.2551,6.4846,1.1274,13.7811,1.8407,20.276.1788,1.6281.396,3.5056.7518,5.1056-.0985.0187-.1845.0594-.2752.1001-.3145.141-.4989.2755-.7827.2065-.3172-.077-.6608-.2707-1.0237-.3951-.4509-.1547-.9315-.2026-1.4278.2126-.5726.4791-.2021.6.166.32.2158-.1642.5778-.2636.8022-.2556.4781.017.9113.5421,1.4684.5338.4441-.0065.7981-.4003,1.2595-.3498.7702.0844.8789,1.1291,1.6781,1.0946.8005-.0346.856-1.2524,2.1062-1.2013,1.1323.0463,2.085.9937,2.7817,1.0801.5418.0672,1.1425-.2538,1.7045-.2475.5789.0064,2.7069.8508,2.8678.6403.4476-.5852-1.4029-.927-1.4365-1.0722,1.0695-5.3733,2.2582-11.3423,3.3323-16.7139.3449-1.7248.5138-3.2767.9382-4.8916.1383-.5265.4531-.986.692-1.4629.4913,2.847,1.8058,2.3081,1.3538-.3893-.1199-.7156-.5262-1.2823-.6886-1.8811ZM48.1424,95.9746s-.2182-.3354-.3684-.9734-.1802-1.0445-.1802-1.0445c.3538.5643.5212,1.3539.5486,2.0179ZM46.2172,94.6907c.3104.0501.1174.657.187.9585.0694.3004.2396.4458.1783.5089-.2819.2904-.7032-1.4916-.3653-1.4674ZM42.6839,90.8345c.223.1961.3673,1.7138.1591,1.7028-.2083-.0111-.2441-1.144-.3001-1.15-.056-.0059-.2414.5144-.3201.5479-.4374.1266-.1425-1.6313.4611-1.1007ZM34.0722,88.4633c.642-.1761.8993,1.9779.76,2.0056-.1393.0277-.5923-1.3896-.5923-1.3896-.1519-.3613-.0293.9544-.3705.9287-.3209-.0241-.2697-1.4151.2028-1.5447ZM36.2726,117.5186c-.5132-3.6196-.9656-7.7439-1.3056-11.0007-.2963-2.8386-1.0303-8.3857-1.1795-10.4874-.0476-.6705.2-.4292.2207-.3306.0856.4077,2.4763,21.9321,2.4763,21.9321.0357.2513-.1685.1927-.2119-.1133ZM40.2619,112.4156c-.0135.2161-.1247.1419-.1114-.3275.0995-3.5068.3331-7.2786.5898-10.9118.0375-.5306.1487-1.9716.2071-2.4535.018-.1486.2251-.1936.2192.0059l-.9046,13.6869ZM49.8028,97.3992c-.2592-.1941.1582-1.3256.4322-1.058l-.4322,1.058ZM51.0821,95.5163c.523.6394.5393,1.7544.5486,2.5694-.5973-.6734-.5583-1.731-.5486-2.5694Z"/>
    <path class="cls-1" d="M126.9937,105.3833c-.9302-.8688-.0939-2.2843-1.0344-2.1466-.4138.0567-.3854.3546-.3854.3546-1.9544-2.3196-4.1082-4.6368-6.3326-6.7009-1.1507-1.0678-3.1341-3.1384-4.6842-3.2075-9.5296-.4251-19.1845-.34-28.7316-.3622-3.7518-.0087-8.3533-.4543-12.028-.1015-.35.0336-.8833.0634-1.0738.3948-.262.456-.4695,2.9296-.528,3.6018-.0512.5885-.1141,4.4675-.2769,4.6329-.1638.1665-2.2467-.3985-3.0472.8537-.9438,1.4763-1.1706,7.1519.4805,8.0894.3776.2144,1.4429.3101,1.4429.3101,0,0,.0082.4573.0192.6061.0767,1.0396.1364,2.284.2896,3.2975.1893,1.2523.2906,2.1783,1.7803,2.3498l7.3878.3689v2.0648c0,2.5645,2.2397,4.1041,4.6226,4.0445,1.5013-.0375,2.6929-1.201,2.7555-1.3293.4066.4754,1.6201,1.5679,2.074,1.7842,3.3049,1.5749,6.988-.5572,7.2557-4.1773l18.0832-.5521c-.0707,4.5907,6.8785,6.159,8.1699,1.4683l1.0942,1.446c2.6602,2.5581,7.4795.9342,7.6894-2.5842l.1198-1.6144c0-.2688,2.2183.6935,2.3014-.8717.1225-2.3094-.4944-7.1884-1.8208-9.1068-1.6604-2.4017-4.2305-1.6124-5.6231-2.9131ZM70.5204,109.2145c-.995,3.005-1.724.161-1.8128-1.9079-.0335-.7809.0595-4.7242,1.0674-4.8918.4851-.0805.7879,1.0592.8712,1.3936.3848,1.5458.3777,3.8852-.1258,5.406ZM73.8003,94.5069h1.6982v2.2942l-2.0219-.0119c.009-.4682.0047-2.2823.3237-2.2823ZM73.4237,97.251c.0657-.1314.2752-.0785.5765-.0791.3477-.0006.7351.0275.7325.1636-.002.1003-.4539.0456-.59.041-.1326-.0046-.466-.0297-.5223.0312-.0563.061-.0469.6694-.0469.6694,0,0-.0172,1.0759-.0219,1.2354s-.1826.1165-.1935-.0018.0066-.6424.0188-1.0368c.0094-.305-.0286-.8717.0469-1.0228ZM71.7808,114.9711c-.1957-.0723-.327-3.3701-.4135-3.8547l.8271-.0003c-.0534.1745.0335.7349.2289.7349h1.8818v3.1201h-2.5244ZM73.0206,115.796c-.2822-.4311,1.7864-.0747,2.0189-.1813-.1734.291-1.9201.3324-2.0189.1813ZM78.3487,97.2185c-.0117,4.0278-.3787,8.0838-.5587,12.1055-.0834,1.8637.0147,3.7943-.2022,5.6245-.4083.105-2.9248.0358-2.9248.0358l.1025-3.1321,2.0457-.1114c.2475-.0855.2654-.3863.3156-.6022.5223-2.2463.6284-8.3428.6699-10.893.0095-.5804.0514-2.7794-.2376-3.1646-.2725-.3633-1.6953-.2792-1.6953-.2792,0,0,.0018-.1185.0018-.1385,0-.36-.0108-2.135-.0108-2.135,0,0,1.8212-.0757,2.1069.162.5373.4473.3887,1.8821.3869,2.5281ZM76.5396,107.4753c.0049-.1865.0085-.4365.2565-.369,0,0-.0588,2.1532-.0876,2.7241-.0218.4312-.2991,1.0083-.4551,1.2292-.1126.1595-.2447.1196-.1595-.0187.1149-.1865.3331-.7319.3706-1.1072.1073-1.0731.0516-1.5605.0751-2.4583ZM76.2519,106.7435c-.0188.4134-.036.7006-.097.7053s-.0755-.1281-.0783-.21c-.0171-.5094-.0296-.9676-.0202-1.0896.0094-.122.2119-.1329.2119.0172s.0017.1785-.0164.5771ZM79.915,98.7433c-.0745-.0004-.1021-.187-.1021-.2446,0-1.0414.0694-2.3971,0-3.3954-.0105-.1507-.0977-.3972-.2132-.6538-.0457-.1014-.1151-.2886-.0611-.3098.111-.0436.3725.3266.4296.5627.2375.9821.079,2.6899.0626,3.7907-.0031.2095-.0412.2505-.1157.2502ZM80.4589,111.0744c-.0086.3802-.0821,3.6125-.3247,3.6194-.4.0113.1311-5.0849.1387-5.2286.0076-.1437.1738-.1097.1863-.0065.0495.4081.0079,1.2489-.0004,1.6157ZM113.1796,97.4443c-10.4072-.4202-20.8398-.3811-31.2554-.6432-.0242-.5968-.101-1.3585,0-1.8813.061-.3156.3478-.603.6868-.5982,9.1451-.1314,18.3093-.1874,27.4518.0901.6029.0183,4.3997.1333,4.5869.4617.12,3.8196.2084,7.632.4078,11.45l-33.042-.1615-.0918-8.6272c2.2813-.0576,5.3716.0646,7.6466.1122,6.5637.137,12.1513.2305,18.7159.2752.8616.0058,4.3241.2122,4.8893-.0248.3302-.1384.3563-.3426.0042-.453ZM95.1091,123.0132c-4.4147,4.1832-10.598-2.5391-6.3584-6.6319,4.3661-4.2149,10.68,2.5367,6.3584,6.6319ZM115.154,117.036c0,.5645-1.823.6665-2.2455.6917-3.6414.2174-10.0327.2333-13.5761-.2917-2.8945-.4289-2.2386-1.2943-4.2523-2.5398-2.5258-1.5621-4.6611-1.0538-6.8646.7207-.2221.1789-.8384.9561-.9391.9883-.3524.1127-3.4921-.0048-4.0205-.0745-1.4969-.1974-1.2658-2.3634-1.2404-3.4871l33.1386.3676v3.6249ZM83.2082,112.3547c-.0127-.1506.1047-.2035.2318-.2272.5347-.0992,1.7734-.0151,2.39-.0057,1.6247.0247,3.9969-.0108,5.6233.0815.2506.0142.2158.197.017.1989l-8.2621-.0475ZM115.1546,111.668l-33.2304-.184v-4.6802l33.1489.0201c.0857,1.6448.1491,3.1885.0814,4.8442ZM122.1641,115.8766l-6.1839.104v-2.5695l7.2528-.0448-1.0689,2.5104ZM128.0407,123.2198c-5.5405.6135-6.2122-7.5666-1.1571-8.1312,5.7827-.646,6.2604,7.5662,1.1571,8.1312ZM130.0708,113.0441c-.0554,0-.787-.4034-1.0056-.463-2.2395-.6098-4.0113.3375-5.319,2.124-.1524.2082-.6546,1.1813-.6546,1.1813l-.5286.0093s.6927-1.7408.8032-1.9377c.6625-1.1804,1.9811-1.7398,3.3083-1.7398,0,0,1.5738-.0273,2.1113,0s.4484-.3379.1288-.3334-8.6176-.3766-12.9347-.2167l-.0056-4.7411c.163-.1697,3.2166.4684,3.6813.5618,3.3794.6786,6.5729,1.8755,9.7224,3.128,1.2395.493,2.3068.9184,2.483,2.4274h-1.79ZM133.4594,113.0459c-.4771-.0013-.9619-.0013-.9619-.0013,0,0-.1618-.6735-.3722-1.1854-.3984-.9694-1.3957-1.2518-2.2832-1.6357-3.2663-1.4132-6.8256-2.6637-10.3994-3.3529-1.0591-.2043-2.352-.4785-3.4623-.5505l-.2745-11.8133c3.0079,2.632,5.9379,5.3556,8.491,8.4417.6273.7583,2.1209,2.2022,1.5851,3.2854-.0245.0496-.238.0704-.2987.2034-.1086.238-.2469.9648.1042,1.0889.4878.1723.3339-.3608.445-.5381.0854-.1362.4161-.1683.5115-.3145.1582-.2427-.0322-.6245.22-.6023,1.7255.8248,3.9793.8266,5.2804,2.3833-4.5182-1.2792-.8343,2.6211,1.153,2.565l.2621,2.0263ZM131.938,109.6333c-.0222.0216-.0875.1183-.1667.0615-.0281-.0562.1356-.2568.1911-.2192.0332.0226.001.1331-.0244.1577ZM131.6804,109.4073c-.0376.0293-.1878.1947-.2994.0946.0328-.086.2727-.391.3512-.3241.047.04-.0088.1961-.0518.2296Z"/>
    <path class="cls-1" d="M153.0622,65.1268c-2.2458.0578-2.4995,1.0811-4.1744,1.7901-.6791.2875-1.415.3587-2.1118.6418-.7751.315-1.9096,1.3063-2.6854,1.2167-.9789-.1131-1.5041-.7878-2.7697-.6134-.8868.1222-3.028,1.6661-3.3067,1.643-.172-.0143-1.5481-1.0973-2.1436-1.2586-.914-.2476-1.7464.0459-2.6257-.3116-.703-.2858-1.4784-1.5142-1.9584-1.6221-.8344-.1876-1.6229,1.089-2.8692.5752-.7334-.3024-.4668-3.5998-2.774-4.2012-.9861-.257-2.1142.1386-2.9241-.1051-.561-.1689-1.2129-1.4967-2.1735-1.6807-2.2229-.4258-1.6493,2.8595-2.3892,4.0826-.243.4018-.5683-.8203-.6384-1.0565-.5213-1.7556-.4137-6.4005-3.5449-3.9499-1.1435.895-.7881,1.3567-1.1583,2.5128-.3113.9721-1.2516,1.8737-1.291,2.9776-.946-1.3803-.4858-4.9673-3.0771-4.0409-1.699.6074-1.72,3.83-2.5737,3.9521-.8999.1287-.8045-2.2501-2.1735-2.0023-.4373.0792-.9404.7826-1.4986.4462-.4505-.2714-.4534-1.8273-1.2308-1.9827-.2657-.0531-2.2394.3028-2.5175.4243-.5476.2392-1.0391,1.0307-1.2977,1.5475-.3827.7648-1.3217,4.1276-1.6966,4.4516-.7282.6294-.9147-1.0494-1.7582-1.2665-1.7432-.4487-3.501,3.508-4.667,4.4796-1.2105,1.0086-1.7024-1.3219-2.2546-2.1471-1.2843-1.9196-5.1174-1.9938-6.9531-3.2352-.588-.3976-1.1148-1.3356-1.7757-1.8038-.9302-.6591-2.1426-.6677-2.9567-1.4491-1.0561-1.0138-1.9292-4.1649-3.8979-3.4162-.5306.2018-1.4608,1.6362-1.5749,1.6357-.1587-.0008-1.4929-1.7718-2.4849-1.9189-1.1561-.1715-2.0597,1.2485-3.3508.9633-.6602-.1459-1.9403-2.0402-2.717-2.6056-.8215-.598-1.4927-.6609-2.3125-1.0837-.8482-.4374-1.633-1.48-2.6287-1.4806-1.7344-.0012-3.2877,3.2795-4.2708,4.4274-.5322.6215-1.3142,1.141-1.9277,1.7436-.7012.6886-1.0054,1.6398-2.1043,1.8423-.3706.0683-.7309-.0115-1.0537.0478-1.0044.1847-1.4587,1.8263-1.659,1.8269-.0336.0001-.3087-.3587-.5-.4159-.3673-.1098-.8717-.0286-1.3256-.1431-1.1576-.2921-2.8223-2.2201-4.0021-2.8817-1.3928-.7811-3.0316-.7284-4.1287-1.9292-.8971-.982-1.6563-3.5918-3.4843-2.559-1.3159.7434-1.2954,4.1476-1.6606,4.4437-.255.2067-1.292-1.2436-1.7202-1.3528-2.0449-.5214-2.4665,3.3325-3.2508,4.4118-.3202.4407-.9312.4397-1.3086.8943-.2136.2573-.7144,1.5932-.7925,1.6401-.9523.5708-2.3038-4.3981-2.5208-4.858-.8-1.6957-2.2846-1.3227-3.5335-.3232-.4772.3819-2.0707,2.2726-2.3891,2.3914-.3426.1277-.9328-.6929-1.7622-.0523-1.065.8225-2.587,6.8439-3.1903,8.3999-.8017,2.0681-.8492.5116-2.2404,1.1557-.8412.3894-1.3901,1.7417-2.4895,1.8259-1.1753.0901-2.0959-1.4787-3.1605-1.7036-.3437-.0726-1.6537-.2033-1.6513.4555.0008.24.0878.4173.1562.5033.2363.2971.1637.2102.6586.52,1.3319.8337,3.8751,1.94,5.3587,1.1255.5518-.3029,1.4311-1.5421,1.6891-1.6164.6517-.1876,1.1785.4747,1.939-.3544,1.2702-1.3848,1.6339-7.3727,3.0564-8.7822.5768-.5716.6416-.1182,1.1431-.0637.5326.0579.9263-.2789,1.3233-.5911.4467-.3512,2.395-2.4999,2.5717-2.5681,1.7019-.6559,1.9646,1.9516,2.4337,3.0684.2327.5542.5364,1.3129.8534,1.8082.5206.8135,1.112.8677,1.1186,1.9166.0124,1.9581-1.2387,2.3518-1.946,3.7414-.5199,1.0216-.2358,1.2589-1.2254,2.1704-.243.2237-1.7426.934-.7559,1.4032.8667.4121,2.0791-1.6864,2.5455-2.1837.0677-.0722,1.0593-.9231,1.1036-.8687.0719.0885-.3245,1.9039-.3639,2.2505-.1275,1.121-.1597,2.2604-.2899,3.3809-.0398.342-.9044,4.1648-.3089,4.1856.5045.0177,1.4648-4.6029,1.5767-5.2125.3434-1.8715.6105-3.9482.7623-5.8453.1294-1.617-.2987-4.7666,1.0568-5.9178.4197-.3565.8707-.2174,1.279-.7403.5684-.7279,1.2235-3.7929,1.8907-4.0767.6087-.259.9706.5438,1.3823.8181.1523.1015.709.1856.7336.2938.0532.2344-.9912,3.9241-1.0959,4.6817-.2586,1.8702-.2698,3.7265-.6071,5.6334-.4303,2.4332-2.7396,9.3322-2.113,11.2887.2307.7202.6984-.8934.7539-1.0847.7832-2.6978,1.7077-6.4238,2.2922-9.1795.4691-2.2114.3732-3.9628.5815-6.1177.1731-1.7901.9621-3.8452,1.4602-5.6064.1604-.5673.7405-4.084,1.5076-3.9772.2102.0293,1.2821,1.7835,1.5735,2.1032,1.3338,1.4632,2.9327,1.8245,4.5364,2.8064,1.4331.8775,2.3679,2.1216,4.1051,2.4117.3759.0628.8195-.0491,1.1764.017.2522.0467.4871.3287.8432.3574,1.1837.0954,1.3441-1.1985,2.1719-1.6662.6385-.3607,1.3565-.2323,2.0359-.6259.2203-.1277,2.6735-2.8443,2.8931-2.5669.0432.0547-.1747,1.1106-.1858,1.3274-.0492.9644.1048,2.0677-.0208,3.0076-.1797,1.3452-2.1736,4.6867-1.7922,5.7865.1193.344.5829.3095.8114.0894.24-.2313.5545-1.9651.7283-2.4576.7652-2.1682,1.2894-2.3251,2.8455-.548,1.8729,2.1389,1.8257,5.4679,2.9611,7.8684.1535.3246.6151,1.1129.7163.3939.1101-.7828-.5472-4.7486-.8275-5.6053-1.2391-3.7879-4.843-4.097-4.2171-9.1658.1755-1.4208,1.9085-5.2191,3.619-5.1927.5232.0081,2.1817,1.0136,2.6985,1.3383,1.0472.6579,3.7612,3.1398,4.5924,3.3007,1.3508.2615,2.0219-.8377,2.7035-.7837,1.1729.0929,1.9744,2.7879,3.9047,1.5061.8017-.5323.6859-1.8262,1.7934-1.0456,3.3252,2.3437.8796,6.6217,2.6024,9.7872.3802.6986,1.4547,2.4092,1.9231,3.0329.2114.2814,1.5397,1.6202,1.1662.4871-.057-.1729-1.0204-1.8076-1.1982-2.1069-.5075-.8544-1.3671-1.6579-1.5766-2.6452-.1173-.5525-.1235-4.1359.1601-4.3841.0882-.0772.6297-.1451.7815-.1443,1.4268.0075,2.511,1.7874,3.8056,2.4439,1.4524.7365,5.2177,1.3164,5.9882,2.7315,1.0508,1.93.3853,4.0999,1.3427,5.9075.5696,1.0753,1.9158,2.036,2.7256,2.9647.7396.8482,3.1546,4.5899,3.8741,4.8452.6177.2191.0888-.6124-.0283-.7978-.5203-.8242-1.7429-2.3826-2.3865-3.2121-1.088-1.4021-3.1847-3.2625-3.6292-4.9063-.1114-.412-.4173-2.2069-.0787-2.4433.0639-.0446.6203.6002,1.4709.0492,1.0446-.6766,2.4568-3.0951,3.4378-4.0882,1.4787-1.4969.9951.727,2.3395.9221-.9279,2.4287-2.7999,4.4595-3.0862,7.1252-.0329.3065-.0636.6858.0535.7758.1171.09.3358-.2537.4894-.52.508-.8806.6605-2.0879,1.0592-2.9513.1863-.4033,1.3423-2.3229,1.5781-1.0837.1302.6846,0,2.2344,0,3.0283,0,.1612.4838.2494.6219-.1124.291-1.7072.0014-3.6931.3182-5.3716.2195-1.1631,1.3414-4.0487,1.8372-5.2295.3723-.8865.4825-1.5841,1.4864-1.9095,2.224-.7209,1.3113,1.2464,2.661,1.6626.9836.3034,1.9628-.4306,2.0665-.3687.1001.0598.4838,1.4339,1.3001,1.7748,2.086.8712,2.0377-2.3029,3.0622-3.2501,1.3457-1.2442,1.758,1.6559,2.1444,2.5419.8019,1.839,1.6882,3.6566,2.4722,5.5056.0277.461-1.877,2.8406-.755,2.9694.7498.0861.7946-1.2632,1.1426-1.653.0938.5514.5595.903.7809,1.3764.1563.3343.5492,2.1879,1.1,2.0183.7179-.221-.6644-2.9132-.757-3.2789-.0988-.3903-.0461-.8917-.1792-1.3809-.2859-1.0503-1.3445-2.6956-1.785-3.8134-.1279-.3245-.3645-.7704-.3553-1.1134.022-.8157,1.0275-1.9151,1.3326-2.7125.4516-1.1802.0617-2.4776,1.519-2.9773.8967-.3076.8912.0447,1.0869.8349.2387.9638.2293,1.9957.4974,2.99.1782.661.8641,1.829.8978,2.322.0343.5-.3015,2.8809-.385,3.5654-.173,1.4191-.9991,4.5293-.7017,5.7723.2082.8701.5919.0424.6878-.3719.5188-2.2402.6225-5.1986,1.0786-7.5479.3672-1.8915,1.2735-3.9582,1.7056-5.8671.682.0086.9935.6983,1.4722,1.0437,1.5657,1.13,3.263.2355,4.5197,1.1713,1.15.8563.7513,2.5512,1.6673,3.2887.1605.1292.772.3308.7792.4118.0168.1899-2.5015,2.2773-2.8506,2.4709-.404.2239-1.3367.2812-1.3735.6546-.1153,1.171,2.2144-.3043,2.3527-.3251.1561-.0235.9879.2129,1.0341.2875.4039.6519-.6368,3.0156-.4393,4.0639.0647.3434.2459.6199.4599.1972.1212-.2395.946-2.4734.9799-2.6912.174-1.1172-.219-2.4371.2506-3.5119.2042-.4674,1.6736-1.8771,2.1542-1.6991.2222.0822.5707.7693.7858.9654,1.1728,1.0692,2.8198.6875,4.1809.9594.7985.1595,1.4226,1.0855,2.2402,1.0643.9141-.0237,2.0255-1.4452,3.0473-1.4669.5763-.0123,1.5058.664,2.2926.7171,1.7177.1161,2.8177-1.1563,4.2574-1.6845.6264-.2298,1.2254-.2503,1.8675-.519.7365-.3081,1.3277-.9681,2.0549-1.2494,1.0724-.4149,2.6255-.0976,3.3381-.5179,1.2198-.7195-1.554-.8879-1.8916-.8792Z"/>
    <path class="cls-1" d="M126.6648,79.4351c.3002-.1767.5154-3.3377-.3209-2.4777-.449.4619-.2501,2.8138.3209,2.4777Z"/>
    <path class="cls-1" d="M31.7115,63.3825c-.5644.0628-.9986,3.7931-.1191,2.5432.2286-.3249.5984-2.5966.1191-2.5432Z"/>
    <path class="cls-1" d="M57.7892,78.4387c-.3254.1275-.1449,1.384.3383,1.2672.4748-.1149.1761-1.4688-.3383-1.2672Z"/>
    <path class="cls-1" d="M116.6996,77.7959c-.6517-.2535-.5461,1.303-.4926,1.3692.1843.2283.9955-1.1735.4926-1.3692Z"/>
    <path class="cls-1" d="M95.3684,86.1394c.1236-.1289-.5667-1.0243-.7803-1.0064-.5837.049.6888,1.1018.7803,1.0064Z"/>
    <path class="cls-1" d="M78.4775,76.3207c.1281-.1541-.1316-.9977-.5546-.6929-.4345.3131.4996.7591.5546.6929Z"/>
    <path class="cls-1" d="M112.8056,98.5762c-.6831-.008-2.3268-.0266-2.8587-.0266-.9606,0-5.7958-.0263-6.2209-.0047-.1349.0069-.269.1317-.2976.2487-.0739.3016.0118,3.7209.0771,4.1007.0404.2352.1221.5165.3752.5978.0182.0058.0382.008.0573.008h9.1507c.2267-.0108.2205-.2141.2264-.3243.0219-.4091-.167-3.8333-.1829-4.3076-.0075-.2233-.1544-.2901-.3265-.2921ZM108.0863,100.9759c-.0263-.1384,2.5535-.9703,2.661-.8707.0547.0507-.0098.2387-.0914.3206-.2307.2313-2.5078.8755-2.5696.5501ZM111.2981,101.5719c-.0189.0279-.5686.1238-.6606.1297-1.1305.0721,1.0528-.7084.6606-.1297Z"/>
    <path class="cls-1" d="M114.4635,107.8277c.0063-.2377-.6662-.4536-.6823-.0718-.0117.2765,0,1.1153,0,1.4683,0,.2547.6512.307.6823.0016.0375-.369-.0166-.7659,0-1.3981Z"/>
    <path class="cls-1" d="M92.004,117.7457c-2.6031.1424-2.4432,4.0773.1545,4.1058,2.6758.0294,2.5404-4.2532-.1545-4.1058ZM92.2005,121.438c-.4457-.0136-1.5667-.3647-1.5397-1.641.0272-1.2832.9454-1.6005,1.4114-1.6072s.4187.2229.0405.3174c-.3802.095-1.0946.2902-1.1007,1.2899-.0068,1.094.7563,1.2425,1.2155,1.2763s.4187.3782-.027.3647Z"/>
    <path class="cls-1" d="M127.1545,117.4708c-1.7632.3293-1.6461,3.0766.1846,3.3512,2.5409.3814,2.4722-3.8475-.1846-3.3512ZM126.9497,118.0935c.222.0137.0222,1.4925.1366,1.7409-.4457-.1894-.499-1.7633-.1366-1.7409Z"/>
    <path class="cls-1" d="M69.6889,104.9806c-.5733.1671-.5997,2.9225.1616,2.8389.6439-.0707.69-3.0872-.1616-2.8389Z"/>
    <path class="cls-1" d="M73.7962,112.5192c-.2779-.0079-1.7639.0881-1.7639.0881-.262.0267-.1877,1.2287.0691,1.2168.7017-.0237,1.2957-.0461,1.6678-.0556.2634-.0068.2634-1.2426.027-1.2494ZM73.5765,113.58c-.1196.0015-.3106.0049-.5361.0085-.0826.0018-.0895-.1477-.0052-.1517,0,0,.4607-.048.55-.0468.076.001.076.189-.0087.19Z"/>
    <path class="cls-1" d="M117.3469,107.8344c.0062-.2377-.6662-.4535-.6823-.0717-.0117.2764,0,1.1153,0,1.4683,0,.2547.6512.3069.6823.0015.0375-.369-.0166-.7659,0-1.3981Z"/>
  </g>
</svg>