<?xml version="1.0" encoding="UTF-8"?>
<svg id="Ebene_1" data-name="Ebene 1" xmlns="http://www.w3.org/2000/svg" viewBox="0 0 230.1128 230.1128">
  <defs>
    <style>
      .cls-1 {
        fill: #201b15;
      }

      .cls-2 {
        fill: #f0c4c6;
      }
    </style>
  </defs>
  <circle class="cls-2" cx="115.0564" cy="115.0564" r="115.0564"/>
  <g>
    <path class="cls-1" d="M120.9396,19.8532c-.1997,1.3728-1.6128,2.8337-2.4399,3.9952-1.4009,1.8788-2.9048,3.6053-4.5259,5.3894-2.6953,3.0415-5.5225,6.0603-8.0278,9.246-1.21,1.5491-2.3809,3.1909-3.3906,4.875-.2983.4229-.6294,1.0125-.96,1.5615-.7344,1.4688-1.4785,3.554-.1509,4.0344,1.5894.4652,3.6304-.4904,4.7637-1.4661.6069-.5514,1.1284-1.1378,1.6499-1.8043.6138-.7501,1.8218.317,1.1582,1.0236-.3101.4518-1.7759,2.0812-1.8618,2.1665-1.874,1.8457-5.3203,4.7029-8.168,2.9818-1.5747-.9746-2.0952-2.675-1.6982-4.3805.3516-1.6578,2.7686-5.9811,5.8862-9.8401.5771-.7209-.3447-1.1216-1.1514-1.1154-.6206-.0045-1.2769.1178-1.7954.1931-3.1558.4568-5.3325,1.7996-7.4429,3.6489-1.6025,1.7589-3.2568,3.5475-4.7725,5.3436-1.1621,1.3394-2.335,2.7361-3.5503,4.0291-.0518.0059-2.6885,3.1606-5.0791,4.7212-1.1992.7988-2.2695,1.0449-3.8735,1.3319-.7754.1542-3.334.0055-3.667-1.4542-.0806-.1481-.1157-.5153-.0537-.6531.1816-.623.6758-1.3137,1.6514-1.4808,1.7734-.3306,2.415,1.5242,4.3999.5215,2.1572-1.1696,5.793-5.2511,6.2573-5.6808.1938-.2343.3882-.4694.5923-.6639.1162-.1417.1982-.234.3657-.3414,1.7407-2.019,3.4858-4.0088,5.2363-6.0503.2383-.3958.3828-.7798.1865-.8389-.3047-.1705-1.5303.3043-1.8423.4662-.0947.0116-.1826.0641-.2759.0756-.9878.451-1.8169.9728-2.6841,1.5441-.6177.333-.9653.8335-1.7925.9984-.9683.1451-1.5435-.2137-1.8984-.9392-.0728-.152-.0444-.2806.0352-.3754.3252-1.4731,5.7646-3.4316,6.3774-3.6042.543-.2318,1.1533-.3873,1.665-.5273,1.1865-.547,2.4629-.723,3.6387-1.49,1.1782-.7273,2.1548-1.7087,3.1499-2.6443,2.3706-2.5524,4.7769-5.026,7.4775-7.3796,2.9282-2.5649,6.3794-5.9487,10.6279-7.2294,2.1172-.6132,6.3857-.8624,5.9829,1.8123ZM114.0261,21.6905c-.6074-.0421-1.3232.0431-1.876.2914-.9092.4135-1.7129.952-2.5054,1.5363-.7456.5814-1.479,1.2499-2.1616,1.8795-.3901.3372-.728.6318-1.0669.9275-.3369.3766-.7666.7579-1.1011,1.0968-1.9082,1.9027-3.8604,3.7572-5.6636,5.7103-.7666.8282-1.042,1.6161.7363,1.6591.9116.0219,1.9136-.077,2.77-.2025.6689-.075,1.1885-.1396,1.7134-.2847,1.0342-.4908,1.9199-1.2145,2.769-2.0095.8413-.9998,1.7886-2.0774,2.752-3.149.8628-.9885,1.8452-1.9724,2.7861-2.9902.3496-.4067.6455-.8538.9463-1.2589.5962-.7697,2.0308-2.7928-.0986-3.2059Z"/>
    <path class="cls-1" d="M136.9714,48.1278c-.4067.361-.9526.7855-1.6387,1.2825-1.4351,1.1885-3.1147,2.4043-4.9189,2.8988-.061.022-.1216.0442-.1821.066-.854.2118-1.5981.1932-2.1943-.094-.0005.0011-.0005-.0006-.0439-.0033-.002-.0005-.0459-.0034-.041-.0438-1.2759-.5801-1.3667-2.0066-.8408-3.1512.2227-.6356.6191-1.1791,1.1152-1.7924.4395-.5392,1.6562-2.0707,1.729-2.3898.0645-.1979.0674-.8097-.5669-.941-1.9424-.5173-3.8076,1.3242-4.7622,2.3691-.8647.8062-1.8335,3.3616-1.9321,3.6821-.4165,1.2814-1.3735,2.2123-2.5933,2.051-1.2202-.2009-1.3735-1.1345-1.1758-1.9832.1992-.8878.8477-1.7631,1.4097-2.4752.6128-.955,1.3794-1.9799,1.5747-2.2974.1465-.2378.4287-.551.5361-.871.2764-.9629-.9111-1.2996-1.9785-.8466-.9722.3331-1.7261,1.1671-2.4185,1.8022-1.1733,1.1855-3.8267,4.4565-3.9917,4.7858-.5762.771-1.2725,1.5835-2.3672,1.7577-.7827.1327-1.4507-.2218-1.5166-1.3157-.0249-.7321,2.0386-2.7535,2.8965-3.8489.5278-.6929,2.3618-2.8425.5337-3.2883-1.0557-.2838-2.2822.8256-3.1279,1.6936-.6685.7831-1.3706,1.4884-1.9375,2.1539-.7393.6702-1.8496-.3057-1.2041-1.0593.5566-.7114,2.3311-2.707,3.2368-3.5315,1.0415-.8713,2.3335-1.7742,3.4927-2.0162,1.0229-.2844,1.9507.0107,2.5366,1.1536.0952.0822.0854.1635.1338.2861.3193.37.4492.7362,1.0469.7072.8706.0165,1.811-.8112,2.7598-1.5107,1.3721-.9299,2.8955-1.5151,4.333-1.274,1.0205.137,1.4648,2.0757,2.1045,2.1171.6914.0459,1.2832-.4409,1.3765-.4751,1.3076-.7195,2.6611-1.2214,4.1821-.9602,1.3901.2109,1.8989,1.6125,1.5112,2.6733-.144.4756-.3149.8652-.7754,1.3096-.7715.8215-1.5674,1.5635-2.2759,2.3976-.561.6844-1.5317,2.191-.2695,2.5834.3027.0673.666.059,1.0308-.0295.2769-.097.5112-.1974.7485-.3372.5215-.2753.9961-.5553,1.4336-.8359.729-.4967,1.3315-1.0421,1.9897-1.6222.7656-.6503,1.8037.5787,1.0415,1.223Z"/>
    <path class="cls-1" d="M156.468,51.4421c-.4521.1023-13.0674,7.3513-16.7681,11.9388-.5215.7031-1.1055,1.2788-1.3643,1.6527-.8188,1.1168-1.6606,1.5756-3.0098,1.165-.5947-.1943-.8652-1.0828-.4336-1.564.5625-.5465,1.4746-1.5404,2.5679-2.7889,3.0835-3.1139,4.9692-5.4069,7.1997-8.1729.0029-.0134.0039-.0269.0068-.0402.0488-.2799-.1318-.3085-.3535-.3033-.4248.1371-.9473.3024-1.3584.4026-1.3691.4856-3.2402.3457-4.0156-.8596-1.2632-1.5955.2339-3.615,1.4141-4.8464.5923-.6573,1.4009-1.1996,1.9585-1.8564.2739-.2885.8794-.9379.6138-1.3459-.5815-.8253-2.5962.5304-4.1626,1.7251-.8696.7079-1.5894,1.3978-2.2812,1.8894-.7461.6075-1.7598-.483-.9971-1.2155.2534-.2173,1.5288-1.4653,3.0767-2.744,1.7002-1.427,4.0361-2.9106,5.8574-2.427,1.3633.3727,1.6465,1.2443,1.5688,2.0118-.0923,1.136-1.0317,2.3413-1.6362,2.9863-.1772.2196-.3892.4325-.6519.6387-.5059.6212-.9717,1.2892-1.2573,1.9861-.4766,1.0789-.1602,1.9834,1.2046,1.906,1.8203-.171,4.2324-1.7279,5.0527-2.1561,1.4531-1.1816,2.8154-2.4514,4.2417-3.6993.5742-.5073,1.2236-1.6191,2.1553-1.7161.6182-.2043,1.2207.3391,1.4102.7955.1001.1866.1489.4054.1172.5648.166.9917-1.1406,1.7441-2.248,2.3441-.7163.379-5.1763,4.015-6.5195,5.394-.5908.5137-1.4756,1.4683-2.501,2.8195-.0034.0409-.0142.0795.0298.087.1016.182.3418.0992.5229.0481.0503-.0328.1401-.059.2432-.1234,3.478-2.3843,8.8784-5.446,9.3892-5.78.8398-.649,1.7637.6796.9277,1.2834Z"/>
  </g>
  <g>
    <path class="cls-1" d="M68.5827,181.5566c.6021.4796,1.2319.962,1.8682,1.3936.1904.1654.3965.3134.584.4767.4756.4658.6689,1.1079.7241,1.7249.1484,1.5535-.7012,2.4062-2.0205,2.9712-.3076.1138-.6982.1326-1.0293.2719-.2734.1316-.2568.5288-.2715.943.1025.4675.1758,1.0181.1895,1.4855-.0073.5771-.3765,1.2759-.7134,1.7148-.9131.9939-2.4629,1.1475-3.9351.4172-.6621-.3494-1.2354-.8086-1.8545-1.2325-.5439-.3735-1.1143-.7505-1.6299-1.1798-.5991-.4512-1.2319-.8679-1.8667-1.2814-.4434-.2906-2.959-2.2677-3.377-2.6124-.165-.1154-.3125-.2582-.4448-.4138-.8584-.9707.1709-1.5864.7256-2.0369.9761-.8153,1.771-2.1932,2.5239-3.1727.4668-.6163.9355-1.2296,1.5171-1.7529.498-.4573.9287-1.124,1.2314-1.7252.3574-.5985,1.3506-.6949,2.0103-.24,1.3521.9302,4.4478,3.3154,5.7686,4.249ZM63.6945,182.9102c-.1519.2067-.3149.3861-.4517.6057-.1274.2034-.0767.3071.187.4373.0708.0344.1382.0586.2114.0923.4487.2238.8853.4545,1.2925.7638.5752.3875,1.1475.782,1.7393,1.1395.4028.3138.9722.5216,1.4609.472.6606-.1666,1.0913-.8488.7334-1.5309-.1782-.3418-.5327-.6365-.8623-.9221-.8926-.7253-1.8516-1.3577-2.8379-1.9337-.0938-.0438-.1621-.0792-.2559-.1237-.376-.1942-.5361.1566-.6909.3628-.1655.2214-.3784.4036-.5259.637ZM66.5407,189.8876c.0239-.0848.0386-.1796.0225-.2701-.0796-.58-.731-1.0675-1.2061-1.4493-1.0371-.7817-1.9814-1.7368-3.1479-2.1713-.21-.0688-.4316-.1265-.6187-.0516-.104.0314-.2065.1024-.2808.1985-.2241.3033-.4155.6317-.5903.9733-.0122.0542-.0366.1235-.022.175.0386.0936.1138.1715.1831.2224,1.1406.9261,2.3369,1.767,3.5903,2.4771.4004.2061.8242.4214,1.2124.406.3926-.0126.7617-.2035.8574-.5099Z"/>
    <path class="cls-1" d="M78.3151,197.2957c-.3193-.1588-.6338-.3202-.9429-.4984-.2881-.1693-.5332-.3939-.8906-.3165-.3267.0568-.6743.4027-.9028.5811-.5337.431-1.0493.9647-1.7173,1.2495-.9434.4392-5.1182-1.646-5.6221-2.6143-.1914-.3273-.1992-.4486.0923-.6403.4897-.3306,1.0063-.6697,1.5381-.9604,1.2051-.6187,2.5898-1.27,3.8457-1.811.8418-.3247,3.6318-1.9922,4.333-2.4966.3315-.24.6558-.5039,1.0166-.729.6177-.4067,1.4146-.5818,2.1982-.5847.5146.0046,2.9346,1.1331,3.2817,1.4781.0762.1044.1299.2352.1763.3657.0923.2786.0894.5891.0962.8871-.0356,1.4968-.3071,3.0139-.2568,4.5341.0259.7256.0669,1.4343.1357,2.136.1602,1.5204.8877,3.1158,1.0234,4.6604.0825.7776-2.3179.124-2.7148-.0499-.3052-.11-.5093-.296-.6118-.5721-.3672-.907-.5479-1.8032-.5522-2.7084.0073-.0165.0034-.0724-.0078-.0951-.0718-.619-.1128-.6161-.79-.8314-.8149-.2555-1.6938-.5309-2.5171-.891-.1152-.05-.0928-.042-.2109-.0928ZM79.4597,195.5109c.231.1368.4712.2423.7241.3304.3857.1294,1.291.3914,1.6646.2267.4751-.2153.2378-1.9792.1133-2.7938-.0132-.1735-.2485-.2731-.4111-.1919-.6646.3715-1.9741,1.3182-2.522,1.6934-.1382.1074-.1392.314.0068.4351.1289.1132.2627.2103.4243.3002Z"/>
    <path class="cls-1" d="M87.8547,204.273c-.1494-.1699-.2021-.3667-.2129-.549-.0142-.7581.2827-1.6201.897-2.1504.2979-.2684.7676-.3258,1.1841-.1333,1.623.7532,6.4189,2.5122,7.2856,1.9954.4751-.2729.6597-.8149.3018-1.2876-1.1934-1.4297-6.1357-3.3179-6.9961-5.0793-.4268-.8452.1367-2.397.6963-3.0712.5488-.6257,1.3467-.835,2.2231-.8622,3.0137-.062,6.667.8225,9.4155,2.0234.019.0021.0552.0094.0884.0305.438.2045.6382.6486.5718,1.1078-.1919,1.5555-2.3218,1.4852-3.6167,1.0985-1.2437-.3535-1.8501-1.1616-3.1724-1.0862-.2363.0171-.4336.0959-.5732.2751-.4082.7335-.0342,1.0851.3521,1.33,1.6953,1.0939,3.1338,1.6161,4.9473,2.4995.0918.049.1846.098.271.1816.9146.5242,1.3413,1.9656,1.5229,2.7712.1367.7969.166,1.9106-.7031,2.399-1.1016.6288-2.4648.8556-3.8306.7671-.9199.0776-10.209-1.5632-10.6519-2.2601Z"/>
    <path class="cls-1" d="M108.5622,195.9283c.7554.0862,2.9312.3496,3.9731.183.5449-.0548,5.5391-.327,6.085-.4166.4209-.0707.6475.1071.7266.4808.0264.1709.0732.3572.0449.5309-.0361.3452-.0947.6921-.1738,1.0055-.1763.6445-.5132.8677-1.2354.8425-.4375-.0203-.8984-.0742-1.3345-.0848-.9932-.0837-1.9795-.2036-2.9624-.3048-.21-.0027-.416-.0249-.6245-.0292-.5142-.0121-.8755.2152-1.0288.6562-.1055.2709-.1924.5775-.2427.8677-.0757.4429.311.9934.9976.9586.3892-.0237.8013-.0681,1.1719-.08.7793-.0759,1.5771-.1279,2.3545-.1906.0566-.0187.1357-.0201.2129-.0211.4512.0261.5859.1602.6353.5542.0298.3074.1108.6318.0439.9432-.0542.3265-.2446.5565-.7617.6505-.1987.0382-.4556.0233-.6968.025-.9395-.0789-1.8701-.1541-2.8047-.2455-.2168-.022-.4375-.0459-.6543-.0181-.5552-.0005-.8257.228-.9658.7208-.1445.5432-.0859,1.0618.1792,1.5878.2593.5955,1.0229.6389,1.6992.7037.9648.1061,1.9102-.0111,2.8945-.0907.7793-.0256,1.5361-.3013,2.3037-.4669.3267-.0642.8315-.1716,1.1611-.1023.2925.0889.3677.3584.4399.5796.167.4031.1709,1.2107-.1216,1.6049-.4878.6974-1.7446.8885-2.6543,1.0103-1.9253.403-7.2983.5062-9.23.1385-1.2188-.2135-1.8213-.8629-2.1294-1.944-.186-1.0884.5562-7.6565.7031-8.7468.1978-1.3628.6987-1.4067,1.9941-1.3025Z"/>
    <path class="cls-1" d="M128.445,194.8113c1.0264-.1334,2.0576-.2728,3.0728-.3926,1.0864-.152,2.0337.004,3.0264.4358.4473.1754.7812.4813,1.0649.8345.1738.222.291.4562.3789.7192.1821.557.3091,1.1266.2754,1.7192.0142.2096-.063.4037-.1348.6-.4141.969-1.1445,1.7627-1.9321,2.5315-.186.1813-.4009.3505-.3638.6223.0146.0842.0381.1858.0786.2648.2412.4403.8008.9,1.3799,1.0149.3936.0687.8242-.0138,1.2129-.0886.6333-.1161,1.2622-.2565,1.894-.3876.4629-.1049.8838.0675,1.1406.3872.1382.1771.272.3693.3711.5566.1494.2969-.0723.8411-.4336,1.0613-.2705.1599-.5352.3035-.8394.4167-.5161.204-1.0425.4059-1.605.5233-.9976.22-1.9868.2266-2.9028-.0377-.5283-.1528-1-.3582-1.4175-.6443-.5703-.4141-1.1006-.8748-1.5464-1.3884-.2388-.2716-.5669-.5084-.9224-.6398-.3325-.1174-.9702-.2734-1.3076-.0658-.1494.1088-.2236.2782-.2422.4364-.0273.3527-.042.5453.0713.8752.2109.715.5215,1.4667.4419,2.2078-.0215.2635-.1572.5116-.4565.6587-.7896.4414-4.8149,1.1614-5.5098.4542-.2593-.2546-.2896-.6125-.3345-.9366-.0703-.3722-.0938-.6464-.0239-1.0145.23-.9841.313-1.8196.4458-2.7977.105-.8373.2202-1.6932.2144-2.5383-.0073-.8636-.1265-1.6774-.3218-2.5048-.123-.4702-.1689-.9504-.1245-1.4546.0239-.3284.2065-.5728.5469-.676.2524-.0664,2.7202-.4409,2.9746-.4883.4209-.0598.834-.1226,1.2632-.1727.1992-.032.3848-.0601.5649-.0913ZM128.4821,198.5804c.0527.1996.1416.6385.1406.6381.0386.2379.0747.4745.1328.7091.0513.2008.1245.4135.2178.6084.0889.1936.249.3083.5049.2656.3555-.0238.6934-.0665,1.0117-.2086.7446-.3427,1.4868-.6935,1.9844-1.3043.0815-.0868.1938-.1617.2705-.2489.2549-.3152.4883-.7178.48-1.119.0098-.5111-.5615-1.0214-1.0322-1.2559-1.0366-.485-2.3813-.1112-3.3545.3961-.1265.0559-.2036.156-.2432.2837-.1074.4165-.2002.8142-.1128,1.2357Z"/>
    <path class="cls-1" d="M156.2795,194.9196c.0332.061.0713.1375.1016.1986.2124.4128.3745.9651.7383,1.6862.2598.7924.1025,1.1073-.7559,1.7201-.4487.3177-1.3726.6017-1.7681.2543-.1255-.1121-.2134-.2595-.3262-.3966-.3589-.4203-.4263-.2577-.7349.0916-.4712.5543-.7192,1.1539-1.2505,1.6638-.8853.8895-5.1294,2.5436-6.3472,2.7452-1.5332.2976-3.1602-.3652-4.1348-1.2351-.7769-.6801-1.3667-1.5433-1.7593-2.4487-.377-.8563-.7256-1.8636-.6992-2.8011.0405-1.1763.5493-2.0789,1.3916-3.0533.5459-.647,1.2002-1.2461,1.8604-1.7911.7114-.5863,4.0737-2.0345,4.9565-2.4093.5771-.2299,1.1533-.4518,1.7739-.5472.564-.0869,1.1577-.0647,1.7026.0535.4844.1283.9668.1957,1.312.5428.5938.5656.7842,2.6093-.6938,2.3766-.6348-.0981-1.1973-.3867-1.8247-.4995-1.2603-.1998-2.7573.4161-3.6538,1.2871-.8765.8645-1.2563,2.0283-1.1235,3.132.1226,1.0156.4995,2.1399,1.4194,2.7335.9707.6104,2.3496.522,3.52.0175.9712-.3931,2.6919-1.7266,2.1426-2.7101-.2236-.3896-.4863-.136-.7227.043-.562.4027-1.3882,1.1864-2.0762.819-.188-.0868-.3511-.2076-.4722-.3425-.2461-.2725-.4033-.6138-.4482-.9857-.04-.2449.1104-.4717.3638-.6351.2065-.1112,2.9429-.9615,4.2085-1.8204.2212-.1451.4546-.3146.7075-.3842.8945-.2322,1.4102.6938,1.7651,1.2095.2329.364.6226,1.0869.8271,1.4861Z"/>
    <path class="cls-1" d="M167.0061,188.7503c-.3052.1948-.6187.3855-.9365.5601-.2998.1644-.627.2562-.75.6064-.126.3112-.0176.7931.0171,1.0793.0869.6823.2686,1.4034.1572,2.1263-.1362,1.0487-4.1138,3.5367-5.1934,3.457-.3809-.0073-.4814-.0686-.4971-.4127-.0273-.5919-.0488-1.2084-.0181-1.8138.0996-1.3533.2656-2.874.4668-4.2313.166-.8885.2109-4.1517.1543-5.0162-.0298-.4104-.0825-.8237-.084-1.2529-.02-.7452.2515-1.5209.6743-2.2012.2769-.4395,2.562-1.9651,3.0518-2.0936.1304-.0143.2739.0099.4131.0333.2896.0612.5601.2228.8193.3699,1.2744.7972,2.4404,1.8077,3.7827,2.5414.6401.3459,1.2778.675,1.9248.9691,1.4121.6343,3.1885.8042,4.6079,1.4636.7183.3213-1.1792,2.1177-1.5459,2.375-.2617.2112-.5352.2966-.8325.2468-.9922-.1367-1.8574-.4409-2.6465-.8987-.0127-.0137-.0586-.0415-.0869-.0416-.5752-.2533-.5908-.214-1.1504.2649-.6636.5807-1.3784,1.2059-2.1343,1.7336-.106.074-.0874.0618-.1938.1353ZM166.0861,186.8384c.2393-.1281.4629-.2863.6763-.4589.3208-.2703,1.0415-.9233,1.1001-1.334.0757-.5254-1.5835-1.2192-2.3511-1.5315-.1582-.0774-.3691.0769-.3882.2589-.0425.7708.0708,2.3926.0967,3.0614.019.1747.1938.2823.3784.2179.1631-.0529.3232-.12.4878-.2139Z"/>
  </g>
  <g>
    <path class="cls-1" d="M159.2221,127.7967c-.2618-.0888-.5517.0209-.6471-.0306-.0907-.049-.4331-.7933-1.0022-1.0657-.3718-.178-3.2177-.8785-3.9082-.8809-.0976-.0003-.1626.0744-.1626.187,0,.3674.0971,3.9277.1372,5.3494.0054.191.063.5494.2377.7632.9921,1.214,6.3284,2.0141,7.938,1.8098.9413-.1195.831-1.3064.6676-2.0421-.1585-.7137-2.5945-3.8643-3.2604-4.0901ZM156.3495,130.2774c-.0376.0293-.1878.1947-.2994.0946.0328-.086.2727-.3909.3512-.3241.047.04-.0088.1961-.0518.2296ZM155.6679,130.2614c-.1059.0868-.4037.4188-.5542.2729.0923-.2546,1.2023-1.5738,1.4233-1.376.1324.1185-.7481,1.0038-.8691,1.1031ZM158.3459,132.4326c-.0193-.1442-.7996-5.2469-.7996-5.2469.443-.0358.5368.9401.5838,1.4092,0,0,.3378,3.087.3753,3.5374s-.1402.4445-.1595.3003ZM159.1067,130.1667c-.0756-.1858-.3769-2.1168-.1366-2.108.2372.0088.2718,1.8518.1366,2.108ZM160.2553,132.4593c-.1979-.2409.3557-.9826.5961-1.0068.0642.4699-.3065.7167-.5961,1.0068ZM161.0111,132.1989c-.0222.0215-.0875.1183-.1667.0614-.0281-.0562.1356-.2568.1911-.2191.0332.0225.001.133-.0244.1577Z"/>
    <path class="cls-1" d="M88.906,121.2902c-.1733-.6387.316-1.4477-.8986-1.3153-.9042.0985-.304.534-.3138.8697-.0061.2089-.2247.3412-.2549.4898-.2693,1.3286-.8251,2.44-.4858,3.7726l-3.4831,17.9074,1.0182-21.3716.0203-.4592c-.0015.4357.7288,2.7123,1.3979,2.2916.6146-.3864-.2466-2.8021-.6013-3.265-.0315-.0411-.5061-.4856-.858-.5935-.1839-.0564-.1767-.2377-.3074-.3536-.1307-.1159-.3844-.0438-.4895.0435-.3508.2916-.1367,1.273-.1835,1.7276-.053.514-.3042,1.3801-.2766,1.8341.022.3624.2638.5529.2851.9149.1981,3.358-.0681,7.0084-.1933,10.3727-.1374,3.6929-.0585,8.4499-.8363,12.0122-.1117.5115-.0914.2861-.6737.326-.492.0336-1.0799.2422-1.5663.1991-.157-.0139-1.1943-.5091-1.2285-.5674-.069-.1174.329-2.3168.3591-2.6997.216-2.7481.316-5.5095.554-8.256.4833-5.577,1.5867-11.7796,1.1954-17.349-.0331-.4702-.2212-2.9298-1.2797-2.0061-.3083.269-.7805,2.0477-.8607,2.3511-1.6089,6.0885-1.5491,15.7943-1.7151,22.237-.0388,1.5057-.2688,3.0172-.1146,4.5219.0257.2504.0504.7155.0504.7155,0,0-.2561-.0172-.4304.0546-.6377.2627-1.361,1.239-1.5719,1.1745-.2514-.0768-.1181-2.1265-.1365-2.5273-.4005-8.7445-.4627-19.4826-1.9432-27.9739-.0813-.4661-.613-2.9223-1.3945-2.9038-.1787.0043-.3228.0534-.5727.4541-.4681.7506-.3641,5.5141-.319,6.6623.2551,6.4846,1.1274,13.7811,1.8407,20.276.1788,1.6281.396,3.5056.7518,5.1056-.0985.0187-.1845.0594-.2752.1001-.3145.141-.4989.2755-.7827.2065-.3172-.077-.6608-.2707-1.0237-.3951-.4509-.1547-.9315-.2026-1.4278.2126-.5726.4791-.2021.6.166.32.2158-.1642.5778-.2636.8022-.2556.4781.017.9113.5421,1.4684.5338.4441-.0065.7981-.4003,1.2595-.3498.7702.0844.8789,1.1291,1.6781,1.0946.8005-.0346.856-1.2524,2.1062-1.2013,1.1323.0463,2.085.9937,2.7817,1.0801.5418.0672,1.1425-.2538,1.7045-.2475.5789.0064,2.7069.8508,2.8678.6403.4476-.5852-1.4029-.927-1.4365-1.0722,1.0695-5.3733,2.2582-11.3423,3.3323-16.7139.3449-1.7248.5138-3.2767.9382-4.8916.1383-.5265.4531-.986.692-1.4629.4913,2.847,1.8058,2.3081,1.3538-.3893-.1199-.7156-.5262-1.2823-.6886-1.8811ZM85.6706,122.917s-.2182-.3354-.3684-.9734-.1802-1.0445-.1802-1.0445c.3538.5643.5212,1.3539.5486,2.0179ZM83.7453,121.6331c.3104.0501.1174.657.187.9585.0694.3004.2396.4458.1783.5089-.2819.2904-.7032-1.4916-.3653-1.4674ZM80.2121,117.7769c.223.1961.3673,1.7138.1591,1.7028-.2083-.0111-.2441-1.144-.3001-1.15-.056-.0059-.2414.5144-.3201.5479-.4374.1266-.1425-1.6313.4611-1.1007ZM71.6003,115.4058c.642-.1761.8993,1.9779.76,2.0056-.1393.0277-.5923-1.3896-.5923-1.3896-.1519-.3613-.0293.9544-.3705.9287-.3209-.0241-.2697-1.4151.2028-1.5447ZM73.8007,144.461c-.5132-3.6196-.9656-7.7439-1.3056-11.0007-.2963-2.8386-1.0303-8.3857-1.1795-10.4874-.0476-.6705.2-.4292.2207-.3306.0856.4077,2.4763,21.9321,2.4763,21.9321.0357.2513-.1685.1927-.2119-.1133ZM77.7901,139.3581c-.0135.2161-.1247.1419-.1114-.3275.0995-3.5068.3331-7.2786.5898-10.9118.0375-.5306.1487-1.9716.2071-2.4535.018-.1486.2251-.1936.2192.0059l-.9046,13.6869ZM87.3309,124.3416c-.2592-.1941.1582-1.3256.4322-1.058l-.4322,1.058ZM88.6102,122.4587c.523.6394.5393,1.7544.5486,2.5694-.5973-.6734-.5583-1.731-.5486-2.5694Z"/>
    <path class="cls-1" d="M164.5218,132.3257c-.9302-.8688-.0939-2.2843-1.0344-2.1466-.4138.0567-.3854.3546-.3854.3546-1.9544-2.3196-4.1082-4.6368-6.3326-6.7009-1.1507-1.0678-3.1341-3.1384-4.6842-3.2075-9.5296-.4251-19.1845-.34-28.7316-.3622-3.7518-.0087-8.3533-.4543-12.028-.1015-.35.0336-.8833.0634-1.0738.3948-.262.456-.4695,2.9296-.528,3.6018-.0512.5885-.1141,4.4675-.2769,4.6329-.1638.1665-2.2467-.3985-3.0472.8537-.9438,1.4763-1.1706,7.1519.4805,8.0894.3776.2144,1.4429.3101,1.4429.3101,0,0,.0082.4573.0192.6061.0767,1.0396.1364,2.284.2896,3.2975.1893,1.2523.2906,2.1783,1.7803,2.3498l7.3878.3689v2.0648c0,2.5645,2.2397,4.1041,4.6226,4.0445,1.5013-.0375,2.6929-1.201,2.7555-1.3293.4066.4754,1.6201,1.5679,2.074,1.7842,3.3049,1.5749,6.988-.5572,7.2557-4.1773l18.0832-.5521c-.0707,4.5907,6.8785,6.159,8.1699,1.4683l1.0942,1.446c2.6602,2.5581,7.4795.9342,7.6894-2.5842l.1198-1.6144c0-.2688,2.2183.6935,2.3014-.8717.1225-2.3094-.4944-7.1884-1.8208-9.1068-1.6604-2.4017-4.2305-1.6124-5.6231-2.9131ZM108.0486,136.1569c-.995,3.005-1.724.161-1.8128-1.9079-.0335-.7809.0595-4.7242,1.0674-4.8918.4851-.0805.7879,1.0592.8712,1.3936.3848,1.5458.3777,3.8852-.1258,5.406ZM111.3285,121.4493h1.6982v2.2942l-2.0219-.0119c.009-.4682.0047-2.2823.3237-2.2823ZM110.9518,124.1935c.0657-.1314.2752-.0785.5765-.0791.3477-.0006.7351.0275.7325.1636-.002.1003-.4539.0456-.59.041-.1326-.0046-.466-.0297-.5223.0312-.0563.061-.0469.6694-.0469.6694,0,0-.0172,1.0759-.0219,1.2354s-.1826.1165-.1935-.0018.0066-.6424.0188-1.0368c.0094-.305-.0286-.8717.0469-1.0228ZM109.309,141.9136c-.1957-.0723-.327-3.3701-.4135-3.8547l.8271-.0003c-.0534.1745.0335.7349.2289.7349h1.8818v3.1201h-2.5244ZM110.5487,142.7384c-.2822-.4311,1.7864-.0747,2.0189-.1813-.1734.291-1.9201.3324-2.0189.1813ZM115.8768,124.1609c-.0117,4.0278-.3787,8.0838-.5587,12.1055-.0834,1.8637.0147,3.7943-.2022,5.6245-.4083.105-2.9248.0358-2.9248.0358l.1025-3.1321,2.0457-.1114c.2475-.0855.2654-.3863.3156-.6022.5223-2.2463.6284-8.3428.6699-10.893.0095-.5804.0514-2.7794-.2376-3.1646-.2725-.3633-1.6953-.2792-1.6953-.2792,0,0,.0018-.1185.0018-.1385,0-.36-.0108-2.135-.0108-2.135,0,0,1.8212-.0757,2.1069.162.5373.4473.3887,1.8821.3869,2.5281ZM114.0677,134.4178c.0049-.1865.0085-.4365.2565-.369,0,0-.0588,2.1532-.0876,2.7241-.0218.4312-.2991,1.0083-.4551,1.2292-.1126.1595-.2447.1196-.1595-.0187.1149-.1865.3331-.7319.3706-1.1072.1073-1.0731.0516-1.5605.0751-2.4583ZM113.78,133.6859c-.0188.4134-.036.7006-.097.7053s-.0755-.1281-.0783-.21c-.0171-.5094-.0296-.9676-.0202-1.0896.0094-.122.2119-.1329.2119.0172s.0017.1785-.0164.5771ZM117.4432,125.6858c-.0745-.0004-.1021-.187-.1021-.2446,0-1.0414.0694-2.3971,0-3.3954-.0105-.1507-.0977-.3972-.2132-.6538-.0457-.1014-.1151-.2886-.0611-.3098.111-.0436.3725.3266.4296.5627.2375.9821.079,2.6899.0626,3.7907-.0031.2095-.0412.2505-.1157.2502ZM117.987,138.0168c-.0086.3802-.0821,3.6125-.3247,3.6194-.4.0113.1311-5.0849.1387-5.2286.0076-.1437.1738-.1097.1863-.0065.0495.4081.0079,1.2489-.0004,1.6157ZM150.7078,124.3867c-10.4072-.4202-20.8398-.3811-31.2554-.6432-.0242-.5968-.101-1.3585,0-1.8813.061-.3156.3478-.603.6868-.5982,9.1451-.1314,18.3093-.1874,27.4518.0901.6029.0183,4.3997.1333,4.5869.4617.12,3.8196.2084,7.632.4078,11.45l-33.042-.1615-.0918-8.6272c2.2813-.0576,5.3716.0646,7.6466.1122,6.5637.137,12.1513.2305,18.7159.2752.8616.0058,4.3241.2122,4.8893-.0248.3302-.1384.3563-.3426.0042-.453ZM132.6372,149.9556c-4.4147,4.1832-10.598-2.5391-6.3584-6.6319,4.3661-4.2149,10.68,2.5367,6.3584,6.6319ZM152.6822,143.9784c0,.5645-1.823.6665-2.2455.6917-3.6414.2174-10.0327.2333-13.5761-.2917-2.8945-.4289-2.2386-1.2943-4.2523-2.5398-2.5258-1.5621-4.6611-1.0538-6.8646.7207-.2221.1789-.8384.9561-.9391.9883-.3524.1127-3.4921-.0048-4.0205-.0745-1.4969-.1974-1.2658-2.3634-1.2404-3.4871l33.1386.3676v3.6249ZM120.7364,139.2971c-.0127-.1506.1047-.2035.2318-.2272.5347-.0992,1.7734-.0151,2.39-.0057,1.6247.0247,3.9969-.0108,5.6233.0815.2506.0142.2158.197.017.1989l-8.2621-.0475ZM152.6827,138.6104l-33.2304-.184v-4.6802l33.1489.0201c.0857,1.6448.1491,3.1885.0814,4.8442ZM159.6923,142.8191l-6.1839.104v-2.5695l7.2528-.0448-1.0689,2.5104ZM165.5688,150.1622c-5.5405.6135-6.2122-7.5666-1.1571-8.1312,5.7827-.646,6.2604,7.5662,1.1571,8.1312ZM167.5989,139.9865c-.0554,0-.787-.4034-1.0056-.463-2.2395-.6098-4.0113.3375-5.319,2.124-.1524.2082-.6546,1.1813-.6546,1.1813l-.5286.0093s.6927-1.7408.8032-1.9377c.6625-1.1804,1.9811-1.7398,3.3083-1.7398,0,0,1.5738-.0273,2.1113,0s.4484-.3379.1288-.3334-8.6176-.3766-12.9347-.2167l-.0056-4.7411c.163-.1697,3.2166.4684,3.6813.5618,3.3794.6786,6.5729,1.8755,9.7224,3.128,1.2395.493,2.3068.9184,2.483,2.4274h-1.79ZM170.9876,139.9883c-.4771-.0013-.9619-.0013-.9619-.0013,0,0-.1618-.6735-.3722-1.1854-.3984-.9694-1.3957-1.2518-2.2832-1.6357-3.2663-1.4132-6.8256-2.6637-10.3994-3.3529-1.0591-.2043-2.352-.4785-3.4623-.5505l-.2745-11.8133c3.0079,2.632,5.9379,5.3556,8.491,8.4417.6273.7583,2.1209,2.2022,1.5851,3.2854-.0245.0496-.238.0704-.2987.2034-.1086.238-.2469.9648.1042,1.0889.4878.1723.3339-.3608.445-.5381.0854-.1362.4161-.1683.5115-.3145.1582-.2427-.0322-.6245.22-.6023,1.7255.8248,3.9793.8266,5.2804,2.3833-4.5182-1.2792-.8343,2.6211,1.153,2.565l.2621,2.0263ZM169.4661,136.5757c-.0222.0216-.0875.1183-.1667.0615-.0281-.0562.1356-.2568.1911-.2192.0332.0226.001.1331-.0244.1577ZM169.2085,136.3497c-.0376.0293-.1878.1947-.2994.0946.0328-.086.2727-.391.3512-.3241.047.04-.0088.1961-.0518.2296Z"/>
    <path class="cls-1" d="M190.5904,92.0692c-2.2458.0578-2.4995,1.0811-4.1744,1.7901-.6791.2875-1.415.3587-2.1118.6418-.7751.315-1.9096,1.3063-2.6854,1.2167-.9789-.1131-1.5041-.7878-2.7697-.6134-.8868.1222-3.028,1.6661-3.3067,1.643-.172-.0143-1.5481-1.0973-2.1436-1.2586-.914-.2476-1.7464.0459-2.6257-.3116-.703-.2858-1.4784-1.5142-1.9584-1.6221-.8344-.1876-1.6229,1.089-2.8692.5752-.7334-.3024-.4668-3.5998-2.774-4.2012-.9861-.257-2.1142.1386-2.9241-.1051-.561-.1689-1.2129-1.4967-2.1735-1.6807-2.2229-.4258-1.6493,2.8595-2.3892,4.0826-.243.4018-.5683-.8203-.6384-1.0565-.5213-1.7556-.4137-6.4005-3.5449-3.9499-1.1435.895-.7881,1.3567-1.1583,2.5128-.3113.9721-1.2516,1.8737-1.291,2.9776-.946-1.3803-.4858-4.9673-3.0771-4.0409-1.699.6074-1.72,3.83-2.5737,3.9521-.8999.1287-.8045-2.2501-2.1735-2.0023-.4373.0792-.9404.7826-1.4986.4462-.4505-.2714-.4534-1.8273-1.2308-1.9827-.2657-.0531-2.2394.3028-2.5175.4243-.5476.2392-1.0391,1.0307-1.2977,1.5475-.3827.7648-1.3217,4.1276-1.6966,4.4516-.7282.6294-.9147-1.0494-1.7582-1.2665-1.7432-.4487-3.501,3.508-4.667,4.4796-1.2105,1.0086-1.7024-1.3219-2.2546-2.1471-1.2843-1.9196-5.1174-1.9938-6.9531-3.2352-.588-.3976-1.1148-1.3356-1.7757-1.8038-.9302-.6591-2.1426-.6677-2.9567-1.4491-1.0561-1.0138-1.9292-4.1649-3.8979-3.4162-.5306.2018-1.4608,1.6362-1.5749,1.6357-.1587-.0008-1.4929-1.7718-2.4849-1.9189-1.1561-.1715-2.0597,1.2485-3.3508.9633-.6602-.1459-1.9403-2.0402-2.717-2.6056-.8215-.598-1.4927-.6609-2.3125-1.0837-.8482-.4374-1.633-1.48-2.6287-1.4806-1.7344-.0012-3.2877,3.2795-4.2708,4.4274-.5322.6215-1.3142,1.141-1.9277,1.7436-.7012.6886-1.0054,1.6398-2.1043,1.8423-.3706.0683-.7309-.0115-1.0537.0478-1.0044.1847-1.4587,1.8263-1.659,1.8269-.0336.0001-.3087-.3587-.5-.4159-.3673-.1098-.8717-.0286-1.3256-.1431-1.1576-.2921-2.8223-2.2201-4.0021-2.8817-1.3928-.7811-3.0316-.7284-4.1287-1.9292-.8971-.982-1.6563-3.5918-3.4843-2.559-1.3159.7434-1.2954,4.1476-1.6606,4.4437-.255.2067-1.292-1.2436-1.7202-1.3528-2.0449-.5214-2.4665,3.3325-3.2508,4.4118-.3202.4407-.9312.4397-1.3086.8943-.2136.2573-.7144,1.5932-.7925,1.6401-.9523.5708-2.3038-4.3981-2.5208-4.858-.8-1.6957-2.2846-1.3227-3.5335-.3232-.4772.3819-2.0707,2.2726-2.3891,2.3914-.3426.1277-.9328-.6929-1.7622-.0523-1.065.8225-2.587,6.8439-3.1903,8.3999-.8017,2.0681-.8492.5116-2.2404,1.1557-.8412.3894-1.3901,1.7417-2.4895,1.8259-1.1753.0901-2.0959-1.4787-3.1605-1.7036-.3437-.0726-1.6537-.2033-1.6513.4555.0008.24.0878.4173.1562.5033.2363.2971.1637.2102.6586.52,1.3319.8337,3.8751,1.94,5.3587,1.1255.5518-.3029,1.4311-1.5421,1.6891-1.6164.6517-.1876,1.1785.4747,1.939-.3544,1.2702-1.3848,1.6339-7.3727,3.0564-8.7822.5768-.5716.6416-.1182,1.1431-.0637.5326.0579.9263-.2789,1.3233-.5911.4467-.3512,2.395-2.4999,2.5717-2.5681,1.7019-.6559,1.9646,1.9516,2.4337,3.0684.2327.5542.5364,1.3129.8534,1.8082.5206.8135,1.112.8677,1.1186,1.9166.0124,1.9581-1.2387,2.3518-1.946,3.7414-.5199,1.0216-.2358,1.2589-1.2254,2.1704-.243.2237-1.7426.934-.7559,1.4032.8667.4121,2.0791-1.6864,2.5455-2.1837.0677-.0722,1.0593-.9231,1.1036-.8687.0719.0885-.3245,1.9039-.3639,2.2505-.1275,1.121-.1597,2.2604-.2899,3.3809-.0398.342-.9044,4.1648-.3089,4.1856.5045.0177,1.4648-4.6029,1.5767-5.2125.3434-1.8715.6105-3.9482.7623-5.8453.1294-1.617-.2987-4.7666,1.0568-5.9178.4197-.3565.8707-.2174,1.279-.7403.5684-.7279,1.2235-3.7929,1.8907-4.0767.6087-.259.9706.5438,1.3823.8181.1523.1015.709.1856.7336.2938.0532.2344-.9912,3.9241-1.0959,4.6817-.2586,1.8702-.2698,3.7265-.6071,5.6334-.4303,2.4332-2.7396,9.3322-2.113,11.2887.2307.7202.6984-.8934.7539-1.0847.7832-2.6978,1.7077-6.4238,2.2922-9.1795.4691-2.2114.3732-3.9628.5815-6.1177.1731-1.7901.9621-3.8452,1.4602-5.6064.1604-.5673.7405-4.084,1.5076-3.9772.2102.0293,1.2821,1.7835,1.5735,2.1032,1.3338,1.4632,2.9327,1.8245,4.5364,2.8064,1.4331.8775,2.3679,2.1216,4.1051,2.4117.3759.0628.8195-.0491,1.1764.017.2522.0467.4871.3287.8432.3574,1.1837.0954,1.3441-1.1985,2.1719-1.6662.6385-.3607,1.3565-.2323,2.0359-.6259.2203-.1277,2.6735-2.8443,2.8931-2.5669.0432.0547-.1747,1.1106-.1858,1.3274-.0492.9644.1048,2.0677-.0208,3.0076-.1797,1.3452-2.1736,4.6867-1.7922,5.7865.1193.344.5829.3095.8114.0894.24-.2313.5545-1.9651.7283-2.4576.7652-2.1682,1.2894-2.3251,2.8455-.548,1.8729,2.1389,1.8257,5.4679,2.9611,7.8684.1535.3246.6151,1.1129.7163.3939.1101-.7828-.5472-4.7486-.8275-5.6053-1.2391-3.7879-4.843-4.097-4.2171-9.1658.1755-1.4208,1.9085-5.2191,3.619-5.1927.5232.0081,2.1817,1.0136,2.6985,1.3383,1.0472.6579,3.7612,3.1398,4.5924,3.3007,1.3508.2615,2.0219-.8377,2.7035-.7837,1.1729.0929,1.9744,2.7879,3.9047,1.5061.8017-.5323.6859-1.8262,1.7934-1.0456,3.3252,2.3437.8796,6.6217,2.6024,9.7872.3802.6986,1.4547,2.4092,1.9231,3.0329.2114.2814,1.5397,1.6202,1.1662.4871-.057-.1729-1.0204-1.8076-1.1982-2.1069-.5075-.8544-1.3671-1.6579-1.5766-2.6452-.1173-.5525-.1235-4.1359.1601-4.3841.0882-.0772.6297-.1451.7815-.1443,1.4268.0075,2.511,1.7874,3.8056,2.4439,1.4524.7365,5.2177,1.3164,5.9882,2.7315,1.0508,1.93.3853,4.0999,1.3427,5.9075.5696,1.0753,1.9158,2.036,2.7256,2.9647.7396.8482,3.1546,4.5899,3.8741,4.8452.6177.2191.0888-.6124-.0283-.7978-.5203-.8242-1.7429-2.3826-2.3865-3.2121-1.088-1.4021-3.1847-3.2625-3.6292-4.9063-.1114-.412-.4173-2.2069-.0787-2.4433.0639-.0446.6203.6002,1.4709.0492,1.0446-.6766,2.4568-3.0951,3.4378-4.0882,1.4787-1.4969.9951.727,2.3395.9221-.9279,2.4287-2.7999,4.4595-3.0862,7.1252-.0329.3065-.0636.6858.0535.7758.1171.09.3358-.2537.4894-.52.508-.8806.6605-2.0879,1.0592-2.9513.1863-.4033,1.3423-2.3229,1.5781-1.0837.1302.6846,0,2.2344,0,3.0283,0,.1612.4838.2494.6219-.1124.291-1.7072.0014-3.6931.3182-5.3716.2195-1.1631,1.3414-4.0487,1.8372-5.2295.3723-.8865.4825-1.5841,1.4864-1.9095,2.224-.7209,1.3113,1.2464,2.661,1.6626.9836.3034,1.9628-.4306,2.0665-.3687.1001.0598.4838,1.4339,1.3001,1.7748,2.086.8712,2.0377-2.3029,3.0622-3.2501,1.3457-1.2442,1.758,1.6559,2.1444,2.5419.8019,1.839,1.6882,3.6566,2.4722,5.5056.0277.461-1.877,2.8406-.755,2.9694.7498.0861.7946-1.2632,1.1426-1.653.0938.5514.5595.903.7809,1.3764.1563.3343.5492,2.1879,1.1,2.0183.7179-.221-.6644-2.9132-.757-3.2789-.0988-.3903-.0461-.8917-.1792-1.3809-.2859-1.0503-1.3445-2.6956-1.785-3.8134-.1279-.3245-.3645-.7704-.3553-1.1134.022-.8157,1.0275-1.9151,1.3326-2.7125.4516-1.1802.0617-2.4776,1.519-2.9773.8967-.3076.8912.0447,1.0869.8349.2387.9638.2293,1.9957.4974,2.99.1782.661.8641,1.829.8978,2.322.0343.5-.3015,2.8809-.385,3.5654-.173,1.4191-.9991,4.5293-.7017,5.7723.2082.8701.5919.0424.6878-.3719.5188-2.2402.6225-5.1986,1.0786-7.5479.3672-1.8915,1.2735-3.9582,1.7056-5.8671.682.0086.9935.6983,1.4722,1.0437,1.5657,1.13,3.263.2355,4.5197,1.1713,1.15.8563.7513,2.5512,1.6673,3.2887.1605.1292.772.3308.7792.4118.0168.1899-2.5015,2.2773-2.8506,2.4709-.404.2239-1.3367.2812-1.3735.6546-.1153,1.171,2.2144-.3043,2.3527-.3251.1561-.0235.9879.2129,1.0341.2875.4039.6519-.6368,3.0156-.4393,4.0639.0647.3434.2459.6199.4599.1972.1212-.2395.946-2.4734.9799-2.6912.174-1.1172-.219-2.4371.2506-3.5119.2042-.4674,1.6736-1.8771,2.1542-1.6991.2222.0822.5707.7693.7858.9654,1.1728,1.0692,2.8198.6875,4.1809.9594.7985.1595,1.4226,1.0855,2.2402,1.0643.9141-.0237,2.0255-1.4452,3.0473-1.4669.5763-.0123,1.5058.664,2.2926.7171,1.7177.1161,2.8177-1.1563,4.2574-1.6845.6264-.2298,1.2254-.2503,1.8675-.519.7365-.3081,1.3277-.9681,2.0549-1.2494,1.0724-.4149,2.6255-.0976,3.3381-.5179,1.2198-.7195-1.554-.8879-1.8916-.8792Z"/>
    <path class="cls-1" d="M164.193,106.3775c.3002-.1767.5154-3.3377-.3209-2.4777-.449.4619-.2501,2.8138.3209,2.4777Z"/>
    <path class="cls-1" d="M69.2397,90.325c-.5644.0628-.9986,3.7931-.1191,2.5432.2286-.3249.5984-2.5966.1191-2.5432Z"/>
    <path class="cls-1" d="M95.3174,105.3811c-.3254.1275-.1449,1.384.3383,1.2672.4748-.1149.1761-1.4688-.3383-1.2672Z"/>
    <path class="cls-1" d="M154.2277,104.7383c-.6517-.2535-.5461,1.303-.4926,1.3692.1843.2283.9955-1.1735.4926-1.3692Z"/>
    <path class="cls-1" d="M132.8965,113.0818c.1236-.1289-.5667-1.0243-.7803-1.0064-.5837.049.6888,1.1018.7803,1.0064Z"/>
    <path class="cls-1" d="M116.0057,103.2631c.1281-.1541-.1316-.9977-.5546-.6929-.4345.3131.4996.7591.5546.6929Z"/>
    <path class="cls-1" d="M150.3337,125.5186c-.6831-.008-2.3268-.0266-2.8587-.0266-.9606,0-5.7958-.0263-6.2209-.0047-.1349.0069-.269.1317-.2976.2487-.0739.3016.0118,3.7209.0771,4.1007.0404.2352.1221.5165.3752.5978.0182.0058.0382.008.0573.008h9.1507c.2267-.0108.2205-.2141.2264-.3243.0219-.4091-.167-3.8333-.1829-4.3076-.0075-.2233-.1544-.2901-.3265-.2921ZM145.6145,127.9184c-.0263-.1384,2.5535-.9703,2.661-.8707.0547.0507-.0098.2387-.0914.3206-.2307.2313-2.5078.8755-2.5696.5501ZM148.8262,128.5143c-.0189.0279-.5686.1238-.6606.1297-1.1305.0721,1.0528-.7084.6606-.1297Z"/>
    <path class="cls-1" d="M151.9916,134.7701c.0063-.2377-.6662-.4536-.6823-.0718-.0117.2765,0,1.1153,0,1.4683,0,.2547.6512.307.6823.0016.0375-.369-.0166-.7659,0-1.3981Z"/>
    <path class="cls-1" d="M129.5322,144.6881c-2.6031.1424-2.4432,4.0773.1545,4.1058,2.6758.0294,2.5404-4.2532-.1545-4.1058ZM129.7287,148.3805c-.4457-.0136-1.5667-.3647-1.5397-1.641.0272-1.2832.9454-1.6005,1.4114-1.6072s.4187.2229.0405.3174c-.3802.095-1.0946.2902-1.1007,1.2899-.0068,1.094.7563,1.2425,1.2155,1.2763s.4187.3782-.027.3647Z"/>
    <path class="cls-1" d="M164.6827,144.4133c-1.7632.3293-1.6461,3.0766.1846,3.3512,2.5409.3814,2.4722-3.8475-.1846-3.3512ZM164.4779,145.0359c.222.0137.0222,1.4925.1366,1.7409-.4457-.1894-.499-1.7633-.1366-1.7409Z"/>
    <path class="cls-1" d="M107.217,131.9231c-.5733.1671-.5997,2.9225.1616,2.8389.6439-.0707.69-3.0872-.1616-2.8389Z"/>
    <path class="cls-1" d="M111.3244,139.4616c-.2779-.0079-1.7639.0881-1.7639.0881-.262.0267-.1877,1.2287.0691,1.2168.7017-.0237,1.2957-.0461,1.6678-.0556.2634-.0068.2634-1.2426.027-1.2494ZM111.1047,140.5224c-.1196.0015-.3106.0049-.5361.0085-.0826.0018-.0895-.1477-.0052-.1517,0,0,.4607-.048.55-.0468.076.001.076.189-.0087.19Z"/>
    <path class="cls-1" d="M154.8751,134.7769c.0062-.2377-.6662-.4535-.6823-.0717-.0117.2764,0,1.1153,0,1.4683,0,.2547.6512.3069.6823.0015.0375-.369-.0166-.7659,0-1.3981Z"/>
  </g>
</svg>