<?xml version="1.0" encoding="UTF-8"?>
<svg id="Ebene_1" data-name="Ebene 1" xmlns="http://www.w3.org/2000/svg" viewBox="0 0 88.9768 151.6804">
  <defs>
    <style>
      .cls-1 {
        fill: #66503a;
      }
    </style>
  </defs>
  <path class="cls-1" d="M85.517,34.6371c-.7669-2.827,1.3984-6.4075-3.9774-5.8215-4.002.4361-1.3454,2.3636-1.3891,3.8491-.0272.9247-.9947,1.5102-1.1281,2.1677-1.1919,5.8804-3.652,10.7992-2.1503,16.6974l-15.4159,79.2573,4.5066-94.5899.0897-2.0324c-.0068,1.9284,3.2255,12.0046,6.187,10.1425,2.7201-1.7101-1.0916-12.4022-2.6612-14.4507-.1395-.1821-2.2401-2.1493-3.7975-2.6268-.8138-.2496-.7822-1.052-1.3604-1.565-.5783-.5128-1.7015-.1939-2.1666.1925-1.5527,1.2904-.605,5.6345-.8123,7.6462-.2344,2.2749-1.3463,6.1082-1.2242,8.1176.0975,1.6038,1.1674,2.4469,1.2619,4.0493.8766,14.8623-.3015,31.0188-.8554,45.9093-.608,16.3446-.259,37.399-3.7012,53.1654-.4943,2.264-.4045,1.2663-2.9816,1.4427-2.1776.1488-4.7795,1.0721-6.9323.8813-.695-.0615-5.2857-2.253-5.4374-2.5113-.3053-.5197,1.4561-10.2543,1.5892-11.9486.956-12.1629,1.3985-24.385,2.452-36.5407,2.1393-24.6834,7.0227-52.1361,5.2907-76.7862-.1463-2.0813-.9791-12.9672-5.6638-8.8791-1.3643,1.1907-3.4544,9.063-3.8092,10.4057-7.1211,26.9477-6.8563,69.905-7.591,98.42-.1717,6.664-1.1896,13.3542-.5074,20.0136.1135,1.1083.2228,3.1668.2228,3.1668,0,0-1.1333-.0761-1.9049.2416-2.8223,1.1626-6.0239,5.4836-6.9573,5.1984-1.1125-.3401-.5228-9.412-.6041-11.1856-1.7725-38.7029-2.0481-86.2293-8.6003-123.8113C15.1284,10.7894,12.775-.0817,9.3161.0005c-.7907.019-1.4287.2361-2.5348,2.01-2.0716,3.3222-1.6116,24.4054-1.4117,29.4871,1.129,28.7006,4.99,60.9946,8.1468,89.7408.7913,7.2061,1.7525,15.5156,3.3273,22.5973-.4361.0827-.8168.2628-1.2182.443-1.392.6239-2.2079,1.2192-3.4642.9141-1.4038-.3407-2.9248-1.1979-4.5308-1.7489-1.9959-.6846-4.123-.8968-6.3196.9411-2.5345,2.1206-.8943,2.6558.7348,1.4162.9552-.7268,2.5575-1.1666,3.5505-1.1313,2.1162.0753,4.0332,2.3993,6.4991,2.3628,1.9654-.0287,3.5324-1.7719,5.5744-1.5481,3.4089.3734,3.8899,4.9973,7.4273,4.8445,3.5429-.1531,3.7888-5.5431,9.322-5.3167,5.0116.2051,9.2281,4.3981,12.3115,4.7807,2.3978.2973,5.0567-1.1232,7.5439-1.0956,2.5624.0282,11.9805,3.7655,12.6928,2.8339,1.9809-2.5903-6.2093-4.103-6.3579-4.7457,4.7335-23.782,9.9948-50.2005,14.7486-73.975,1.5264-7.6338,2.2742-14.5024,4.1523-21.6502.6123-2.3303,2.0053-4.3642,3.0626-6.4747,2.1746,12.6007,7.9922,10.2155,5.992-1.723-.5307-3.1671-2.3289-5.6752-3.0478-8.3256ZM71.1973,41.8375s-.9659-1.4846-1.6303-4.3084-.7976-4.6227-.7976-4.6227c1.566,2.4975,2.307,5.9921,2.4279,8.9311ZM62.6761,36.1548c1.3739.2218.5196,2.908.8278,4.2424.307,1.3295,1.0605,1.973.7892,2.2525-1.2477,1.2855-3.1123-6.6017-1.617-6.4948ZM47.0381,19.0874c.9872.8678,1.6259,7.5853.7041,7.5365-.9218-.0491-1.0802-5.0634-1.3282-5.0898-.2479-.0261-1.0686,2.2769-1.4169,2.4251-1.9359.5605-.6306-7.2202,2.041-4.8718ZM8.9228,8.5929c2.8416-.7794,3.9804,8.7542,3.3638,8.8768-.6165.1227-2.6213-6.1504-2.6213-6.1504-.6725-1.5989-.1295,4.224-1.64,4.1102-1.4201-.1069-1.1939-6.263.8975-6.8367ZM18.6617,137.1903c-2.2715-16.0203-4.2738-34.2744-5.7784-48.6886-1.3114-12.5636-4.56-37.1149-5.2205-46.4169-.2108-2.9678.8851-1.8997.9768-1.4633.379,1.8043,10.96,97.0704,10.96,97.0704.1581,1.1123-.7457.8529-.9378-.5016ZM36.3184,114.6048c-.0598.9563-.5521.6283-.4932-1.4495.4405-15.5208,1.4745-32.215,2.6103-48.2951.1659-2.3484.658-8.726.9166-10.8593.0797-.6578.9963-.8569.9702.0261l-4.0039,60.5777ZM78.5459,48.1427c-1.1474-.8589.7001-5.8671,1.9128-4.6827l-1.9128,4.6827ZM84.208,39.8091c2.3147,2.8299,2.387,7.7648,2.4283,11.372-2.6434-2.9804-2.4709-7.6614-2.4283-11.372Z"/>
</svg>