<?xml version="1.0" encoding="UTF-8"?>
<svg id="Ebene_1" data-name="Ebene 1" xmlns="http://www.w3.org/2000/svg" viewBox="0 0 156.9037 73.3672">
  <defs>
    <style>
      .cls-1 {
        fill: #66503a;
      }
    </style>
  </defs>
  <g>
    <g>
      <path class="cls-1" d="M107.3257,5.8689c-.1815,2.059-1.8168,4.2995-2.7864,6.0571-1.6354,2.8464-3.4522,5.4512-5.4512,8.1161-3.3315,4.5425-6.9659,8.9649-10.3581,13.5688-1.6354,2.2405-3.2707,4.6025-4.7247,7.0259-.4237.6059-.9081,1.4532-1.3932,2.2405-1.0902,2.1205-2.3012,5.1483-.5451,5.9971,2.1205.8473,4.9669-.4244,6.5422-1.8176.8481-.7873,1.5746-1.6346,2.3012-2.6049.8481-1.0902,2.4234.5459,1.5146,1.5761-.4244.6659-2.4834,3.0278-2.6049,3.1493-2.6042,2.6649-7.6317,6.663-11.3876,3.7551-2.059-1.6346-2.5434-4.2395-1.8168-6.723.6666-2.4234,4.361-8.5405,8.6013-14.0532.7873-1.0302-.3637-1.6961-1.3932-1.7561-.7873-.0615-1.6354.06-2.302.1215-4.0581.3629-6.9659,2.059-9.9337,4.481-2.3012,2.3634-4.7247,4.7254-7.0259,7.0873-1.7568,1.7576-3.5744,3.5737-5.452,5.2098-.0607,0-4.2395,4.0581-7.8739,5.6942-1.8176.8473-3.3315.9073-5.5727.8473-1.0902,0-4.4825-1.0302-4.4825-3.2707-.0607-.2429,0-.7873.1215-.9688.4237-.8488,1.2717-1.6961,2.6042-1.6361,2.4227.06,2.7864,2.9678,5.6942,2.059,3.21-1.0902,8.9035-6.2386,9.57-6.783.3029-.3029.6059-.6059.9088-.8488.1815-.1815.3029-.3029.5451-.4244,2.6649-2.6034,5.2698-5.2083,7.8139-7.9347.3629-.5444.6051-1.0902.3629-1.2117-.3629-.3029-1.999.1829-2.4227.3644-.1215,0-.2422.06-.3637.06-1.3324.4844-2.4834,1.0902-3.6944,1.7561-.8481.3644-1.3932,1.0302-2.4834,1.0917-1.2724,0-1.9383-.6673-2.2412-1.8176-.0607-.2429,0-.4244.1207-.5459.7273-2.059,7.9354-3.8151,8.7227-3.9966.7266-.2429,1.5139-.3644,2.1805-.4859,1.5746-.6059,3.21-.6659,4.7854-1.6346,1.5746-.9088,2.9071-2.242,4.2395-3.5137,3.2107-3.5122,6.36-6.9659,9.7522-10.2966,3.6951-3.6351,7.8747-8.5405,12.8415-10.4796,2.4834-.9088,7.4503-1.4532,7.0866,2.5449ZM99.1488,8.7752c-.7273-.06-1.5754.0615-2.2412.4244-1.0902.6059-2.0598,1.3932-3.0285,2.242-.9088.8473-1.8176,1.8161-2.6656,2.7249-.4844.4844-.9081.9088-1.3324,1.3332-.4237.5444-.9688,1.0902-1.3932,1.5746-2.4227,2.7249-4.9669,5.3298-7.3895,8.0561-1.0295,1.1502-1.4539,2.302.7873,2.5434,1.151.1215,2.4227.0615,3.5129-.06.8481-.0615,1.5146-.1215,2.1805-.3029,1.3332-.6659,2.4834-1.6961,3.5744-2.8464,1.0902-1.4546,2.3012-3.0293,3.5129-4.6039,1.0902-1.4546,2.302-2.9078,3.4522-4.4225.4244-.6059.7881-1.2717,1.151-1.8776.7273-1.1502,2.4227-4.1795-.1207-4.7854Z"/>
      <path class="cls-1" d="M130.1002,46.2095c-.4844.6059-1.151,1.3317-1.999,2.1805-1.7561,1.999-3.8766,4.0581-6.2993,5.0269l-.2422.1215c-1.151.4244-2.1805.4844-3.0285.1215h-.0607s-.0607,0-.0607-.0615c-1.8168-.7259-2.059-2.8464-1.4532-4.6025.2422-.9702.7266-1.8176,1.3324-2.7864.5451-.8488,1.999-3.2707,2.059-3.7551.0607-.3029,0-1.2117-.8481-1.3332-2.6042-.5459-4.9061,2.362-6.1171,3.9981-1.091,1.2717-2.2412,5.1483-2.3627,5.6327-.4844,1.939-1.7568,3.3922-3.4522,3.2107-1.6961-.2429-1.9383-1.6361-1.6961-2.9078.2422-1.3332,1.0902-2.6649,1.8168-3.7551.7873-1.4546,1.7568-3.0293,1.999-3.5137.1815-.3629.5451-.8473.6659-1.3317.3029-1.4546-1.2717-1.879-2.6649-1.1517-1.2717.5459-2.2412,1.8176-3.15,2.7864-1.5139,1.8176-5.0876,6.723-5.3298,7.2088-.7873,1.1502-1.7568,2.362-3.2707,2.6034-1.091.1829-1.999-.3629-2.0598-1.999,0-1.0902,2.8471-4.0581,3.9981-5.6927.7266-1.0302,3.1493-4.241.7266-4.9069-1.3932-.4244-3.0285,1.2117-4.1795,2.4834-.9088,1.1517-1.8776,2.1805-2.6649,3.1493-1.0302.9702-2.4834-.5444-1.5754-1.6346.7873-1.0302,3.2107-3.9366,4.4217-5.1483,1.3932-1.2732,3.0893-2.6049,4.6039-2.9678,1.3324-.4244,2.5442,0,3.3315,1.6946.1207.1215.1207.2429.1815.4244.4244.5459.6059,1.0902,1.3932,1.0302,1.151,0,2.362-1.2717,3.5737-2.362,1.7568-1.4546,3.6951-2.4234,5.5727-2.1805,1.3324.12,2.0598,2.9678,2.9071,2.9678.9088,0,1.6361-.7873,1.7568-.8488,1.6354-1.2117,3.3315-2.119,5.3305-1.9376,1.8168.1215,2.6649,2.119,2.302,3.7551-.1215.7273-.3029,1.3332-.8481,2.059-.9088,1.3332-1.8783,2.5449-2.7264,3.8766-.6659,1.0902-1.8168,3.4537-.06,3.8766.4237.0615.9081,0,1.3932-.1815.3629-.1815.6659-.3629.9688-.6059.6666-.4844,1.2724-.9688,1.8176-1.4532.9081-.8488,1.6354-1.7576,2.4227-2.7264.9088-1.0902,2.4834.5459,1.5746,1.6361Z"/>
      <path class="cls-1" d="M156.6305,46.2095c-.3629.4229-15.3242,14.6576-19.9881,22.0479-.6059,1.1502-1.3332,2.1205-1.6361,2.7264-.9688,1.8161-2.1198,2.6649-4.1788,2.3005-.9088-.1815-1.4539-1.4532-.9088-2.2405.7266-.9088,1.8776-2.5434,3.21-4.6039,3.8166-5.2083,5.9364-9.0249,8.3591-13.6288v-.06c0-.4244-.2422-.4244-.5451-.3629-.5451.3029-1.2117.6659-1.7568.9073-1.7561,1.0302-4.361,1.2117-5.6327-.4229-1.999-2.1205-.3029-5.3912,1.0295-7.4503.6666-1.0902,1.6354-2.0605,2.2412-3.1507.3029-.4844.9688-1.5746.5451-2.119-.9088-1.0902-3.2707,1.3317-5.1483,3.3922-1.0302,1.2102-1.8783,2.362-2.7264,3.2093-.9081,1.0302-2.4227-.4229-1.5139-1.6346.3029-.3644,1.8168-2.4234,3.6344-4.6039,1.999-2.4234,4.7247-5.0883,7.1473-4.7854,1.8168.2429,2.362,1.4546,2.4227,2.6049.1215,1.6961-.8481,3.6951-1.5139,4.7854-.1822.3629-.4244.7273-.7273,1.0902-.5451,1.0302-1.0295,2.1205-1.2717,3.2107-.4244,1.6961.1815,2.9678,1.999,2.5434,2.4227-.6659,5.2698-3.5737,6.2386-4.4225,1.6354-2.119,3.0893-4.361,4.6032-6.6015.6059-.9088,1.151-2.7264,2.302-3.1493.7273-.4859,1.6354.12,1.999.7259.1815.2429.3029.5459.3029.7873.4844,1.3932-.9695,2.9078-2.2412,4.1195-.7873.7873-5.6934,7.3903-7.2081,9.7522-.6666.9088-1.6354,2.5434-2.7256,4.7854,0,.06,0,.12.0607.12.1815.2429.4844.0615.7266-.06.0607-.06.1815-.1215.3029-.2429,4.2403-4.361,10.4788-10.4781,11.0239-11.1439.9088-1.2117,2.4834.4229,1.5746,1.5746Z"/>
    </g>
    <g>
      <path class="cls-1" d="M51.006,61.4525c.5093.0388,1.0317.0768,1.541.0893.1661.0256.3315.038.4968.0637.4332.1017.7646.4332,1.0061.8027.6117.9293.4076,1.7956-.1141,2.662-.1273.191-.3315.3563-.4588.5729-.1017.191.038.4332.1654.7002.2041.2546.4207.5737.5737.8663.1778.3695.2034.9549.1654,1.3624-.1654.9812-.892,1.669-1.8344,1.8088-.4324.0512-.8532,0-1.2863,0-.382,0-.7763.0132-1.159-.0256-.4324-.0124-.8656.0132-1.2988.0512-.3059.0124-2.1271.0124-2.4329.0256-.1141.0124-.229,0-.3439-.0256-.7259-.1398-.5093-.9805-.4324-1.5029.1273-.93-.0388-2.089-.0768-3.0059-.0256-.5729-.0512-1.1459.0124-1.7195.0512-.4968-.0124-1.0822-.1141-1.5666-.0768-.5093.3695-1.0442.8912-1.0954,1.0573-.1273,3.63-.1017,4.6998-.0637ZM48.9557,64.3823c0,.191-.0132.3695,0,.5605.0124.1778.0761.2166.2546.1778.0505-.0124.0893-.0249.1398-.038.3059-.0637.6117-.1149.93-.1017.4332-.0132.8663-.0132,1.2988-.038.319.0249.6878-.0768.93-.3059.2927-.3695.2927-.9681-.1398-1.2483-.2166-.1398-.51-.1785-.7902-.2166-.7383-.0761-1.4773-.0505-2.2032.038-.0637.0132-.1149.0256-.1785.0388-.2671.0505-.2159.3307-.2159.5217,0,.2041-.0388.4076-.0256.6117ZM52.8403,67.4387c-.0132-.0637-.0388-.1273-.0768-.1778-.229-.3315-.7259-.3695-1.0954-.4076-.7895-.0512-1.5922-.2298-2.3181.0249-.1273.0512-.2546.1149-.3183.2422-.038.0637-.0637.1529-.0637.2422,0,.2802.0256.5605.0637.8407.0132.038.0256.0893.0512.1141.0505.0388.1141.0512.1654.0512.8663.0512,1.732.0512,2.5859-.0256.2671-.038.5473-.0761.7383-.2422.191-.1654.3183-.4324.2678-.6622Z"/>
      <path class="cls-1" d="M61.285,68.1521c-.2166-.0124-.4332-.0256-.649-.0512-.2041-.0249-.3951-.1017-.5737.0637-.1654.1405-.2671.4844-.3439.6754-.1778.4588-.3183.9805-.5985,1.3881-.3944.5737-3.0951.6498-3.63.2422-.191-.1398-.229-.2166-.1398-.4456.1529-.3951.3183-.8027.5093-1.1846.4456-.8407.9937-1.7576,1.5285-2.5471.3563-.51,1.4649-2.5471,1.7451-3.1076.1273-.2678.2415-.5481.3944-.8151.2546-.4712.6878-.8407,1.1722-1.0829.3183-.1654,2.1395-.1017,2.4454.0512.0761.0505.1398.1273.2034.2034.1273.1654.2041.382.2802.5861.3439,1.0442.5349,2.1651.9044,3.2093.1785.4968.3563.9812.5473,1.4524.4207,1.0185,1.159,1.961,1.5285,3.0183.191.5224-1.2863.6366-1.541.6241-.191,0-.3439-.0768-.4588-.2422-.3944-.5349-.6878-1.1078-.8912-1.732,0-.0132-.0132-.0512-.0256-.0637-.1785-.4076-.2034-.3951-.6366-.3571-.5224.0512-1.0829.1149-1.6303.1149h-.1405ZM61.4892,66.5979c.1654.0256.3307.0256.4968.0132.2546-.0256.84-.1017,1.0185-.3183.229-.2802-.3307-1.4268-.611-1.9485-.0512-.1149-.2166-.1149-.2934-.0132-.3051.4456-.8276,1.4773-1.0442,1.8981-.0512.1141,0,.2546.1149.2927.1017.038.2034.0637.3183.0761Z"/>
      <path class="cls-1" d="M68.1382,70.5594c-.1149-.0893-.1785-.2166-.2166-.3439-.1398-.5349-.1273-1.2102.1405-1.7195.1273-.2546.3944-.3951.6746-.3439,1.0954.1654,4.2029.6241,4.6617.1529.2546-.2678.3059-.6878.0256-.9805-.9044-.9044-4.2417-1.3756-5.1073-2.4073-.4207-.5093-.3695-1.732-.1405-2.3305.2298-.5605.7134-.8795,1.2863-1.0705,1.9742-.649,4.6237-.5729,6.6103.0132.0132,0,.038,0,.0637.0124.3183.1017.4968.4076.4968.7515.0132,1.159-1.3881,1.3376-2.28,1.2359-.8532-.0893-1.3624-.5861-2.2156-.319-.1529.0512-.2678.1405-.3315.2934-.1529.5985.1405.7895.4207.9044,1.2351.5217,2.2156.7002,3.4639,1.1334.0637.0256.1273.0505.191.1017.6366.2802,1.0317,1.2988,1.2102,1.8724.1529.5729.2546,1.3881-.2298,1.8337-.611.5737-1.4005.892-2.2156,1.0061-.5481.0637-6.1515.4968-6.5086.2041Z"/>
      <path class="cls-1" d="M80.1756,61.593c.5224.0124,2.0246.1141,2.7381-.0256.3695-.0893,3.821-.2671,4.2029-.2802.2934-.038.4456.1017.4844.382.0124.1273.038.2678.0124.3951-.038.2546-.0893.5093-.1529.7383-.1398.4712-.3695.6241-.8532.5861-.2927-.0256-.5985-.0761-.8912-.0893-.6629-.0761-1.3251-.1654-1.9873-.229-.1398,0-.2802-.0124-.42-.0124-.3439,0-.5861.1778-.6754.5093-.0637.2034-.1141.4332-.1398.6498-.038.3307.229.7259.6746.6871.2546-.0249.5224-.0637.7646-.0761.5093-.0637,1.0317-.1017,1.541-.1398.038-.0132.0893-.0132.1398-.0132.2934.0256.382.1273.4076.4207.0132.229.0637.4712.0132.7002-.0388.2422-.1661.4076-.4968.4712-.1273.0256-.2927.0124-.4456.0124-.5985-.0637-1.1978-.1141-1.7963-.1654-.1398-.0124-.2802-.0256-.42,0-.3563.0124-.5224.191-.5985.5605-.0768.4076-.0256.7895.1529,1.1715.1778.4332.649.4463,1.0698.4844.5985.0637,1.1846-.0256,1.7956-.0768.4844-.0124.9556-.2034,1.4393-.3051.2041-.0388.5224-.1024.7259-.0388.1785.0768.2166.2802.2546.4463.0893.3051.0637.9037-.1273,1.1839-.3183.4968-1.0822.5985-1.6303.6754-1.1715.229-4.3808.4076-5.553.2802-.7383-.0893-1.1334-.5224-1.3881-1.2995-.1785-.7895-.1405-5.6927-.1149-6.5078.038-1.0193.382-1.0954,1.2739-1.0954Z"/>
      <path class="cls-1" d="M93.9317,61.3889c.7134.0256,1.4268.0637,2.1271.1273.7515.0512,1.3632.319,1.9485.8027.2678.2034.4332.4837.5605.7895.0768.191.1149.382.1273.5861.0256.4332.0132.8663-.1017,1.2863-.0256.1529-.1017.2802-.1785.4076-.4076.6241-.9805,1.0698-1.5666,1.5029-.1398.1017-.2927.191-.3059.3944,0,.0637,0,.1405.0132.2041.0893.3563.3695.7771.7002.9549.2298.1149.4968.1273.739.1405.3944.0256.7895.038,1.1846.0637.2927.0124.5093.2166.611.4968.0512.1529.1017.3183.1273.4712.038.2415-.1785.5854-.42.6746-.1785.0637-.3571.1149-.5481.1405-.3307.0505-.6622.1017-1.0061.0893-.611-.0132-1.1846-.1661-1.6939-.4968-.2927-.191-.5473-.4076-.7639-.6754-.2934-.382-.5605-.7895-.7771-1.2227-.1149-.229-.2927-.4456-.4968-.5854-.191-.128-.5729-.319-.802-.2041-.1024.0637-.1661.1785-.1917.2927-.0505.2554-.0761.3951-.038.6498.0637.5481.1785,1.1334.0637,1.6683-.038.191-.1398.3571-.3307.4332-.51.2166-2.9422.4076-3.3242-.1398-.1405-.2041-.1405-.4712-.1529-.7134-.0256-.2802-.0256-.4844.038-.7515.191-.7134.2927-1.3244.4332-2.0378.1141-.6117.2422-1.2351.2927-1.8593.0512-.6373.0256-1.2483-.0505-1.8724-.0512-.3563-.0512-.7134.0124-1.0829.038-.2415.1785-.4076.42-.4581.1785-.038,1.8981-.0893,2.0766-.0893.2927,0,.5854,0,.8788.0124h.3944ZM93.5498,64.1525c.0124.1529.0256.4844.0256.4844,0,.1785,0,.3563.0124.5349.0132.1529.038.3183.0768.4712.038.1529.1273.2546.2927.2546.229.0256.4456.038.6622-.0256.5093-.1529,1.0193-.3051,1.4137-.6746.0637-.0512.1405-.0893.2041-.1405.2034-.191.4076-.4456.4581-.7383.0768-.3695-.2166-.8283-.4961-1.0698-.6117-.51-1.5542-.4207-2.2544-.1661-.0893.0256-.1529.0893-.191.1785-.1149.2927-.2166.5729-.2041.8912Z"/>
      <path class="cls-1" d="M111.1021,67.9867v.1654c0,.3439-.0637.7639-.0637,1.3632-.0768.611-.2422.7639-.8539.8912-.3183.0637-.8788-.038-1.0061-.3951-.038-.1141-.0505-.2415-.0761-.3688-.0893-.3951-.1661-.3059-.4207-.1661-.3944.2298-.6746.5605-1.0822.7515-.6878.3183-3.3754.3183-4.1012.191-.9168-.1654-1.7195-.9929-2.1395-1.8212-.3315-.649-.5349-1.3881-.6117-2.1139-.0761-.6878-.1141-1.4773.0768-2.1395.2415-.8283.7383-1.3632,1.4773-1.86.4837-.3307,1.0317-.5985,1.579-.8151.5861-.2546,3.0827-.3439,3.7317-.3183.4207.0132.8407.038,1.2483.1654.3695.1149.7259.319,1.0193.5737.2546.2415.5217.4456.6234.7895.1785.5729-.2927,1.9866-1.0822,1.3624-.3439-.2671-.5985-.6366-.9424-.9044-.7002-.5217-1.7832-.5349-2.5471-.1778-.7515.3563-1.2483,1.0698-1.4137,1.8724-.1529.7383-.1661,1.6171.2415,2.2668.4332.6746,1.2359.9805,2.0122.9681.6373,0,1.9237-.382,1.8724-1.2102-.0256-.3307-.2422-.2422-.42-.191-.4207.1017-1.0829.3951-1.3888-.0512-.0885-.1141-.1522-.2415-.191-.3688-.0761-.2546-.0885-.5349-.0249-.8027.038-.1785.1778-.2927.3688-.3315.1529-.0249,1.9617.2041,2.9166.0512.1661-.0256.3439-.0637.51-.0256.5729.1405.5985.93.649,1.3888.0256.3183.0388.9293.0388,1.2607Z"/>
      <path class="cls-1" d="M118.5531,68.1521c-.2166-.0124-.4332-.0256-.649-.0512-.2041-.0249-.3951-.1017-.5737.0637-.1654.1405-.2671.4844-.3439.6754-.1778.4588-.3183.9805-.5985,1.3881-.3944.5737-3.0951.6498-3.63.2422-.191-.1398-.229-.2166-.1398-.4456.1529-.3951.3183-.8027.5093-1.1846.4456-.8407.9937-1.7576,1.5285-2.5471.3563-.51,1.4649-2.5471,1.7451-3.1076.1273-.2678.2415-.5481.3944-.8151.2546-.4712.6878-.8407,1.1722-1.0829.3183-.1654,2.1395-.1017,2.4454.0512.0761.0505.1398.1273.2034.2034.1273.1654.2041.382.2802.5861.3439,1.0442.5349,2.1651.9044,3.2093.1785.4968.3563.9812.5473,1.4524.4207,1.0185,1.159,1.961,1.5285,3.0183.191.5224-1.2863.6366-1.541.6241-.191,0-.3439-.0768-.4588-.2422-.3944-.5349-.6878-1.1078-.8912-1.732,0-.0132-.0132-.0512-.0256-.0637-.1785-.4076-.2034-.3951-.6366-.3571-.5224.0512-1.0829.1149-1.6303.1149h-.1405ZM118.7572,66.5979c.1654.0256.3307.0256.4968.0132.2546-.0256.84-.1017,1.0185-.3183.229-.2802-.3307-1.4268-.611-1.9485-.0512-.1149-.2166-.1149-.2934-.0132-.3051.4456-.8276,1.4773-1.0442,1.8981-.0512.1141,0,.2546.1149.2927.1017.038.2034.0637.3183.0761Z"/>
    </g>
  </g>
  <path class="cls-1" d="M31.7457,28.2302c-.2847-1.0494.5191-2.3786-1.4765-2.1611-1.4856.1619-.4994.8774-.5157,1.4289-.0101.3433-.3693.5606-.4188.8047-.4424,2.1829-1.3557,4.0089-.7982,6.1984l-5.7227,29.422,1.6729-35.1138.0333-.7545c-.0025.7159,1.1974,4.4564,2.2968,3.7651,1.0098-.6348-.4052-4.604-.9879-5.3644-.0518-.0676-.8316-.7979-1.4097-.9751-.3021-.0927-.2904-.3905-.505-.581-.2147-.1904-.6316-.072-.8043.0714-.5764.479-.2246,2.0916-.3016,2.8384-.087.8445-.4998,2.2675-.4544,3.0134.0362.5954.4334.9084.4684,1.5032.3254,5.5172-.1119,11.5149-.3175,17.0425-.2257,6.0675-.0961,13.8833-1.374,19.7361-.1835.8404-.1502.4701-1.1068.5355-.8084.0552-1.7742.398-2.5734.3272-.258-.0228-1.9622-.8364-2.0185-.9322-.1133-.1929.5405-3.8066.59-4.4356.3549-4.5151.5191-9.0522.9102-13.5647.7941-9.163,2.607-19.354,1.964-28.5047-.0543-.7726-.3635-4.8137-2.1025-3.2961-.5065.442-1.2823,3.3644-1.4141,3.8628-2.6435,10.0036-2.5452,25.9502-2.818,36.5356-.0637,2.4738-.4416,4.9574-.1884,7.4295.0421.4114.0827,1.1756.0827,1.1756,0,0-.4207-.0283-.7071.0897-1.0477.4316-2.2362,2.0356-2.5827,1.9298-.413-.1263-.1941-3.4939-.2242-4.1523-.658-14.3674-.7603-32.0102-3.1926-45.9614-.1335-.7659-1.0072-4.8015-2.2912-4.771-.2935.007-.5304.0877-.941.7462-.769,1.2333-.5982,9.0598-.5241,10.9462.4191,10.6543,1.8524,22.6425,3.0243,33.3137.2938,2.6751.6506,5.7597,1.2352,8.3886-.1619.0307-.3032.0976-.4522.1644-.5167.2316-.8196.4526-1.286.3393-.5211-.1265-1.0858-.4447-1.6819-.6492-.7409-.2541-1.5305-.3329-2.346.3494-.9409.7872-.332.9859.2728.5257.3546-.2698.9494-.4331,1.318-.4199.7856.0279,1.4972.8907,2.4126.8771.7296-.0107,1.3113-.6578,2.0693-.5747,1.2654.1386,1.444,1.8551,2.7572,1.7984,1.3152-.0568,1.4065-2.0577,3.4605-1.9737,1.8604.0761,3.4257,1.6327,4.5703,1.7747.8901.1104,1.8772-.417,2.8005-.4067.9512.0105,4.4474,1.3978,4.7118,1.052.7354-.9616-2.305-1.5231-2.3602-1.7617,1.7572-8.8284,3.7103-18.6355,5.475-27.4611.5666-2.8338.8442-5.3836,1.5414-8.037.2273-.8651.7444-1.6201,1.1369-2.4036.8073,4.6776,2.9669,3.7922,2.2244-.6396-.197-1.1757-.8645-2.1068-1.1314-3.0906ZM26.43,30.9031s-.3585-.5511-.6052-1.5994-.2961-1.716-.2961-1.716c.5813.9271.8564,2.2244.9013,3.3154ZM23.2667,28.7936c.51.0823.1929,1.0795.3073,1.5749.114.4935.3937.7324.293.8362-.4632.4772-1.1554-2.4507-.6002-2.411ZM17.4616,22.4578c.3665.3222.6036,2.8158.2614,2.7977-.3422-.0182-.401-1.8796-.493-1.8894-.092-.0097-.3967.8452-.526.9003-.7186.2081-.2341-2.6803.7576-1.8085ZM3.3123,18.562c1.0549-.2893,1.4776,3.2497,1.2487,3.2953-.2289.0455-.9731-2.2832-.9731-2.2832-.2496-.5936-.0481,1.568-.6088,1.5258-.5272-.0397-.4432-2.325.3332-2.5379ZM6.9276,66.3002c-.8432-5.9471-1.5865-12.7234-2.1451-18.0743-.4868-4.6639-1.6928-13.7779-1.938-17.231-.0782-1.1017.3286-.7052.3626-.5432.1407.6698,4.0686,36.0346,4.0686,36.0346.0587.4129-.2768.3166-.3481-.1862ZM13.4822,57.9159c-.0222.355-.205.2332-.1831-.5381.1635-5.7616.5474-11.9589.969-17.9282.0616-.8718.2443-3.2393.3403-4.0312.0296-.2442.3699-.3181.3602.0097l-1.4863,22.4878ZM29.1579,33.2438c-.4259-.3189.2599-2.178.7101-1.7383l-.7101,1.7383ZM31.2598,30.1502c.8593,1.0505.8861,2.8825.9014,4.2215-.9813-1.1064-.9172-2.8441-.9014-4.2215Z"/>
  <path class="cls-1" d="M50.0063,19.3456c-.3365.2857-1.4179,1.4944-1.8017.6942-.4025-.8391,1.9317-2.1555,2.0359-3.068.1409-1.2344-.6054.1451-1.1283.2637-1.0306.2338-.8128-.6049-.3804-1.1927.3108-.4224,1.4536-1.2538,1.5962-1.5332.0978-.1916.3468-2.9217.2566-3.0455-.082-.1127-2.1628,1.2333-2.5224,1.1855-.2489.5454-.7973,2.5962-1.3055,2.8181-1.2589.5497-.1334-1.9451-.2277-2.0321-.0581-.0536-1.0537.4317-1.1543.5252-.4272.3969-.8447,2.9087-1.4699,3.0533-.1791.0414-.3199-.014-.4179-.1504-.3792-.5276.4248-1.979.2598-2.1537-.1216-.1287-1.9892,1.0116-2.1928.3915-.2104-.6406,1.1493-1.0505,1.4976-1.3777-.4291-.192-1.5689-.4026-1.5118-1.0363.1007-1.1184,2.7799.2688,3.3975.1438.1078-.0218.971-.3686.7808-.5547-.1812-.1773-1.5209-.0591-1.3946-.9791.1494-1.0887,2.6517.2789,3.1932.2711.4869-.0071,2.1475-.9393,2.6962-1.2147-.0981-.0981-2.1287-1.5048-2.2611-1.5326-.4183-.0876-2.1461.4611-2.7612.4466-.4602-.0109-.7965-.5372-.396-.8709.4408-.3673,1.6648-.3534,1.7341-.4106.1995-.1645-.7855-.7076-.8991-.7886l-3.1007.3367c-.2873.0247-.6067-.0943-.6296-.4142-.0585-.8182,2.2003-.7974,2.1937-1.0457-.0055-.2081-2.0466-1.2377-1.3353-1.8085.4119-.3306,1.6239.7804,1.6841.7074.1741-.2109-.739-1.7142.223-1.9183.9153-.1942.9912,2.5488,1.4062,3.0141.0522.0586.9972.6893,1.0367.6428.0608-.0716-.5648-1.4571-.0014-1.8002.9691-.5903,1.2851,2.3183,1.385,2.7938l2.4536,1.6876c.0382-.8576.0768-2.0126-.0348-2.8313-.0557-.4091-2.6166-2.1874-1.6006-2.8074.3721-.2271.7663.2204,1.0299.4693.119.1123.6682.8132.8254.6334.0359-.0411.1004-1.0339.0901-1.0874-.0226-.1172-1.2535-1.5431-1.4601-1.888-.23-.384-.5806-.8901-.0173-1.1424.5185-.2322,1.2108.9613,1.6185,1.2207.0619-2.4812,1.247-2.7416,1.0454,0,.4715-.3125,1.2144-1.373,1.8546-.9862.1108.067.2154.3098.2036.4459-.0667.7707-2.1337,2.0514-2.178,2.2438-.0814.353-.109.9369-.112,1.426.3287-.3228,1.963-1.8302,1.9784-.6398.0092.7084-1.6949,1.8214-2.0725,2.4593l-.1377,2.5849c.6186-.2357,2.1633-.7961,2.6133-1.2684.3222-.3382.754-3.2702,1.72-2.5483.5994.4479-.2338,1.779-.1617,1.8452.0552.0507,1.0689-.4355,1.1564-.5231.3785-.3786.705-2.7272,1.457-2.8404,1.2996-.1956.1936,1.8919.2842,1.9726.0955.085,1.6018-.9386,1.745-.0531.1341.8295-1.1854,1.079-1.7028,1.403.4719.1535,2.8159.8269,1.6966,1.3745-.8659.4237-2.7114-.7854-3.2491-.7066-.1541.0226-1.2555.5179-1.1552.6477.1101.1426,2.1055.298,1.954,1.0869-.2066,1.0752-2.9868-.3869-3.5214-.3789-.1837.0028-2.6165.9111-2.6141,1.0365.0028.146,2.6159,1.6911,2.7598,1.7165.5668.0998,2.3235-.5251,2.814-.2743.1391.0711.2761.3596.2914.5106.074.7318-1.5696.6208-1.5657.8824.001.0704.6818.553.8068.5898.5696.1673,2.3059-.4531,3.0538-.3041.3737.0745.2812.4744.2577.5935-.1144.5816-1.3069.6547-1.8026.6867.3272.5522,1.2032.572,1.1704,1.3313-.0534,1.234-1.9012-.4992-1.9807-.405-.0786.0931.5354,1.3838.0647,1.9775-.4415.5568-.726-.2271-.8813-.6405-.2153-.5732-.3496-1.9703-.5669-2.3307-.0753-.1249-1.093-.8231-1.167-.7443-.0729.0777.6465,1.6982,0,2.0334-.3301.1712-.6496-.2448-.7563-.5249-.1652-.4337-.3675-2.3197-.5121-2.496-.1254-.1529-1.6451-1.1943-1.9351-1.3905-.1231-.0833-.3198-.2047-.4776-.3241-.0512.8954-.1819,2.1661-.121,3.0836.0238.3585,2.3232,2.1937,1.4867,2.8128-.4568.3381-1.5899-1.1629-1.7415-.9921-.0403.0454-.0258,1.0699.0018,1.2141.1263.6617,2.4056,2.2051,1.5518,2.8322-.6825.5013-1.2524-.8927-1.7848-1.1492.0225.415-.0016,1.9395-.3465,2.1464-.2528.1517-.8137-.0261-.8137-.234v-1.7965Z"/>
</svg>