<?xml version="1.0" encoding="UTF-8"?>
<svg id="Ebene_1" data-name="Ebene 1" xmlns="http://www.w3.org/2000/svg" viewBox="0 0 252.6888 282.3765">
  <defs>
    <style>
      .cls-1 {
        fill: #a57c50;
      }
    </style>
  </defs>
  <g>
    <path class="cls-1" d="M63.5721,262.5241c.9523.0924,1.9292.1853,2.8839.2286.3096.0531.6184.0854.9281.1385.8075.2085,1.4145.8401,1.853,1.5432,1.1103,1.766.6933,3.3809-.3177,4.9834-.2469.3522-.6352.6548-.8817,1.0537-.1991.3558.0542.8143.2819,1.3188.3731.4869.7657,1.0907,1.0403,1.6454.3194.7007.3444,1.7992.2572,2.5613-.349,1.8313-1.7361,3.0893-3.5069,3.3165-.8135.0788-1.5984-.0334-2.4098-.0503-.7157-.015-1.4565-.0071-2.1707-.0945-.811-.0402-1.6235-.008-2.4364.0449-.5725.0113-3.9854-.0599-4.5579-.046-.2153.0188-.4297-.009-.6435-.0626-1.3548-.2898-.9167-1.8577-.7526-2.8332.2745-1.737.0106-3.9152-.0261-5.6328-.0254-1.0752-.0496-2.1504.0919-3.2221.1152-.9272.0177-2.0272-.1535-2.9398-.1238-.9555.7333-1.9424,1.7124-2.0177,1.9864-.1967,6.805-.0469,8.8083.0649ZM59.6162,267.9339c-.0075.3572-.039.6906-.0219,1.0483.0163.3344.1339.4094.4693.3439.0963-.0213.1679-.0431.2642-.0644.5758-.1071,1.1499-.1909,1.746-.1552.812-.0063,1.6234.0106,2.4359-.0216.5956.0616,1.2907-.1155,1.754-.5357.5632-.6796.5867-1.803-.2139-2.3428-.4009-.2725-.9482-.3539-1.4708-.4373-1.3818-.1713-2.7663-.1536-4.1301-.0138-.1196.0208-.2158.0421-.3354.0629-.5029.0853-.4194.6127-.4268.9699-.008.3831-.0871.7621-.0705,1.1457ZM66.7739,273.8115c-.0221-.1196-.0662-.2396-.1367-.3369-.4167-.6302-1.3458-.7195-2.0354-.8064-1.4773-.1267-2.9742-.492-4.3444-.0416-.2401.0882-.4821.2049-.6061.4405-.0737.1176-.125.2822-.1285.4505-.011.5255.0259,1.0519.0862,1.5762.0231.073.0444.1692.0913.2168.0943.0745.2128.1003.3086.1023,1.6196.1296,3.2426.1636,4.8439.0546.5037-.062,1.0293-.1235,1.3943-.424.3637-.3031.6136-.8003.5268-1.232Z"/>
    <path class="cls-1" d="M82.5626,275.4775c-.4059-.0318-.8105-.0635-1.2159-.1186-.3808-.0572-.735-.207-1.0754.0967-.3161.2549-.5211.8955-.6709,1.2497-.3519.8524-.635,1.8253-1.1764,2.5779-.7614,1.0588-5.8235,1.0954-6.8105.3109-.3517-.2689-.4199-.4127-.244-.8389.3015-.7343.628-1.4914,1.0002-2.2009.8676-1.5563,1.9299-3.2536,2.9637-4.7106.6878-.9412,2.8434-4.7157,3.3908-5.7557.2486-.4946.4744-1.0156.7709-1.5117.496-.8727,1.3219-1.5468,2.2373-1.9809.6031-.2981,4.0135-.1078,4.5796.1889.1417.0988.2577.2462.3738.3911.2329.3156.3669.7224.5025,1.1085.6036,1.9703.917,4.077,1.5685,6.0483.3144.9388.6294,1.8517.9695,2.7419.747,1.9267,2.0949,3.7209,2.7446,5.7155.3381.9859-2.4348,1.1429-2.9118,1.1097-.3572-.0075-.6402-.1584-.8485-.4735-.7194-1.0172-1.2457-2.1028-1.6031-3.2782.0005-.0259-.0213-.0963-.0454-.1201-.318-.7706-.3663-.7483-1.1793-.6953-.9804.0753-2.0325.1725-3.0588.151l-.2614-.0055ZM83.0038,272.5761c.3096.0531.6202.0596.9313.0428.4772-.0366,1.5778-.1587,1.9214-.5555.4394-.5165-.5654-2.6868-1.0691-3.6762-.0913-.2168-.4019-.2233-.5483-.0348-.5907.8215-1.6096,2.7346-2.0311,3.513-.1003.2128-.01.4789.2034.5532.1887.0765.3793.1296.5923.1574Z"/>
    <path class="cls-1" d="M95.2978,280.2572c-.2113-.1727-.3254-.4134-.3916-.653-.2418-1.0072-.1921-2.2725.3288-3.2171.2494-.4713.7557-.7222,1.2792-.6181,2.0448.3535,7.8495,1.3345,8.7273.4698.4868-.4922.599-1.2771.085-1.8368-1.6588-1.7282-7.8914-2.7415-9.4739-4.7089-.7669-.9716-.6246-3.2603-.1715-4.3722.4516-1.0419,1.3713-1.6183,2.4517-1.9557,3.7243-1.1393,8.6845-.8907,12.3851.2846.0233.0005.0712.0015.1186.0258.5926.204.9146.783.9011,1.4275-.0221,2.1722-2.6537,2.4513-4.3205,2.2248-1.5949-.199-2.5293-1.1508-4.1394-.6821-.288.0872-.5063.251-.6314.5358-.3094,1.1148.2318,1.4835.7515,1.7093,2.2949,1.0268,4.1257,1.3991,6.4461,2.2607.1194.0491.2375.0982.3545.1964,1.1823.5504,1.8814,2.4761,2.1928,3.5572.2649,1.0776.4233,2.6088-.5001,3.4259-1.1678,1.0503-2.6608,1.6147-4.1925,1.7976-1.0275.0977-11.5444.6911-12.2008.1284Z"/>
    <path class="cls-1" d="M118.1914,263.9292c.9779.0437,3.7901.2941,5.1313.058.6959-.1512,7.1687-.35,7.8862-.3583.5503-.061.8308.2064.891.7333.0196.2386.0607.5036.0091.7408-.0824.4748-.1869.9516-.3162,1.3788-.2812.8772-.7155,1.1529-1.6213,1.0641-.5477-.0606-1.1191-.1684-1.6673-.2032-1.2369-.1683-2.4745-.3624-3.7132-.5074-.2627-.0055-.5237-.0342-.7864-.0397-.6445-.0135-1.1045.311-1.2844.9287-.1283.378-.2318.8057-.2881,1.2111-.0855.6197.4013,1.3679,1.2375,1.3154.4786-.0392.9809-.0986,1.4344-.115.9576-.0991,1.9375-.1486,2.8928-.2011.0717-.0218.1674-.0198.2632-.0178.5478.0581.7107.2531.7471.8028.0143.4302.1006.8851-.0041,1.3128-.0806.4515-.3253.7571-.949.8632-.2392.0442-.5492.0118-.8353.0059-1.1196-.1425-2.2384-.2617-3.3585-.3809-.2622-.0288-.5232-.0575-.7869-.0164-.6684.0119-.9859.3394-1.144,1.0275-.1583.7606-.0788,1.4796.2402,2.201.3182.8198,1.2004.8615,1.9858.9504,1.1196.1425,2.2206-.0028,3.368-.0747.9077-.0043,1.7978-.3431,2.7078-.5157.3833-.0645.9824-.1711,1.3617-.0441.3309.1519.3954.5339.4601.846.155.5755.0837,1.6953-.2845,2.2133-.6161.9194-2.0528,1.081-3.0808,1.2019-2.2053.3838-8.2251.5921-10.4151.3081-1.38-.1971-2.1034-1.0228-2.5505-2.49-.303-1.485-.0399-10.6698.0398-12.196.1124-1.9087.7586-2.0377,2.4294-2.0028Z"/>
    <path class="cls-1" d="M143.9632,264.0843c1.3359.0771,2.6701.1749,3.9799.3214,1.4061.1252,2.541.6513,3.6196,1.5801.4942.3936.7925.9255,1.02,1.5025.1349.3602.1999.7189.2152,1.1025.031.8112-.0106,1.6234-.2419,2.4058-.0526.2863-.2012.5215-.3499.7566-.788,1.154-1.8783,1.9651-2.9941,2.7549-.2654.1861-.5562.3457-.5875.7283-.0025.1191-.0055.2614.0153.381.1543.6713.662,1.4692,1.275,1.816.4252.2238.9268.2602,1.3793.2929.738.062,1.4778.1034,2.2171.1654.5483.0348.9453.4263,1.1259.9558.0885.2867.1778.5993.2197.8876.0617.4545-.3568,1.0905-.8133,1.2467-.3377.1121-.6736.2009-1.0318.2426-.6232.0802-1.2451.163-1.8891.1263-1.1449-.0472-2.2131-.357-3.154-.9955-.5412-.3713-1.0104-.785-1.405-1.2956-.5338-.7285-1.02-1.5025-1.4081-2.3212-.2059-.4342-.5313-.8475-.9076-1.1169-.3535-.2456-1.0617-.6204-1.4959-.4145-.1928.1177-.3163.33-.3687.5413-.1058.4769-.1591.7373-.0979,1.2176.0989,1.0275.2909,2.1295.0551,3.1267-.08.3583-.2767.6623-.6382.7998-.9623.3839-5.528.6484-6.2222-.3941-.2548-.386-.2443-.8881-.2581-1.3416-.0369-.5265-.029-.9069.1006-1.4066.3864-1.3281.6006-2.4708.8912-3.801.2387-1.1396.5013-2.3046.6215-3.4726.1207-1.1913.0967-2.3363-.0225-3.5093-.0805-.6698-.0666-1.3376.067-2.0288.0806-.4515.3499-.7566.8048-.8403.3354-.0655,3.5587-.094,3.8939-.087.5487.0115,1.0975.0229,1.6458.0577l.739.0154ZM143.1393,269.2488c.0186.2852.029.9069.029.9069-.007.3339-.014.6678.0024,1.0022.0186.2878.06.5994.1252.8857.0652.2888.2294.4839.5387.4903.4287.0556.8333.0873,1.2422-.0233.9598-.2648,1.9209-.5322,2.6743-1.2078.1224-.0933.2662-.1628.3886-.256.388-.3493.781-.8175.8869-1.3643.1581-.6907-.3726-1.5615-.8886-2.0255-1.1254-.9791-2.8942-.8477-4.2165-.3988-.168.0457-.2895.1623-.3655.3264-.2263.5443-.4275,1.0657-.4167,1.6641Z"/>
    <path class="cls-1" d="M175.8649,277.1185l-.0064.308c-.0135.6445-.149,1.4315-.1724,2.5523-.1663,1.1411-.4829,1.4219-1.6332,1.6361-.5991.1066-1.6448-.1043-1.8702-.7797-.0667-.2163-.085-.4549-.1279-.6941-.1515-.7438-.2987-.5785-.7817-.3271-.748.4142-1.2864,1.0245-2.0574,1.3657-1.3015.571-6.336.4658-7.6912.1967-1.711-.3439-3.1824-1.9284-3.9369-3.4953-.5958-1.2295-.9487-2.6223-1.0626-3.9842-.1167-1.292-.157-2.7741.2261-4.0065.4867-1.541,1.4381-2.5233,2.8411-3.4262.9202-.6023,1.9557-1.0804,2.9905-1.4654,1.1074-.4533,5.7882-.5239,7.0051-.4493.7864.0397,1.5723.1028,2.3309.3568.6879.2293,1.3477.6263,1.8865,1.1141.4681.463.961.8565,1.139,1.505.3115,1.0812-.6265,3.7107-2.0813,2.5098-.6341-.513-1.0972-1.2167-1.7312-1.7297-1.2919-1.0058-3.3194-1.0715-4.7648-.4336-1.4221.6384-2.3805,1.9546-2.7225,3.452-.3149,1.3788-.3726,3.0246.3655,4.2571.7838,1.2801,2.2757,1.8861,3.7322,1.8907,1.192.0249,3.618-.6391,3.5546-2.1916-.0349-.6222-.4435-.465-.7807-.3763-.7909.1751-2.0435.6979-2.5981-.1501-.1625-.2157-.2766-.4589-.3441-.6986-.1324-.4792-.146-1.0052-.0165-1.5049.0795-.3324.3467-.5417.7053-.6042.287-.0432,3.6663.4573,5.4622.2099.3116-.0427.6471-.1082.9562-.0292,1.0674.2864,1.0844,1.7654,1.1622,2.6268.0354.5963.0348,1.7435.0218,2.3647Z"/>
    <path class="cls-1" d="M189.8113,277.718c-.4046-.0318-.8092-.0635-1.2146-.1186-.3808-.0572-.735-.207-1.0767.0966-.3148.255-.5198.8955-.6696,1.2497-.3519.8524-.635,1.8253-1.1764,2.5779-.7614,1.0588-5.8235,1.0954-6.8105.3109-.3517-.2689-.4199-.4127-.244-.8389.3015-.7343.628-1.4914,1.0002-2.2009.8676-1.5563,1.9299-3.2536,2.9637-4.7106.6878-.9412,2.8434-4.7157,3.3908-5.7557.2486-.4946.4744-1.0156.7709-1.5117.496-.8727,1.3219-1.5468,2.2373-1.9809.6031-.2981,4.0135-.1078,4.5796.1889.1417.0988.2577.2462.3738.3911.2329.3156.3669.7224.5025,1.1085.6036,1.9703.917,4.077,1.5685,6.0483.3144.9388.6294,1.8517.9695,2.7419.747,1.9267,2.0949,3.7209,2.7446,5.7155.3381.9859-2.4348,1.1429-2.9118,1.1097-.3572-.0075-.6402-.1584-.8485-.4735-.7194-1.0172-1.2457-2.1028-1.6031-3.2782.0005-.0259-.0213-.0963-.0454-.1201-.318-.7706-.3663-.7483-1.1793-.6953-.9804.0753-2.0325.1725-3.0588.151l-.2627-.0055ZM190.2552,274.8166c.3083.0531.619.0595.9301.0427.4772-.0366,1.5778-.1587,1.9214-.5555.4394-.5165-.5654-2.6868-1.0691-3.6762-.0913-.2168-.4019-.2233-.5496-.0348-.5895.8215-1.6083,2.7346-2.0298,3.5131-.1003.2128-.01.4789.2034.5532.1887.0765.3793.1296.5936.1574Z"/>
  </g>
  <g>
    <path class="cls-1" d="M135.7815,3.6326c-.2068,2.3425-2.0675,4.8928-3.1705,6.8911-1.8598,3.2378-3.9273,6.2016-6.2016,9.2336-3.7898,5.1678-7.9239,10.1981-11.7829,15.4342-1.8608,2.5503-3.7206,5.2371-5.3746,7.9941-.4827.6885-1.0338,1.653-1.5848,2.5493-1.2405,2.4118-2.6185,5.8573-.6203,6.8218,2.4118.9645,5.6506-.4827,7.4421-2.0675.9645-.8953,1.7915-1.8608,2.6185-2.9628.9645-1.2405,2.756.6203,1.7223,1.7915-.4818.7578-2.8253,3.4455-2.9628,3.583-2.9628,3.032-8.6826,7.5796-12.9542,4.2725-2.3435-1.8608-2.8945-4.8236-2.0675-7.6488.7578-2.756,4.9611-9.7164,9.7846-15.9862.8962-1.1713-.4135-1.93-1.5848-1.9983-.8962-.0692-1.8608.0683-2.6185.1375-4.6168.4135-7.9239,2.3425-11.3011,5.0996-2.6185,2.6868-5.3746,5.3746-7.9931,8.0614-1.9983,1.9983-4.0648,4.0658-6.2016,5.9266-.0683,0-4.8236,4.6168-8.9576,6.4766-2.0675.9655-3.7898,1.0338-6.3391.9655-1.2405,0-5.0996-1.1713-5.0996-3.7215-.0692-.275,0-.8953.1375-1.102.4827-.9645,1.4473-1.93,2.9638-1.8608,2.756.0692,3.1695,3.3763,6.4766,2.3425,3.6523-1.2395,10.1299-7.0969,10.8876-7.7171.3443-.3443.6885-.6895,1.0338-.9645.2068-.2068.3443-.3452.6203-.4827,3.032-2.9628,5.9948-5.9256,8.8884-9.0269.4135-.6203.6895-1.2405.4135-1.378-.4135-.3443-2.2733.2068-2.756.4135-.1375,0-.276.0692-.4135.0692-1.5155.551-2.8253,1.2395-4.2033,1.9983-.9645.4135-1.5848,1.1713-2.8253,1.2395-1.4473,0-2.205-.7578-2.5493-2.0665-.0692-.276,0-.4827.1375-.6203.827-2.3425,9.0269-4.3418,9.9231-4.5485.827-.275,1.7223-.4125,2.48-.551,1.7915-.6885,3.6523-.7578,5.4438-1.8598,1.7915-1.0338,3.308-2.5503,4.8236-3.9975,3.6523-3.9966,7.2353-7.9239,11.0944-11.7137,4.2033-4.1341,8.9576-9.7164,14.6082-11.9214,2.8253-1.0328,8.4759-1.653,8.0623,2.8945ZM126.4786,6.9397c-.827-.0683-1.7915.0692-2.5493.4827-1.2405.6895-2.3435,1.5848-3.4455,2.5493-1.0338.9655-2.0675,2.0675-3.032,3.1013-.551.551-1.0338,1.0338-1.5155,1.5155-.4827.6203-1.103,1.2405-1.5848,1.7915-2.757,3.1013-5.6506,6.0641-8.4076,9.1653-1.1713,1.3088-1.653,2.6185.8962,2.8936,1.3088.1385,2.756.0692,3.9966-.0683.9645-.0692,1.7223-.1385,2.481-.3452,1.5155-.7578,2.8253-1.929,4.0648-3.2388,1.2405-1.653,2.6185-3.4446,3.9966-5.2361,1.2405-1.654,2.6185-3.308,3.9283-5.0303.4818-.6895.8953-1.4473,1.3088-2.1368.827-1.3088,2.757-4.7543-.1375-5.4438Z"/>
    <path class="cls-1" d="M161.6899,49.5247c-.552.6895-1.3098,1.5155-2.2743,2.481-1.9983,2.2733-4.4101,4.6168-7.1661,5.7188l-.276.1375c-1.3088.4827-2.481.552-3.4455.1385h-.0683s-.0692,0-.0692-.0692c-2.0675-.827-2.3425-3.2388-1.654-5.2371.276-1.102.827-2.0665,1.5165-3.1695.6193-.9645,2.2733-3.7206,2.3425-4.2725.0692-.3443,0-1.378-.9645-1.5155-2.9638-.6203-5.5813,2.6868-6.9603,4.5476-1.2395,1.4473-2.5493,5.8573-2.6868,6.4083-.551,2.205-1.9983,3.859-3.9283,3.6523-1.929-.276-2.205-1.8608-1.929-3.3071.276-1.5165,1.2405-3.032,2.0675-4.2725.8953-1.654,1.9983-3.4455,2.2733-3.9966.2068-.4135.6203-.9645.7587-1.5165.3443-1.653-1.4473-2.1358-3.032-1.3088-1.4473.6203-2.5503,2.0675-3.583,3.1695-1.7233,2.0675-5.7891,7.6488-6.0641,8.1999-.8962,1.3098-1.9983,2.6878-3.7215,2.9628-1.2395.2068-2.2733-.4135-2.3425-2.2733,0-1.2405,3.2388-4.6168,4.5476-6.4776.827-1.1713,3.584-4.8236.827-5.5813-1.5848-.4827-3.4455,1.378-4.7543,2.8253-1.0338,1.3088-2.1358,2.48-3.032,3.583-1.1713,1.102-2.8253-.6203-1.7915-1.8608.8962-1.1713,3.6523-4.4793,5.0303-5.8573,1.5848-1.4463,3.5138-2.9628,5.2371-3.3763,1.5155-.4818,2.8936,0,3.7898,1.93.1375.1375.1375.275.2068.4818.4818.6203.6885,1.2405,1.5848,1.1713,1.3088,0,2.6878-1.4463,4.0658-2.6868,1.9983-1.654,4.2033-2.756,6.3391-2.481,1.5165.1375,2.3425,3.3763,3.308,3.3763,1.0328,0,1.8598-.8953,1.9983-.9645,1.8598-1.378,3.7898-2.4118,6.0631-2.205,2.0675.1375,3.032,2.4118,2.6185,4.2725-.1375.827-.3443,1.5155-.9645,2.3425-1.0338,1.5165-2.1358,2.8945-3.1003,4.4101-.7587,1.2405-2.0675,3.9273-.0692,4.4101.4827.0692,1.0338,0,1.5848-.2068.4135-.2068.7578-.4135,1.103-.6885.7578-.552,1.4463-1.103,2.0665-1.654,1.0338-.9645,1.8608-1.9983,2.756-3.1013,1.0338-1.2405,2.8253.6203,1.7925,1.8608Z"/>
    <path class="cls-1" d="M191.8707,49.5247c-.4135.4827-17.4335,16.6757-22.7398,25.0823-.6885,1.3088-1.5155,2.4118-1.8598,3.1003-1.103,2.0675-2.4118,3.032-4.7553,2.6185-1.0338-.2068-1.654-1.653-1.0338-2.5493.827-1.0338,2.1368-2.8945,3.6523-5.2371,4.3408-5.9256,6.7526-10.2674,9.5096-15.5035v-.0692c0-.4827-.276-.4827-.6203-.4135-.6203.3443-1.378.7578-1.9983,1.0338-1.9983,1.1713-4.9611,1.378-6.4083-.4827-2.2743-2.4118-.3452-6.1323,1.1713-8.4759.7578-1.2395,1.8608-2.3425,2.5493-3.583.3443-.551,1.103-1.7915.6203-2.4118-1.0338-1.2395-3.7206,1.5165-5.8573,3.859-1.1713,1.378-2.1358,2.6878-3.1003,3.6523-1.0338,1.1713-2.756-.4827-1.7233-1.8608.3452-.4135,2.0675-2.756,4.135-5.2371,2.2733-2.756,5.3746-5.7881,8.1306-5.4438,2.0675.276,2.6878,1.654,2.756,2.9638.1385,1.929-.9645,4.2033-1.7223,5.4438-.2068.4125-.4827.826-.827,1.2395-.6203,1.1713-1.1713,2.4118-1.4473,3.6523-.4818,1.929.2068,3.3763,2.2743,2.8945,2.756-.7587,5.9948-4.0658,7.0978-5.0303,1.8598-2.4118,3.5138-4.9611,5.2371-7.5113.6885-1.0338,1.3088-3.1003,2.6176-3.583.827-.551,1.8608.1375,2.2743.827.2068.276.3443.6203.3443.8962.552,1.5848-1.102,3.3071-2.5493,4.6851-.8953.8962-6.4776,8.4066-8.1999,11.0944-.7578,1.0338-1.8608,2.8936-3.1013,5.4438,0,.0683,0,.1375.0692.1375.2068.276.551.0692.827-.0692.0692-.0683.2068-.1375.3443-.275,4.8236-4.962,11.9214-11.9214,12.5416-12.6792,1.0338-1.378,2.8253.4827,1.7915,1.7915Z"/>
  </g>
  <g>
    <path class="cls-1" d="M238.4712,158.3351c-3.6964-1.6479-7.8575-2.0541-11.4639-3.542-1.0987-.4534-3.9681-2.4458-4.2859-3.5172-.2904-.9786.0471-2.6473-.0927-3.8088-.3361-2.7925-2.4037-3.7822-3.4168-.7849-6.9692-8.3886-14.5802-16.5109-22.5023-24.016-3.9912-3.7811-8.8778-8.4098-13.2199-11.6899-1.0038-.7583-2.1472-1.9428-3.4272-1.9748-5.2311-.1313-11.5379-.0744-16.687-.1197-40.6697-1.5933-81.3878-2.3923-122.1351-2.2489-7.2762.0256-14.5606.3933-21.8382.5055-2.2109.398-2.2307,2.1747-2.5765,4.0261-.6249,3.3451-1.0628,10.2654-1.0628,10.2654l-.6818,9.2802-.7014,9.0708h-6.4525c-.725,0-2.9133.526-4.0236,1.6786C-.0011,145.5131-.4523,158.3613.3082,163.6063c.3677,2.536,2.2187,9.891,4.9885,10.6175.8598.2256,1.7696.4524,2.6821.5197.4416.0325,2.3863.2367,2.3863.2367,0,0,.3469,4.4629.399,5.2881.0964,1.5254.1721,3.4511.3134,4.9812.2499,2.7058.339,8.3264,1.6722,10.6327,2.22,3.8407,9.0401,3.4063,12.7869,3.5524l11.0226.303,9.6329.367s-.1459,4.92,0,7.0528c.1459,2.1329,1.1199,4.5099,1.5712,5.6316,3.7026,9.2021,15.141,12.4299,24.0994,9.5349.805-.2602,3.68-1.8169,3.895-1.8179.3634-.0018,2.9987,2.4913,3.6478,2.9576,11.065,7.9475,26.483,2.7341,29.9656-10.4498.2-.7573.3421-3.3677.9365-3.5653.7544-.2508,2.5797.0237,3.56-.0414,20.448-1.3585,41.0148-1.0961,61.5387-2.0866.5876-.0283,2.6635-.038,3.0233-.0286.1697.0045.3646,2.5365.4887,3.0929,2.8493,12.7761,20.1364,18.4559,28.7312,7.5705,1.2167-1.5409,1.7322-3.0687,2.4739-4.7289.2941-.6582.8418.5559,1.3828,1.485,4.828,8.2922,15.3175,10.9492,23.6625,6.1533,6.2998-3.6204,10.0076-11.1305,8.5013-18.3592h6.1525c.2652,0,1.1044.0451,1.9713-.7297.916-.8188.8639-1.8303.895-2.4317-1.4176-13.052.153-34.6026-14.2176-41.009ZM8.6342,169.2992c-1.5615,3.7142-3.1789,3.8789-4.6904-.0248-2.1647-5.5902-2.5735-21.2202,1.0015-26.1732.2299-.3185.9134-1.0952,1.2425-1.1804,1.3406-.3473,2.3404,1.859,2.7223,2.8797,2.2599,6.0412,2.2292,18.5405-.2758,24.4988ZM243.6701,169.4954c.1696.1348-.6507.847-.8989.5961-.4765-.4814.5584-.8668.8989-.5961ZM179.4462,111.2684l-.9045,19.8077-2.4572-5.4917c-.3843-.7982-1.6735-2.5209-2.6437-1.8746-.255.1699-.2895.9433-.6.9324-.8431-.0295-3.043-.4232-3.8734-.5598-10.9439-1.8023-24.4148-1.5432-34.9959,1.8877-.9405.305-5.9393,2.4567-6.2669,2.3854-.5509-.1201-1.3302-2.8987-1.5308-3.5804-.6318-2.1477-.7249-4.9031-1.3538-6.7493-.5227-1.5348-1.5887-.6017-1.779.6148-.2548,1.6284.3069,3.1309.2228,4.7139-.6604.6919-1.8431,5.5553-2.2341,5.6437-.5451.1234-1.8494-.3072-2.6451-.3352-2.2488-.0792-4.6416.3588-6.6313.3335-.6494-.0083-1.0347-.5376-1.7693-.6364-1.0784-.145-3.6444.1093-4.7447.2569-1.5151.2032-6.5196,3.1391-7.0795,2.7134-.1196-.0909-.1302-.5652-.3365-.7004-1.115-.7306-6.8457.6495-8.5644.6914-2.7079.0661-5.6746-.301-8.3748-.2219-1.7921.0525-7.3799,3.6129-8.5288,2.9273-.1245-.0743-1.2974-1.7212-1.8492-2.2032-2.0588-1.7988-4.2704-2.7774-6.2887-4.2155-.7229-.5152-1.4435-1.6955-2.1946-2.007-.8211-.3407-1.6252-.0704-2.3225-.3787-.5941-.2625-1.3123-1.6761-2.0129-1.8883-1.8422-.5577-3.1737,1.149-4.1502,1.0415-.6507-.0717-1.7197-2.3393-2.9921-2.332-1.267.0071-2.9292,2.3944-4.6528,1.8322-.3267-4.8641-.0662-9.8552-1.5049-14.5529l135.0588,1.9455ZM183.1384,172.9507c.0897.6912-.3409.5729-.3896.142-.0486-.4308-2.9939-24.3109-4.5017-36.6118.4139-.0735.4119.2112.4738.5044.3305,1.5657.4708,3.145.6534,4.5169,0,0,3.6744,30.7572,3.7641,31.4484ZM174.9556,138.1177c.1655,1.4046.2663,2.4424.4556,4.2226.8137,7.6485,2.6894,23.1815,2.2301,23.2493-.4593.0679-3.2959-28.5098-3.2959-28.5098.5496.1154.557.5868.6102,1.0378ZM174.2949,131.4797c-.1077.3803-.4531.6662-.7068.2027-.3481-.636.0973-3.311.4805-3.5783,1.4789-1.0315,3.4047,3.9191,2.6724,4.1724-.4387.1492-1.673-3.0089-1.9492-2.9986-.2763.0103-.3127,1.5513-.4969,2.2017ZM169.5381,185.9977s-.6343-1.3502-1.8856-2.5879c-1.2513-1.2377-2.1888-1.7994-3.5085-2.2869-1.5767-.5824-3.338-.7883-3.6083-.8277-.8212-.1195,2.6945-5.6647,3.011-6.4426.5916-1.4544.6808-3.0422,1.1806-4.5215.4466-1.3215,1.335-2.5876,1.7265-3.9759,1.0694-3.7924-.9374-4.3082-1.3308-7.5012-.3484-2.8272-.0351-5.236-.8309-8.1726-.5002-1.8459-1.5352-3.1797-2.0981-4.8047-.8396-2.424-.7309-4.4273-2.1018-6.9017-1.3374-2.4139-6.0655-6.6903-8.6951-7.5114-2.5262-.7888-7.4628.0944-9.8685,1.2631-1.9262.9357-1.8038,2.3952-2.504,2.9714-.4446.3658-1.8351.6562-2.5095,1.0186-1.7087.9184-4.223,3.3532-5.1515,5.0527-.6394,1.1705-1.9929,6.5691-2.0111,7.8982-.0184,1.3402.5667,3.1258.2696,4.6173l-2.7156-5.2421c1.6302-.3744-.1127-2.7518.0172-2.8572.0915-.0741,1.0213-.0006,1.3901-.2325,1.2348-.7761-1.7992-5.4734-1.9678-7.2288,0,0,.832-.0748.8807-.5114.063-.566-.3011-1.3116-.5696-2.1288.5334.5518,1.2669,1.3765,1.8272,1.8577.8049.6913,1.7084,1.2756,1.7347-.0041.0129-.6292-1.2677-1.5533-2.1513-2.7704-.985-1.3568-1.5638-3.0112-1.1069-3.6541.2727-.3837,7.2646-2.6655,8.301-2.9524,5.3313-1.4759,11.5078-2.559,17.009-2.7988,1.6182-.0705,12.579-.062,13.0615.6258.1154.1644-.2884,1.4415-.3077,1.9249-.2793,6.9807,1.752,14.7987,2.4144,21.9228,1.0062,10.8207,1.6569,21.8663,2.1005,32.7133.0551,1.3461-.0336,2.705-.0016,4.049ZM160.2542,172.9156c-.3602-2.9469,2.7183-5.279,1.3326-8.5252-.2586-.606-.8459-1.1019-.9867-1.7109-.6016-2.6019,1.461-4.4186,1.4605-6.8423-.0004-1.7607-.9531-2.807-1.4558-4.269-1.4882-4.3288-.5073-8.5801-3.1206-12.7857-.2583-.4157-2.4621-3.3636-2.9491-2.9004-.1679.1597,2.3546,3.2549,2.644,3.8057,1.9904,3.7901,1.4204,8.3334,2.8294,12.4766.2863.8417.9777,1.6412,1.1107,2.4882.4919,3.1325-2.1644,5.6883-1.196,8.4033.3858,1.0816,1.2596,1.5474,1.2281,2.9707-.0419,1.8898-1.6072,4.159-1.8087,5.7426-.2713,2.1311,1.1482,2.5487-.1591,5.8279-.1151.2886-.1474.4458-.2966.8648-.5137-1.0602-1.3825-2.0615-1.7204-3.0475-1.1113-3.2421.9979-6.1346.993-9.073-.0031-1.8622-1.0736-3.4474-.9198-5.6997.1175-1.7198,1.2202-3.6286,1.2217-5.1043.0017-1.6942-1.2896-2.9559-1.5004-4.5271-.2622-1.9552.2343-4.2516-.0956-6.2068-.2427-1.438-1.4521-2.7979-1.8795-4.1229-.4104-1.2723-.3748-2.6578-.8184-3.9835-1.0443-3.1215-4.2984-5.9653-7.6463-4.18-.5488.2927-1.8352,1.8464-2.489,1.26-.4669-.4188,1.2564-1.4548,1.524-1.6246,2.6832-1.7026,5.2315-1.5982,7.879.1748.7834.5246,4.6223,4.0504,5.1334,4.7704,1.7035,2.4002,1.7371,4.5322,2.4802,7.1237.5848,2.0395,1.6901,3.6624,2.2867,5.8165.8822,3.1853.4631,6.1204,1.1841,9.0199.4389,1.765,1.5465,2.6142,1.4232,4.5752-.1193,1.8983-1.4516,3.6767-2.0198,5.4938-.4154,1.3284-.4703,2.8322-.972,4.13-.6583,1.703-2.4306,4.1114-3.1124,5.8018.0142-.7955.1542-1.1763.2322-1.4775.2169-.8377.794-1.9639.7508-2.8155-.0306-.6005-.4886-1.2052-.5674-1.8501ZM145.0472,188.5186c.1893-.4166.6477-1.4187.9507-1.9069.2638-.425.712-1.3601.8508-1.5755.1042-.1616,1.8943-.8315,2.6886-1.276,1.4822-.8296,3.0466-2.2282,4.3764-3.3492.2168-.1828.6898-.7038.6898-.7038,0,0,1.4626.48,1.875,1.0511-.3977.2178-.6623.3623-1.0245.6076-1.3127.889-3.8927,2.9192-4.9796,4.024-2.1215,2.1565-3.3298,5.137-5.5432,7.2118.1854-1.2736-.3794-2.9933.116-4.0831ZM134.1864,171.6841c-1.5302-2.6274-2.6046-11.0169-2.1436-14.0283.1343-.8771.303-.978.63-1.3266l.2651-.3504c3.892-3.7215,8.8061-4.4834,13.7979-3.4469,3.4973.7262,6.5446,1.7216,7.7161,5.4891.8173,2.6286.3081,10.2738-.8552,12.7843-1.7911,3.8653-7.5043,7.3661-11.7924,6.7645-2.1362-.2997-6.5016-3.9691-7.618-5.8857ZM135.6275,182.395c-.6845.2456-2.974-1.2209-2.9957-1.6479-.0758-1.4927,2.981,1.0329,2.9957,1.6479ZM128.3121,158.0506c.2148.4193.587,1.0589.4113,1.2366-.2704.2734-.7098-.0033-.9886-.3664-1.8651-2.4288-4.126-8.7712-3.8093-8.9358s4.3865,8.0655,4.3865,8.0655ZM126.0265,140.6813c.4979-.1315,2.1182,3.3302,1.0477,3.2958-.6744-.0216-1.5456-3.1643-1.0477-3.2958ZM130.2227,164.3906c-.1211.1317-2.2366-1.321-1.7953-1.8005.1211-.1317,2.2366,1.321,1.7953,1.8005ZM132.6263,176.6927c-.089.1812-1.2567-.1795-2.0746-.5221-1.8189-.7621-3.9568-2.1819-4.3725-3.0818-.5235-1.1333-.0984-1.5451,1.034-1.0339,1.0338.4666,2.6266,2.0148,3.9468,3.2826.5585.5363,1.5332,1.219,1.4662,1.3553ZM153.0369,138.4279c.6556.9333.7159,2.0121,1.1448,3.0568.2793.6807,1.8039,2.8496,1.2532,3.3971-.4669.4643-8.2805-2.0163-9.2221-2.6309-1.2268-.8009-2.4025-4.2766-3.5333-4.283-1.0255-.0058-2.3178,3.7296-3.7758,4.6389-.8936.5572-5.6406,2.2866-6.7624,2.5454-.4988.1152-.434.0303-.4257-.4247.1904-10.4042,16.2189-13.5644,21.3215-6.2997ZM141.0296,133.1756c.5307-.819,2.219-1.2739,3.1562-1.4933.2539-.0593.6479.2535.1398.5143-1.409.6931-1.4966,1.4609-3.2961.979ZM146.4331,133.6299c2.5161-1.9751,6.3271.6,6.5985,3.45-1.807-1.8036-4.0143-3.1417-6.5985-3.45ZM149.2431,145.5944c-.2921-.0988-.2171-.0562-.4263-.1261-.2665-.0889-.2081-.3868.0978-.2893.2077.0662.2317.0738.431.1371.3329.1055.1894.3769-.1026.2783ZM147.5012,145.0993c-.2976-.0805-.3269-.0781-.7761-.1898s-.3327-.4237-.016-.3715c.3167.0523.5435.1393.8774.2417s.2124.4002-.0852.3196ZM143.3867,143.9109c.3199.0271,1.5909.2368,1.9318.3125.3409.0759.2462.4167-.0568.3599-.303-.0569-1.3731-.2273-1.8297-.3033s-.3651-.3962-.0452-.369ZM143.1291,149.9877l-3.6697.6779c-1.2051.4418-2.4929.6444-3.6874,1.1145-.764.3007-3.0186,1.938-3.143,1.8062-.5319-.5637,1.9588-1.8755,2.3144-2.0346,2.4599-1.1001,5.4922-1.7753,8.1857-1.564ZM138.7767,177.3021c.1346-.0091,1.6349.869,2.3529,1.0433,2.4927.6051,4.8295.0568,7.309-1.2938,2.439-1.3285,3.0317-1.8975,4.793-3.924.2083,1.1174.6561,5.7534.6561,5.7534-3.578,4.1523-6.5881,5.9993-12.1924,4.5016-.5443-.1455-4.1242-1.4227-4.2598-1.6056-.1404-.1893.9402-4.4476,1.3411-4.475ZM155.9254,179.3566c-1.4862-.831-2.0132-4.8036-2.0184-6.4129-.0009-.2774.2873-2.3453.9267-1.649.0676.0736-.0464,1.4781.0253,1.9258.1023.639.4141,1.4321.6476,2.0532.2906.7732,2.8474,4.5136,2.6282,4.7219-.1017.0967-1.8811-.4554-2.2093-.639ZM166.7987,132.6625c-.3433-.026-.4072-1.6382-.4072-1.6382-.1137-1.4015-.3097-1.7229-.1114-2.4315.2168-.7745,1.1246-.9974,1.6845-.4365.5972.5984,1.5896,3.6255,1.2733,3.8215s-1.4876-2.1561-1.6492-2.0995c-.1615.0567-.222,1.9604-.222,1.9604,0,0,.0039.8673-.5682.8239ZM168.6405,126.2783l3.8603.638c-.2594,2.431-.118,4.8774-.2589,7.3152-.027.4678-.0337.6965-.0337,1.0376,0,.2272-.2125.1762-.277-.1279-.5549-3.1794-1.7644-6.0527-3.2907-8.8628ZM122.7211,129.8783c.1082.1186-.1336.8722-.707,1.3451-.4593.3788-.8705.5548-.913.5158-.3465-.3171,1.3034-2.2075,1.62-1.8609ZM105.0173,163.0383c-.1609-.2986.492-.6074.7576-.0145.1237.2762.5641.9195.767,1.2405.19.3006,1.3821,1.7135,1.1744,1.9244-.4831.4904-2.4716-2.7411-2.6991-3.1504ZM107.415,171.592c-.407.4326-1.9743-1.3794-1.4965-2.0994.5116.0948,1.7971,1.78,1.4965,2.0994ZM96.1728,179.2167s-2.7763-.4106-3.2991-.4335c-3.0276-.1321-5.8118.188-8.6453,1.2848-.7331.2838-3.2764,1.6488-3.2764,1.6488,0,0-1.6573-.9358-.3078-.5807.9062.2385.9707-.7213.4167-1.0244-.6505-.3558-1.0511-.696-1.4772-1.392,0,0,1.0722.0458,1.3352-.5161.3125-.6676-1.5341-2.7414-1.5341-2.7414,0,0,.7954.4285,1.0511.1562.3122-.3325.0639-.7954-.0984-1.1415-.4313-.9195-1.2059-1.9456-1.5929-2.8728-.2495-.5979.021-2.8504-1.3529-1.9743-.1106.0705-1.2694,2.0165-1.352,2.249-.5202,1.4641.5942,1.1119.5942,1.1119,0,0-.0568.5752-.2746.9943-.2723.5241-.7623.7007-.9114,1.3115-.1247.5105.5046,1.05.456,1.0963-.8881.8454-.9963-2.8995-1.9465-2.6971-.6784.1445-1.1024,2.7939-2.252,2.9996.1062-.8318-.7105-2.1176-.6271-2.8093.0385-.3196.9372-.0906.9508-1.2351.0074-.6226-.3741-1.2163-.6558-1.7087-.2541-.4441-.4271-.8058-.1604-1.0318.1926-.1632.9356-.2406,1.4011-.2573.5399-.0193.5287-.7387.2843-.8716-.5199-.2825-1.3407-.4865-1.714-.8523-.4317-.4228-.4504-1.5839-1.1287-1.4365-.1978.043-.4765.9071-1.0825,1.82-.4496.6772-1.3858,1.2276-1.1742,1.7566.1894.4735,1.1174.0947,1.1174.0947,0,0-.0274.3008-.2604.9351-.064.1742-.2199.4677-.4035.4931s-.3064-.3208-.4113-.5285c-.373-.7382-.3932-1.8394-.8873-2.2254-.18-.1406-.4933-.2558-.7789-.0568-.4451.3101-.3743,1.1286-1.083.5691-.6592-.5204-.8462-3.5663-1.6774-3.5994-.5893-.0235-.7855.7966-1.6004,1.6856-.9375,1.0227-2.3353,1.4817-1.875,2.1875.4261.6534,1.9886-.5398,1.9886-.5398,0,0-.3977,1.0417-1.0701,1.9128-.6386.8274-1.4678,1.4583-1.1533,1.9485.5172.8063,2.0245-.1115,2.0245-.1115,0,0-2.2786,3.5101-2.5097,4.4615-.1427.5878.7199.7088.7199.7088,0,0-1.0604,1.192-1.7636,2.1663-.2818.3905-.5737.73-.293,1.1506.2763.4141,1.1286.1489,1.1286.1489,0,0-1.413,1.0564-1.4254,1.6745-.0222,1.1015,2.022.2573,2.022.2573,0,0-.8149.9993-1.7897,1.8087-.6983.5798-1.5218.9075-1.6382,1.392-.1272.5294.7007.9091.7007.9091,0,0-4.1928.283-4.9645-.1838-.4078-.2466-3.871-5.3132-3.871-5.3132,0,0,.9326.1663.8523-.3598-.0671-.4399-1.5861-2.9545-1.5861-2.9545,0,0,.7007.5682,1.1829.3134.4352-.23.2754-.9005.2754-.9005,0,0,.7039.3573,1.0985.1326.2355-.1341.4474-.5611.2312-1.079-.2346-.5619-1.2546-2.4732-2.092-4.3091-.9997-2.1916-1.6477-4.2187-1.6477-4.2187,0,0,1.5662,2.0698,1.7879,2.2889.3143.3105.783.4526,1.0577.159s-.3011-1.1433-.3011-1.1433c-.4322-.7941-.58-1.1214-.5566-1.21.0514-.1951.931.7652,1.4306.45,1.1932-.7528-.3634-1.846-1.9602-3.9299s-1.7127-2.7606-1.9214-3.4199c-.0484-.1529-.0819-.4902.1445-.4433.7494.4778,2.3505,1.3795,2.5512.4445.0897-.418-.6796-.6911-1.5622-2.0338-.4386-.6674-1.0599-3.4986-.8349-4.1143.0338-.0924,1.8021,1.2469,1.801.4471-.0014-1.0912-2.0341-2.7189-1.8028-4.0472,8.6528-.068,17.3167.0806,25.9723.0117,1.1431-.0091,2.2547-.3704,3.6037-.3256,5.0059.1663,8.7185,2.5626,13.4104,3.9936,2.8913.8817,7.3473,1.6088,10.1939,2.4843-.8712,1.4204.073,1.9872.8617,1.8182.7954-.1705,1.7235-.7812,1.8939-.5682.3409.4261-4.5643,4.1666-5.5492,4.8105-.6429.4204-.4695,1.3693.2557,1.6856.68.2966,2.5568-.9375,2.5568-.9375,0,0-.6439.9586,0,1.6666.5771.6346,2.4431-.4735,2.4431-.4735-.1947.594-1.0359,1.825-1.8371,2.8598-.6391.8255-1.4394,1.3447-2.0265,2.1401-.3923.5315-.2118,1.7391.7007,1.7708.4943.0171,1.7897-.1136,1.7897-.1136,0,0-4.0582,3.12-4.8839,4.401-.7343,1.139.5942,1.9057.5942,1.9057ZM77.7074,176.0952c.1826-.228,1.4217,1.3035,1.1977,1.4979-.6664.5785-1.6453-.9388-1.1977-1.4979ZM77.1054,183.5964c-.1448-.284.123-1.3701.3063-1.6035s.5979-.248.7405-.1927c.4944.1918.5489.6443.3625,1.0531-.1613.3535-.4226.7565-.8155.8474-.1653.0382-.449.1797-.5938-.1043ZM78.9038,173.993c-.3536.3406-2.3646-1.1407-1.7966-1.7994.1224-.1419,2.2559,1.3569,1.7966,1.7994ZM73.1969,180.6024s.5943.556.307.8919-1.2183.4691-1.4996.3022c-.9119-.6191.2879-1.3435,1.1926-1.1941ZM73.8018,176.997c.3283.3358-1.176,1.8272-1.4978,1.4978-.3283-.3359,1.1759-1.8272,1.4978-1.4978ZM74.8508,182.3798c.3854.0037.7525.3499,1.009.7852.2594.4404.6076,1.1772.3428,1.3323s-1.0034-.683-1.3869-.612-1.098,1.0163-1.2389.837c-.1623-.2065-.0031-.8405.2888-1.3969.2658-.5066.6417-.9489.9853-.9457ZM74.4006,179.0951c.0057.3016-.2828.3872-.2946,0s-.0094-.536,0-.8977.2817-.4267.2946,0-.0058.596,0,.8977ZM66.0025,171.1395c-.1592-.1896-.1081-.3122-.0011-.445s.2866-.1615.5945-.0004.4533,1.0858.3553,1.1365-.7896-.5016-.9487-.6911ZM66.8992,174.2948c.1491.2299.1965.5045.2344.9685s.1052.81.0668,1.1294-.3979.1335-.5364-.0416c-.3106-.3925-.4138-1.4242-.2782-1.9401.0818-.3115.3643-.3462.5135-.1163ZM67.498,188.9997c.3813.3306.5337,1.107.3013,1.5001s-1.242.0865-1.6245-.3456.9419-1.4851,1.3232-1.1545ZM66.602,183.5971c-.3136-.1757.2261-1.3383.5717-1.5567.3314-.2094.6156-.2337,1.0322.0663s1.1307,2.7234.7926,2.992c-.2535.2014-.5208-1.8833-1.3703-2.2439-.2832-.1202-.7127.918-1.0263.7423ZM70.7993,172.4937c-.2922.227-1.1996-1.3101-.8951-1.5004s1.1873,1.2734.8951,1.5004ZM70.2044,167.992c.1349-.1696.847.6507.5962.8989-.4813.4764-.8669-.5584-.5962-.8989ZM70.199,177.5958c-1.3121-.6619-2.2265-2.5553-.2987-2.9999,0,0-.127.5443-.0418,1.3965s.3406,1.6033.3406,1.6033ZM69.004,188.1c.3856.1563,2.3483,2.4802,2.0968,2.6996-.7909.6899-2.3497-1.9254-2.0968-2.6996ZM63.9848,183.9391c-.8209.0031-2.6444,1.7175-1.5319-.1366.4853-.8086,1.4996-1.443,2.0449-1.1062s.6209,2.185.299,2.7026-.5945-1.4607-.812-1.4598ZM63.8951,191.4004c-.0503.0358-.6335.1032-.5923-.1452,0,0,.6591-1.8369.8938-1.6533s-.1915,1.7202-.3015,1.7985ZM58.4909,190.0454c.1224-.1328,2.0174-1.7466,2.1044-1.6452.384.4479-1.445,2.401-1.9499,2.3941-.2-.0028-.543-.3274-.1545-.7489ZM57.5982,186.598c-.4237-.4154,1.2242-1.466,1.4978-1.1977.4237.4154-1.2243,1.466-1.4978,1.1977ZM59.9992,180.5956c-.4816-.4766.701-1.6826,1.1976-1.1976.3213.3136-.8725,1.5195-1.1976,1.1976ZM60.8994,176.9942c-.224-.2482,1.0297-2.3794,1.3492-2.394,1.4142-.065-.8152,2.986-1.3492,2.394ZM62.9962,170.093c.4109.6703-1.3968,2.2144-1.4952,2.1007-.2291-.265,1.0454-2.0029,1.4952-2.1007ZM63.6629,178.535c-.2723-.1048-.1507-.4839.0799-.8583.359-.5829,1.1165-1.0812,1.4932.0403.0682.2031.1866.6594.1626.7777s-.301.1396-.8408.1396-.6226.0054-.8949-.0994ZM64.4996,172.4912c-.0672-.083.1695-.3292.3968-.5659s.4239-.3794.5008-.3318.0295.4738-.0936.6253c-.2046.2518-.7367.3553-.804.2723ZM106.0661,133.4955c1.179.1091,3.5888-2.6278,5.473-2.9472,1.3527-.2293,2.8353.1185,4.1158-.0854.5724-.0912,1.1759-.2983,1.6772-.3336.6465-.0454,1.0133.1971,1.654.3338.3709.079,1.2446-.0575,1.3353.0168.0801.0655-.7325,1.4889-1.089,1.7594-1.755,1.3317-5.8135,2.0919-7.7699,3.5619-1.9533-1.8449-5.0246-.8807-7.496-1.1239-1.6918-.1664-3.1902-1.184-4.9534-.9015.8994-.8035,2.4754-1.718,3.595-2.2546,1.9715-.9447,3.2441-1.0879,5.4083-1.3416-.4455.5657-4.1462,3.1128-1.9503,3.3158ZM102.0156,154.1851c-.4502-.4295,2.3972-3.8021,2.7007-2.2436.1527.7843-2.0293,2.8842-2.7007,2.2436ZM101.4271,164.2601c-.3974.0969-.9195.0078-.908-.3196.0081-.2324,2.8478-2.6968,3.2945-2.2496.6498.6506-1.7444,2.4126-2.3864,2.5692ZM104.0895,142.5947c-.0663.3322-.0806,1.026-.8187,3.0945-1.0142,2.8421-2.1974,3.5753-1.7618,4.0109.654.654,2.1212-1.0417,2.1212-1.0417,0,0-.6712,1.7182-1.5151,3.0776s-2.4281,2.4499-2.5568,2.784c-.4815,1.2501,1.0359,1.4045,1.8558,1.1697-.1773.4583-.8378,1.0841-.8378,1.0841,0,0-2.2678-.6567-3.2623-.8901-1.9257-.452-3.6396-.9159-5.5693-1.4815-2.5158-.7373-5.2595-1.7022-7.7117-2.7514l33.2739-16.5406c1.5729-.8187.4318.1993,1.0814.4807,1.1255.4875,3.2338-3.1955,2.2426-.1524-.6359,1.9522-1.5464,3.6739-2.8558,5.2473-.6708.8061-3.3417,2.6565-2.5161,3.8586.5967.8686,3.0239-.4525,3.2258-.5951.322-.2273-.3041.5924.3033,1.0842.5205.4215,1.619-.2509,1.619-.2509,0,0-1.0779,1.7993-2.6041,3.5227-1.2909,1.4577-2.7672,2.9052-3.0965,3.2149-1.9886,1.8702.4735,1.8702.4735,1.8702,0,0-1.5219,1.8189-.5787,2.4678.9504.654,2.4161-.7711,2.4161-.7711,0,0-.6143.9369.248,1.2966.5922.2471,2.7237-2.1453,2.7237-2.1453,0,0-.9801,1.7471-2.5426,4.0766-.5576.8314-1.2926,1.8186-.9831,2.4843.344.7401,1.9312.0426,1.9312.0426l-6.5766,7.0122-2.5771-3.5804s1.2643.2468,1.1815-.6039c-.0908-.9324-1.4656-3.2502-1.4656-3.2502,0,0,.908.0893,1.0366-.509.1751-.8153-1.065-2.3887-1.065-2.3887,0,0,.8949.3125,1.0937-.4261.1786-.6635-1.6051-2.1591-1.6051-2.1591,0,0,1.0653-.0142.3551-1.3068-.8043-1.4638-1.5659-3.1711-1.9285-4.7269-.2659-1.1408.8253-.1309,1.4503.3425.489.3705,1.0898-.2896.5871-.7576-.1828-.1702-1.0369-.8096-1.5625-1.5057-.4684-.6203-.7377-1.2502-.8756-1.5761-.4853-1.1468-.237-1.4906-.4785-2.9678-.0312-.1911-.2131-.767-.8665-.7528s-.9422.5769-1.0085.9091ZM105.0141,145.1845s.1824.0123.186.1246-.1873.3202-.1873.3202c-1.6032,1.9804-1.6471-.6779.0012-.4448ZM104.1136,138.2817c.5507.4743-.4197.6427-.5915.7438-2.0178,1.1875-4.3241,1.8695-6.4177,2.8984-3.8523,1.8931-7.4981,4.3031-11.5965,5.6575.4999-.8268,1.6506-1.3552,2.4986-1.8504,2.9362-1.7145,6.6582-3.9103,9.6982-5.3078.8645-.3974,6.0286-2.4692,6.409-2.1415ZM81.006,143.3796c1.9744-1.6161,4.3036-3.1624,6.5097-4.4419.62-.3596,5.2762-2.9766,5.4924-2.7581.3604.3641-.4669.8031-.6793.9686-1.1816.9202-3.2648,2.0638-4.6272,2.8757-2.0509,1.2223-4.4595,2.678-6.6955,3.3557ZM96.0181,133.0345c-2.9975,1.7888-6.6554,3.301-9.7821,4.9344-2.5716-.1437-5.2218-1.0644-7.7823-1.1865-1.5974-.0761-3.5371.8367-4.3481-1.0567-.2062-.4816.1698-.4051.3761-.5104.8801-.449,5.5704-2.3142,6.4777-2.4318,3.5218-.4566,6.5205.1872,9.9998,0,1.9541-.105,3.9986-.4923,5.9529-.5027-.3138.3512-.5671.5587-.8941.7538ZM80.4031,140.6812c-.0983.1072-2.2771-1.3245-1.7953-2.1007.3916.1792,2.1265,1.7391,1.7953,2.1007ZM76.7999,144.1371c1.0598.8855,2.3738,1.5397,3.3056,2.5439-4.5014-1.5867-7.414-5.6048-11.1043-8.3979,3.1938.5974,5.395,3.8456,7.7987,5.854ZM72.9027,146.0808c-1.7744-.5452-3.5869-1.7668-5.0702-2.8802-.3848-.2889-3.5283-2.6271-3.0315-3.1182.241-.2383,1.1829.5931,1.4637.7845,2.3084,1.5729,4.4583,3.472,6.638,5.2139ZM70.5018,134.6762c-.649.5116-4.7415.0252-6.0865.6688-.9645.4615-.5563,2.0279-1.2627,1.7325l-8.1617-6.5454-8.4971-5.1541c1.0555.5019,3.3843-1.4587,3.7539-1.4355.4089.0257,1.4504,1.9022,2.7228,2.0316,1.3969.1421,2.904-1.3028,3.7334-1.0796,1.0114.2721,1.3518,1.9527,2.9232,2.2312.4714.0835,1.0436-.2118,1.2908-.1007.2144.0963,1.7645,2.0799,2.5686,2.5146,2.1953,1.1866,2.335.9742,4.47,2.7328.2457.2024,3.0704,1.99,2.5454,2.4038ZM55.7044,140.3228c-.2531-.1621-1.8573-1.0474-1.4076-1.4407.528-.4619,5.7533,2.9255,6.5181,3.533.2091.1662,1.046.5971.6807.9672-.23.2331-5.2501-2.7128-5.7912-3.0595ZM61.1962,148.7879c.0684.5566-.6153.2429-.9138.1639-2.5659-.6784-6.7547-2.9956-8.962-4.545-.5192-.3644-1.5428-.9099-1.524-1.6246,3.8834,1.8432,7.3382,4.5208,11.3998,6.0057ZM59.6975,136.1768c-1.3149-.4426-2.774.5498-3.7717.5899-1.4854.0597-2.8383-.2034-4.249-.5227-2.4937-.5644-1.7667,1.6994-2.9154,1.7316-.1502.0042-2.8693-.7454-2.8693-.8957v-10.204c4.8881,2.6158,9.8882,5.3384,13.8054,9.3009ZM45.8908,154.1852c-.1713.1902-.4447-.0013-.4447-.0013-.38-.2559-.4879-.5185-.4773-.9016.0025-.0913-.0122-.2583.1347-.2654s.7862.7232.7862.7232c0,0,.1723.2549.0011.445ZM45.7551,163.4773c.6574,1.2712,1.7897,3.5297,1.635,3.6143s-2.7187-4.3723-2.3955-4.5017.7606.8874.7606.8874ZM45.5213,156.2248c.1225.0994-.0063.5987-.0284.973-.0421.7121-.0614,1.4954-.198,1.4889-.1686-.008-.7118-1.7063-.2325-2.2464.1131-.1274.3364-.3149.4589-.2155ZM45.3307,147.3423c.1351.1311.0829.374.1302.8854s.1881,1.0353.1284,1.1569-.2854-.1494-.4188-.3066c-.2021-.2381-.3768-.5762-.4636-.8961-.1062-.3914-.0809-.7556.1867-.876.098-.0441.302-.0946.4371.0365ZM47.6141,176.2008c-.1515.3598-.9054-.4281-1.1895-.7882-1.0174-1.29-2.1878-4.9184-1.7302-5.0196s3.0712,5.4479,2.9197,5.8078ZM45.5878,178.497s.6769,1.8704,1.2451,2.8174,1.6462,3.0728,1.4576,3.1841-2.1772-2.6359-2.7499-4c-.2157-.5136-1.1508-2.2571.0473-2.0015ZM101.329,175.6372c.2941-.4383.751-1.0071.984-.7411.7066.8067-3.6208,5.3968-3.8974,5.1006-.2702-.2893,2.6193-3.9211,2.9135-4.3594ZM101.4154,171.5921c-.3904-.3998,1.0997-3.9188,2.1019-3.4661,1.6557.7479-1.4493,4.1342-2.1019,3.4661ZM104.2652,177.6013c.7657.0185.8969,2.0491.447,2.3949-.5799.4455-1.4657-2.4195-.447-2.3949ZM104.8564,157.197c-.3969-1.3343-.0312-2.3281.82-.8202.2033.3602,1.5726,3.6575,1.4385,3.8108-.5783.6607-2.1602-2.6599-2.2585-2.9905ZM107.7151,154.1852c-.3345.3587-1.5281-1.1164-1.797-1.3529-.1724-.6451.5552-.5533.8401-.3796.0845.0515,1.0969,1.5822.9569,1.7324ZM120.9191,147.5841c.2551.1626-.7912,1.7996-1.2533,2.4955-.5479.8252-1.6824,2.3841-2.3406,3.0615-.2855.2939-.932.7013-1.2041.4439-.2279-.2156.6944-1.3715.9055-1.6428,1.1207-1.441,3.6374-4.5206,3.8925-4.358ZM117.2392,165.7851c-.7954.8901-3.2501,3.1494-3.519,2.8057s5.8451-6.444,5.9983-6.301-1.6839,2.6051-2.4794,3.4952ZM120.0213,167.3945c.1696.1348-.6506.8469-.8988.5961-.4764-.4814.5584-.8668.8988-.5961ZM119.8843,158.1011c1.2038-1.4431,1.4217.0541.3403,1.0873-1.0519,1.005-1.0461-.241-.3403-1.0873ZM118.3753,142.1815c-.3428-.0895-.5189-.4939-.3106-.9048.302-.596,2.4761-2.5738,2.8543-2.3961s-1.4932,3.5753-2.5437,3.3009ZM40.7709,139.0948l-.0039-21.9055-.4735-8.4658s1.6193-.0095,2.0397.8027,1.0408,7.499,1.1593,9.6953c.5518,10.2239.1044,20.3553-.3175,30.5973.0936,1.1336-2.1709,2.2075-2.0969,3.0169.105,1.1472,1.6106.8489,1.6106.8489,0,0-.7589,1.0399-1.2452,1.5151-.6497.6348-1.4015,1.0606-1.4015,1.0606l.388-8.018.1702-5.2507.1707-3.8968ZM38.8393,165.8858c-.1912.0077-.5472-.433-.3056-.8995.3175-.6127,2.0684-2.2026,2.5538-2.9966.2374.8494-1.7289,3.8752-2.2482,3.8961ZM40.4873,167.9907c-.0185.2908-.2941.2987-.2947,0-.0006-.2986.0006-.6105,0-.8977s.2918-.2525.2947,0c.0028.2526.0185.6068,0,.8977ZM40.7868,159.8868c-.1671.3128-.2941.0006-.2941.0006.1042-.6668.6833-1.8183.8976-1.4964s-.4364,1.183-.6035,1.4958ZM30.8985,157.0487l-.6125,3.7405c.2047-1.2067-.2808-3.2881,0-4.3517.2031-.7691.9215-.467.6125.6112ZM31.6967,170.401l.4276-10.3245c.1831-.7018.8628-.3064.8628-.0375,0,3.1354.262,6.8564,0,9.9039-.0403.4692-.2537,1.831-.3653,2.3357-.1823.8249-1.4699,2.739-2.3358,2.0133-.1419-.119,1.316-1.4477,1.4107-3.8908ZM33.3708,177.2293c.8401-.398.9613-2.2089,1.0814-3.1202.5626-4.2719.3719-8.615.6226-12.8827.6945-11.8204,2.5915-25.8869,1.5109-37.499-.1136-1.2203-.7761-3.154-2.2481-3.154h-4.952l.3067-11.883,8.6315-.1373c.2273,1.9886.2817,4.938.3668,6.1667.7677,11.0722-.4326,23.596-.9005,34.8162-.3344,8.0171-.8835,16.0351-1.2147,23.9952-.0739,1.7763.3698,7.4368-.1412,8.5622-.3792.835-3.3155,2.2749-1.3247,3.6812.53.3744,1.5341-.1326,1.5341-.1326,0,0-.4737,4.2587-1.1056,4.2587h-10.6542c.1183-1.6339.0722-11.269.639-11.9657.574-.7057,6.2574.0479,7.848-.7057ZM19.4363,109.0338c2.8587-.255,5.7798-.3369,8.6272-.3624l-.1785,11.1517c0,.0853.0042.1987.0042.7668l-7.6573-.0165c-.8055.0368-1.0703.3347-1.1856.9154-.2723,1.3712-.7408,7.2731-.8973,9.1836-.1092,1.3338-.1829,3.0071-.3125,4.3465-.0733.7578-.0832,4.4763-.3693,4.8011-.1441.1636-.867.1368-.943-.2183l2.3909-30.0393c.0222-.2792.242-.5036.521-.5285ZM24.8825,122.677c.0447.2966-2.5886.7094-3.2532.9452-1.7613.625-.9848,6.5719-1.6973,6.5495-.8836-.0278-.2506-4.7465-.0758-5.4724.2224-1.5592,1.7231-2.0123,3.0231-2.1377,1.0593-.1022,1.9602-.1705,2.0032.1154ZM13.5377,189.092l-1.0513-14.0171,3.0951.1185c-.1437.6092.0135,2.7025.7489,2.7025,1.0169,0,7.0929-.2599,7.3529,0,.4247.4246-.3646,10.4882-.2986,12.0062-2.0731.2057-4.175.0589-6.2204.0305-.9813-.0136-3.2411.0504-3.6266-.8407ZM24.7,192.8683c-.9195.1158-2.7125.1741-3.5476.1744-.3024,0-2.4732-.0573-2.5697-.1422-.1883-.1657-.0685-.7291.3159-.7291.8144,0,1.5016.019,1.7424.019l5.7435.1112c-.0412.4271-1.3255.5214-1.6845.5666ZM36.3098,192.7787c-.9935.336-1.3026-.9096-.4283-1.3343.6343-.277,4.3254-3.6188,4.6085-3.3417.3515.3441-3.3775,4.4045-4.1801,4.676ZM40.1898,182.4004c.1626.1508-1.4264,2.3944-2.0994,1.7966-.3995-.3548,1.8579-2.0205,2.0994-1.7966ZM38.9895,193.4993c-.1511-.1315,1.1426-2.0682,1.8006-1.4951.1511.1316-1.1427,2.0682-1.8006,1.4951ZM39.0109,177.4727c-1.0108.3416-1.2334-.8687-.4831-1.3892.4217-.323,2.9233-2.0373,3.1613-1.7875.4596.4824-2.0415,2.9614-2.6782,3.1767ZM39.8925,172.7953c-.0048-.224.2983-.2495.2946,0s.0132.3377,0,.5975c-.0132.2598-.2993.2231-.2946,0s.0048-.3734,0-.5975ZM41.9878,171.2921c-.3446.0784-.5005-1.4832-.8923-.5972-.0425.0961-.7825,1.8791-1.5045,1.1972-.2102-.1985,1.1235-1.8766,1.3438-2.1046.312-.3228.7976-.6869,1.0538-.5932s.2846.3778.2562,1.1164.0189.9185-.2571.9813ZM42.8882,165.8898c-.2456.3017-.306-.7807-.7648-.8789-.2605-.0557-.9111.4054-1.0311.2793-.4713-.4948,1.3652-2.4291,1.7963-2.0986.4656.357.2452,2.3964-.0004,2.6981ZM42.7027,156.8489c-.732.5907-1.6787.9346-1.607.1887.0135-.1401,2.2209-1.5068,2.3955-1.3478.1099.0999-.3289.7882-.7885,1.159ZM42.5909,152.6834c-.1214-.1079,1.393-1.6197,1.4978-1.4978.3102.3607-1.1471,1.8091-1.4978,1.4978ZM44.3901,149.9835c-.2525.2778-.9647-.1291-.1473-.5974.2614-.0378.3998.3196.1473.5974ZM44.8431,187.2009l3.7475,6.001c-1.3286-.9919-2.5774-2.4997-3.4237-3.9262-.2859-.4817-1.2325-1.6954-.3238-2.0748ZM44.9945,192.9019c.3024-.355,5.3237,4.8019,5.6994,5.3994-1.3766.1628-6.5079-4.4501-5.6994-5.3994ZM68.2622,198.9158c-1.9374.1588-4.9001-.1411-6.9131-.3125-1.3008-.1108-5.2133-.3575-6.1445-.7582-1.4195-.6109-3.2252-3.1882-4.5083-4.1965-.4331-.3268-.149-.4689.5145-.2138.8985.3454,2.5538.7819,1.526-.6246-.2891-.3956-3.7934-3.642-3.4039-3.9675.226-.1889,2.9649.3332,3.6461.3835.8905.0657,4.4466-.0846,4.6165.0758.2695.2544-1.1033.9564-.7813,1.6004.3485.697,1.2689.6061,1.2689.6061,0,0-.8276.5593-.338,1.094s1.5952-.0715,1.65-.0015c.0919.1174-.4528.9839.2824,1.3779s1.4738-.444,1.4738-.444c0,0-.2415.4972.3125.7954,1.12.6031,11.3777.5398,11.3777.5398-.3177,2.3813-2.4033,3.8673-4.5791,4.0458ZM73.5057,187.199c.401-.203,1.9445.6398,1.496,1.2003-.2122.2652-.7058-.3778-.8957-.3034s-.638,1.3662-.9016,1.2032-.0997-1.8972.3013-2.1001ZM105.7715,216.617c-5.3072,9.0653-17.8173,11.3645-25.9702,4.6504-12.1866-10.0361-6.0002-29.6756,9.8462-30.9779,13.6181-1.119,23.0115,14.563,16.124,26.3275ZM110.4175,180.8944c-.5286.5192-2.7748-2.6505-3.0529-3.0967-1.1162-1.7912-.6397-2.9684.148-1.5923.1314.2295.5622.8527.7528,1.179.2687.4597,2.2955,3.3692,2.1521,3.5101ZM113.2311,180.2776c-.4724.1057-3.299-4.3657-3.299-4.3657,0,0,.9848.5871,1.4014-.0208.8731-1.2741-2.7749-5.1081-3.3126-6.8542-.0475-.1542-.0825-.4898.1445-.4432.4556.4114,1.4832,1.5721,2.0508,1.3335.794-.3338.4261-1.4394.4261-1.4394l.625.6061s-.279,1.3741.9341,1.535c1.8073.2396,4.2045-2.178,4.2045-2.178,0,0-.4038,1.1819.2206,1.6686.7264.5662,1.7869.1306,1.7869.1306,0,0-1.0633,2.0081-2.2538,3.5748-.7143.94-1.1648,1.4772-2.1875,2.6136-.5903.6559-.8428,1.1932-.4261,1.8087.3461.5112,1.8087.1894,1.8087.1894,0,0-1.0194.9846-2.1237,1.8412ZM117.9763,174.2002c1.0006-1.4503,2.3948-3.3082,2.9427-2.9057.2781.2044.7281,5.8911.6147,6.3417s-.6592.5946-.912-.2638-.3723-3.6105-.6037-3.6761-.8522.9212-1.8791,2.1502c-1.0269,1.229-1.1631-.1959-.1625-1.6462ZM122.7224,187.0496c0,.0737.0825,1.5642-.5968,1.3485-.3008-.1109-.3223-3.233-.6133-3.3874s-1.7533,1.0027-1.7844.2399c-.0094-.2305,2.095-3.9384,2.9945-2.8528v4.6518ZM122.2475,154.7498c-.2832.0195-.2699-.3125-.2273-.9801.0398-.6239.2393-.7392.4972-.7386s.5403.3409.4331.7775c-.0887.3615-.4198.9218-.7029.9412ZM123.1685,127.7735c-1.033.3914-.1373-1.7869.4529-1.1965.1812.1814-.0624,1.0485-.4529,1.1965ZM124.5245,165.8925c-.065.0658.1629,1.8033-.4515,1.794-.4455-.0068-.436-1.0075-.4613-1.3314-.3716-4.7531,1.8282-1.5027,3.9106-.4585.2297,1.5917-2.8394-.1643-2.9977-.0041ZM125.1248,178.4976c.2322-.1251,4.7985,3.3053,4.7985,3.3053.3508.2083.1259.7172-.1454.5923-.9875-.3821-1.7775-.9272-2.5607-1.4781-1.0845-.7629-2.4903-2.2052-2.0924-2.4195ZM130.8242,189.8993c-.6097.6066-3.0913-2.711-3.2442-3.5127-.071-.3724.0807-.9902.3945-.9823.3697.0092,3.0958,4.25,2.8497,4.4949ZM142.8316,198.9055l-10.5053-.3042c1.3437-3.4604,4.2101-4.8937,5.0237-8.6297.0778-.3576.0411-1.2217.0809-1.2714.0797-.0995,1.836,1.117,2.1018,1.3469,2.8218,2.4416,3.7193,5.1422,3.2989,8.8585ZM142.8277,192.0002s-1.5321-1.7646-2.3458-2.4752-2.6483-1.6318-3.0236-2.2054c-.6554-1.0014-.354-3.1787-.021-4.3155l5.2618,1.7758c.2402,2.4332.6205,4.798.1286,7.2203ZM143.8185,188.36l-.3835-3.4516c.5539.0081,2.1598.1071,2.4096.1239,0,0-1.2113,3.2776-2.0261,3.3278ZM170.4427,199.5059l-16.1178-.0949c-3.2954-.1136-6.5539-.2256-9.6942-.508-.1865-.1712.5405-2.8761.6854-3.3653,1.1811-3.9857,6.8155-10.7539,10.3187-13.0905.5014-.3345,2.7211-1.4364,3.1088-1.1139.1826.1519.5096.898.5906,1.0563.2983.5824.658.4232.7528.3409.2288-.1986-.2578-1.5623.579-1.5172,4.0617.2187,7.4171,2.7661,8.7173,6.5941.6161,1.8141.2785,2.9326.4586,4.6434.2473,2.3481.795,4.6744.6007,7.0553ZM173.0202,198.4759c-.1799.0142-.2367-1.4062-.2557-1.804,0,0-1.1731-13.2356-2.4621-27.0639-1.257-13.4853-2.8199-27.0175-2.8596-27.4247-.0803-.8249.3454-.7946.4165-.0559.0438.4554,1.6785,15.6221,2.803,27.3291.6991,7.2788,1.2782,13.3928,1.2782,13.3928.3411,5.5842,1.5479,15.5897,1.0797,15.6266ZM177.6414,196.8021c-.232.0544-.2694-.6799-.2987-1.045-.5441-6.7745-.9986-11.5471-1.5004-17.71-.6345-7.5491-1.2769-14.1947-1.8002-21.3089l-2.3974-19.357c.4442-.0761.3728.5611.4484.895.2655,1.1727.3606,3.1513.539,4.3435.9766,6.5258,1.4394,10.5301,2.1212,17.3482.7576,8.5605,1.4908,16.1358,2.1212,23.636.3479,4.1385.8728,9.0305.7671,13.1981ZM181.543,195.3013c-.3549.1303-.8049-2.6423-.8049-2.6423-.9038-6.0119-2.0084-11.993-3.0315-17.9824-.0993-.5814.1762-.9636.3277-.4523,0,0,3.8636,20.9467,3.5087,21.077ZM185.5967,198.9188c-.5529-2.3696-1.0909-6.5342-1.3977-8.9466-.4817-3.7889-1.5184-10.6466-1.6666-13.1816-.0494-.8449.4727-.57.5166-.3939.1757.7047,3.2971,23.1065,3.2971,23.1065-.3901.4608-.6773-.2754-.7494-.5843ZM206.1174,193.1648c-6.1767.4598-12.366.4437-18.4644.6331l-1.3037-10.1988,23.745-.2715c-.3125.4924-1.0087,1.6484-1.5951,3.0647-.9137,2.2068-1.7303,4.4818-2.3818,6.7725ZM241.8669,206.8547c-.912,12.3236-15.7089,18.7572-25.3517,10.9511-11.2003-9.0669-5.3633-26.8454,8.7854-27.8158,9.4688-.6494,17.2648,7.4278,16.5664,16.8647ZM236.0171,182.3977c-.1341,0-1.8233-1.0112-2.3937-1.2078-8.4929-2.9265-16.0951-.2319-21.2898,6.9358-.5907.815-2.7422,4.9219-3.0745,5.0285-.2471.0793-1.2431.1031-1.3017.0462-.4625-.4493,2.3586-7.0261,2.9485-8.003,4.1615-6.8932,12.8062-5.5682,19.7215-6.0887,2.1307-.1604,1.2515-1.0395-.3059-1.2194-3.9681-.458-11.4929.0745-15.1576,1.6622-1.3095.5673-2.6264,1.3234-3.6112,2.0052-5.667.0862-14.3978.0551-20.5663.2277-1.027.0287-4.0906.0282-4.9715-.0033-.142-.8523-.2415-1.9602-.4545-2.9119l15.9422-.6741c.6185-.0473,4.2228-.1309,3.4512-1.1966-.7268-1.004-17.1137.2822-19.5273.1669-1.0783-5.7311-1.9145-11.72-2.3811-17.5776,4.784.0652,9.4529.9323,14.1111,1.947,7.265,1.5825,17.2005,4.4339,24.5299,6.7066,1.9674.61,6.4621,2.0477,8.409,2.8409,4.6022,1.875,11.8748,4.0908,12.6744,11.3155h-6.7526ZM248.9006,182.4032c-.617.09-3.4647-.0142-3.4647-.0142,0,0-1.1059-3.3377-1.5719-4.4128-1.4583-3.3643-5.587-5.9279-8.9393-7.3484-3.3916-1.4371-5.748-2.3863-8.7499-3.409-3.8919-1.326-25.9182-8.3521-38.9009-9.9146-1.487-.179-3.2007-.303-4.8263-.4173l-.9009-10.3544c-.3347-9.0973-1.2078-18.1772-.6145-27.3226l.616-7.3397,15.9085,14.5507c6.408,6.1273,12.1569,12.8754,17.8472,19.6676,1.1209,1.338,3.9103,3.9044,4.2947,5.6092.1259.5587.1637,4.5623.0018,4.8327-.0766.1279-.6766.215-.9785.6655-.5886.8786-.905,3.7978.3493,4.1522,1.7684.4997,1.3625-1.4259,1.7377-2.0615.3328-.5638,1.793-.4651,2.1904-2.0111.1339-.5211-.0898-1.2024.2109-1.5863,5.9641,2.941,14.3016,3.2613,19.3635,7.9473.2356.218,1.2058,1.0774.895,1.353-.6112.5422-6.7-2.7331-7.9627-.2974-.9423,1.8177,3.3362,5.994,4.6881,7.0262.9125.6966,2.4165,1.5208,3.4934,1.9087.7666.2761,4.0671.8776,4.2207,1.0314.2784.2787,1.6929,7.6574,1.0924,7.7449ZM241.4233,169.4912c-1.4824-.9664.6519-1.842,1.045-1.4978.2841.2488-.4014,1.6413-1.045,1.4978Z"/>
    <path class="cls-1" d="M87.5601,122.1755c2.8259-4.1893-.9075-9.1349-5.7366-8.1374-1.6548.3419-3.5947,2.6356-3.7951,4.3111-.6513,5.4438,6.7002,8.0242,9.5317,3.8263ZM81.8213,115.4895c.3399.3561-1.6221.7956-1.5909,3.6079.0284,2.5567,2.005,2.8783,1.7897,3.2669-.2152.3887-2.5589-.5396-2.5852-3.2669-.0284-2.9545,2.0465-3.9641,2.3863-3.6079Z"/>
    <path class="cls-1" d="M84.606,160.4919c-1.2021-.1105-5.2261-1.086-16.2865-2.7527-9.0317-1.3609-12.6075-1.1054-14.7715-.8487-.4101.0486-2.296.3589-2.2483.7475.0787.6409,2.7491.1864,4.9334.137,8.7279-.1975,23.2965,3.0547,26.6203,3.2536,3.3239.1989,2.9546-.4261,1.7525-.5367Z"/>
    <path class="cls-1" d="M89.708,165.8926l-12.302-.6002c-.3741.3212-.1502.6149.3499.6427,4.0908.2273,7.1306.3693,11.5011.5464.3846.0156.9954-.1267.451-.5888Z"/>
    <path class="cls-1" d="M185.8974,161.1227c-.1468.0042-.9344.1185-.8208,1.2833.0499.5117.3125,3.1438.4829,4.9431.149,1.5727,2.41,1.2689,2.2964.1042l-.3079-4.7132c-.0756-.9969-.4875-1.6503-1.6506-1.6173Z"/>
    <path class="cls-1" d="M224.9831,199.2751c-2.6173.4469-4.6446,3.0049-4.9474,5.56-.6234,5.2593,5.699,9.2508,10.1106,6.2054,5.6359-3.8905,2.0712-13.0005-5.1632-11.7654ZM224.3156,207.9048c-.5433-.8645-.9669-1.6897-1.067-2.8319-.0887-1.0132-.0754-3.6425,1.2139-3.1675.3584.1215-.2194,1.4207-.2573,2.8032-.0389,1.4204.6536,4.0606.1104,3.1962Z"/>
    <path class="cls-1" d="M203.5297,135.6256c-.6895-.117-1.3939.4338-1.8794.1251-.2785-.1771-1.0853-2.0115-1.6363-2.5835-1.5156-1.5737-4.113-2.0291-6.1595-2.5439-1.6888-.4249-11.0576-2.5243-11.9679-1.9069-.8445.5728-.0445,4.7332-.0171,5.8063.109,4.2735-.0932,8.9164.606,13.1818.3806,2.3219,1.1834,4.4296,3.1216,5.8818,5.1802,3.8814,22.0985,6.3024,28.5255,5.7164,1.3028-.1188,2.2951-.5374,2.5203-1.9815,1.1605-7.4414-3.6696-12.0913-8.0974-17.3795-1.1227-1.3409-3.2247-4.0121-5.0158-4.3161ZM189.9603,142.955c.1371-1.0058,1.9244-3.0495,1.7892-3.1714-.1572-.1419-3.0153,1.6566-3.7708,1.7799-1.0486.1713-1.6755.1834-1.2874-.9886.1318-.3981,6.4058-3.6226,6.9724-3.4748,2.3257.6066-3.3708,5.8781-2.516,6.5811l1.2022.0039c.3352.2697-2.7998,2.279-2.3896-.7301ZM191.4509,150.2837c-.232-.2288-.0694-.7046.3725-.9801.7774-.4847,2.2911-.9551,3.2276-1.1166-.213.7241-3.2127,2.4787-3.6001,2.0967ZM201.0672,149.5485c-.043,1.5091-.3746,2.3846-.3167,4.6367-.3868.0828-.4851-.5591-.5242-.8197-.537-3.5751-.1264-6.9427-.375-10.4316-.1988-2.7883-.995-5.7847-1.7438-8.4639-.0499-.1784-.6357-1.0549.0949-.9862.4355.041,1.1843,1.4697,1.3635,1.9324,1.2259,3.1648,1.6015,10.6246,1.5014,14.1323ZM203.7544,144.8829c.0031.876-.4766.6771-.5523-.4782-.0758-1.1553-.6538-6.9903-.3466-7.3235.1659-.1798.8989.264.8989.4488,0,0-.0031,6.4769,0,7.3529ZM205.5565,149.6834c-.7371-.7366,2.0789-2.3911,2.3981-2.0981.361.3313-1.8721,2.6239-2.3981,2.0981Z"/>
    <path class="cls-1" d="M5.8833,151.8422c-1.6616.5063-1.5625,5.8549-1.4105,7.2993.3993,3.7927,3.0568,4.6166,3.77.4628.2428-1.4143.2573-6.4979-.611-7.5223-.3652-.4308-1.2363-.3959-1.7485-.2398Z"/>
    <path class="cls-1" d="M22.42,182.6979c-.0465-1.6836-.0852-1.7613-2.339-1.7329-1.1192.0141-4.4623-.0234-5.0946.4735-.5303.4167-.5303,3.409-.0249,3.8287.6788.5636,2.9242.3901,3.8979.3379.7427-.0398,2.3439.0143,2.8787-.0758.997-.168.7038-2.0357.6818-2.8314ZM20.8375,183.8988c-.8475.0422-1.5411.0958-2.5071.0958-.071-.6819.788-.5712,1.0841-.6121.3819-.0528,1.7252-.2037,1.8666-.0829.3896.3326.0487.5748-.4436.5993Z"/>
    <path class="cls-1" d="M59.7536,195.9972c1.6789.5096,5.5427.7845,7.3491.7289.3634-.0112,2.4102-.1337,2.4982-.2246.3046-.3146-.4383-.6462-.9138-.6462-1.6667,0-4.2072-.0212-6.1515-.2392-1.1961-.1341-3.6727-.604-3.7383-.3104s.5726.5751.9563.6916Z"/>
    <path class="cls-1" d="M148.731,169.0076c.746-.0767.4054.3356.1232.7427-2.6257,3.7872-7.6395,4.3787-10.6639.7489-1.3445-1.6136-.5331-1.1934.7551-1.15,1.2437.042,1.923.0523,3.3388-.0368.2852-.0179.7587.215.89.2153.122.0003.579-.2333.8123-.2243,1.0752.0413,1.7418.1859,2.72.0459.6955-.0995,1.391-.2766,2.0246-.3417ZM147.8166,169.7111c-1.904.4132-3.9761.6612-5.9282.4818-.6764-.0622-1.6184-.1748-2.2462-.2552-.3978-.0509.1955.5456.3066.6865,1.1843,1.5024,4.5785,1.3203,6.5358.124.7907-.4726,1.3319-1.0372,1.3319-1.0372Z"/>
    <path class="cls-1" d="M145.691,167.0386c.3705.5588-.6605.6865-.9878.7183-1.2927.1256-3.3093.0864-3.4686-1.6383-.201-2.1767.4203-4.7521.1132-6.9466-.2014-1.4393-.7559-1.6931-1.4844-1.8731-1.8603-.4598-4.1804-.1204-6.1481.0451-.3913-.0937-.3646-.5133.0977-.6512,1.2308-.367,5.6032-.4762,6.7232.0294.5379.2428,1.1098.7187,1.3504,1.2806.5077,1.1856.2041,4.4649.176,5.9271-.0119.6183-.1933,1.8552.0853,2.4598.3706.8039,3.2476.2033,3.5431.6489Z"/>
    <path class="cls-1" d="M152.5015,157.1378c-.1426.1113-.9227-.3418-3.6076-.194s-4.0061.8306-4.1953.7029c-.1152-.0778-.1724-.2706-.112-.3763.2855-.5001,1.9163-.9368,4.1705-1.0264s3.7762.2064,3.8475.5976c.0028.0155.0382.1861-.1031.2963Z"/>
    <path class="cls-1" d="M145.8972,159.9454c.0129-.0906.1527-.2034.3082-.1944.2265.0131.458.1137,2.2813.0329s2.9923-.596,2.969-.1345c-.0202.4001-2.2575.7708-2.6353.7977-.4136.0295-3.0298.2461-2.9232-.5017Z"/>
    <path class="cls-1" d="M140.183,159.9548c.1089.0594.0507.3093-.1174.4258-.8481.5877-5.3832.4143-5.3996-.4874-.0081-.4473,1.0979.0761,2.6274.1658s2.7807-.1637,2.8896-.1043Z"/>
    <path class="cls-1" d="M150.0801,169.6621c.0074-.054.0446-.3348.0619-1.0526s-.0803-1.0439-.0867-1.0724.0263-.0256.0423-.0262c.4533-.0182.6238.5481.58,1.1107-.0372.4777-.229.9528-.5333,1.0657-.0307.0114-.0703.0201-.0641-.0252Z"/>
    <path class="cls-1" d="M136.4155,167.6476c.1803.122-.1024,1.8412-.1888,1.8771s-.258-.0427-.3235-.1862c-.2257-.4947-.1458-2.1361.5123-1.6909Z"/>
    <path class="cls-1" d="M139.8916,138.4275c.1469.147-.3299.6014-1.0014,1.0023s-4.007,1.9758-4.0642,1.8909,5.0655-2.8932,5.0655-2.8932Z"/>
    <path class="cls-1" d="M149.2057,140.5576c-.0201.2639-.4516.1242-.7534.0342-.7293-.2175-1.5206-.5299-2.3912-1.2938-.7541-.7814-.8177-1.0067-.7598-1.0368.2351-.1223.3031.2324.9615.8927s1.9808,1.2324,2.9428,1.4037Z"/>
    <path class="cls-1" d="M89.3374,201.0592c-2.9658.5064-5.2628,3.4049-5.606,6.3001-.7064,5.9595,6.4576,10.4822,11.4565,7.0314,6.3861-4.4084,2.347-14.7311-5.8505-13.3315ZM88.5811,210.8376c-.6156-.9795-1.0956-1.9146-1.209-3.2089-.1005-1.1481-.0854-4.1274,1.3755-3.5891.4062.1377-.2486,1.6098-.2915,3.1764-.0441,1.6095.7406,4.6012.125,3.6216Z"/>
  </g>
</svg>