<svg width="399" height="244" viewBox="0 0 399 244" fill="none" xmlns="http://www.w3.org/2000/svg">
<g clip-path="url(#clip0_4051_265)">
<path d="M311.364 182.365C310.691 182.137 309.946 182.419 309.701 182.286C309.468 182.16 308.588 180.246 307.125 179.545C306.17 179.087 298.856 177.285 297.082 177.279C296.831 177.278 296.664 177.47 296.664 177.76C296.664 178.705 296.914 187.864 297.017 191.521C297.03 192.012 297.179 192.934 297.628 193.484C300.177 196.607 313.891 198.665 318.027 198.14C320.446 197.832 320.163 194.779 319.743 192.887C319.336 191.051 313.075 182.946 311.364 182.365ZM303.982 188.746C303.885 188.822 303.499 189.247 303.212 188.99C303.296 188.768 303.913 187.984 304.115 188.156C304.235 188.259 304.092 188.66 303.982 188.746ZM302.23 188.705C301.958 188.929 301.192 189.783 300.806 189.407C301.043 188.752 303.895 185.359 304.463 185.868C304.804 186.172 302.541 188.45 302.23 188.705ZM309.112 194.291C309.062 193.92 307.057 180.793 307.057 180.793C308.196 180.701 308.437 183.212 308.557 184.419C308.557 184.419 309.425 192.36 309.522 193.518C309.618 194.677 309.162 194.662 309.112 194.291ZM311.067 188.462C310.873 187.984 310.099 183.016 310.716 183.039C311.326 183.061 311.415 187.803 311.067 188.462ZM314.019 194.359C313.51 193.74 314.933 191.832 315.551 191.769C315.716 192.978 314.763 193.613 314.019 194.359ZM315.961 193.689C315.904 193.745 315.736 193.993 315.533 193.847C315.461 193.703 315.881 193.187 316.024 193.284C316.109 193.342 316.027 193.626 315.961 193.689Z" fill="white"/>
<path d="M130.658 165.627C130.213 163.984 131.47 161.903 128.348 162.243C126.025 162.497 127.567 163.617 127.542 164.48C127.526 165.018 126.964 165.358 126.887 165.74C126.195 169.158 124.766 172.017 125.638 175.445L116.687 221.511L119.304 166.534L119.356 165.352C119.352 166.473 121.229 172.33 122.948 171.248C124.528 170.254 122.315 164.039 121.403 162.849C121.322 162.743 120.103 161.599 119.198 161.322C118.726 161.177 118.744 160.71 118.409 160.412C118.073 160.114 117.421 160.299 117.151 160.524C116.249 161.274 116.799 163.799 116.679 164.968C116.543 166.29 115.897 168.518 115.968 169.686C116.025 170.618 116.646 171.108 116.701 172.04C117.21 180.678 116.526 190.068 116.204 198.723C115.851 208.223 116.054 220.46 114.055 229.624C113.768 230.94 113.82 230.36 112.324 230.463C111.06 230.549 109.549 231.086 108.299 230.975C107.895 230.939 105.23 229.665 105.142 229.515C104.965 229.213 105.987 223.555 106.065 222.57C106.62 215.501 106.877 208.397 107.488 201.332C108.73 186.986 111.566 171.029 110.56 156.702C110.475 155.493 109.992 149.165 107.272 151.542C106.48 152.234 105.266 156.809 105.06 157.59C100.925 173.252 101.079 198.22 100.652 214.793C100.553 218.666 99.9615 222.555 100.358 226.425C100.424 227.07 100.487 228.266 100.487 228.266C100.487 228.266 99.829 228.222 99.381 228.407C97.7422 229.082 95.8833 231.594 95.3414 231.428C94.6954 231.23 95.0378 225.958 94.9907 224.927C93.9616 202.432 93.8016 174.808 89.9971 152.965C89.7883 151.766 88.4218 145.447 86.4135 145.495C85.9543 145.506 85.584 145.632 84.9416 146.663C83.7388 148.594 84.0058 160.848 84.1219 163.802C84.7775 180.483 87.0194 199.253 88.8522 215.961C89.3116 220.15 89.8697 224.979 90.7842 229.095C90.531 229.143 90.3099 229.248 90.0768 229.353C89.2686 229.715 88.7948 230.061 88.0654 229.884C87.2503 229.686 86.3672 229.188 85.4347 228.867C84.2758 228.47 83.0407 228.346 81.7653 229.414C80.2937 230.647 81.2459 230.958 82.192 230.238C82.7465 229.815 83.677 229.559 84.2535 229.58C85.4822 229.624 86.5953 230.974 88.0271 230.953C89.1682 230.937 90.0782 229.923 91.2638 230.053C93.2431 230.271 93.5224 232.958 95.5762 232.869C97.6333 232.78 97.7762 229.648 100.989 229.779C103.899 229.898 106.347 232.335 108.137 232.558C109.53 232.73 111.073 231.905 112.518 231.921C114.005 231.937 119.474 234.109 119.888 233.568C121.038 232.062 116.282 231.183 116.196 230.81C118.944 216.987 121.999 201.632 124.759 187.814C125.646 183.377 126.08 179.385 127.17 175.23C127.526 173.876 128.335 172.694 128.949 171.467C130.211 178.791 133.589 177.405 132.428 170.466C132.12 168.625 131.075 167.167 130.658 165.627ZM122.343 169.812C122.343 169.812 121.783 168.949 121.397 167.308C121.011 165.666 120.934 164.621 120.934 164.621C121.843 166.073 122.273 168.104 122.343 169.812ZM117.396 166.509C118.193 166.638 117.697 168.199 117.876 168.975C118.054 169.747 118.492 170.121 118.335 170.284C117.61 171.031 116.527 166.447 117.396 166.509ZM108.316 156.589C108.889 157.093 109.26 160.998 108.725 160.969C108.189 160.941 108.097 158.026 107.953 158.011C107.809 157.996 107.333 159.334 107.131 159.421C106.007 159.746 106.765 155.224 108.316 156.589ZM86.1849 150.489C87.8348 150.036 88.4961 155.578 88.1381 155.649C87.78 155.72 86.616 152.074 86.616 152.074C86.2256 151.145 86.5409 154.529 85.6638 154.463C84.8393 154.401 84.9707 150.823 86.1849 150.489ZM91.8396 225.233C90.5207 215.922 89.3582 205.312 88.4845 196.934C87.7229 189.632 85.8369 175.362 85.4533 169.956C85.3309 168.231 85.9672 168.851 86.0205 169.105C86.2405 170.154 92.3842 225.524 92.3842 225.524C92.4761 226.171 91.951 226.02 91.8396 225.233ZM102.092 212.106C102.057 212.662 101.771 212.471 101.805 211.263C102.061 202.242 102.661 192.539 103.321 183.193C103.417 181.828 103.703 178.121 103.853 176.881C103.899 176.499 104.432 176.383 104.416 176.897L102.092 212.106ZM126.61 173.477C125.944 172.977 127.017 170.067 127.721 170.755L126.61 173.477ZM129.898 168.633C131.242 170.278 131.284 173.146 131.308 175.243C129.773 173.51 129.873 170.79 129.898 168.633Z" fill="white"/>
<path d="M324.981 194.016C322.59 191.781 324.74 188.139 322.323 188.494C321.259 188.639 321.332 189.406 321.332 189.406C316.31 183.439 310.775 177.478 305.059 172.168C302.101 169.421 297.004 164.095 293.021 163.917C268.531 162.823 243.72 163.042 219.185 162.985C209.543 162.963 197.718 161.816 188.275 162.724C187.375 162.81 186.005 162.887 185.515 163.74C184.842 164.913 184.309 171.276 184.158 173.005C184.027 174.519 183.865 184.497 183.447 184.923C183.026 185.351 177.673 183.898 175.616 187.119C173.19 190.917 172.608 205.517 176.851 207.929C177.821 208.48 180.559 208.727 180.559 208.727C180.559 208.727 180.58 209.903 180.608 210.286C180.805 212.96 180.959 216.162 181.352 218.769C181.839 221.99 182.099 224.372 185.927 224.813L204.913 225.762V231.074C204.913 237.671 210.668 241.631 216.792 241.478C220.65 241.382 223.712 238.389 223.873 238.059C224.918 239.282 228.036 242.092 229.203 242.649C237.696 246.7 247.161 241.215 247.849 231.903L294.32 230.482C294.138 242.292 311.997 246.326 315.316 234.26L318.128 237.979C324.964 244.56 337.349 240.383 337.888 231.332L338.196 227.179C338.196 226.487 343.897 228.963 344.11 224.936C344.425 218.995 342.84 206.444 339.431 201.509C335.164 195.331 328.56 197.362 324.981 194.016ZM179.853 203.871C177.296 211.601 175.422 204.285 175.194 198.963C175.108 196.954 175.347 186.81 177.937 186.379C179.184 186.172 179.962 189.104 180.176 189.964C181.165 193.941 181.147 199.959 179.853 203.871ZM188.282 166.036H192.646V171.938L187.45 171.908C187.473 170.703 187.462 166.036 188.282 166.036ZM187.314 173.096C187.483 172.758 188.021 172.894 188.795 172.892C189.689 172.891 190.684 172.963 190.678 173.313C190.672 173.571 189.511 173.43 189.161 173.418C188.821 173.406 187.964 173.342 187.819 173.499C187.674 173.655 187.698 175.22 187.698 175.22C187.698 175.22 187.654 177.988 187.642 178.398C187.63 178.809 187.173 178.698 187.145 178.394C187.117 178.089 187.162 176.741 187.193 175.727C187.217 174.942 187.12 173.484 187.314 173.096ZM183.092 218.68C182.589 218.494 182.252 210.011 182.03 208.764L184.155 208.763C184.018 209.212 184.241 210.654 184.743 210.654H189.579V218.68H183.092ZM186.278 220.802C185.553 219.693 190.869 220.61 191.466 220.335C191.021 221.084 186.532 221.19 186.278 220.802ZM199.971 173.012C199.941 183.373 198.997 193.807 198.535 204.153C198.32 208.947 198.572 213.914 198.015 218.622C196.966 218.892 190.499 218.714 190.499 218.714L190.762 210.657L196.019 210.37C196.656 210.15 196.702 209.377 196.831 208.821C198.173 203.043 198.445 187.36 198.552 180.799C198.577 179.306 198.684 173.649 197.942 172.658C197.241 171.724 193.585 171.94 193.585 171.94C193.585 171.94 193.59 171.635 193.59 171.584C193.59 170.658 193.562 166.092 193.562 166.092C193.562 166.092 198.242 165.897 198.977 166.508C200.357 167.659 199.975 171.35 199.971 173.012ZM195.321 199.397C195.334 198.918 195.343 198.274 195.981 198.448C195.981 198.448 195.829 203.987 195.755 205.456C195.7 206.565 194.987 208.05 194.586 208.618C194.297 209.028 193.957 208.925 194.176 208.57C194.472 208.09 195.032 206.687 195.129 205.721C195.405 202.961 195.261 201.707 195.321 199.397ZM194.582 197.515C194.534 198.578 194.489 199.317 194.333 199.329C194.176 199.341 194.139 198.999 194.132 198.789C194.088 197.478 194.055 196.3 194.08 195.986C194.104 195.672 194.624 195.644 194.624 196.03C194.624 196.416 194.628 196.489 194.582 197.515ZM203.996 176.935C203.804 176.933 203.733 176.453 203.733 176.305C203.733 173.626 203.912 170.139 203.733 167.571C203.706 167.183 203.482 166.549 203.185 165.889C203.068 165.628 202.89 165.146 203.028 165.092C203.314 164.98 203.986 165.932 204.132 166.539C204.743 169.066 204.335 173.459 204.293 176.291C204.285 176.83 204.187 176.935 203.996 176.935ZM205.393 208.656C205.371 209.634 205.182 217.949 204.559 217.966C203.531 217.995 204.896 204.886 204.916 204.516C204.935 204.146 205.362 204.234 205.394 204.499C205.521 205.549 205.415 207.712 205.393 208.656ZM289.481 173.593C262.736 172.512 235.926 172.613 209.159 171.938C209.097 170.403 208.899 168.443 209.159 167.099C209.316 166.287 210.053 165.547 210.924 165.56C234.426 165.222 257.976 165.078 281.471 165.792C283.021 165.839 292.778 166.134 293.259 166.979C293.567 176.805 293.794 186.612 294.307 196.434L209.394 196.019L209.158 173.825C215.021 173.677 222.962 173.992 228.808 174.114C245.676 174.466 260.035 174.707 276.905 174.822C279.12 174.837 288.018 175.368 289.47 174.758C290.319 174.402 290.386 173.877 289.481 173.593ZM243.042 239.368C231.697 250.129 215.807 232.836 226.702 222.308C237.923 211.465 254.148 228.833 243.042 239.368ZM294.555 223.992C294.555 225.444 289.87 225.706 288.784 225.771C279.426 226.33 263.001 226.371 253.895 225.02C246.457 223.917 248.143 221.691 242.968 218.487C236.477 214.468 230.989 215.776 225.326 220.341C224.756 220.801 223.172 222.801 222.913 222.883C222.008 223.173 213.939 222.871 212.581 222.692C208.734 222.184 209.328 216.612 209.394 213.721L294.555 214.667V223.992ZM212.459 211.949C212.426 211.562 212.728 211.426 213.054 211.365C214.429 211.11 217.612 211.326 219.196 211.35C223.372 211.414 229.468 211.322 233.647 211.56C234.291 211.596 234.202 212.067 233.691 212.072L212.459 211.949ZM294.556 210.183L209.159 209.71V197.67L294.347 197.721C294.567 201.952 294.73 205.924 294.556 210.183ZM312.57 221.009L296.678 221.277V214.667L315.316 214.551L312.57 221.009ZM327.671 239.899C313.433 241.477 311.707 220.435 324.698 218.982C339.559 217.32 340.786 238.446 327.671 239.899ZM332.889 213.723C332.746 213.723 330.866 212.685 330.304 212.532C324.549 210.963 319.996 213.4 316.635 217.996C316.243 218.531 314.953 221.035 314.953 221.035L313.594 221.059C313.594 221.059 315.374 216.58 315.658 216.074C317.361 213.037 320.749 211.598 324.16 211.598C324.16 211.598 328.204 211.528 329.586 211.598C330.967 211.668 330.738 210.729 329.917 210.741C329.096 210.752 307.771 209.772 296.677 210.183L296.662 197.987C297.081 197.55 304.929 199.192 306.123 199.432C314.807 201.178 323.014 204.257 331.108 207.479C334.293 208.747 337.036 209.841 337.489 213.723L332.889 213.723ZM341.597 213.727C340.371 213.724 339.125 213.724 339.125 213.724C339.125 213.724 338.709 211.991 338.168 210.675C337.144 208.181 334.582 207.455 332.301 206.467C323.907 202.831 314.76 199.615 305.576 197.842C302.854 197.316 299.532 196.611 296.678 196.426L295.973 166.037C303.703 172.807 311.232 179.814 317.793 187.753C319.406 189.703 323.244 193.418 321.867 196.204C321.804 196.332 321.255 196.385 321.099 196.727C320.82 197.34 320.465 199.209 321.367 199.529C322.621 199.972 322.225 198.6 322.511 198.144C322.73 197.794 323.58 197.711 323.825 197.335C324.232 196.711 323.742 195.728 324.391 195.786C328.825 197.907 334.617 197.912 337.96 201.917C326.349 198.626 335.816 208.659 340.923 208.515L341.597 213.727ZM337.687 204.949C337.63 205.004 337.462 205.253 337.259 205.107C337.186 204.962 337.607 204.446 337.75 204.543C337.835 204.601 337.752 204.885 337.687 204.949ZM337.025 204.367C336.928 204.443 336.542 204.868 336.256 204.611C336.34 204.389 336.956 203.605 337.158 203.777C337.279 203.879 337.135 204.281 337.025 204.367Z" fill="white"/>
<path d="M393.347 89.3259C387.576 89.4746 386.924 92.1068 382.62 93.9308C380.875 94.6703 378.983 94.8534 377.192 95.5818C375.2 96.3921 372.285 98.9422 370.291 98.7117C367.776 98.4209 366.426 96.6853 363.173 97.1337C360.894 97.448 355.392 101.42 354.676 101.36C354.233 101.324 350.697 98.5377 349.167 98.1226C346.818 97.4856 344.679 98.2406 342.419 97.3211C340.612 96.5859 338.62 93.4258 337.386 93.1482C335.242 92.6656 333.216 95.9497 330.013 94.6278C328.128 93.85 328.813 85.3674 322.884 83.8203C320.35 83.1591 317.45 84.177 315.369 83.55C313.928 83.1155 312.252 79.6998 309.784 79.2264C304.071 78.1309 305.545 86.5822 303.644 89.7287C303.019 90.7622 302.183 87.6184 302.003 87.0108C300.663 82.4945 300.94 70.5456 292.893 76.8498C289.955 79.1522 290.868 80.3399 289.917 83.3139C289.117 85.8144 286.7 88.134 286.599 90.9737C284.168 87.4229 285.35 78.1955 278.691 80.5788C274.325 82.1414 274.271 90.4312 272.077 90.7455C269.765 91.0765 270.01 84.9571 266.492 85.5946C265.368 85.7983 264.075 87.6076 262.64 86.7425C261.483 86.0442 261.475 82.0417 259.477 81.642C258.795 81.5054 253.722 82.4211 253.008 82.7335C251.601 83.3487 250.337 85.3849 249.673 86.7143C248.689 88.6818 246.276 97.3322 245.313 98.1659C243.442 99.785 242.962 95.4664 240.795 94.9079C236.315 93.7537 231.798 103.932 228.801 106.432C225.69 109.026 224.426 103.031 223.007 100.908C219.707 95.9703 209.856 95.7792 205.139 92.5859C203.628 91.563 202.274 89.15 200.575 87.9456C198.185 86.2501 195.069 86.2281 192.977 84.218C190.263 81.61 188.02 73.5039 182.96 75.43C181.597 75.9491 179.206 79.639 178.913 79.6376C178.505 79.6356 175.077 75.0798 172.527 74.7013C169.556 74.2602 167.234 77.913 163.916 77.1794C162.219 76.8041 158.93 71.9309 156.934 70.4766C154.823 68.9381 153.098 68.7764 150.991 67.6889C148.811 66.5636 146.795 63.8817 144.236 63.8801C139.779 63.8769 135.787 72.3164 133.26 75.2694C131.893 76.868 129.883 78.2046 128.307 79.7547C126.505 81.5262 125.723 83.9732 122.899 84.4941C121.946 84.6696 121.02 84.4645 120.191 84.617C117.61 85.0922 116.442 89.3151 115.928 89.3168C115.841 89.3171 115.134 88.3941 114.643 88.247C113.699 87.9644 112.403 88.1735 111.236 87.8787C108.261 87.1275 103.983 82.1675 100.951 80.4656C97.3722 78.4564 93.1605 78.5919 90.3413 75.5027C88.0359 72.9766 86.0849 66.263 81.3871 68.9198C78.0056 70.8322 78.0583 79.5894 77.1197 80.351C76.4644 80.8826 73.7995 77.1519 72.699 76.8711C67.444 75.5299 66.3604 85.4439 64.345 88.2202C63.522 89.354 61.952 89.3512 60.9821 90.5207C60.4333 91.1826 59.1463 94.6192 58.9454 94.7397C56.4981 96.208 53.0251 83.4257 52.4674 82.2427C50.4116 77.8806 46.5963 78.8401 43.3868 81.4112C42.1604 82.3936 38.0655 87.2573 37.2471 87.5628C36.3667 87.8914 34.8501 85.7803 32.7186 87.4282C29.9817 89.544 26.0703 105.034 24.52 109.037C22.4597 114.357 22.3377 110.353 18.7626 112.01C16.6008 113.012 15.1903 116.49 12.365 116.707C9.34467 116.939 6.97874 112.903 4.24291 112.324C3.36042 112.138 -0.00601024 111.801 8.05913e-06 113.496C0.00220988 114.114 0.225474 114.57 0.401326 114.791C1.00859 115.555 0.82202 115.332 2.09379 116.129C5.51659 118.273 12.0523 121.119 15.8648 119.024C17.2828 118.245 19.5426 115.057 20.2056 114.866C21.8804 114.383 23.2343 116.087 25.1887 113.954C28.4529 110.392 29.3875 94.9881 33.0431 91.3623C34.5254 89.8921 34.6918 91.0583 35.9808 91.1983C37.3496 91.3473 38.3612 90.4809 39.3816 89.6778C40.5296 88.7743 45.5362 83.2469 45.9905 83.0716C50.3641 81.3841 51.0393 88.0919 52.2447 90.965C52.8427 92.3906 53.6231 94.3423 54.4377 95.6164C55.7757 97.709 57.2953 97.8486 57.3124 100.547C57.3444 105.584 54.129 106.597 52.3115 110.171C50.9756 112.799 51.7057 113.41 49.1623 115.755C48.538 116.33 44.6843 118.157 47.2197 119.364C49.447 120.424 52.5628 115.026 53.7612 113.747C53.9353 113.561 56.4834 111.372 56.5973 111.512C56.7819 111.74 55.7634 116.41 55.6619 117.301C55.3343 120.185 55.2515 123.116 54.9169 125.999C54.8147 126.878 52.5926 136.712 54.1229 136.766C55.4193 136.811 57.8873 124.925 58.1747 123.357C59.057 118.543 59.7435 113.2 60.1336 108.32C60.466 104.16 59.366 96.0583 62.8496 93.0968C63.9282 92.1797 65.0871 92.5374 66.1364 91.1923C67.5973 89.3197 69.2806 81.4354 70.9953 80.7051C72.5596 80.0389 73.4896 82.1041 74.5477 82.8096C74.9392 83.0707 76.3696 83.287 76.4329 83.5654C76.5695 84.1684 73.8857 93.66 73.6165 95.6088C72.9518 100.42 72.923 105.195 72.0564 110.1C70.9505 116.36 65.016 134.107 66.6263 139.14C67.219 140.993 68.421 136.842 68.5637 136.35C70.5763 129.41 72.9522 119.825 74.4543 112.736C75.6597 107.047 75.4134 102.542 75.9488 96.9985C76.3935 92.3937 78.4213 87.107 79.7012 82.5762C80.1136 81.1169 81.6042 72.0702 83.5757 72.345C84.1157 72.4205 86.8704 76.9328 87.6193 77.7554C91.0469 81.5195 95.156 82.4488 99.277 84.9747C102.96 87.2321 105.362 90.4325 109.827 91.1786C110.793 91.3401 111.932 91.0524 112.85 91.2224C113.498 91.3425 114.101 92.0679 115.016 92.142C118.058 92.3874 118.471 89.0588 120.598 87.8558C122.239 86.9281 124.084 87.2582 125.83 86.2455C126.396 85.9171 132.7 78.9288 133.265 79.6423C133.376 79.783 132.816 82.4992 132.787 83.057C132.661 85.5379 133.056 88.376 132.734 90.7938C132.272 94.2542 127.148 102.85 128.128 105.679C128.435 106.564 129.626 106.476 130.213 105.909C130.83 105.314 131.638 100.854 132.085 99.5873C134.051 94.0095 135.398 93.606 139.397 98.1776C144.21 103.68 144.089 112.244 147.007 118.419C147.401 119.254 148.588 121.282 148.848 119.432C149.131 117.418 147.441 107.217 146.721 105.013C143.537 95.2685 134.275 94.4734 135.884 81.4341C136.335 77.779 140.788 68.0082 145.184 68.0762C146.529 68.0971 150.791 70.6837 152.119 71.5189C154.81 73.2115 161.785 79.5959 163.92 80.0098C167.392 80.6825 169.116 77.8549 170.868 77.9937C173.882 78.2328 175.942 85.1656 180.903 81.8681C182.963 80.4988 182.665 77.1703 185.511 79.1783C194.057 85.2073 187.772 96.2124 192.199 104.356C193.176 106.153 195.937 110.553 197.141 112.157C197.684 112.881 201.098 116.325 200.138 113.41C199.992 112.966 197.516 108.761 197.059 107.99C195.755 105.793 193.546 103.726 193.007 101.186C192.706 99.7645 192.69 90.5464 193.419 89.9079C193.645 89.7094 195.037 89.5347 195.427 89.5368C199.094 89.556 201.88 94.1349 205.207 95.8235C208.939 97.7181 218.616 99.2099 220.596 102.85C223.296 107.815 221.586 113.397 224.046 118.047C225.51 120.813 228.969 123.285 231.051 125.674C232.951 127.856 239.157 137.481 241.006 138.138C242.594 138.701 241.235 136.562 240.934 136.085C239.597 133.965 236.455 129.956 234.801 127.822C232.005 124.215 226.617 119.43 225.474 115.201C225.188 114.141 224.402 109.524 225.272 108.916C225.436 108.801 226.866 110.46 229.052 109.042C231.737 107.302 235.366 101.08 237.887 98.5254C241.687 94.6746 240.444 100.396 243.899 100.897C241.514 107.145 236.704 112.369 235.968 119.227C235.883 120.015 235.805 120.991 236.105 121.223C236.406 121.454 236.969 120.57 237.363 119.885C238.669 117.62 239.061 114.514 240.085 112.293C240.564 111.256 243.535 106.317 244.141 109.505C244.475 111.266 244.141 115.253 244.141 117.296C244.141 117.71 245.384 117.937 245.739 117.006C246.487 112.615 245.742 107.506 246.556 103.188C247.12 100.196 250.003 92.7729 251.278 89.7354C252.234 87.4548 252.518 85.6604 255.098 84.8233C260.813 82.9688 258.468 88.0296 261.936 89.1004C264.464 89.8808 266.98 87.9926 267.246 88.1519C267.504 88.3059 268.49 91.8405 270.588 92.7174C275.948 94.9586 275.824 86.7933 278.457 84.3565C281.915 81.1558 282.975 88.6161 283.968 90.8955C286.029 95.6263 288.306 100.302 290.321 105.058C290.392 106.244 285.497 112.366 288.381 112.697C290.308 112.919 290.423 109.448 291.317 108.445C291.558 109.863 292.755 110.768 293.324 111.986C293.725 112.846 294.735 117.614 296.15 117.178C297.995 116.609 294.443 109.684 294.205 108.743C293.951 107.739 294.087 106.449 293.744 105.191C293.01 102.489 290.289 98.2564 289.157 95.3807C288.829 94.5459 288.221 93.3989 288.244 92.5167C288.301 90.4184 290.885 87.5902 291.669 85.5388C292.83 82.5026 291.827 79.1654 295.573 77.8797C297.877 77.0884 297.863 77.9946 298.366 80.0275C298.979 82.5069 298.955 85.1613 299.644 87.7192C300.102 89.4195 301.864 92.4241 301.951 93.6926C302.039 94.9789 301.176 101.103 300.962 102.865C300.517 106.515 298.394 114.516 299.159 117.714C299.694 119.952 300.68 117.823 300.926 116.757C302.259 110.994 302.526 103.384 303.698 97.3404C304.642 92.4746 306.971 87.158 308.081 82.2475C309.834 82.2697 310.635 84.044 311.865 84.9325C315.888 87.8394 320.25 85.5385 323.48 87.9457C326.435 90.1485 325.41 94.5087 327.764 96.4058C328.177 96.7382 329.748 97.2568 329.767 97.465C329.81 97.9536 323.338 103.323 322.441 103.821C321.403 104.397 319.006 104.545 318.911 105.505C318.615 108.517 324.602 104.722 324.957 104.669C325.358 104.608 327.496 105.216 327.615 105.408C328.653 107.085 325.978 113.166 326.486 115.863C326.652 116.746 327.118 117.457 327.667 116.37C327.979 115.754 330.099 110.007 330.186 109.447C330.633 106.573 329.623 103.178 330.83 100.412C331.354 99.2101 335.13 95.5838 336.366 96.0415C336.936 96.2531 337.832 98.0206 338.385 98.5249C341.399 101.276 345.632 100.293 349.129 100.993C351.181 101.403 352.785 103.785 354.886 103.731C357.236 103.67 360.092 100.013 362.718 99.9571C364.199 99.9255 366.587 101.665 368.609 101.802C373.024 102.101 375.85 98.8273 379.55 97.4684C381.16 96.8773 382.699 96.8244 384.349 96.1334C386.242 95.3408 387.761 93.6431 389.63 92.9194C392.386 91.8521 396.377 92.6683 398.208 91.5871C401.343 89.7363 394.215 89.3034 393.347 89.3259Z" fill="white"/>
<path d="M200.001 21.6851C203.171 23.1928 210.131 22.9354 210.604 20.7807C211.022 18.8747 208.211 18.6406 206.866 18.12C199.823 15.3921 200.261 7.37421 206.215 4.12808C207.73 3.30229 211.178 3.14419 209.169 1.17891C207.977 0.0119359 204.907 -0.113107 203.337 0.0667434C192.308 1.33099 189.866 16.8637 200.001 21.6851Z" fill="white"/>
<path d="M325.512 126.133C326.284 125.679 326.837 117.547 324.688 119.76C323.534 120.948 324.045 126.998 325.512 126.133Z" fill="white"/>
<path d="M81.4956 84.8389C80.045 85.0006 78.9293 94.5966 81.1895 91.3813C81.7771 90.5455 82.7274 84.7017 81.4956 84.8389Z" fill="white"/>
<path d="M148.509 123.57C147.672 123.899 148.136 127.131 149.378 126.83C150.598 126.535 149.83 123.052 148.509 123.57Z" fill="white"/>
<path d="M299.902 121.917C298.227 121.265 298.499 125.268 298.636 125.439C299.11 126.026 301.195 122.42 299.902 121.917Z" fill="white"/>
<path d="M245.081 143.38C245.399 143.048 243.625 140.745 243.076 140.791C241.576 140.917 244.846 143.626 245.081 143.38Z" fill="white"/>
<path d="M201.677 118.122C202.006 117.725 201.339 115.555 200.252 116.339C199.136 117.145 201.536 118.292 201.677 118.122Z" fill="white"/>
<path d="M288.515 176.504C286.76 176.484 282.535 176.436 281.169 176.436C278.7 176.436 266.274 176.368 265.182 176.424C264.835 176.441 264.491 176.763 264.417 177.063C264.227 177.839 264.447 186.635 264.615 187.612C264.719 188.217 264.929 188.941 265.579 189.15C265.626 189.165 265.678 189.171 265.727 189.171H289.243C289.825 189.143 289.809 188.62 289.824 188.337C289.881 187.284 289.395 178.476 289.354 177.256C289.335 176.681 288.958 176.509 288.515 176.504ZM276.387 182.678C276.32 182.322 282.949 180.182 283.226 180.438C283.366 180.568 283.2 181.052 282.991 181.262C282.398 181.857 276.546 183.515 276.387 182.678ZM284.641 184.211C284.593 184.283 283.18 184.529 282.943 184.544C280.038 184.73 285.649 182.722 284.641 184.211Z" fill="white"/>
<path d="M292.775 200.304C292.791 199.692 291.063 199.137 291.021 200.119C290.991 200.83 291.021 202.988 291.021 203.896C291.021 204.551 292.695 204.686 292.775 203.9C292.871 202.951 292.732 201.93 292.775 200.304Z" fill="white"/>
<path d="M235.06 225.817C228.371 226.183 228.782 236.306 235.457 236.379C242.334 236.455 241.986 225.438 235.06 225.817ZM235.565 235.315C234.42 235.281 231.539 234.377 231.609 231.094C231.678 227.793 234.038 226.977 235.235 226.96C236.433 226.942 236.311 227.533 235.34 227.776C234.363 228.021 232.527 228.523 232.511 231.094C232.494 233.908 234.454 234.291 235.635 234.377C236.815 234.464 236.711 235.35 235.565 235.315Z" fill="white"/>
<path d="M325.389 225.11C320.857 225.957 321.158 233.025 325.863 233.731C332.393 234.712 332.216 223.834 325.389 225.11ZM324.862 226.712C325.433 226.747 324.919 230.551 325.213 231.19C324.068 230.703 323.931 226.654 324.862 226.712Z" fill="white"/>
<path d="M177.715 192.98C176.241 193.41 176.174 200.498 178.13 200.283C179.784 200.101 179.903 192.341 177.715 192.98Z" fill="white"/>
<path d="M188.27 212.372C187.556 212.352 183.737 212.599 183.737 212.599C183.064 212.668 183.255 215.76 183.915 215.729C185.718 215.668 187.244 215.611 188.201 215.586C188.878 215.569 188.877 212.39 188.27 212.372ZM187.705 215.101C187.398 215.105 186.907 215.114 186.328 215.123C186.115 215.128 186.098 214.743 186.314 214.733C186.314 214.733 187.498 214.609 187.728 214.612C187.923 214.615 187.923 215.099 187.705 215.101Z" fill="white"/>
<path d="M300.189 200.321C300.205 199.71 298.477 199.155 298.435 200.137C298.405 200.848 298.435 203.005 298.435 203.914C298.435 204.569 300.109 204.703 300.189 203.917C300.285 202.968 300.146 201.947 300.189 200.321Z" fill="white"/>
</g>
<defs>
<clipPath id="clip0_4051_265">
<rect width="399" height="244" fill="white"/>
</clipPath>
</defs>
</svg>
