<?xml version="1.0" encoding="UTF-8"?>
<svg id="Ebene_1" data-name="Ebene 1" xmlns="http://www.w3.org/2000/svg" viewBox="0 0 191.5178 75.6106">
  <defs>
    <style>
      .cls-1 {
        fill: #fff;
      }
    </style>
  </defs>
  <g>
    <g>
      <path class="cls-1" d="M66.1683,8.1123c-.1815,2.059-1.8168,4.2995-2.7864,6.0571-1.6354,2.8464-3.4522,5.4512-5.4512,8.1161-3.3315,4.5425-6.9659,8.9649-10.3581,13.5688-1.6354,2.2405-3.2707,4.6025-4.7247,7.0259-.4237.6059-.9081,1.4532-1.3932,2.2405-1.0902,2.1205-2.3012,5.1483-.5451,5.9971,2.1205.8473,4.9669-.4244,6.5422-1.8176.8481-.7873,1.5746-1.6346,2.3012-2.6049.8481-1.0902,2.4234.5459,1.5146,1.5761-.4244.6659-2.4834,3.0278-2.6049,3.1493-2.6042,2.6649-7.6317,6.663-11.3876,3.7551-2.059-1.6346-2.5434-4.2395-1.8168-6.723.6666-2.4234,4.361-8.5405,8.6013-14.0532.7873-1.0302-.3637-1.6961-1.3932-1.7561-.7873-.0615-1.6354.06-2.302.1215-4.0581.3629-6.9659,2.059-9.9337,4.481-2.3012,2.3634-4.7247,4.7254-7.0259,7.0873-1.7568,1.7576-3.5744,3.5737-5.452,5.2098-.0607,0-4.2395,4.0581-7.8739,5.6942-1.8176.8473-3.3315.9073-5.5727.8473-1.0902,0-4.4825-1.0302-4.4825-3.2707-.0607-.2429,0-.7873.1215-.9688.4237-.8488,1.2717-1.6961,2.6042-1.6361,2.4227.06,2.7864,2.9678,5.6942,2.059,3.21-1.0902,8.9035-6.2386,9.57-6.783.3029-.3029.6059-.6059.9088-.8488.1815-.1815.3029-.3029.5451-.4244,2.6649-2.6034,5.2698-5.2083,7.8139-7.9347.3629-.5444.6051-1.0902.3629-1.2117-.3629-.3029-1.999.1829-2.4227.3644-.1215,0-.2422.06-.3637.06-1.3324.4844-2.4834,1.0902-3.6944,1.7561-.8481.3644-1.3932,1.0302-2.4834,1.0917-1.2724,0-1.9383-.6673-2.2412-1.8176-.0607-.2429,0-.4244.1207-.5459.7273-2.059,7.9354-3.8151,8.7227-3.9966.7266-.2429,1.5139-.3644,2.1805-.4859,1.5746-.6059,3.21-.6659,4.7854-1.6346,1.5746-.9088,2.9071-2.242,4.2395-3.5137,3.2107-3.5122,6.36-6.9659,9.7522-10.2966,3.6951-3.6351,7.8747-8.5405,12.8415-10.4796,2.4834-.9088,7.4503-1.4532,7.0866,2.5449ZM57.9914,11.0187c-.7273-.06-1.5754.0615-2.2412.4244-1.0902.6059-2.0598,1.3932-3.0285,2.242-.9088.8473-1.8176,1.8161-2.6656,2.7249-.4844.4844-.9081.9088-1.3324,1.3332-.4237.5444-.9688,1.0902-1.3932,1.5746-2.4227,2.7249-4.9669,5.3298-7.3895,8.0561-1.0295,1.1502-1.4539,2.302.7873,2.5434,1.151.1215,2.4227.0615,3.5129-.06.8481-.0615,1.5146-.1215,2.1805-.3029,1.3332-.6659,2.4834-1.6961,3.5744-2.8464,1.0902-1.4546,2.3012-3.0293,3.5129-4.6039,1.0902-1.4546,2.302-2.9078,3.4522-4.4225.4244-.6059.7881-1.2717,1.151-1.8776.7273-1.1502,2.4227-4.1795-.1207-4.7854Z"/>
      <path class="cls-1" d="M88.9427,48.453c-.4844.6059-1.151,1.3317-1.999,2.1805-1.7561,1.999-3.8766,4.0581-6.2993,5.0269l-.2422.1215c-1.151.4244-2.1805.4844-3.0285.1215h-.0607s-.0607,0-.0607-.0615c-1.8168-.7259-2.059-2.8464-1.4532-4.6025.2422-.9702.7266-1.8176,1.3324-2.7864.5451-.8488,1.999-3.2707,2.059-3.7551.0607-.3029,0-1.2117-.8481-1.3332-2.6042-.5459-4.9061,2.362-6.1171,3.9981-1.091,1.2717-2.2412,5.1483-2.3627,5.6327-.4844,1.939-1.7568,3.3922-3.4522,3.2107-1.6961-.2429-1.9383-1.6361-1.6961-2.9078.2422-1.3332,1.0902-2.6649,1.8168-3.7551.7873-1.4546,1.7568-3.0293,1.999-3.5137.1815-.3629.5451-.8473.6659-1.3317.3029-1.4546-1.2717-1.879-2.6649-1.1517-1.2717.5459-2.2412,1.8176-3.15,2.7864-1.5139,1.8176-5.0876,6.723-5.3298,7.2088-.7873,1.1502-1.7568,2.362-3.2707,2.6034-1.091.1829-1.999-.3629-2.0598-1.999,0-1.0902,2.8471-4.0581,3.9981-5.6927.7266-1.0302,3.1493-4.241.7266-4.9069-1.3932-.4244-3.0285,1.2117-4.1795,2.4834-.9088,1.1517-1.8776,2.1805-2.6649,3.1493-1.0302.9702-2.4834-.5444-1.5754-1.6346.7873-1.0302,3.2107-3.9366,4.4217-5.1483,1.3932-1.2732,3.0893-2.6049,4.6039-2.9678,1.3324-.4244,2.5442,0,3.3315,1.6946.1207.1215.1207.2429.1815.4244.4244.5459.6059,1.0902,1.3932,1.0302,1.151,0,2.362-1.2717,3.5737-2.362,1.7568-1.4546,3.6951-2.4234,5.5727-2.1805,1.3324.12,2.0598,2.9678,2.9071,2.9678.9088,0,1.6361-.7873,1.7568-.8488,1.6354-1.2117,3.3315-2.119,5.3305-1.9376,1.8168.1215,2.6649,2.119,2.302,3.7551-.1215.7273-.3029,1.3332-.8481,2.059-.9088,1.3332-1.8783,2.5449-2.7264,3.8766-.6659,1.0902-1.8168,3.4537-.06,3.8766.4237.0615.9081,0,1.3932-.1815.3629-.1815.6659-.3629.9688-.6059.6666-.4844,1.2724-.9688,1.8176-1.4532.9081-.8488,1.6354-1.7576,2.4227-2.7264.9088-1.0902,2.4834.5459,1.5746,1.6361Z"/>
      <path class="cls-1" d="M115.4731,48.453c-.3629.4229-15.3242,14.6576-19.9881,22.0479-.6059,1.1502-1.3332,2.1205-1.6361,2.7264-.9688,1.8161-2.1198,2.6649-4.1788,2.3005-.9088-.1815-1.4539-1.4532-.9088-2.2405.7266-.9088,1.8776-2.5434,3.21-4.6039,3.8166-5.2083,5.9364-9.0249,8.3591-13.6288v-.06c0-.4244-.2422-.4244-.5451-.3629-.5451.3029-1.2117.6659-1.7568.9073-1.7561,1.0302-4.361,1.2117-5.6327-.4229-1.999-2.1205-.3029-5.3912,1.0295-7.4503.6666-1.0902,1.6354-2.0605,2.2412-3.1507.3029-.4844.9688-1.5746.5451-2.119-.9088-1.0902-3.2707,1.3317-5.1483,3.3922-1.0302,1.2102-1.8783,2.362-2.7264,3.2093-.9081,1.0302-2.4227-.4229-1.5139-1.6346.3029-.3644,1.8168-2.4234,3.6344-4.6039,1.999-2.4234,4.7247-5.0883,7.1473-4.7854,1.8168.2429,2.362,1.4546,2.4227,2.6049.1215,1.6961-.8481,3.6951-1.5139,4.7854-.1822.3629-.4244.7273-.7273,1.0902-.5451,1.0302-1.0295,2.1205-1.2717,3.2107-.4244,1.6961.1815,2.9678,1.999,2.5434,2.4227-.6659,5.2698-3.5737,6.2386-4.4225,1.6354-2.119,3.0893-4.361,4.6032-6.6015.6059-.9088,1.151-2.7264,2.302-3.1493.7273-.4859,1.6354.12,1.999.7259.1815.2429.3029.5459.3029.7873.4844,1.3932-.9695,2.9078-2.2412,4.1195-.7873.7873-5.6934,7.3903-7.2081,9.7522-.6666.9088-1.6354,2.5434-2.7256,4.7854,0,.06,0,.12.0607.12.1815.2429.4844.0615.7266-.06.0607-.06.1815-.1215.3029-.2429,4.2403-4.361,10.4788-10.4781,11.0239-11.1439.9088-1.2117,2.4834.4229,1.5746,1.5746Z"/>
    </g>
    <g>
      <path class="cls-1" d="M9.8485,63.696c.5093.0388,1.0317.0768,1.541.0893.1661.0256.3315.038.4968.0637.4332.1017.7646.4332,1.0061.8027.6117.9293.4076,1.7956-.1141,2.662-.1273.191-.3315.3563-.4588.5729-.1017.191.038.4332.1654.7002.2041.2546.4207.5737.5737.8663.1778.3695.2034.9549.1654,1.3624-.1654.9812-.892,1.669-1.8344,1.8088-.4324.0512-.8532,0-1.2863,0-.382,0-.7763.0132-1.159-.0256-.4324-.0124-.8656.0132-1.2988.0512-.3059.0124-2.1271.0124-2.4329.0256-.1141.0124-.229,0-.3439-.0256-.7259-.1398-.5093-.9805-.4324-1.5029.1273-.93-.0388-2.089-.0768-3.0059-.0256-.5729-.0512-1.1459.0124-1.7195.0512-.4968-.0124-1.0822-.1141-1.5666-.0768-.5093.3695-1.0442.8912-1.0954,1.0573-.1273,3.63-.1017,4.6998-.0637ZM7.7982,66.6257c0,.191-.0132.3695,0,.5605.0124.1778.0761.2166.2546.1778.0505-.0124.0893-.0249.1398-.038.3059-.0637.6117-.1149.93-.1017.4332-.0132.8663-.0132,1.2988-.038.319.0249.6878-.0768.93-.3059.2927-.3695.2927-.9681-.1398-1.2483-.2166-.1398-.51-.1785-.7902-.2166-.7383-.0761-1.4773-.0505-2.2032.038-.0637.0132-.1149.0256-.1785.0388-.2671.0505-.2159.3307-.2159.5217,0,.2041-.0388.4076-.0256.6117ZM11.6829,69.6821c-.0132-.0637-.0388-.1273-.0768-.1778-.229-.3315-.7259-.3695-1.0954-.4076-.7895-.0512-1.5922-.2298-2.3181.0249-.1273.0512-.2546.1149-.3183.2422-.038.0637-.0637.1529-.0637.2422,0,.2802.0256.5605.0637.8407.0132.038.0256.0893.0512.1141.0505.0388.1141.0512.1654.0512.8663.0512,1.732.0512,2.5859-.0256.2671-.038.5473-.0761.7383-.2422.191-.1654.3183-.4324.2678-.6622Z"/>
      <path class="cls-1" d="M20.1276,70.3955c-.2166-.0124-.4332-.0256-.649-.0512-.2041-.0249-.3951-.1017-.5737.0637-.1654.1405-.2671.4844-.3439.6754-.1778.4588-.3183.9805-.5985,1.3881-.3944.5737-3.0951.6498-3.63.2422-.191-.1398-.229-.2166-.1398-.4456.1529-.3951.3183-.8027.5093-1.1846.4456-.8407.9937-1.7576,1.5285-2.5471.3563-.51,1.4649-2.5471,1.7451-3.1076.1273-.2678.2415-.5481.3944-.8151.2546-.4712.6878-.8407,1.1722-1.0829.3183-.1654,2.1395-.1017,2.4454.0512.0761.0505.1398.1273.2034.2034.1273.1654.2041.382.2802.5861.3439,1.0442.5349,2.1651.9044,3.2093.1785.4968.3563.9812.5473,1.4524.4207,1.0185,1.159,1.961,1.5285,3.0183.191.5224-1.2863.6366-1.541.6241-.191,0-.3439-.0768-.4588-.2422-.3944-.5349-.6878-1.1078-.8912-1.732,0-.0132-.0132-.0512-.0256-.0637-.1785-.4076-.2034-.3951-.6366-.3571-.5224.0512-1.0829.1149-1.6303.1149h-.1405ZM20.3317,68.8413c.1654.0256.3307.0256.4968.0132.2546-.0256.84-.1017,1.0185-.3183.229-.2802-.3307-1.4268-.611-1.9485-.0512-.1149-.2166-.1149-.2934-.0132-.3051.4456-.8276,1.4773-1.0442,1.8981-.0512.1141,0,.2546.1149.2927.1017.038.2034.0637.3183.0761Z"/>
      <path class="cls-1" d="M26.9808,72.8028c-.1149-.0893-.1785-.2166-.2166-.3439-.1398-.5349-.1273-1.2102.1405-1.7195.1273-.2546.3944-.3951.6746-.3439,1.0954.1654,4.2029.6241,4.6617.1529.2546-.2678.3059-.6878.0256-.9805-.9044-.9044-4.2417-1.3756-5.1073-2.4073-.4207-.5093-.3695-1.732-.1405-2.3305.2298-.5605.7134-.8795,1.2863-1.0705,1.9742-.649,4.6237-.5729,6.6103.0132.0132,0,.038,0,.0637.0124.3183.1017.4968.4076.4968.7515.0132,1.159-1.3881,1.3376-2.28,1.2359-.8532-.0893-1.3624-.5861-2.2156-.319-.1529.0512-.2678.1405-.3315.2934-.1529.5985.1405.7895.4207.9044,1.2351.5217,2.2156.7002,3.4639,1.1334.0637.0256.1273.0505.191.1017.6366.2802,1.0317,1.2988,1.2102,1.8724.1529.5729.2546,1.3881-.2298,1.8337-.611.5737-1.4005.892-2.2156,1.0061-.5481.0637-6.1515.4968-6.5086.2041Z"/>
      <path class="cls-1" d="M39.0181,63.8364c.5224.0124,2.0246.1141,2.7381-.0256.3695-.0893,3.821-.2671,4.2029-.2802.2934-.038.4456.1017.4844.382.0124.1273.038.2678.0124.3951-.038.2546-.0893.5093-.1529.7383-.1398.4712-.3695.6241-.8532.5861-.2927-.0256-.5985-.0761-.8912-.0893-.6629-.0761-1.3251-.1654-1.9873-.229-.1398,0-.2802-.0124-.42-.0124-.3439,0-.5861.1778-.6754.5093-.0637.2034-.1141.4332-.1398.6498-.038.3307.229.7259.6746.6871.2546-.0249.5224-.0637.7646-.0761.5093-.0637,1.0317-.1017,1.541-.1398.038-.0132.0893-.0132.1398-.0132.2934.0256.382.1273.4076.4207.0132.229.0637.4712.0132.7002-.0388.2422-.1661.4076-.4968.4712-.1273.0256-.2927.0124-.4456.0124-.5985-.0637-1.1978-.1141-1.7963-.1654-.1398-.0124-.2802-.0256-.42,0-.3563.0124-.5224.191-.5985.5605-.0768.4076-.0256.7895.1529,1.1715.1778.4332.649.4463,1.0698.4844.5985.0637,1.1846-.0256,1.7956-.0768.4844-.0124.9556-.2034,1.4393-.3051.2041-.0388.5224-.1024.7259-.0388.1785.0768.2166.2802.2546.4463.0893.3051.0637.9037-.1273,1.1839-.3183.4968-1.0822.5985-1.6303.6754-1.1715.229-4.3808.4076-5.553.2802-.7383-.0893-1.1334-.5224-1.3881-1.2995-.1785-.7895-.1405-5.6927-.1149-6.5078.038-1.0193.382-1.0954,1.2739-1.0954Z"/>
      <path class="cls-1" d="M52.7743,63.6323c.7134.0256,1.4268.0637,2.1271.1273.7515.0512,1.3632.319,1.9485.8027.2678.2034.4332.4837.5605.7895.0768.191.1149.382.1273.5861.0256.4332.0132.8663-.1017,1.2863-.0256.1529-.1017.2802-.1785.4076-.4076.6241-.9805,1.0698-1.5666,1.5029-.1398.1017-.2927.191-.3059.3944,0,.0637,0,.1405.0132.2041.0893.3563.3695.7771.7002.9549.2298.1149.4968.1273.739.1405.3944.0256.7895.038,1.1846.0637.2927.0124.5093.2166.611.4968.0512.1529.1017.3183.1273.4712.038.2415-.1785.5854-.42.6746-.1785.0637-.3571.1149-.5481.1405-.3307.0505-.6622.1017-1.0061.0893-.611-.0132-1.1846-.1661-1.6939-.4968-.2927-.191-.5473-.4076-.7639-.6754-.2934-.382-.5605-.7895-.7771-1.2227-.1149-.229-.2927-.4456-.4968-.5854-.191-.128-.5729-.319-.802-.2041-.1024.0637-.1661.1785-.1917.2927-.0505.2554-.0761.3951-.038.6498.0637.5481.1785,1.1334.0637,1.6683-.038.191-.1398.3571-.3307.4332-.51.2166-2.9422.4076-3.3242-.1398-.1405-.2041-.1405-.4712-.1529-.7134-.0256-.2802-.0256-.4844.038-.7515.191-.7134.2927-1.3244.4332-2.0378.1141-.6117.2422-1.2351.2927-1.8593.0512-.6373.0256-1.2483-.0505-1.8724-.0512-.3563-.0512-.7134.0124-1.0829.038-.2415.1785-.4076.42-.4581.1785-.038,1.8981-.0893,2.0766-.0893.2927,0,.5854,0,.8788.0124h.3944ZM52.3923,66.396c.0124.1529.0256.4844.0256.4844,0,.1785,0,.3563.0124.5349.0132.1529.038.3183.0768.4712.038.1529.1273.2546.2927.2546.229.0256.4456.038.6622-.0256.5093-.1529,1.0193-.3051,1.4137-.6746.0637-.0512.1405-.0893.2041-.1405.2034-.191.4076-.4456.4581-.7383.0768-.3695-.2166-.8283-.4961-1.0698-.6117-.51-1.5542-.4207-2.2544-.1661-.0893.0256-.1529.0893-.191.1785-.1149.2927-.2166.5729-.2041.8912Z"/>
      <path class="cls-1" d="M69.9446,70.2301v.1654c0,.3439-.0637.7639-.0637,1.3632-.0768.611-.2422.7639-.8539.8912-.3183.0637-.8788-.038-1.0061-.3951-.038-.1141-.0505-.2415-.0761-.3688-.0893-.3951-.1661-.3059-.4207-.1661-.3944.2298-.6746.5605-1.0822.7515-.6878.3183-3.3754.3183-4.1012.191-.9168-.1654-1.7195-.9929-2.1395-1.8212-.3315-.649-.5349-1.3881-.6117-2.1139-.0761-.6878-.1141-1.4773.0768-2.1395.2415-.8283.7383-1.3632,1.4773-1.86.4837-.3307,1.0317-.5985,1.579-.8151.5861-.2546,3.0827-.3439,3.7317-.3183.4207.0132.8407.038,1.2483.1654.3695.1149.7259.319,1.0193.5737.2546.2415.5217.4456.6234.7895.1785.5729-.2927,1.9866-1.0822,1.3624-.3439-.2671-.5985-.6366-.9424-.9044-.7002-.5217-1.7832-.5349-2.5471-.1778-.7515.3563-1.2483,1.0698-1.4137,1.8724-.1529.7383-.1661,1.6171.2415,2.2668.4332.6746,1.2359.9805,2.0122.9681.6373,0,1.9237-.382,1.8724-1.2102-.0256-.3307-.2422-.2422-.42-.191-.4207.1017-1.0829.3951-1.3888-.0512-.0885-.1141-.1522-.2415-.191-.3688-.0761-.2546-.0885-.5349-.0249-.8027.038-.1785.1778-.2927.3688-.3315.1529-.0249,1.9617.2041,2.9166.0512.1661-.0256.3439-.0637.51-.0256.5729.1405.5985.93.649,1.3888.0256.3183.0388.9293.0388,1.2607Z"/>
      <path class="cls-1" d="M77.3956,70.3955c-.2166-.0124-.4332-.0256-.649-.0512-.2041-.0249-.3951-.1017-.5737.0637-.1654.1405-.2671.4844-.3439.6754-.1778.4588-.3183.9805-.5985,1.3881-.3944.5737-3.0951.6498-3.63.2422-.191-.1398-.229-.2166-.1398-.4456.1529-.3951.3183-.8027.5093-1.1846.4456-.8407.9937-1.7576,1.5285-2.5471.3563-.51,1.4649-2.5471,1.7451-3.1076.1273-.2678.2415-.5481.3944-.8151.2546-.4712.6878-.8407,1.1722-1.0829.3183-.1654,2.1395-.1017,2.4454.0512.0761.0505.1398.1273.2034.2034.1273.1654.2041.382.2802.5861.3439,1.0442.5349,2.1651.9044,3.2093.1785.4968.3563.9812.5473,1.4524.4207,1.0185,1.159,1.961,1.5285,3.0183.191.5224-1.2863.6366-1.541.6241-.191,0-.3439-.0768-.4588-.2422-.3944-.5349-.6878-1.1078-.8912-1.732,0-.0132-.0132-.0512-.0256-.0637-.1785-.4076-.2034-.3951-.6366-.3571-.5224.0512-1.0829.1149-1.6303.1149h-.1405ZM77.5998,68.8413c.1654.0256.3307.0256.4968.0132.2546-.0256.84-.1017,1.0185-.3183.229-.2802-.3307-1.4268-.611-1.9485-.0512-.1149-.2166-.1149-.2934-.0132-.3051.4456-.8276,1.4773-1.0442,1.8981-.0512.1141,0,.2546.1149.2927.1017.038.2034.0637.3183.0761Z"/>
    </g>
  </g>
  <g>
    <path class="cls-1" d="M115.8009,74.1958c-.2413-.3793.2419-2.5688.3764-3.1469,1.5829-6.7991,6.4156-12.7732,13.4173-14.3417,1.1659-.2612,2.3573-.2609,3.4747-.5255,1.1935-.2827,4.5778-2.4698,5.5152-3.3338.2282-.2103.6076-.6722.7533-.9437.2391-.4454.5342-1.8799.3929-2.3459-.1048-.3459-1.3187-1.3937-1.4908-1.9026-.0663.8434-.1074,1.7423-.5206,2.5088-.1597.2964-.6655.636-.8861.3289-.2252-.3135-.0697-1.8927-.1093-2.4127-.0702-.9206-.4057-1.8095-.4848-2.7281-.1745-.0085-.1843.4383-.206.58-.1526.9956-.3528,2.4532-1.4949,2.8691-1.3724.4998-.3385-.964-.2661-1.3561.356-1.9286-1.6914-2.8959-1.7931-4.3388-.1004-1.4238.9754-2.2554,1.1886-3.2974.1857-.9078-.1345-1.8629.1823-2.8481.1785-.555,1.0408-1.4269,1.0581-1.6118.0186-.1979-.1237-.5446-.1283-.8408-.0321-2.063.0369-4.129.0001-6.1926-.03-1.6809-.3954-3.5035-.0842-5.1765.2182-1.1728.599-2.6502.8737-3.8539.8288-3.6321,3.7209-6.3788,7.0138-7.8961.2501-.1152,1.336-.439,1.3882-.4909.0608-.0605.0788-.3569.1599-.5042,1.6822-3.0577,3.9824-3.1577,7.158-3.5344.5081-.0603,1.1575-.4576,1.7529-.5277,1.9336-.2276,4.9397.8937,6.354,2.2267.5335.5028.9805,1.1816,1.5714,1.7015,2.219,1.9526,3.0444,2.3811,4.2653,5.311.7192,1.7259.7102,3.4281,1.3073,5.1173.3782,1.0699,1.0841,2.1191,1.5165,3.211,1.4359,3.6262,1.0106,6.2051,1.4123,9.8611.252,2.294,1.7493,2.9914,1.5667,5.7173-.1342,2.0039-1.524,3.7711-2.1006,5.6574-.3626,1.1863-.4182,2.4822-.8415,3.6436-.5039,1.3826-1.6502,2.6515-2.2969,4.0064-.1813.3798-1.0699,2.516-.8282,2.749.0529.051,1.1803.1183,1.4597.1771,2.1912.4606,4.7949,1.382,6.0321,3.1484,1.2372,1.7663,1.478,2.492,1.478,2.492-.0265-1.2713.0378-2.5508.0063-3.8229-.1183-4.7762-.6359-9.5348-.9738-14.2998-.6238-8.797-.9418-18.0769-2.1979-26.7733-.4757-3.2933-2.6468-12.4692-.7647-15.0983,1.1967-1.6717,2.5759.6887,3.146,1.6861,1.0668,1.8665,1.7103,3.9425,2.3934,5.9706l1.2999,4.335c-.2179-1.7844-.0937-3.5986-.1149-5.3987-.0202-1.7119-.2057-3.32.0104-5.0707.5094-4.1267,2.1617-3.4289,3.7278-.3645,5.2857,10.3431,5.5483,26.1955,6.9388,37.7909,1.2532,10.4502,2.9495,21.0799,3.8632,31.5326.0962,1.1001.3635,3.2894.1851,3.4856s-1.764.0919-2.6634.0836c-3.5556-.0329-7.1184.0737-10.6679.132-2.2772.0374-4.5088-.4205-6.7882-.495-4.2037-.1375-8.5198.3351-12.7381.2526-3.5003-.0685-7.0421-.6288-10.5399-.6101-2.8047.015-5.6645.2324-8.4914.1253-1.296-.0491-2.9098-.1435-4.1431-.1447-.4823-.0005-1.0407.0067-1.5443.0232-5.6633.1864-11.7944.9297-17.2738-.1927-.1892-.0388-.6846-.1113-.8067-.3033ZM178.7859,1.3506c-.269-.2392-.3337.7041-.3472.8015-.4265,3.073-.3085,6.9411-.1344,10.0456.6021,10.7369,2.9459,21.2657,3.5194,31.9977.4881,9.1356.706,18.2759,1.6926,27.3999.1043.9643.3255,1.9201.3807,2.8922l.0217.2048,6.3851.1163c-.09-1.9865-.3507-4.0058-.6228-5.9839-2.3477-17.0654-3.8005-34.6953-6.1196-51.7724-.2324-1.7116-.5375-3.017-.7872-4.7181-.3746-2.5517-2.1053-7.2393-3.2378-9.6113-.0871-.1825-.6919-1.3204-.7504-1.3723ZM181.5768,74.6876c-.0178-1.6778-.2324-3.3578-.3632-5.0323-.2158-2.7632-.58-5.4844-.8488-8.2426-1.6903-17.3454-.685-35.1793-5.759-52.0622-.7696-2.5608-1.6287-5.4388-3.332-7.5158-.0791,1.143-.0775,2.3017-.0002,3.4537.388,5.7801,1.795,11.7626,2.423,17.578,1.6617,15.3873,2.671,31.1154,3.2682,46.5527.0539,1.3938.1724,3.3676.2409,4.837.009.1929.0413.5212.0713.5225.3419.0149,3.6538-.0684,4.2999-.0909ZM164.3618,54.564c.3236-2.409,2.4853-4.3015,3.1586-6.4788.3122-1.0095.3936-2.1483.6899-3.1891.4271-1.5005,1.2776-2.7811,1.7305-4.2092,1.1043-3.4819-1.0934-4.4322-1.3337-7.6397-.2411-3.2183-.2181-5.5593-1.3655-8.6956-.4989-1.3637-1.2956-2.5764-1.6981-3.9992-.7065-2.4974-.5859-3.9329-2.0081-6.356-1.0926-1.8616-1.8247-1.9765-3.2953-3.2505-.5544-.4803-.9543-1.1131-1.4501-1.5803-1.0371-.9773-3.6152-2.1045-5.0334-2.0929-1.7673.0144-4.1443,1.5755-5.2731,2.8826,1.4169.3406,1.7707-.7768,2.7835-1.2761,3.17-1.5631,6.2182.9309,7.3361,3.825.5373,1.3909.4755,2.7497.8748,4.0951.3187,1.0736,1.1558,2.0044,1.5502,3.0561,1.0326,2.7539-.248,5.5515.6972,8.1518.677,1.8624,1.519,2.3111,1.0026,4.5759-.4245,1.8618-1.2171,3.3233-1.0171,5.3783.1067,1.0969.6808,2.2361.8006,3.3211.3422,3.1008-2.1955,6.9076-.7593,9.8506.4195.8596,1.2319,1.6999,1.6407,2.6025,0,0,.8149-2.2378.9702-3.1549s-.3863-1.4473-.4716-2.1927c-.2851-2.4907,2.3379-5.3267,1.4644-7.7681-.2404-.6717-.8288-1.3014-1.0501-1.9804-.6333-1.9427.8034-3.9501,1.2126-5.8118.5838-2.6556-1.0997-4.1143-1.6793-6.5707-.9898-4.1946-.2099-7.3574-2.7716-11.2898-.316-.4851-1.8626-2.273-1.9188-2.5669-.0847-.4437.5087.037.6105.1174,5.127,4.0498,3.4198,10.1758,5.394,15.3344.8596,2.2461,1.6877,2.8131.9933,5.4825-.3209,1.2338-1.1899,2.6633-1.2968,3.9146-.1555,1.8211,1.5697,2.6988,1.5614,4.5928-.0086,1.9667-2.0483,4.6409-1.7763,6.4088.0563.3659.3126.7981.3994,1.1761.4233,1.8429-.4869,2.8977-.7611,4.5809-.0252.1549-.1527.7264.0888.7563ZM149.4532,7.8967c-1.4744.4516-2.9718.372-4.0001,1.6947.5174-.0502.9847-.1685,1.5189-.1236.239.0201.561.2376.6648.1905.337-.153,1.3749-1.4726,1.8164-1.7616ZM150.7867,10.0775s1.2404-.1301,1.8789,0,2.3348,1.0024,2.5987,1.1591c.3514.2087,2.4462,2.2413,2.5519,2.1138.1744-.2103-1.0368-2.232-1.2817-2.5355-1.3718-1.6998-4.0894-2.3406-5.7478-.7374ZM147.3917,10.2002s-.6821-.1268-.9064-.1266-1.274.3664-1.274.3664c0,0,.4607.0454.7864.0002s1.394-.2399,1.394-.2399ZM159.9981,20.9871c.3696-1.42-.7786-2.3247-1.2693-3.5177-.607-1.4757-.2526-2.131-1.5119-3.458-3.6359-3.8316-8.2582-3.8993-13.0971-2.5398-2.5951.7291-5.1458,2.487-6.2861,4.9872-.6302,1.3815-1.0663,3.2722-1.0492,4.7694,1.9609-.8614,4.1991-1.396,6.1549-2.2092,2.5041-1.0412,2.2272-2.4625,3.6051-4.2741.3526-.4635.8276-.839,1.4239-.5761.521.2297,1.661,2.6556,2.1621,3.2926,1.1612,1.4762,3.0728,1.6254,4.75,2.1595.5568.1773,1.0894.5039,1.63.6731,1.1349.3552,2.3419.3972,3.4877.6932ZM148.1805,20.2598c.3124.0895,1.512.1311,1.9498.1749.1784.0178.8491.0453.7769-.1736s-2.6673-.5774-2.9079-.3644c-.0696.0617.0827.3348.1812.363ZM153.1985,20.9609c.0819-.132-.9337-.629-1.0778-.3368s.9959.4688,1.0778.3368ZM154.786,21.3523c-.0257-.0237-.5668-.2812-.6045-.2434-.309.3103.8271.4489.6045.2434ZM148.5873,26.1162c.0535-.2141-1.5546-.3857-2.1008-.4072-1.8988-.0749-6.7178,1.3774-8.1868,2.6104-.4339.3642-1.2687,1.4505-.2364.8545,2.8979-1.6729,5.5497-2.9385,9.0318-2.9791.4299-.005,1.4387.1354,1.4922-.0786ZM146.5187,27.6906c-2.5508.1169-5.5677,1.395-7.492,3.0529-.5224.4501-1.8207,1.7493-2.0042,2.3597-.1591.5293-.0905,2.4442-.0538,3.0959.1061,1.8833.4431,4.2857.7433,6.1662.7452,4.6684,2.0728,6.2821,5.8842,8.9044,2.6874,1.849,4.1687,2.1487,7.3421.9617,7.1359-2.6691,8.2606-6.8079,8.4599-13.9655.0798-2.8642-.0595-5.5889-2.2427-7.7074-1.8104-1.7567-8.1408-2.9823-10.6369-2.8679ZM176.6823,74.6685s-.0736-1.3276-.0811-1.7341c-.2342-12.6972-2.2007-37.9973-2.2542-38.5681s-.5276-.3457-.4995.0892,1.3091,18.8314,1.3091,18.8314c.1839,6.4866.2362,12.9371.7212,19.4011.025.3327.1088,1.8914.1088,1.8914l.6957.0892ZM180.2422,34.0794c-.0531-.3909-.5378-.2403-.5259.0907.0975,2.7007.4916,6.3628.6466,9.0618.4557,7.9349.8452,15.7185,1.5773,23.6361.2365,2.5574.5394,5.1576.8011,7.8095.223.0178.6246.0418.6523.0091.0928-.1095-.3239-2.4564-.3623-2.8488-.8855-9.0643-1.4544-18.167-1.8199-27.2726,0,0-.9162-10.0949-.9693-10.4858ZM135.7555,35.777c-.1085-.0969-.3486.1393-.4296.236-.4072.4863-.46,1.5822-.7814,2.1872.6503-.3928.5978-1.3521.8741-1.9733.0552-.1242.3785-.4126.3369-.4498ZM135.1495,44.6854c.0692.513.0853,1.2743,0,1.8183-.0373.238-.1845.5279-.0015.5446.3325-1.0313.3827-2.2622-.0588-3.2724-.3365-.7701-.9032-.9551-.7919-2.0022.102-.9593,1.148-1.5212,1.2146-2.4826-.4793.6923-1.6073,1.8435-1.5687,2.717.0394.8931,1.0765,1.7156,1.2063,2.6772ZM137.3302,48.8668c.1376-.907.3435-1.7856.2333-2.7163l-.837-2.3736c-.1945.9292.4821,1.7758.5947,2.6158.0929.6931-.0868,1.2712-.1167,1.9241-.0061.1331-.0811.5727.1256.5501ZM162.7873,55.1696c.1771-.1471-1.9316-2.6855-2.4851-3.8777-.5306-1.1431-.8599-2.6921-1.0295-3.9405-.0137-.1006.0362-1.2394-.2417-1.0293-.0689.0521-.6001,1.4972-.5996,1.6201.0035.7966.2514,2.2978.3908,3.1327.3414,2.0456.5528,3.3471,2.7724,3.8947.1744.043,1.1462.2387,1.1928.2ZM143.539,52.3732c-.1833-.0901-.7138,2.2365-.7912,2.5773-.0788.3473-.3986,1.7154-.2705,1.9184.1697.2689,3.6744,1.5907,4.2143,1.7303.9454.2443,2.5873.5228,3.5504.5699,2.7999.1369,5.7074-2.339,7.5091-4.2464.3227-.3417.6594-.6272.9128-1.1526-.4907-1.6303-.7965-3.3184-.8477-5.0233,0,0-.6286.8142-1.4557,1.4421-3.2584,2.4736-7.1911,4.5622-10.7355,3.2038-.3214-.1232-1.9055-.9309-2.086-1.0195ZM161.4538,55.7782c-.571.2492-2.1167-1.1227-2.2393-1.0925-.0918.0226-1.0301,1.1654-1.2741,1.396-1.5091,1.4266-3.3041,2.9987-5.3017,3.6685-.3178.1066-1.3268.2792-1.3964.3255-.0756.0503-.1632.661-.5178,1.518-.3265.789-.8586,1.2706-.9053,1.5191-.1533.8162-.2167,2.2772-.2497,3.1444-.0254.6655.0278,1.3395.0063,2.0046l.8029-1.2815c1.7362-2.4617,3.1925-5.113,5.3766-7.0229,1.0364-.9063,3.2265-2.7648,4.3286-3.4294.4429-.2671,1.0111-.3921,1.37-.7499ZM164.7274,56.3823c-.0414.0431.0273.9238-.552.977-.6269.0575-.6924-.9645-1.0777-.9743-.1724-.0044-1.4244.4103-1.6754.5119-1.3746.5564-2.3012,1.558-3.366,2.4585-1.7154,1.4508-2.3449,2.0069-3.732,3.8988-1.4399,1.964-3.4819,4.5758-4.1759,6.855-.1507.4948-.9177,3.5068-.6958,3.7298.0449.0451,1.038-.017,1.2722.0005,1.1662.0872,2.3512.2923,3.5175.3615,5.9262.352,11.6998-.1629,17.5807-.004.4614.0125,2.7364.1772,2.9505.1861-.2007-1.375-.1168-2.8602-.2292-4.2408-.069-.8476-.1459-2.1362-.2257-2.9798-.1926-2.0362-.0538-3.4449-1.0858-5.285-.7465-1.331-1.5252-3.0615-3.4248-4.0908-1.7718-.96-4.8562-1.6382-5.0807-1.4045ZM147.3387,59.6268c-.0465-.0451-.8672-.2836-1.156-.3776-1.4498-.4722-3.7346-1.4415-3.8806-1.2907-.0534.0552-.2275,1.3269-.2415,1.5173-.0387.5277-.0012,2.7799.3027,3.088.1585.1607,1.2132.5501,1.551.7522,1.7978,1.0756,2.2909,2.0928,3.5643,3.5801.0744.0869.0608.111.2659.325-.1213-1.1943.1991-2.5728.138-3.7519-.0387-.7466-.2958-1.5591-.367-2.2999-.0257-.2677-.1225-1.4899-.1768-1.5426ZM148.4847,63.5348c.9519-.7524,1.8371-1.9162,2.0116-3.1491.0174-.1226.0852-.2205-.0676-.3103-.0998-.0587-2.2118-.3644-2.2988-.2879-.3322.2915.356,3.1602.3548,3.7474ZM147.6356,73.9602c.113-1.4929.174-3.037-.1552-4.5129-.371-1.6631-2.6421-4.3699-4.1278-5.2061-.1423-.0801-.9863-.5346-1.0506-.4634-.0356.0394.0219.7134-.0024.9069-.4244,3.3872-2.0155,3.7187-3.5637,6.1337-.5534.8633-.9096,1.6525-1.6215,2.423-.1545.1672-.3667.4077-.3885.5958,1.437.1286,2.6592.1963,4.0989.2367.287.008.7608.0075,1.0473.012,1.9286.0305,3.8387-.1302,5.7635-.1257Z"/>
    <path class="cls-1" d="M115.9151,27.2667c-.3172.2694-1.3366,1.4087-1.6984.6544-.3794-.791,1.821-2.032,1.9192-2.8922.1329-1.1636-.5707.1368-1.0636.2486-.9716.2204-.7662-.5703-.3586-1.1243.293-.3982,1.3702-1.1819,1.5047-1.4454.0922-.1806.3269-2.7542.2419-2.8709-.0773-.1062-2.0389,1.1626-2.3778,1.1175-.2347.5141-.7516,2.4474-1.2307,2.6566-1.1867.5182-.1258-1.8337-.2147-1.9156-.0548-.0505-.9933.407-1.0881.4951-.4027.3741-.7963,2.742-1.3856,2.8783-.1689.0391-.3015-.0132-.394-.1418-.3575-.4973.4004-1.8656.2449-2.0303-.1146-.1213-1.8752.9536-2.0671.369-.1983-.6039,1.0834-.9902,1.4117-1.2987-.4045-.181-1.4789-.3795-1.4251-.9769.095-1.0543,2.6206.2534,3.2027.1356.1016-.0206.9154-.3475.7361-.5229-.1708-.1671-1.4337-.0557-1.3147-.9229.1409-1.0263,2.4997.2629,3.0102.2555.459-.0067,2.0244-.8854,2.5417-1.145-.0925-.0925-2.0066-1.4186-2.1315-1.4447-.3943-.0826-2.0231.4347-2.603.421-.4338-.0102-.7509-.5064-.3733-.821.4156-.3463,1.5694-.3332,1.6347-.387.188-.155-.7405-.667-.8476-.7434l-2.923.3174c-.2708.0233-.572-.0888-.5935-.3904-.0551-.7713,2.0742-.7517,2.0679-.9858-.0052-.1962-1.9293-1.1667-1.2587-1.7048.3883-.3116,1.5308.7357,1.5876.6669.1642-.1988-.6966-1.616.2102-1.8084.8629-.1831.9344,2.4027,1.3256,2.8413.0493.0552.9401.6498.9773.6059.0573-.0675-.5324-1.3735-.0013-1.697.9135-.5565,1.2115,2.1854,1.3057,2.6337l2.3129,1.5908c.036-.8084.0724-1.8973-.0328-2.669-.0525-.3857-2.4666-2.062-1.5089-2.6465.3508-.2141.7224.2078.9709.4424.1122.1059.6299.7666.7781.597.0339-.0387.0947-.9746.0849-1.0251-.0213-.1105-1.1817-1.4546-1.3764-1.7797-.2168-.3619-.5473-.8391-.0163-1.0769.4888-.2188,1.1414.9062,1.5257,1.1507.0584-2.339,1.1755-2.5845.9855,0,.4445-.2946,1.1448-1.2943,1.7483-.9297.1045.0631.203.2921.1919.4203-.0628.7266-2.0114,1.9338-2.0532,2.1152-.0767.3327-.1027.8832-.1056,1.3443.3098-.3043,1.8504-1.7253,1.865-.6031.0087.6678-1.5978,1.717-1.9537,2.3183l-.1298,2.4367c.5831-.2222,2.0393-.7504,2.4635-1.1957.3037-.3188.7107-3.0828,1.6214-2.4022.565.4223-.2204,1.677-.1525,1.7394.0521.0478,1.0076-.4105,1.0901-.4931.3568-.3569.6646-2.5708,1.3735-2.6776,1.2251-.1844.1825,1.7835.2679,1.8595.09.0802,1.51-.8848,1.645-.05.1264.782-1.1175,1.0171-1.6052,1.3226.4448.1447,2.6545.7795,1.5993,1.2958-.8162.3994-2.556-.7404-3.0629-.6661-.1452.0213-1.1835.4882-1.089.6105.1038.1344,1.9848.281,1.842,1.0246-.1947,1.0136-2.8156-.3647-3.3195-.3572-.1731.0026-2.4665.8589-2.4642.9771.0026.1377,2.466,1.5942,2.6016,1.6181.5343.0941,2.1903-.495,2.6527-.2586.1311.067.2603.339.2747.4813.0698.6898-1.4796.5852-1.476.8318.001.0664.6428.5213.7606.5559.5369.1577,2.1737-.4271,2.8788-.2866.3523.0702.265.4472.243.5595-.1078.5482-1.232.6171-1.6993.6473.3085.5206,1.1343.5392,1.1033,1.255-.0503,1.1633-1.7922-.4706-1.8672-.3818-.0741.0878.5047,1.3044.061,1.8641-.4162.5249-.6844-.2141-.8308-.6038-.2029-.5404-.3296-1.8574-.5344-2.1971-.071-.1178-1.0304-.7759-1.1001-.7016-.0687.0733.6094,1.6008,0,1.9168-.3112.1614-.6123-.2307-.7129-.4948-.1557-.4088-.3464-2.1867-.4827-2.353-.1182-.1442-1.5508-1.1259-1.8242-1.3108-.1161-.0785-.3015-.1929-.4502-.3055-.0482.8441-.1715,2.042-.114,2.9068.0225.338,2.19,2.0679,1.4015,2.6515-.4306.3187-1.4987-1.0963-1.6417-.9352-.038.0428-.0243,1.0086.0017,1.1445.119.6238,2.2677,2.0787,1.4628,2.6699-.6434.4725-1.1806-.8415-1.6825-1.0834.0212.3912-.0015,1.8283-.3266,2.0234-.2383.143-.7671-.0246-.7671-.2206v-1.6936Z"/>
    <path class="cls-1" d="M153.6694,44.2902c.77-.0763.4184.3336.1271.7382-2.7101,3.7646-7.8851,4.3525-11.0068.7444-1.3877-1.604-.5502-1.1863.7794-1.1431,1.2837.0417,1.9848.0519,3.4462-.0366.2943-.0178.7831.2138.9187.2141.1259.0003.5976-.2319.8384-.223,1.1097.0411,1.7978.1847,2.8075.0457.7179-.0989,1.4357-.2749,2.0896-.3397ZM152.7255,44.9896c-1.9652.4108-4.1039.6573-6.1188.4789-.6981-.0618-1.6705-.1738-2.3184-.2536-.4106-.0506.2018.5423.3165.6824,1.2224,1.4934,4.7258,1.3125,6.7459.1232.8161-.4697,1.3748-1.031,1.3748-1.031Z"/>
    <path class="cls-1" d="M150.5316,42.333c.3825.5554-.6817.6824-1.0196.714-1.3343.1249-3.4157.0859-3.5801-1.6285-.2075-2.1636.4338-4.7237.1169-6.9051-.2079-1.4307-.7802-1.683-1.5322-1.8619-1.9201-.457-4.3148-.1197-6.3458.0448-.4039-.0932-.3763-.5103.1009-.6473,1.2704-.3648,5.7834-.4734,6.9394.0292.5552.2414,1.1455.7144,1.3939,1.273.524,1.1785.2106,4.4382.1817,5.8917-.0122.6146-.1995,1.8441.0881,2.4451.3825.7991,3.352.2021,3.657.645Z"/>
    <path class="cls-1" d="M157.5611,32.4913c-.1472.1106-.9524-.3398-3.7235-.1928-2.7712.1469-4.1349.8256-4.3302.6987-.1189-.0773-.1779-.269-.1156-.374.2947-.4971,1.9779-.9312,4.3046-1.0203s3.8976.2051,3.9712.594c.0029.0154.0394.1849-.1064.2945Z"/>
    <path class="cls-1" d="M150.7444,35.2822c.0133-.09.1576-.2022.3181-.1932.2338.013.4727.113,2.3546.0327,1.8819-.0803,3.0885-.5924,3.0645-.1337-.0209.3977-2.3301.7662-2.72.7929-.4269.0293-3.1272.2446-3.0172-.4987Z"/>
    <path class="cls-1" d="M144.8465,35.2915c.1124.0591.0523.3074-.1212.4233-.8753.5842-5.5563.4118-5.5732-.4845-.0084-.4446,1.1332.0757,2.7119.1649s2.8701-.1627,2.9825-.1037Z"/>
    <path class="cls-1" d="M155.0618,44.9408c.0076-.0537.046-.3328.0638-1.0463s-.0829-1.0377-.0895-1.066.0272-.0254.0436-.0261c.4679-.0181.6439.5448.5986,1.1041-.0384.4748-.2363.9471-.5505,1.0593-.0317.0113-.0725.0199-.0661-.025Z"/>
    <path class="cls-1" d="M140.9579,42.9384c.1861.1212-.1057,1.8302-.1949,1.8659s-.2663-.0425-.3339-.1851c-.233-.4917-.1505-2.1234.5288-1.6808Z"/>
    <path class="cls-1" d="M145.4524,14.1995c.1476.1478-.3315.6044-1.0063,1.0072s-4.0268,1.9855-4.0842,1.9002,5.0905-2.9075,5.0905-2.9075Z"/>
    <path class="cls-1" d="M153.8163,16.746c-.0337.2531-.4418.095-.7276-.0081-.6907-.2492-1.4358-.5933-2.2327-1.3765-.6838-.7938-.7328-1.0142-.6753-1.0401.2331-.1049.2793.2404.8775.9122.5982.6718,1.8408,1.295,2.7581,1.5125Z"/>
  </g>
</svg>