<?xml version="1.0" encoding="UTF-8"?>
<svg id="Ebene_1" data-name="Ebene 1" xmlns="http://www.w3.org/2000/svg" viewBox="0 0 154.4784 94.3482">
  <defs>
    <style>
      .cls-1 {
        fill: #fff;
      }
    </style>
  </defs>
  <g>
    <path class="cls-1" d="M88.3101,4.2623c-.2422,2.748-2.4248,5.7393-3.7188,8.084-2.1826,3.7998-4.6074,7.2754-7.2754,10.832-4.4463,6.0635-9.2969,11.9648-13.8242,18.1094-2.1826,2.9902-4.3652,6.1436-6.3057,9.377-.5654.8086-1.2119,1.9404-1.8594,2.9912-1.4551,2.8291-3.0713,6.8711-.7275,8.0029,2.8301,1.1318,6.6289-.5654,8.7314-2.4248,1.1318-1.0508,2.1016-2.1826,3.0713-3.4766,1.1318-1.4551,3.2344.7275,2.0215,2.1025-.5664.8887-3.3145,4.042-3.4766,4.2031-3.4756,3.5576-10.1855,8.8926-15.1982,5.0127-2.748-2.1826-3.3945-5.6592-2.4248-8.9736.8896-3.2334,5.8203-11.3984,11.4795-18.7549,1.0508-1.375-.4854-2.2637-1.8594-2.3447-1.0508-.0811-2.1826.0811-3.0723.1621-5.416.4844-9.2969,2.748-13.2578,5.9814-3.0713,3.1533-6.3057,6.3057-9.377,9.459-2.3447,2.3447-4.7705,4.7695-7.2764,6.9521-.0811,0-5.6582,5.416-10.5088,7.5996-2.4258,1.1309-4.4463,1.2119-7.4375,1.1309-1.4551,0-5.9824-1.374-5.9824-4.3652-.0811-.3232,0-1.0508.1621-1.293.5654-1.1318,1.6973-2.2637,3.4756-2.1826,3.2334.0801,3.7188,3.9609,7.5996,2.748,4.2842-1.4551,11.8828-8.3262,12.7725-9.0537.4043-.4043.8086-.8086,1.2129-1.1318.2422-.2432.4043-.4043.7275-.5664,3.5566-3.4756,7.0332-6.9521,10.4287-10.5898.4844-.7275.8076-1.4551.4844-1.6172-.4844-.4043-2.668.2432-3.2334.4854-.1621,0-.3232.0811-.4854.0811-1.7783.6465-3.3145,1.4551-4.9307,2.3438-1.1318.4854-1.8594,1.375-3.3145,1.4561-1.6982,0-2.5869-.8896-2.9912-2.4258-.0811-.3232,0-.5654.1611-.7275.9707-2.749,10.5908-5.0928,11.6416-5.335.9697-.3242,2.0205-.4854,2.9102-.6475,2.1016-.8086,4.2842-.8887,6.3867-2.1826,2.1016-1.2129,3.8799-2.9912,5.6582-4.6885,4.2852-4.6885,8.4883-9.2969,13.0156-13.7432,4.9316-4.8506,10.5098-11.3984,17.1387-13.9854,3.3145-1.2129,9.9434-1.9404,9.458,3.3955ZM77.397,8.1422c-.9707-.0811-2.1025.0811-2.9912.5664-1.4551.8076-2.749,1.8594-4.042,2.9912-1.2129,1.1309-2.4258,2.4248-3.5576,3.6377l-1.7783,1.7783c-.5654.7275-1.293,1.4551-1.8594,2.1016-3.2334,3.6377-6.6289,7.1143-9.8623,10.752-1.374,1.5361-1.9404,3.0723,1.0508,3.3955,1.5361.1611,3.2334.0811,4.6885-.0811,1.1318-.0811,2.0215-.1611,2.9102-.4043,1.7793-.8887,3.3145-2.2637,4.7705-3.7988,1.4551-1.9404,3.0713-4.043,4.6885-6.1445,1.4551-1.9404,3.0723-3.8799,4.6074-5.9014.5664-.8086,1.0518-1.6973,1.5361-2.5059.9707-1.5361,3.2334-5.5781-.1611-6.3867Z"/>
    <path class="cls-1" d="M118.7056,58.1021c-.6465.8086-1.5361,1.7783-2.668,2.9102-2.3438,2.668-5.1738,5.416-8.4072,6.71l-.3232.1621c-1.5361.5654-2.9102.6465-4.042.1611h-.0811s-.0811,0-.0811-.0811c-2.4248-.9697-2.748-3.7988-1.9395-6.1436.3232-1.2939.9697-2.4258,1.7783-3.7188.7275-1.1318,2.668-4.3652,2.748-5.0117.0811-.4043,0-1.6172-1.1318-1.7793-3.4756-.7275-6.5479,3.1533-8.1641,5.3359-1.4561,1.6973-2.9912,6.8711-3.1533,7.5186-.6465,2.5869-2.3447,4.5264-4.6074,4.2842-2.2637-.3232-2.5869-2.1826-2.2637-3.8809.3232-1.7783,1.4551-3.5566,2.4248-5.0117,1.0508-1.9404,2.3447-4.042,2.668-4.6885.2422-.4854.7275-1.1318.8887-1.7783.4043-1.9404-1.6973-2.5068-3.5566-1.5361-1.6973.7275-2.9912,2.4248-4.2041,3.7188-2.0205,2.4248-6.79,8.9727-7.1133,9.6201-1.0508,1.5352-2.3447,3.1523-4.3652,3.4756-1.4561.2432-2.668-.4844-2.749-2.668,0-1.4551,3.7998-5.416,5.3359-7.5986.9697-1.374,4.2031-5.6592.9697-6.5479-1.8594-.5664-4.042,1.6162-5.5781,3.3145-1.2129,1.5361-2.5059,2.9102-3.5566,4.2031-1.375,1.2939-3.3145-.7275-2.1025-2.1826,1.0508-1.374,4.2852-5.2539,5.9014-6.8711,1.8594-1.6982,4.123-3.4766,6.1445-3.9609,1.7783-.5664,3.3955,0,4.4463,2.2627.1611.1621.1611.3242.2422.5664.5664.7275.8086,1.4551,1.8594,1.374,1.5361,0,3.1523-1.6973,4.7695-3.1523,2.3447-1.9404,4.9316-3.2344,7.4375-2.9102,1.7783.1611,2.749,3.9609,3.8799,3.9609,1.2129,0,2.1836-1.0508,2.3447-1.1318,2.1826-1.6172,4.4463-2.8291,7.1143-2.5869,2.4248.1621,3.5566,2.8291,3.0723,5.0117-.1621.9707-.4043,1.7793-1.1318,2.749-1.2129,1.7783-2.5068,3.3955-3.6387,5.1738-.8887,1.4551-2.4248,4.6084-.0801,5.1738.5654.0811,1.2119,0,1.8594-.2422.4844-.2432.8887-.4854,1.293-.8086.8896-.6465,1.6982-1.2939,2.4258-1.9404,1.2119-1.1318,2.1826-2.3447,3.2334-3.6377,1.2129-1.4551,3.3145.7275,2.1016,2.1826Z"/>
    <path class="cls-1" d="M154.1138,58.1021c-.4844.5654-20.4521,19.5635-26.6768,29.4258-.8086,1.5361-1.7793,2.8301-2.1836,3.6387-1.293,2.4248-2.8291,3.5566-5.5771,3.0713-1.2129-.2422-1.9404-1.9404-1.2129-2.9912.9697-1.2119,2.5059-3.3945,4.2842-6.1436,5.0938-6.9521,7.9229-12.0449,11.1562-18.1895v-.0811c0-.5654-.3232-.5654-.7275-.4844-.7275.4043-1.6172.8887-2.3447,1.2119-2.3438,1.375-5.8203,1.6172-7.5176-.5654-2.668-2.8291-.4043-7.1953,1.374-9.9434.8896-1.4551,2.1826-2.749,2.9912-4.2041.4043-.6465,1.293-2.1016.7275-2.8291-1.2129-1.4551-4.3652,1.7783-6.8711,4.5273-1.375,1.6162-2.5068,3.1523-3.6387,4.2842-1.2119,1.374-3.2334-.5654-2.0205-2.1826.4043-.4854,2.4248-3.2334,4.8506-6.1436,2.668-3.2344,6.3057-6.791,9.5391-6.3867,2.4248.3232,3.1523,1.9404,3.2334,3.4756.1621,2.2637-1.1318,4.9316-2.0205,6.3867-.2432.4854-.5664.9707-.9707,1.4551-.7275,1.375-1.374,2.8301-1.6973,4.2852-.5664,2.2637.2422,3.9609,2.668,3.3945,3.2334-.8887,7.0332-4.7695,8.3262-5.9014,2.1826-2.8291,4.123-5.8203,6.1436-8.8115.8086-1.2119,1.5361-3.6377,3.0723-4.2031.9707-.6475,2.1826.1611,2.668.9697.2422.3232.4043.7275.4043,1.0508.6465,1.8594-1.2939,3.8809-2.9912,5.4971-1.0508,1.0508-7.5986,9.8633-9.6201,13.0156-.8896,1.2129-2.1826,3.3955-3.6377,6.3867,0,.0811,0,.1611.0811.1611.2422.3232.6465.0811.9697-.0801.0811-.0811.2422-.1621.4043-.3242,5.6592-5.8203,13.9854-13.9854,14.7129-14.874,1.2129-1.6172,3.3145.5654,2.1016,2.1016Z"/>
  </g>
  <g>
    <path class="cls-1" d="M13.1446,78.4454c.6797.0518,1.377.1025,2.0566.1191.2217.0342.4424.0508.6631.085.5781.1367,1.0205.5781,1.3428,1.0713.8164,1.2412.5439,2.3965-.1523,3.5527-.1699.2549-.4424.4756-.6123.7646-.1357.2549.0508.5781.2207.9346.2725.3408.5615.7656.7656,1.1562.2373.4932.2715,1.2744.2207,1.8184-.2207,1.3096-1.1904,2.2275-2.4482,2.4141-.5771.0684-1.1387,0-1.7168,0-.5098,0-1.0361.0176-1.5469-.0342-.5771-.0166-1.1553.0176-1.7334.0684-.4082.0166-2.8389.0166-3.2471.0342-.1523.0166-.3057,0-.459-.0342-.9688-.1875-.6797-1.3086-.5771-2.0059.1699-1.2412-.0518-2.7881-.1025-4.0117-.0342-.7646-.0684-1.5293.0166-2.2949.0684-.6631-.0166-1.4443-.1523-2.0908-.1025-.6797.4932-1.3936,1.1895-1.4619,1.4111-.1699,4.8447-.1357,6.2725-.085ZM10.4083,82.3556c0,.2549-.0176.4932,0,.748.0166.2373.1016.2891.3398.2373.0674-.0166.1191-.0332.1865-.0508.4082-.085.8164-.1523,1.2412-.1357.5781-.0166,1.1562-.0166,1.7334-.0508.4258.0342.918-.1025,1.2412-.4082.3906-.4932.3906-1.292-.1865-1.666-.2891-.1865-.6807-.2383-1.0547-.2891-.9854-.1016-1.9717-.0674-2.9404.0508-.085.0176-.1533.0342-.2383.0518-.3564.0674-.2881.4414-.2881.6963,0,.2725-.0518.5439-.0342.8164ZM15.5928,86.4347c-.0176-.085-.0518-.1699-.1025-.2373-.3057-.4424-.9688-.4932-1.4619-.5439-1.0537-.0684-2.125-.3066-3.0938.0332-.1699.0684-.3398.1533-.4248.3232-.0508.085-.085.2041-.085.3232,0,.374.0342.748.085,1.1221.0176.0508.0342.1191.0684.1523.0674.0518.1523.0684.2207.0684,1.1562.0684,2.3115.0684,3.4512-.0342.3564-.0508.7305-.1016.9854-.3232.2549-.2207.4248-.5771.3574-.8838Z"/>
    <path class="cls-1" d="M26.8633,87.3868c-.2891-.0166-.5781-.0342-.8662-.0684-.2725-.0332-.5273-.1357-.7656.085-.2207.1875-.3564.6465-.459.9014-.2373.6123-.4248,1.3086-.7988,1.8525-.5264.7656-4.1309.8672-4.8447.3232-.2549-.1865-.3057-.2891-.1865-.5947.2041-.5273.4248-1.0713.6797-1.5811.5947-1.1221,1.3262-2.3457,2.04-3.3994.4756-.6797,1.9551-3.4004,2.3291-4.1475.1699-.3574.3223-.7314.5264-1.0879.3398-.6289.918-1.1221,1.5645-1.4453.4248-.2207,2.8555-.1357,3.2637.0684.1016.0674.1865.1699.2715.2715.1699.2217.2725.5098.374.7822.459,1.3936.7139,2.8896,1.207,4.2832.2383.6631.4756,1.3096.7305,1.9385.5615,1.3594,1.5469,2.6172,2.04,4.0283.2549.6973-1.7168.8496-2.0566.833-.2549,0-.459-.1025-.6123-.3232-.5264-.7139-.918-1.4785-1.1895-2.3115,0-.0176-.0176-.0684-.0342-.085-.2383-.5439-.2715-.5273-.8496-.4766-.6973.0684-1.4453.1533-2.1758.1533h-.1875ZM27.1358,85.3136c.2207.0332.4414.0332.6631.0166.3398-.0342,1.1211-.1357,1.3594-.4248.3057-.374-.4414-1.9043-.8154-2.6006-.0684-.1533-.2891-.1533-.3916-.0176-.4072.5947-1.1045,1.9717-1.3936,2.5332-.0684.1523,0,.3398.1533.3906.1357.0508.2715.085.4248.1025Z"/>
    <path class="cls-1" d="M36.0098,90.5997c-.1533-.1191-.2383-.2891-.2891-.459-.1865-.7139-.1699-1.6152.1875-2.2949.1699-.3398.5264-.5273.9004-.459,1.4619.2207,5.6094.833,6.2217.2041.3398-.3574.4082-.918.0342-1.3086-1.207-1.207-5.6611-1.8359-6.8164-3.2129-.5615-.6797-.4932-2.3115-.1875-3.1104.3066-.748.9521-1.1729,1.7168-1.4287,2.6348-.8662,6.1709-.7646,8.8223.0176.0176,0,.0508,0,.085.0166.4248.1357.6631.5439.6631,1.0029.0176,1.5469-1.8525,1.7852-3.043,1.6494-1.1387-.1191-1.8184-.7822-2.957-.4258-.2041.0684-.3574.1875-.4424.3916-.2041.7988.1875,1.0537.5615,1.207,1.6484.6963,2.957.9346,4.623,1.5127.085.0342.1699.0674.2549.1357.8496.374,1.377,1.7334,1.6152,2.499.2041.7646.3398,1.8525-.3066,2.4473-.8154.7656-1.8691,1.1904-2.957,1.3428-.7314.085-8.21.6631-8.6865.2725Z"/>
    <path class="cls-1" d="M52.0753,78.6329c.6973.0166,2.7021.1533,3.6543-.0342.4932-.1191,5.0996-.3574,5.6094-.374.3916-.0508.5947.1357.6465.5098.0166.1699.0508.3574.0166.5273-.0508.3398-.1191.6797-.2041.9854-.1865.6289-.4932.833-1.1387.7822-.3906-.0342-.7988-.1016-1.1895-.1191-.8848-.1016-1.7686-.2207-2.6523-.3057-.1865,0-.374-.0166-.5605-.0166-.459,0-.7822.2373-.9014.6797-.085.2715-.1523.5781-.1865.8672-.0508.4414.3057.9688.9004.917.3398-.0332.6973-.085,1.0205-.1016.6797-.085,1.377-.1357,2.0566-.1865.0508-.0176.1191-.0176.1865-.0176.3916.0342.5098.1699.5439.5615.0176.3057.085.6289.0176.9346-.0518.3232-.2217.5439-.6631.6289-.1699.0342-.3906.0166-.5947.0166-.7988-.085-1.5986-.1523-2.3975-.2207-.1865-.0166-.374-.0342-.5605,0-.4756.0166-.6973.2549-.7988.748-.1025.5439-.0342,1.0537.2041,1.5635.2373.5781.8662.5957,1.4277.6465.7988.085,1.5811-.0342,2.3965-.1025.6465-.0166,1.2754-.2715,1.9209-.4072.2725-.0518.6973-.1367.9688-.0518.2383.1025.2891.374.3398.5957.1191.4072.085,1.2061-.1699,1.5801-.4248.6631-1.4443.7988-2.1758.9014-1.5635.3057-5.8467.5439-7.4111.374-.9854-.1191-1.5127-.6973-1.8525-1.7344-.2383-1.0537-.1875-7.5977-.1533-8.6855.0508-1.3604.5098-1.4619,1.7002-1.4619Z"/>
    <path class="cls-1" d="M70.4346,78.3604c.9521.0342,1.9043.085,2.8389.1699,1.0029.0684,1.8193.4258,2.6006,1.0713.3574.2725.5781.6455.748,1.0537.1025.2549.1533.5098.1699.7822.0342.5781.0176,1.1553-.1357,1.7168-.0342.2041-.1357.374-.2383.5439-.5439.833-1.3086,1.4277-2.0908,2.0059-.1865.1357-.3906.2549-.4082.5264,0,.085,0,.1875.0176.2725.1191.4756.4932,1.0371.9346,1.2744.3066.1533.6631.1699.9863.1875.5264.0342,1.0537.0508,1.5811.085.3906.0166.6797.2891.8154.6631.0684.2041.1357.4248.1699.6289.0508.3232-.2383.7812-.5605.9004-.2383.085-.4766.1533-.7314.1875-.4414.0674-.8838.1357-1.3428.1191-.8154-.0176-1.5811-.2217-2.2607-.6631-.3906-.2549-.7305-.5439-1.0195-.9014-.3916-.5098-.748-1.0537-1.0371-1.6318-.1533-.3057-.3906-.5947-.6631-.7812-.2549-.1699-.7646-.4258-1.0703-.2725-.1367.085-.2217.2383-.2559.3906-.0674.3408-.1016.5273-.0508.8672.085.7314.2383,1.5127.085,2.2266-.0508.2549-.1865.4766-.4414.5781-.6807.2891-3.9268.5439-4.4365-.1865-.1875-.2725-.1875-.6289-.2041-.9521-.0342-.374-.0342-.6455.0508-1.0029.2549-.9521.3906-1.7676.5781-2.7197.1523-.8164.3232-1.6484.3906-2.4814.0684-.8506.0342-1.666-.0674-2.499-.0684-.4756-.0684-.9521.0166-1.4453.0508-.3223.2383-.5439.5605-.6113.2383-.0508,2.5332-.1191,2.7715-.1191.3906,0,.7812,0,1.1729.0166h.5264ZM69.9249,82.0499c.0166.2031.0342.6455.0342.6455,0,.2383,0,.4756.0166.7139.0176.2041.0508.4248.1025.6289.0508.2041.1699.3398.3906.3398.3057.0342.5947.0508.8838-.0342.6797-.2041,1.3604-.4072,1.8867-.9004.085-.0684.1875-.1191.2725-.1875.2715-.2549.5439-.5947.6113-.9854.1025-.4932-.2891-1.1055-.6621-1.4277-.8164-.6807-2.0742-.5615-3.0088-.2217-.1191.0342-.2041.1191-.2549.2383-.1533.3906-.2891.7646-.2725,1.1904Z"/>
    <path class="cls-1" d="M93.3506,87.1661v.2207c0,.459-.085,1.0195-.085,1.8193-.1025.8154-.3232,1.0195-1.1396,1.1895-.4248.085-1.1729-.0508-1.3428-.5273-.0508-.1523-.0674-.3223-.1016-.4922-.1191-.5273-.2217-.4082-.5615-.2217-.5264.3066-.9004.748-1.4443,1.0029-.918.4248-4.5049.4248-5.4736.2549-1.2236-.2207-2.2949-1.3252-2.8555-2.4307-.4424-.8662-.7139-1.8525-.8164-2.8213-.1016-.918-.1523-1.9717.1025-2.8555.3223-1.1055.9854-1.8193,1.9717-2.4824.6455-.4414,1.377-.7988,2.1074-1.0879.7822-.3398,4.1143-.459,4.9805-.4248.5615.0176,1.1221.0508,1.666.2207.4932.1533.9688.4258,1.3604.7656.3398.3223.6963.5947.832,1.0537.2383.7646-.3906,2.6514-1.4443,1.8184-.459-.3564-.7988-.8496-1.2578-1.2061-.9346-.6973-2.3799-.7148-3.3994-.2383-1.0029.4756-1.666,1.4277-1.8867,2.499-.2041.9854-.2217,2.1582.3223,3.0254.5781.9004,1.6494,1.3086,2.6855,1.292.8506,0,2.5674-.5098,2.499-1.6152-.0342-.4414-.3232-.3232-.5605-.2549-.5615.1357-1.4453.5273-1.8535-.0684-.1182-.1523-.2031-.3223-.2549-.4922-.1016-.3408-.1182-.7139-.0332-1.0713.0508-.2383.2373-.3906.4922-.4424.2041-.0332,2.6182.2725,3.8926.0684.2217-.0342.459-.085.6807-.0342.7646.1875.7988,1.2412.8662,1.8535.0342.4248.0518,1.2402.0518,1.6826Z"/>
    <path class="cls-1" d="M103.295,87.3868c-.2891-.0166-.5781-.0342-.8662-.0684-.2725-.0332-.5273-.1357-.7656.085-.2207.1875-.3564.6465-.459.9014-.2373.6123-.4248,1.3086-.7988,1.8525-.5264.7656-4.1309.8672-4.8447.3232-.2549-.1865-.3057-.2891-.1865-.5947.2041-.5273.4248-1.0713.6797-1.5811.5947-1.1221,1.3262-2.3457,2.04-3.3994.4756-.6797,1.9551-3.4004,2.3291-4.1475.1699-.3574.3223-.7314.5264-1.0879.3398-.6289.918-1.1221,1.5645-1.4453.4248-.2207,2.8555-.1357,3.2637.0684.1016.0674.1865.1699.2715.2715.1699.2217.2725.5098.374.7822.459,1.3936.7139,2.8896,1.207,4.2832.2383.6631.4756,1.3096.7305,1.9385.5615,1.3594,1.5469,2.6172,2.04,4.0283.2549.6973-1.7168.8496-2.0566.833-.2549,0-.459-.1025-.6123-.3232-.5264-.7139-.918-1.4785-1.1895-2.3115,0-.0176-.0176-.0684-.0342-.085-.2383-.5439-.2715-.5273-.8496-.4766-.6973.0684-1.4453.1533-2.1758.1533h-.1875ZM103.5674,85.3136c.2207.0332.4414.0332.6631.0166.3398-.0342,1.1211-.1357,1.3594-.4248.3057-.374-.4414-1.9043-.8154-2.6006-.0684-.1533-.2891-.1533-.3916-.0176-.4072.5947-1.1045,1.9717-1.3936,2.5332-.0684.1523,0,.3398.1533.3906.1357.0508.2715.085.4248.1025Z"/>
  </g>
</svg>