<?xml version="1.0" encoding="UTF-8"?>
<svg id="Ebene_1" data-name="Ebene 1" xmlns="http://www.w3.org/2000/svg" viewBox="0 0 157.8989 185.283">
  <defs>
    <style>
      .cls-1 {
        fill: #66503a;
      }
    </style>
  </defs>
  <path class="cls-1" d="M82.0593,72.9721c-.7359-2.7127,1.3419-6.1484-3.8165-5.5861-3.8402.4184-1.291,2.2681-1.3329,3.6935-.0261.8873-.9545,1.4491-1.0825,2.0801-1.1437,5.6426-3.5043,10.3626-2.0633,16.0223l-14.7926,76.0527,4.3244-90.7654.0861-1.9502c-.0065,1.8505,3.0951,11.5192,5.9369,9.7325,2.6102-1.641-1.0475-11.9007-2.5536-13.8664-.1339-.1748-2.1495-2.0624-3.6439-2.5206-.7809-.2395-.7505-1.0094-1.3054-1.5018-.555-.492-1.6327-.1861-2.079.1847-1.4899,1.2382-.5805,5.4066-.7795,7.337-.2249,2.1829-1.2919,5.8612-1.1747,7.7894.0936,1.539,1.1202,2.348,1.2109,3.8856.8412,14.2614-.2893,29.7647-.8208,44.0531-.5834,15.6838-.2485,35.8869-3.5516,51.0158-.4743,2.1724-.3882,1.2151-2.8611,1.3843-2.0896.1428-4.5862,1.0287-6.652.8457-.6669-.059-5.072-2.1619-5.2175-2.4098-.2929-.4987,1.3972-9.8397,1.525-11.4655.9173-11.6711,1.3419-23.399,2.3528-35.0632,2.0528-23.6854,6.7387-50.0281,5.0768-73.6816-.1404-1.9971-.9395-12.4429-5.4348-8.5201-1.3091,1.1426-3.3147,8.6966-3.6552,9.985-6.8332,25.8581-6.5791,67.0786-7.2841,94.4407-.1648,6.3946-1.1415,12.8142-.4869,19.2044.109,1.0635.2138,3.0388.2138,3.0388,0,0-1.0874-.073-1.8278.2318-2.7082,1.1156-5.7804,5.2619-6.676,4.9882-1.0675-.3264-.5017-9.0315-.5796-10.7333-1.7008-37.1381-1.9653-82.7428-8.2526-118.8053-.3452-1.9797-2.6034-12.4112-5.9225-12.3324-.7587.0182-1.371.2266-2.4324,1.9287-1.9879,3.1879-1.5464,23.4186-1.3546,28.2949,1.0833,27.5401,4.7883,58.5284,7.8174,86.1124.7594,6.9147,1.6817,14.8883,3.1928,21.6836-.4184.0794-.7837.2522-1.169.4251-1.3357.5987-2.1187,1.1699-3.3242.8771-1.347-.3269-2.8066-1.1495-4.3477-1.6782-1.9152-.6569-3.9563-.8606-6.0641.903-2.432,2.0349-.8582,2.5484.7051,1.359.9165-.6974,2.4541-1.1194,3.4069-1.0855,2.0307.0722,3.8702,2.3022,6.2363,2.2672,1.8859-.0276,3.3896-1.7002,5.349-1.4855,3.271.3583,3.7326,4.7952,7.127,4.6486,3.3996-.1469,3.6356-5.319,8.9451-5.1018,4.809.1968,8.855,4.2202,11.8137,4.5874,2.3009.2853,4.8522-1.0778,7.2389-1.0513,2.4587.027,11.4961,3.6132,12.1796,2.7193,1.9008-2.4856-5.9582-3.9371-6.1008-4.5538,4.5421-22.8204,9.5907-48.1708,14.1523-70.984,1.4647-7.3252,2.1822-13.916,3.9844-20.7748.5876-2.2361,1.9243-4.1877,2.9388-6.2129,2.0867,12.0912,7.6691,9.8025,5.7498-1.6534-.5092-3.0391-2.2347-5.4458-2.9246-7.989ZM68.3186,79.8813s-.9268-1.4246-1.5644-4.1342c-.6376-2.7097-.7653-4.4358-.7653-4.4358,1.5026,2.3965,2.2137,5.7498,2.3297,8.57ZM60.1419,74.4283c1.3184.2128.4986,2.7904.7943,4.0708.2946,1.2757,1.0176,1.8932.7573,2.1614-1.1973,1.2335-2.9865-6.3348-1.5516-6.2322ZM45.1363,58.051c.9473.8327,1.5601,7.2786.6756,7.2317-.8845-.0471-1.0365-4.8586-1.2745-4.884-.2379-.0251-1.0254,2.1848-1.3596,2.3271-1.8576.5378-.6051-6.9282,1.9584-4.6748ZM8.562,47.9809c2.7268-.7478,3.8195,8.4002,3.2278,8.5179-.5916.1177-2.5153-5.9017-2.5153-5.9017-.6453-1.5343-.1243,4.0532-1.5737,3.944-1.3627-.1025-1.1456-6.0098.8612-6.5602ZM17.9072,171.3788c-2.1797-15.3726-4.101-32.8886-5.5448-46.72-1.2584-12.0557-4.3756-35.6143-5.0094-44.5402-.2023-2.8478.8493-1.8229.9373-1.4042.3637,1.7314,10.5168,93.1456,10.5168,93.1456.1517,1.0673-.7156.8184-.8999-.4813ZM34.8499,149.7065c-.0573.9176-.5298.6029-.4732-1.3909.4227-14.8932,1.4149-30.9125,2.5047-46.3424.1592-2.2535.6314-8.3732.8795-10.4202.0765-.6312.956-.8223.931.0251l-3.842,58.1284ZM75.3701,85.9316c-1.101-.8242.6718-5.6299,1.8355-4.4934l-1.8355,4.4934ZM80.8032,77.9349c2.2211,2.7155,2.2905,7.4509,2.3301,10.9122-2.5366-2.8599-2.371-7.3516-2.3301-10.9122Z"/>
  <path class="cls-1" d="M129.261,50.0062c-.8698.7386-3.6651,3.8629-4.6572,1.7945-1.0404-2.169,4.9933-5.5718,5.2626-7.9305.3643-3.1907-1.565.3751-2.9165.6817-2.6641.6044-2.101-1.5637-.9833-3.083.8033-1.0919,3.7573-3.2409,4.1261-3.9633.2528-.4953.8964-7.5523.6634-7.8723-.212-.2912-5.5907,3.188-6.5201,3.0643-.6435,1.4097-2.0609,6.7109-3.3745,7.2845-3.2541,1.4209-.3448-5.028-.5887-5.2528-.1502-.1385-2.7238,1.116-2.9837,1.3575-1.1043,1.0259-2.1834,7.5188-3.7995,7.8925-.4631.1071-.8268-.0362-1.0803-.3889-.9802-1.3637,1.098-5.1156.6714-5.5671-.3142-.3327-5.1418,2.6149-5.6682,1.0119-.5438-1.656,2.9708-2.7153,3.871-3.5611-1.1091-.4964-4.0553-1.0405-3.9078-2.6788.2604-2.891,7.1857.6949,8.7821.3718.2786-.0564,2.5101-.9528,2.0184-1.4338-.4685-.4582-3.9314-.1528-3.605-2.5307.3863-2.8141,6.8545.721,8.254.7007,1.2586-.0183,5.5511-2.4279,6.9695-3.1398-.2535-.2535-5.5024-3.8899-5.8446-3.9616-1.0812-.2265-5.5475,1.1919-7.1375,1.1544-1.1895-.0281-2.059-1.3885-1.0237-2.2513,1.1395-.9495,4.3033-.9136,4.4825-1.0613.5156-.4251-2.0304-1.8291-2.3241-2.0384l-8.015.8702c-.7426.0638-1.5683-.2436-1.6275-1.0706-.1512-2.115,5.6875-2.0611,5.6704-2.7031-.0143-.5379-5.2903-3.1993-3.4516-4.6748,1.0648-.8545,4.1976,2.0172,4.3533,1.8286.4501-.5453-1.9103-4.4311.5763-4.9587,2.366-.502,2.5621,6.5884,3.635,7.791.1351.1514,2.5777,1.7817,2.6797,1.6615.1571-.1852-1.4598-3.7663-.0036-4.6534,2.5049-1.5258,3.3219,5.9926,3.5802,7.2217l6.3422,4.3621c.0988-2.2167.1984-5.2024-.0899-7.3187-.1441-1.0576-6.7635-5.6541-4.1374-7.2568.9618-.587,1.9808.5698,2.6622,1.213.3076.2904,1.7272,2.1021,2.1337,1.6371.0928-.1062.2596-2.6724.2329-2.8109-.0583-.3029-3.2402-3.9887-3.7741-4.8802-.5944-.9925-1.5007-2.3009-.0447-2.9529,1.3402-.6001,3.1299,2.4848,4.1836,3.1553.16-6.4137,3.2234-7.0868,2.7023,0,1.2188-.8077,3.1391-3.5491,4.7939-2.5493.2865.1731.5567.8009.5263,1.1526-.1723,1.9923-5.5153,5.3026-5.63,5.8-.2103.9124-.2817,2.4219-.2895,3.686.8495-.8345,5.074-4.7309,5.1139-1.6538.0237,1.8311-4.3812,4.7081-5.3572,6.3569l-.356,6.6817c1.599-.6092,5.5919-2.0578,6.755-3.2786.8329-.8743,1.9489-8.4532,4.4459-6.5871,1.5493,1.1579-.6044,4.5985-.4181,4.7697.1428.1312,2.7629-1.1257,2.9892-1.352.9783-.9786,1.8223-7.0494,3.7662-7.342,3.3593-.5056.5005,4.8903.7347,5.0988.2469.2198,4.1406-2.4262,4.5106-.1372.3466,2.1443-3.0641,2.789-4.4015,3.6267,1.2198.3968,7.2787,2.1374,4.3854,3.553-2.2381,1.0951-7.0086-2.0302-8.3986-1.8265-.3983.0584-3.2453,1.3386-2.9862,1.6741.2847.3687,5.4426.7704,5.0508,2.8096-.534,2.7794-7.7205-1.0001-9.1023-.9794-.4748.0071-6.7633,2.355-6.7571,2.6793.0071.3774,6.7619,4.3714,7.1337,4.4369,1.4651.258,6.0059-1.3574,7.2739-.7092.3596.1838.7137.9295.7532,1.3198.1914,1.8915-4.0572,1.6048-4.0473,2.2808.0027.1819,1.7625,1.4296,2.0856,1.5244,1.4723.4324,5.9604-1.1712,7.8939-.786.9659.1925.7267,1.2262.6662,1.5341-.2956,1.5033-3.3783,1.6923-4.6595,1.7749.8459,1.4274,3.1103,1.4786,3.0253,3.4412-.138,3.1898-4.9144-1.2903-5.1199-1.047-.2033.2408,1.384,3.5769.1673,5.1115-1.1411,1.4394-1.8767-.587-2.278-1.6556-.5564-1.4817-.9037-5.0931-1.4653-6.0247-.1947-.3229-2.8253-2.1277-3.0165-1.924-.1885.2009,1.6711,4.3896.0002,5.256-.8533.4425-1.6791-.6327-1.9549-1.3568-.427-1.1211-.9499-5.9962-1.3236-6.452-.3242-.3953-4.2524-3.0872-5.002-3.5942-.3182-.2153-.8267-.5291-1.2345-.8377-.1323,2.3146-.4703,5.5992-.3127,7.9707.0616.9267,6.0053,5.6704,3.8431,7.2707-1.1807.8739-4.1097-3.0061-4.5015-2.5644-.1041.1174-.0666,2.7656.0045,3.1383.3264,1.7104,6.2183,5.7001,4.0112,7.321-1.7642,1.2957-3.2373-2.3076-4.6136-2.9706.058,1.0727-.0041,5.0133-.8956,5.5483-.6535.3922-2.1034-.0674-2.1034-.6049v-4.6438Z"/>
</svg>